G04 #@! TF.GenerationSoftware,KiCad,Pcbnew,5.1.9-73d0e3b20d~88~ubuntu20.04.1*
G04 #@! TF.CreationDate,2021-03-18T21:34:13+01:00*
G04 #@! TF.ProjectId,de10-shield,64653130-2d73-4686-9965-6c642e6b6963,rev?*
G04 #@! TF.SameCoordinates,Original*
G04 #@! TF.FileFunction,Copper,L1,Top*
G04 #@! TF.FilePolarity,Positive*
%FSLAX46Y46*%
G04 Gerber Fmt 4.6, Leading zero omitted, Abs format (unit mm)*
G04 Created by KiCad (PCBNEW 5.1.9-73d0e3b20d~88~ubuntu20.04.1) date 2021-03-18 21:34:13*
%MOMM*%
%LPD*%
G01*
G04 APERTURE LIST*
G04 #@! TA.AperFunction,ComponentPad*
%ADD10O,1.700000X1.700000*%
G04 #@! TD*
G04 #@! TA.AperFunction,ComponentPad*
%ADD11R,1.700000X1.700000*%
G04 #@! TD*
G04 #@! TA.AperFunction,SMDPad,CuDef*
%ADD12R,4.700000X1.180000*%
G04 #@! TD*
G04 #@! TA.AperFunction,SMDPad,CuDef*
%ADD13C,1.000000*%
G04 #@! TD*
G04 #@! TA.AperFunction,SMDPad,CuDef*
%ADD14O,0.750000X0.300000*%
G04 #@! TD*
G04 #@! TA.AperFunction,SMDPad,CuDef*
%ADD15O,0.300000X0.750000*%
G04 #@! TD*
G04 #@! TA.AperFunction,SMDPad,CuDef*
%ADD16R,0.900000X0.900000*%
G04 #@! TD*
G04 #@! TA.AperFunction,ComponentPad*
%ADD17C,1.524000*%
G04 #@! TD*
G04 #@! TA.AperFunction,ComponentPad*
%ADD18C,5.600000*%
G04 #@! TD*
G04 #@! TA.AperFunction,ViaPad*
%ADD19C,0.500000*%
G04 #@! TD*
G04 #@! TA.AperFunction,ViaPad*
%ADD20C,0.800000*%
G04 #@! TD*
G04 #@! TA.AperFunction,Conductor*
%ADD21C,0.500000*%
G04 #@! TD*
G04 #@! TA.AperFunction,Conductor*
%ADD22C,0.250000*%
G04 #@! TD*
G04 #@! TA.AperFunction,Conductor*
%ADD23C,0.400000*%
G04 #@! TD*
G04 #@! TA.AperFunction,Conductor*
%ADD24C,0.254000*%
G04 #@! TD*
G04 #@! TA.AperFunction,Conductor*
%ADD25C,0.100000*%
G04 #@! TD*
G04 APERTURE END LIST*
D10*
X152540000Y-107050000D03*
X150000000Y-107050000D03*
X152540000Y-104510000D03*
X150000000Y-104510000D03*
X152540000Y-101970000D03*
X150000000Y-101970000D03*
X152540000Y-99430000D03*
X150000000Y-99430000D03*
X152540000Y-96890000D03*
X150000000Y-96890000D03*
X152540000Y-94350000D03*
X150000000Y-94350000D03*
X152540000Y-91810000D03*
X150000000Y-91810000D03*
X152540000Y-89270000D03*
X150000000Y-89270000D03*
X152540000Y-86730000D03*
X150000000Y-86730000D03*
X152540000Y-84190000D03*
X150000000Y-84190000D03*
X152540000Y-81650000D03*
X150000000Y-81650000D03*
X152540000Y-79110000D03*
X150000000Y-79110000D03*
X152540000Y-76570000D03*
X150000000Y-76570000D03*
X152540000Y-74030000D03*
X150000000Y-74030000D03*
X152540000Y-71490000D03*
X150000000Y-71490000D03*
X152540000Y-68950000D03*
X150000000Y-68950000D03*
X152540000Y-66410000D03*
X150000000Y-66410000D03*
X152540000Y-63870000D03*
X150000000Y-63870000D03*
X152540000Y-61330000D03*
X150000000Y-61330000D03*
X152540000Y-58790000D03*
D11*
X150000000Y-58790000D03*
X94700000Y-107050000D03*
D10*
X92160000Y-107050000D03*
X94700000Y-104510000D03*
X92160000Y-104510000D03*
X94700000Y-101970000D03*
X92160000Y-101970000D03*
X94700000Y-99430000D03*
X92160000Y-99430000D03*
X94700000Y-96890000D03*
X92160000Y-96890000D03*
X94700000Y-94350000D03*
X92160000Y-94350000D03*
X94700000Y-91810000D03*
X92160000Y-91810000D03*
X94700000Y-89270000D03*
X92160000Y-89270000D03*
X94700000Y-86730000D03*
X92160000Y-86730000D03*
X94700000Y-84190000D03*
X92160000Y-84190000D03*
X94700000Y-81650000D03*
X92160000Y-81650000D03*
X94700000Y-79110000D03*
X92160000Y-79110000D03*
X94700000Y-76570000D03*
X92160000Y-76570000D03*
X94700000Y-74030000D03*
X92160000Y-74030000D03*
X94700000Y-71490000D03*
X92160000Y-71490000D03*
X94700000Y-68950000D03*
X92160000Y-68950000D03*
X94700000Y-66410000D03*
X92160000Y-66410000D03*
X94700000Y-63870000D03*
X92160000Y-63870000D03*
X94700000Y-61330000D03*
X92160000Y-61330000D03*
X94700000Y-58790000D03*
X92160000Y-58790000D03*
G04 #@! TA.AperFunction,SMDPad,CuDef*
G36*
G01*
X152243750Y-108575000D02*
X153156250Y-108575000D01*
G75*
G02*
X153400000Y-108818750I0J-243750D01*
G01*
X153400000Y-109306250D01*
G75*
G02*
X153156250Y-109550000I-243750J0D01*
G01*
X152243750Y-109550000D01*
G75*
G02*
X152000000Y-109306250I0J243750D01*
G01*
X152000000Y-108818750D01*
G75*
G02*
X152243750Y-108575000I243750J0D01*
G01*
G37*
G04 #@! TD.AperFunction*
G04 #@! TA.AperFunction,SMDPad,CuDef*
G36*
G01*
X152243750Y-110450000D02*
X153156250Y-110450000D01*
G75*
G02*
X153400000Y-110693750I0J-243750D01*
G01*
X153400000Y-111181250D01*
G75*
G02*
X153156250Y-111425000I-243750J0D01*
G01*
X152243750Y-111425000D01*
G75*
G02*
X152000000Y-111181250I0J243750D01*
G01*
X152000000Y-110693750D01*
G75*
G02*
X152243750Y-110450000I243750J0D01*
G01*
G37*
G04 #@! TD.AperFunction*
D12*
X147400000Y-110245000D03*
X147400000Y-113555000D03*
D13*
X156700000Y-109900000D03*
D11*
X107500000Y-96520000D03*
D10*
X107500000Y-99060000D03*
X107500000Y-101600000D03*
X107500000Y-104140000D03*
X107500000Y-125730000D03*
X107500000Y-123190000D03*
X107500000Y-120650000D03*
D11*
X107500000Y-118110000D03*
X126500000Y-96520000D03*
D10*
X126500000Y-99060000D03*
X126500000Y-101600000D03*
X126500000Y-104140000D03*
X126500000Y-125730000D03*
X126500000Y-123190000D03*
X126500000Y-120650000D03*
D11*
X126500000Y-118110000D03*
D10*
X88900000Y-53340000D03*
D11*
X88900000Y-50800000D03*
X93980000Y-50800000D03*
D10*
X93980000Y-53340000D03*
X99060000Y-53340000D03*
D11*
X99060000Y-50800000D03*
X104140000Y-50800000D03*
D10*
X104140000Y-53340000D03*
D11*
X109220000Y-50800000D03*
D10*
X109220000Y-53340000D03*
X114300000Y-53340000D03*
D11*
X114300000Y-50800000D03*
X119380000Y-50800000D03*
D10*
X119380000Y-53340000D03*
X124460000Y-53340000D03*
D11*
X124460000Y-50800000D03*
X156250000Y-58800000D03*
D10*
X156250000Y-61340000D03*
X156250000Y-63880000D03*
X156250000Y-66420000D03*
X156250000Y-68960000D03*
X156250000Y-71500000D03*
X156250000Y-74040000D03*
X156250000Y-76580000D03*
X156250000Y-79120000D03*
X156250000Y-81660000D03*
X156250000Y-84200000D03*
X156250000Y-86740000D03*
X156250000Y-89280000D03*
X156250000Y-91820000D03*
X156250000Y-94360000D03*
X156250000Y-96900000D03*
X156250000Y-99440000D03*
X156250000Y-101980000D03*
X156250000Y-104520000D03*
X156250000Y-107060000D03*
D11*
X140890000Y-54610000D03*
D10*
X143430000Y-54610000D03*
X145970000Y-54610000D03*
X148510000Y-54610000D03*
X151050000Y-54610000D03*
X153590000Y-54610000D03*
X156130000Y-54610000D03*
X135890000Y-49530000D03*
X133350000Y-49530000D03*
D11*
X130810000Y-49530000D03*
X130810000Y-54610000D03*
D10*
X133350000Y-54610000D03*
X135890000Y-54610000D03*
D14*
X153975000Y-114750000D03*
X153975000Y-114250000D03*
X153975000Y-113750000D03*
X153975000Y-113250000D03*
D15*
X153250000Y-112525000D03*
X152750000Y-112525000D03*
X152250000Y-112525000D03*
X151750000Y-112525000D03*
D14*
X151025000Y-113250000D03*
X151025000Y-113750000D03*
X151025000Y-114250000D03*
X151025000Y-114750000D03*
D15*
X151750000Y-115475000D03*
X152250000Y-115475000D03*
X152750000Y-115475000D03*
X153250000Y-115475000D03*
D16*
X152050000Y-113550000D03*
X152050000Y-114450000D03*
X152950000Y-113550000D03*
X152950000Y-114450000D03*
D17*
X110650000Y-91440000D03*
X110650000Y-93980000D03*
X110650000Y-96520000D03*
X110650000Y-99060000D03*
X110650000Y-101600000D03*
X110650000Y-104140000D03*
X110650000Y-106680000D03*
X110650000Y-109220000D03*
X123350000Y-109220000D03*
X123350000Y-106680000D03*
X123350000Y-104140000D03*
X123350000Y-101600000D03*
X123350000Y-99060000D03*
X123350000Y-96520000D03*
X123350000Y-93980000D03*
X123350000Y-91440000D03*
X110650000Y-113030000D03*
X110650000Y-115570000D03*
X110650000Y-118110000D03*
X110650000Y-120650000D03*
X110650000Y-123190000D03*
X110650000Y-125730000D03*
X110650000Y-128270000D03*
X110650000Y-130810000D03*
X123350000Y-130810000D03*
X123350000Y-128270000D03*
X123350000Y-125730000D03*
X123350000Y-123190000D03*
X123350000Y-120650000D03*
X123350000Y-118110000D03*
X123350000Y-115570000D03*
X123350000Y-113030000D03*
X142450000Y-91440000D03*
X142450000Y-93980000D03*
X142450000Y-96520000D03*
X142450000Y-99060000D03*
X142450000Y-101600000D03*
X142450000Y-104140000D03*
X142450000Y-106680000D03*
X142450000Y-109220000D03*
X129750000Y-109220000D03*
X129750000Y-106680000D03*
X129750000Y-104140000D03*
X129750000Y-101600000D03*
X129750000Y-99060000D03*
X129750000Y-96520000D03*
X129750000Y-93980000D03*
X129750000Y-91440000D03*
X142450000Y-113030000D03*
X142450000Y-115570000D03*
X142450000Y-118110000D03*
X142450000Y-120650000D03*
X142450000Y-123190000D03*
X142450000Y-125730000D03*
X142450000Y-128270000D03*
X142450000Y-130810000D03*
X129750000Y-130810000D03*
X129750000Y-128270000D03*
X129750000Y-125730000D03*
X129750000Y-123190000D03*
X129750000Y-120650000D03*
X129750000Y-118110000D03*
X129750000Y-115570000D03*
X129750000Y-113030000D03*
D18*
X149000000Y-128000000D03*
X155100000Y-123000000D03*
D10*
X143510000Y-49530000D03*
D11*
X146050000Y-49530000D03*
X156210000Y-49530000D03*
D10*
X153670000Y-49530000D03*
D11*
X88000000Y-58000000D03*
D10*
X88000000Y-60540000D03*
X88000000Y-63080000D03*
X88000000Y-65620000D03*
X88000000Y-68160000D03*
D11*
X88000000Y-72000000D03*
D10*
X88000000Y-74540000D03*
X88000000Y-77080000D03*
X88000000Y-79620000D03*
X88000000Y-82160000D03*
X88000000Y-96160000D03*
X88000000Y-93620000D03*
X88000000Y-91080000D03*
X88000000Y-88540000D03*
D11*
X88000000Y-86000000D03*
D10*
X88000000Y-110160000D03*
X88000000Y-107620000D03*
X88000000Y-105080000D03*
X88000000Y-102540000D03*
D11*
X88000000Y-100000000D03*
G04 #@! TA.AperFunction,SMDPad,CuDef*
G36*
G01*
X157600001Y-118425000D02*
X155399999Y-118425000D01*
G75*
G02*
X155150000Y-118175001I0J249999D01*
G01*
X155150000Y-117349999D01*
G75*
G02*
X155399999Y-117100000I249999J0D01*
G01*
X157600001Y-117100000D01*
G75*
G02*
X157850000Y-117349999I0J-249999D01*
G01*
X157850000Y-118175001D01*
G75*
G02*
X157600001Y-118425000I-249999J0D01*
G01*
G37*
G04 #@! TD.AperFunction*
G04 #@! TA.AperFunction,SMDPad,CuDef*
G36*
G01*
X157600001Y-115300000D02*
X155399999Y-115300000D01*
G75*
G02*
X155150000Y-115050001I0J249999D01*
G01*
X155150000Y-114224999D01*
G75*
G02*
X155399999Y-113975000I249999J0D01*
G01*
X157600001Y-113975000D01*
G75*
G02*
X157850000Y-114224999I0J-249999D01*
G01*
X157850000Y-115050001D01*
G75*
G02*
X157600001Y-115300000I-249999J0D01*
G01*
G37*
G04 #@! TD.AperFunction*
G04 #@! TA.AperFunction,SMDPad,CuDef*
G36*
G01*
X150900000Y-116999999D02*
X150900000Y-119200001D01*
G75*
G02*
X150650001Y-119450000I-249999J0D01*
G01*
X149824999Y-119450000D01*
G75*
G02*
X149575000Y-119200001I0J249999D01*
G01*
X149575000Y-116999999D01*
G75*
G02*
X149824999Y-116750000I249999J0D01*
G01*
X150650001Y-116750000D01*
G75*
G02*
X150900000Y-116999999I0J-249999D01*
G01*
G37*
G04 #@! TD.AperFunction*
G04 #@! TA.AperFunction,SMDPad,CuDef*
G36*
G01*
X154025000Y-116999999D02*
X154025000Y-119200001D01*
G75*
G02*
X153775001Y-119450000I-249999J0D01*
G01*
X152949999Y-119450000D01*
G75*
G02*
X152700000Y-119200001I0J249999D01*
G01*
X152700000Y-116999999D01*
G75*
G02*
X152949999Y-116750000I249999J0D01*
G01*
X153775001Y-116750000D01*
G75*
G02*
X154025000Y-116999999I0J-249999D01*
G01*
G37*
G04 #@! TD.AperFunction*
G04 #@! TA.AperFunction,SMDPad,CuDef*
G36*
G01*
X148475000Y-118125000D02*
X147525000Y-118125000D01*
G75*
G02*
X147275000Y-117875000I0J250000D01*
G01*
X147275000Y-117200000D01*
G75*
G02*
X147525000Y-116950000I250000J0D01*
G01*
X148475000Y-116950000D01*
G75*
G02*
X148725000Y-117200000I0J-250000D01*
G01*
X148725000Y-117875000D01*
G75*
G02*
X148475000Y-118125000I-250000J0D01*
G01*
G37*
G04 #@! TD.AperFunction*
G04 #@! TA.AperFunction,SMDPad,CuDef*
G36*
G01*
X148475000Y-116050000D02*
X147525000Y-116050000D01*
G75*
G02*
X147275000Y-115800000I0J250000D01*
G01*
X147275000Y-115125000D01*
G75*
G02*
X147525000Y-114875000I250000J0D01*
G01*
X148475000Y-114875000D01*
G75*
G02*
X148725000Y-115125000I0J-250000D01*
G01*
X148725000Y-115800000D01*
G75*
G02*
X148475000Y-116050000I-250000J0D01*
G01*
G37*
G04 #@! TD.AperFunction*
D18*
X118100000Y-100200000D03*
G04 #@! TA.AperFunction,SMDPad,CuDef*
G36*
G01*
X155200000Y-112437500D02*
X155200000Y-111962500D01*
G75*
G02*
X155437500Y-111725000I237500J0D01*
G01*
X156037500Y-111725000D01*
G75*
G02*
X156275000Y-111962500I0J-237500D01*
G01*
X156275000Y-112437500D01*
G75*
G02*
X156037500Y-112675000I-237500J0D01*
G01*
X155437500Y-112675000D01*
G75*
G02*
X155200000Y-112437500I0J237500D01*
G01*
G37*
G04 #@! TD.AperFunction*
G04 #@! TA.AperFunction,SMDPad,CuDef*
G36*
G01*
X156925000Y-112437500D02*
X156925000Y-111962500D01*
G75*
G02*
X157162500Y-111725000I237500J0D01*
G01*
X157762500Y-111725000D01*
G75*
G02*
X158000000Y-111962500I0J-237500D01*
G01*
X158000000Y-112437500D01*
G75*
G02*
X157762500Y-112675000I-237500J0D01*
G01*
X157162500Y-112675000D01*
G75*
G02*
X156925000Y-112437500I0J237500D01*
G01*
G37*
G04 #@! TD.AperFunction*
D19*
X132200000Y-123200000D03*
X133600000Y-123200000D03*
X132200000Y-123900000D03*
X133600000Y-122500000D03*
X133600000Y-123900000D03*
X132900000Y-123200000D03*
X132200000Y-122500000D03*
X132900000Y-122500000D03*
X132900000Y-123900000D03*
X120700000Y-121100000D03*
X113200000Y-125500000D03*
X113200000Y-124800000D03*
X113200000Y-124100000D03*
X113900000Y-124100000D03*
X113900000Y-124800000D03*
X113900000Y-125500000D03*
X114600000Y-125500000D03*
X114600000Y-124800000D03*
X114600000Y-124100000D03*
X144300000Y-108900000D03*
X144900000Y-108900000D03*
X144300000Y-109500000D03*
X145800000Y-108400000D03*
X146100000Y-108900000D03*
X145500000Y-108900000D03*
X151300000Y-117900000D03*
X151300000Y-118500000D03*
X151300000Y-119100000D03*
X151300000Y-119700000D03*
X150700000Y-119900000D03*
X150000000Y-119900000D03*
X151900000Y-117900000D03*
X151900000Y-118500000D03*
X151900000Y-119100000D03*
X151900000Y-119700000D03*
X155800000Y-115800000D03*
X156400000Y-115800000D03*
X157000000Y-115800000D03*
X157600000Y-115800000D03*
X157300000Y-116300000D03*
X156700000Y-116300000D03*
X156100000Y-116300000D03*
X155600000Y-108500000D03*
X155000000Y-108500000D03*
X154400000Y-108500000D03*
X154700000Y-108000000D03*
X154100000Y-109000000D03*
X154700000Y-109000000D03*
X155300000Y-109000000D03*
X154400000Y-109500000D03*
X155000000Y-109500000D03*
X145200000Y-108400000D03*
X144600000Y-108400000D03*
X143800000Y-111200000D03*
X143800000Y-111900000D03*
X143200000Y-111500000D03*
X142500000Y-111500000D03*
X141900000Y-111500000D03*
X141300000Y-111900000D03*
X141300000Y-111100000D03*
X141300000Y-110400000D03*
X141900000Y-110900000D03*
X142500000Y-110900000D03*
X143100000Y-110800000D03*
X143700000Y-110500000D03*
X144300000Y-110100000D03*
X90500000Y-73000000D03*
D20*
X112100000Y-115600000D03*
X119400000Y-115600000D03*
X146300000Y-119500000D03*
X145100000Y-121400000D03*
X130962001Y-112062001D03*
X126000000Y-130400000D03*
X146475000Y-118300000D03*
X144200000Y-127700000D03*
X127100000Y-106700000D03*
D19*
X92000000Y-113500000D03*
X96000000Y-113000000D03*
X103124999Y-113575001D03*
X119600000Y-112100000D03*
X99000000Y-112075000D03*
X96500000Y-112000000D03*
X120000000Y-128000000D03*
X97500000Y-112075000D03*
X132500000Y-52000000D03*
X154500000Y-98000000D03*
X154500000Y-88500000D03*
X148000000Y-101500000D03*
X147063174Y-122563174D03*
X145656587Y-123156587D03*
D21*
X88900000Y-50800000D02*
X93980000Y-50800000D01*
X93980000Y-50800000D02*
X124460000Y-50800000D01*
D22*
X153975000Y-113250000D02*
X153975000Y-113750000D01*
X151975000Y-116362500D02*
X150237500Y-118100000D01*
X151975000Y-115475000D02*
X151975000Y-116362500D01*
X151750000Y-115475000D02*
X151975000Y-115475000D01*
X151975000Y-115475000D02*
X152250000Y-115475000D01*
X155112500Y-113250000D02*
X156500000Y-114637500D01*
X153975000Y-113250000D02*
X155112500Y-113250000D01*
D21*
X150555000Y-110845000D02*
X150555000Y-112255000D01*
X147600000Y-110845000D02*
X150555000Y-110845000D01*
X150555000Y-110845000D02*
X151017500Y-110845000D01*
D23*
X150555000Y-112255000D02*
X150555000Y-112780000D01*
X151421000Y-70225000D02*
X157050000Y-70225000D01*
D21*
X158450021Y-71961019D02*
X158325021Y-71836019D01*
X158450021Y-108179979D02*
X158450021Y-71961019D01*
X155900000Y-110730000D02*
X158450021Y-108179979D01*
X158325021Y-71836019D02*
X158325021Y-54881019D01*
X143510000Y-49530000D02*
X145140000Y-47900000D01*
X145140000Y-47900000D02*
X157300000Y-47900000D01*
X158325021Y-48925021D02*
X158325021Y-54881019D01*
X157300000Y-47900000D02*
X158325021Y-48925021D01*
X158450021Y-71625021D02*
X158450021Y-71961019D01*
X157050000Y-70225000D02*
X158450021Y-71625021D01*
X151265000Y-70225000D02*
X150000000Y-71490000D01*
X151421000Y-70225000D02*
X151265000Y-70225000D01*
X147400000Y-110645000D02*
X147600000Y-110845000D01*
X147400000Y-110245000D02*
X147400000Y-110645000D01*
D22*
X152507500Y-110845000D02*
X152700000Y-111037500D01*
D21*
X151017500Y-110845000D02*
X152507500Y-110845000D01*
D22*
X152750000Y-111087500D02*
X152700000Y-111037500D01*
D21*
X155592500Y-111037500D02*
X155900000Y-110730000D01*
X152700000Y-111037500D02*
X155592500Y-111037500D01*
D22*
X152750000Y-110987500D02*
X152750000Y-112525000D01*
X152700000Y-110937500D02*
X152750000Y-110987500D01*
X150555000Y-112855000D02*
X150555000Y-112780000D01*
X150950000Y-113250000D02*
X150555000Y-112855000D01*
X151025000Y-113250000D02*
X150950000Y-113250000D01*
D23*
X93500000Y-72760000D02*
X90810000Y-72760000D01*
D21*
X93500000Y-72690000D02*
X94700000Y-71490000D01*
X93500000Y-72750000D02*
X93500000Y-72690000D01*
X90749999Y-72750001D02*
X90500000Y-73000000D01*
X90810000Y-72750000D02*
X90749999Y-72750001D01*
X88000000Y-58000000D02*
X88000000Y-57000000D01*
X88000000Y-57000000D02*
X87000000Y-56000000D01*
X87000000Y-50189998D02*
X88889998Y-48300000D01*
X87000000Y-56000000D02*
X87000000Y-50189998D01*
X129599999Y-48229999D02*
X138529999Y-48229999D01*
X129529998Y-48300000D02*
X129599999Y-48229999D01*
X88889998Y-48300000D02*
X129529998Y-48300000D01*
X143430000Y-53130000D02*
X143430000Y-54610000D01*
X138529999Y-48229999D02*
X143430000Y-53130000D01*
X138529999Y-48229999D02*
X138529999Y-54470001D01*
X138529999Y-54470001D02*
X133500000Y-59500000D01*
X133500000Y-90230000D02*
X129750000Y-93980000D01*
X133500000Y-59500000D02*
X133500000Y-90230000D01*
X111862001Y-92767999D02*
X110650000Y-93980000D01*
X128537999Y-92767999D02*
X111862001Y-92767999D01*
X129750000Y-93980000D02*
X128537999Y-92767999D01*
X112070000Y-115570000D02*
X112100000Y-115600000D01*
X110650000Y-115570000D02*
X112070000Y-115570000D01*
X128537999Y-116782001D02*
X129750000Y-115570000D01*
X120582001Y-116782001D02*
X128537999Y-116782001D01*
X119400000Y-115600000D02*
X120582001Y-116782001D01*
X133500000Y-111820000D02*
X129750000Y-115570000D01*
X133500000Y-90230000D02*
X133500000Y-111820000D01*
X88000000Y-72000000D02*
X86475010Y-70475010D01*
X86475010Y-59524990D02*
X88000000Y-58000000D01*
X86475010Y-70475010D02*
X86475010Y-59524990D01*
D22*
X154371765Y-114250000D02*
X154700000Y-114578235D01*
X153975000Y-114250000D02*
X154371765Y-114250000D01*
X154700000Y-115962500D02*
X156500000Y-117762500D01*
X154700000Y-114578235D02*
X154700000Y-115962500D01*
X155412500Y-112525000D02*
X155737500Y-112200000D01*
X154775000Y-112525000D02*
X155412500Y-112525000D01*
X155025000Y-112525000D02*
X154775000Y-112525000D01*
X154775000Y-112525000D02*
X153250000Y-112525000D01*
X150628235Y-113750000D02*
X151025000Y-113750000D01*
X150324990Y-114053245D02*
X150628235Y-113750000D01*
X148000000Y-115462500D02*
X149237500Y-115462500D01*
X150324990Y-114375010D02*
X150324990Y-114053245D01*
X149237500Y-115462500D02*
X150324990Y-114375010D01*
X151025000Y-114250000D02*
X151025000Y-114750000D01*
X147400000Y-113555000D02*
X146745000Y-113555000D01*
X146745000Y-113555000D02*
X146400000Y-113900000D01*
X146400000Y-113900000D02*
X146400000Y-116800000D01*
X147137500Y-117537500D02*
X148000000Y-117537500D01*
X146400000Y-116800000D02*
X147137500Y-117537500D01*
X148000000Y-117537500D02*
X148162500Y-117537500D01*
X148162500Y-117537500D02*
X150000000Y-115700000D01*
X150000000Y-115700000D02*
X150500000Y-115700000D01*
X150500000Y-115700000D02*
X151025000Y-115175000D01*
X151025000Y-114750000D02*
X151025000Y-115175000D01*
X152750000Y-115475000D02*
X153250000Y-115475000D01*
X153650000Y-115475000D02*
X153250000Y-115475000D01*
X153975000Y-114750000D02*
X153975000Y-115150000D01*
D21*
X128537999Y-108007999D02*
X129750000Y-109220000D01*
X111862001Y-108007999D02*
X128537999Y-108007999D01*
X110650000Y-109220000D02*
X111862001Y-108007999D01*
X148800000Y-122000000D02*
X155000000Y-122000000D01*
X146300000Y-119500000D02*
X148800000Y-122000000D01*
X146936002Y-121400000D02*
X148436002Y-122900000D01*
X145100000Y-121400000D02*
X146936002Y-121400000D01*
X154100000Y-122900000D02*
X155000000Y-122000000D01*
X148436002Y-122900000D02*
X154100000Y-122900000D01*
X130100000Y-111200000D02*
X130962001Y-112062001D01*
X122700000Y-111200000D02*
X130100000Y-111200000D01*
X120720000Y-109220000D02*
X122700000Y-111200000D01*
X110650000Y-109220000D02*
X120720000Y-109220000D01*
X110650000Y-130810000D02*
X120790000Y-130810000D01*
X125197999Y-129597999D02*
X126000000Y-130400000D01*
X122002001Y-129597999D02*
X125197999Y-129597999D01*
X120790000Y-130810000D02*
X122002001Y-129597999D01*
X146475000Y-118300000D02*
X149075000Y-120900000D01*
X153900000Y-120900000D02*
X155000000Y-122000000D01*
X149075000Y-120900000D02*
X153900000Y-120900000D01*
X155000000Y-127600000D02*
X155000000Y-122000000D01*
X151349999Y-131250001D02*
X155000000Y-127600000D01*
X146750001Y-131250001D02*
X151349999Y-131250001D01*
X141868239Y-129597999D02*
X145097999Y-129597999D01*
X140656238Y-130810000D02*
X141868239Y-129597999D01*
X145097999Y-129597999D02*
X146750001Y-131250001D01*
X129750000Y-130810000D02*
X140656238Y-130810000D01*
X155000000Y-122000000D02*
X154500000Y-122000000D01*
X154500000Y-122000000D02*
X152300000Y-124200000D01*
X147700000Y-124200000D02*
X144200000Y-127700000D01*
X152300000Y-124200000D02*
X147700000Y-124200000D01*
X114517999Y-105352001D02*
X111862001Y-108007999D01*
X125752001Y-105352001D02*
X114517999Y-105352001D01*
X127100000Y-106700000D02*
X125752001Y-105352001D01*
X153762500Y-117600000D02*
X154262500Y-118100000D01*
D22*
X153975000Y-115150000D02*
X153762500Y-115362500D01*
D21*
X153762500Y-115362500D02*
X153762500Y-117600000D01*
D22*
X153762500Y-115362500D02*
X153650000Y-115475000D01*
D21*
X154262500Y-122162500D02*
X155100000Y-123000000D01*
X154262500Y-118100000D02*
X154262500Y-122162500D01*
D22*
X89250000Y-53340000D02*
X88900000Y-53340000D01*
X94700000Y-58790000D02*
X89250000Y-53340000D01*
X93335001Y-58225999D02*
X91109002Y-56000000D01*
X93335001Y-59965001D02*
X93335001Y-58225999D01*
X94700000Y-61330000D02*
X93335001Y-59965001D01*
X92804999Y-52164999D02*
X93980000Y-53340000D01*
X87724999Y-52775999D02*
X88335999Y-52164999D01*
X87724999Y-53904001D02*
X87724999Y-52775999D01*
X89820998Y-56000000D02*
X87724999Y-53904001D01*
X88335999Y-52164999D02*
X92804999Y-52164999D01*
X91109002Y-56000000D02*
X89820998Y-56000000D01*
X96249990Y-58355022D02*
X99605012Y-55000000D01*
X96249990Y-75020010D02*
X96249990Y-58355022D01*
X94700000Y-76570000D02*
X96249990Y-75020010D01*
X117720000Y-55000000D02*
X119380000Y-53340000D01*
X99605012Y-55000000D02*
X117720000Y-55000000D01*
X92160000Y-97690998D02*
X90500000Y-99350998D01*
X92160000Y-96890000D02*
X92160000Y-97690998D01*
X90500000Y-99350998D02*
X90500000Y-106000000D01*
X89175001Y-107324999D02*
X89175001Y-111675001D01*
X90000000Y-111500000D02*
X92000000Y-113500000D01*
X90000000Y-106500000D02*
X90000000Y-111500000D01*
X90500000Y-106000000D02*
X90000000Y-106500000D01*
X90000000Y-106500000D02*
X89175001Y-107324999D01*
X92160000Y-99430000D02*
X90950011Y-100639989D01*
X94000000Y-111000000D02*
X96000000Y-113000000D01*
X90950010Y-105950010D02*
X90950010Y-107950010D01*
X90950011Y-100639989D02*
X90950010Y-105950010D01*
X90950010Y-105950010D02*
X90950009Y-106186401D01*
X90950010Y-107950010D02*
X94000000Y-111000000D01*
X103124999Y-113575001D02*
X106124999Y-113575001D01*
X107757001Y-111942999D02*
X115042999Y-111942999D01*
X106124999Y-113575001D02*
X107757001Y-111942999D01*
X115200000Y-112100000D02*
X119600000Y-112100000D01*
X115042999Y-111942999D02*
X115200000Y-112100000D01*
X120627001Y-110307001D02*
X123350000Y-113030000D01*
X98912013Y-110307001D02*
X120627001Y-110307001D01*
X96249990Y-107644978D02*
X98912013Y-110307001D01*
X96249990Y-98439990D02*
X96249990Y-107644978D01*
X94700000Y-96890000D02*
X96249990Y-98439990D01*
X93335001Y-100794999D02*
X93335001Y-107970003D01*
X94700000Y-99430000D02*
X93335001Y-100794999D01*
X96536103Y-108567501D02*
X98768602Y-110800000D01*
X93932499Y-108567501D02*
X96536103Y-108567501D01*
X93335001Y-107970003D02*
X93932499Y-108567501D01*
X98768602Y-110800000D02*
X119700000Y-110800000D01*
X119700000Y-110800000D02*
X121200000Y-112300000D01*
X121200000Y-113420000D02*
X123350000Y-115570000D01*
X121200000Y-112300000D02*
X121200000Y-113420000D01*
X112102999Y-114482999D02*
X123350000Y-125730000D01*
X101407999Y-114482999D02*
X112102999Y-114482999D01*
X99000000Y-112075000D02*
X101407999Y-114482999D01*
X111285001Y-119285001D02*
X120000000Y-128000000D01*
X106389999Y-119285001D02*
X111285001Y-119285001D01*
X106324999Y-119220001D02*
X106389999Y-119285001D01*
X106324999Y-116999999D02*
X106324999Y-119220001D01*
X99950010Y-115450010D02*
X104775010Y-115450010D01*
X104775010Y-115450010D02*
X106324999Y-116999999D01*
X96500000Y-112000000D02*
X99950010Y-115450010D01*
X107500000Y-115000000D02*
X100425000Y-115000000D01*
X121317001Y-126817001D02*
X111522999Y-117022999D01*
X100425000Y-115000000D02*
X97500000Y-112075000D01*
X125517001Y-126817001D02*
X121317001Y-126817001D01*
X127300000Y-128600000D02*
X125517001Y-126817001D01*
X127300000Y-130900000D02*
X127300000Y-128600000D01*
X109522999Y-117022999D02*
X107500000Y-115000000D01*
X126900000Y-131300000D02*
X127300000Y-130900000D01*
X111522999Y-117022999D02*
X109522999Y-117022999D01*
X125200000Y-131300000D02*
X126900000Y-131300000D01*
X124710000Y-130810000D02*
X125200000Y-131300000D01*
X123350000Y-130810000D02*
X124710000Y-130810000D01*
X150000000Y-58640000D02*
X145970000Y-54610000D01*
X150000000Y-58790000D02*
X150000000Y-58640000D01*
X156240000Y-58790000D02*
X156250000Y-58800000D01*
X152540000Y-58790000D02*
X156240000Y-58790000D01*
X151175001Y-60154999D02*
X150000000Y-61330000D01*
X151175001Y-57275001D02*
X151175001Y-60154999D01*
X148510000Y-54610000D02*
X151175001Y-57275001D01*
X152550000Y-61340000D02*
X152540000Y-61330000D01*
X156250000Y-61340000D02*
X152550000Y-61340000D01*
X156240000Y-63870000D02*
X156250000Y-63880000D01*
X152540000Y-63870000D02*
X156240000Y-63870000D01*
X152550000Y-66420000D02*
X152540000Y-66410000D01*
X156250000Y-66420000D02*
X152550000Y-66420000D01*
X156240000Y-68950000D02*
X156250000Y-68960000D01*
X152540000Y-68950000D02*
X156240000Y-68950000D01*
X152550000Y-74040000D02*
X152540000Y-74030000D01*
X156250000Y-74040000D02*
X152550000Y-74040000D01*
X135110000Y-54610000D02*
X135890000Y-54610000D01*
X132500000Y-52000000D02*
X135110000Y-54610000D01*
X156240000Y-76570000D02*
X156250000Y-76580000D01*
X152540000Y-76570000D02*
X156240000Y-76570000D01*
X152550000Y-79120000D02*
X152540000Y-79110000D01*
X156250000Y-79120000D02*
X152550000Y-79120000D01*
X156240000Y-81650000D02*
X156250000Y-81660000D01*
X152540000Y-81650000D02*
X156240000Y-81650000D01*
X152550000Y-84200000D02*
X152540000Y-84190000D01*
X156250000Y-84200000D02*
X152550000Y-84200000D01*
X154245001Y-98254999D02*
X154500000Y-98000000D01*
X151975999Y-98254999D02*
X154245001Y-98254999D01*
X151364999Y-98865999D02*
X151975999Y-98254999D01*
X151364999Y-99994001D02*
X151364999Y-98865999D01*
X150564001Y-100794999D02*
X151364999Y-99994001D01*
X151175001Y-87905001D02*
X150000000Y-86730000D01*
X153905001Y-87905001D02*
X151175001Y-87905001D01*
X154500000Y-88500000D02*
X153905001Y-87905001D01*
X142450000Y-104140000D02*
X144090000Y-102500000D01*
X148500000Y-102500000D02*
X148824999Y-102175001D01*
X144090000Y-102500000D02*
X148500000Y-102500000D01*
X149435999Y-100794999D02*
X150564001Y-100794999D01*
X148824999Y-101405999D02*
X149435999Y-100794999D01*
X148824999Y-102175001D02*
X148824999Y-101405999D01*
X156240000Y-86730000D02*
X156250000Y-86740000D01*
X152540000Y-86730000D02*
X156240000Y-86730000D01*
X148824999Y-90445001D02*
X150000000Y-89270000D01*
X148824999Y-92374001D02*
X148824999Y-90445001D01*
X149445999Y-92995001D02*
X148824999Y-92374001D01*
X156624003Y-92995001D02*
X149445999Y-92995001D01*
X157425001Y-102574999D02*
X157425001Y-93795999D01*
X156665001Y-103334999D02*
X157425001Y-102574999D01*
X157425001Y-93795999D02*
X156624003Y-92995001D01*
X145795001Y-103334999D02*
X156665001Y-103334999D01*
X142450000Y-106680000D02*
X145795001Y-103334999D01*
X152550000Y-89280000D02*
X152540000Y-89270000D01*
X156250000Y-89280000D02*
X152550000Y-89280000D01*
X151175001Y-90634999D02*
X150000000Y-91810000D01*
X142450000Y-109220000D02*
X145795001Y-105874999D01*
X157875011Y-91445009D02*
X157065001Y-90634999D01*
X157875011Y-105374987D02*
X157875011Y-91445009D01*
X157374999Y-105874999D02*
X157875011Y-105374987D01*
X157065001Y-90634999D02*
X151175001Y-90634999D01*
X145795001Y-105874999D02*
X157374999Y-105874999D01*
X156240000Y-91810000D02*
X156250000Y-91820000D01*
X152540000Y-91810000D02*
X156240000Y-91810000D01*
X148500000Y-98390000D02*
X150000000Y-96890000D01*
X148500000Y-101000000D02*
X148500000Y-98390000D01*
X148000000Y-101500000D02*
X148500000Y-101000000D01*
X152550000Y-96900000D02*
X152540000Y-96890000D01*
X156250000Y-96900000D02*
X152550000Y-96900000D01*
X156240000Y-99430000D02*
X156250000Y-99440000D01*
X152540000Y-99430000D02*
X156240000Y-99430000D01*
X145398998Y-122563174D02*
X147063174Y-122563174D01*
X142450000Y-125512172D02*
X145398998Y-122563174D01*
X142450000Y-125730000D02*
X142450000Y-125512172D01*
X152550000Y-101980000D02*
X152540000Y-101970000D01*
X156250000Y-101980000D02*
X152550000Y-101980000D01*
X145656587Y-125063413D02*
X142450000Y-128270000D01*
X145656587Y-123156587D02*
X145656587Y-125063413D01*
X156240000Y-104510000D02*
X156250000Y-104520000D01*
X152540000Y-104510000D02*
X156240000Y-104510000D01*
X152550000Y-107060000D02*
X152540000Y-107050000D01*
X156250000Y-107060000D02*
X152550000Y-107060000D01*
X110650000Y-96520000D02*
X107500000Y-96520000D01*
X107500000Y-99060000D02*
X110650000Y-99060000D01*
X110650000Y-101600000D02*
X107500000Y-101600000D01*
X107500000Y-104140000D02*
X110650000Y-104140000D01*
X110650000Y-125730000D02*
X107500000Y-125730000D01*
X107500000Y-123190000D02*
X110650000Y-123190000D01*
X110650000Y-120650000D02*
X107500000Y-120650000D01*
X107500000Y-118110000D02*
X110650000Y-118110000D01*
X126500000Y-96520000D02*
X129750000Y-96520000D01*
X129750000Y-99060000D02*
X126500000Y-99060000D01*
X126500000Y-101600000D02*
X129750000Y-101600000D01*
X129750000Y-104140000D02*
X126500000Y-104140000D01*
X129750000Y-125730000D02*
X126500000Y-125730000D01*
X126500000Y-123190000D02*
X129750000Y-123190000D01*
X129750000Y-120650000D02*
X126500000Y-120650000D01*
X126500000Y-118110000D02*
X129750000Y-118110000D01*
X88000000Y-62950000D02*
X88000000Y-63080000D01*
X92160000Y-58790000D02*
X88000000Y-62950000D01*
X88000000Y-65490000D02*
X88000000Y-65620000D01*
X92160000Y-61330000D02*
X88000000Y-65490000D01*
X88000000Y-68030000D02*
X88000000Y-68160000D01*
X92160000Y-63870000D02*
X88000000Y-68030000D01*
X89175001Y-75904999D02*
X88000000Y-77080000D01*
X89175001Y-69394999D02*
X89175001Y-75904999D01*
X92160000Y-66410000D02*
X89175001Y-69394999D01*
X92160000Y-68950000D02*
X89625011Y-71484989D01*
X89625011Y-77994989D02*
X88000000Y-79620000D01*
X89625011Y-71484989D02*
X89625011Y-77994989D01*
X88000000Y-82160000D02*
X90075021Y-80084979D01*
X90075021Y-76114979D02*
X92160000Y-74030000D01*
X90075021Y-80084979D02*
X90075021Y-76114979D01*
X92160000Y-81650000D02*
X90000000Y-83810000D01*
X90000000Y-83810000D02*
X90000000Y-84693216D01*
X89693216Y-94466784D02*
X88000000Y-96160000D01*
X89693216Y-85000000D02*
X89693216Y-94466784D01*
X90000000Y-84693216D02*
X89693216Y-85000000D01*
X89175001Y-92444999D02*
X89175001Y-84824999D01*
X88000000Y-93620000D02*
X89175001Y-92444999D01*
X89500000Y-84500000D02*
X89500000Y-83500000D01*
X89175001Y-84824999D02*
X89500000Y-84500000D01*
X90975041Y-82024959D02*
X90975041Y-80524959D01*
X89500000Y-83500000D02*
X90975041Y-82024959D01*
X92160000Y-79340000D02*
X92160000Y-79110000D01*
X90975041Y-80524959D02*
X92160000Y-79340000D01*
X90525031Y-81373971D02*
X87899002Y-84000000D01*
X90525031Y-78204969D02*
X90525031Y-81373971D01*
X92160000Y-76570000D02*
X90525031Y-78204969D01*
X87899002Y-84000000D02*
X87000000Y-84000000D01*
X87000000Y-84000000D02*
X86500000Y-84500000D01*
X86500000Y-89580000D02*
X88000000Y-91080000D01*
X86500000Y-84500000D02*
X86500000Y-89580000D01*
X88000000Y-107620000D02*
X90000000Y-105620000D01*
X90593235Y-88296765D02*
X92160000Y-86730000D01*
X90593235Y-98043175D02*
X90593235Y-88296765D01*
X90000000Y-98636410D02*
X90593235Y-98043175D01*
X90000000Y-105620000D02*
X90000000Y-98636410D01*
X90143225Y-86206775D02*
X90143225Y-97856775D01*
X92160000Y-84190000D02*
X90143225Y-86206775D01*
X90143225Y-97856775D02*
X89500000Y-98500000D01*
X89500000Y-103580000D02*
X88000000Y-105080000D01*
X89500000Y-98500000D02*
X89500000Y-103580000D01*
X156240000Y-94350000D02*
X156250000Y-94360000D01*
X152540000Y-94350000D02*
X156240000Y-94350000D01*
X156240000Y-71490000D02*
X156250000Y-71500000D01*
X152540000Y-71490000D02*
X156240000Y-71490000D01*
D24*
X134467581Y-90460000D02*
X134500000Y-90463193D01*
X134532419Y-90460000D01*
X141454345Y-90460000D01*
X141364880Y-90549465D01*
X141211995Y-90778273D01*
X141106686Y-91032510D01*
X141053000Y-91302408D01*
X141053000Y-91577592D01*
X141106686Y-91847490D01*
X141211995Y-92101727D01*
X141364880Y-92330535D01*
X141559465Y-92525120D01*
X141788273Y-92678005D01*
X141865515Y-92710000D01*
X141788273Y-92741995D01*
X141559465Y-92894880D01*
X141364880Y-93089465D01*
X141211995Y-93318273D01*
X141106686Y-93572510D01*
X141053000Y-93842408D01*
X141053000Y-94117592D01*
X141106686Y-94387490D01*
X141211995Y-94641727D01*
X141364880Y-94870535D01*
X141559465Y-95065120D01*
X141788273Y-95218005D01*
X141865515Y-95250000D01*
X141788273Y-95281995D01*
X141559465Y-95434880D01*
X141364880Y-95629465D01*
X141211995Y-95858273D01*
X141106686Y-96112510D01*
X141053000Y-96382408D01*
X141053000Y-96657592D01*
X141106686Y-96927490D01*
X141211995Y-97181727D01*
X141364880Y-97410535D01*
X141559465Y-97605120D01*
X141788273Y-97758005D01*
X141865515Y-97790000D01*
X141788273Y-97821995D01*
X141559465Y-97974880D01*
X141364880Y-98169465D01*
X141211995Y-98398273D01*
X141106686Y-98652510D01*
X141053000Y-98922408D01*
X141053000Y-99197592D01*
X141106686Y-99467490D01*
X141211995Y-99721727D01*
X141364880Y-99950535D01*
X141559465Y-100145120D01*
X141788273Y-100298005D01*
X141865515Y-100330000D01*
X141788273Y-100361995D01*
X141559465Y-100514880D01*
X141364880Y-100709465D01*
X141211995Y-100938273D01*
X141106686Y-101192510D01*
X141053000Y-101462408D01*
X141053000Y-101737592D01*
X141106686Y-102007490D01*
X141211995Y-102261727D01*
X141364880Y-102490535D01*
X141559465Y-102685120D01*
X141788273Y-102838005D01*
X141865515Y-102870000D01*
X141788273Y-102901995D01*
X141559465Y-103054880D01*
X141364880Y-103249465D01*
X141211995Y-103478273D01*
X141106686Y-103732510D01*
X141053000Y-104002408D01*
X141053000Y-104277592D01*
X141106686Y-104547490D01*
X141211995Y-104801727D01*
X141364880Y-105030535D01*
X141559465Y-105225120D01*
X141788273Y-105378005D01*
X141865515Y-105410000D01*
X141788273Y-105441995D01*
X141559465Y-105594880D01*
X141364880Y-105789465D01*
X141211995Y-106018273D01*
X141106686Y-106272510D01*
X141053000Y-106542408D01*
X141053000Y-106817592D01*
X141106686Y-107087490D01*
X141211995Y-107341727D01*
X141364880Y-107570535D01*
X141559465Y-107765120D01*
X141788273Y-107918005D01*
X141865515Y-107950000D01*
X141788273Y-107981995D01*
X141559465Y-108134880D01*
X141364880Y-108329465D01*
X141211995Y-108558273D01*
X141106686Y-108812510D01*
X141053000Y-109082408D01*
X141053000Y-109357592D01*
X141106686Y-109627490D01*
X141211995Y-109881727D01*
X141364880Y-110110535D01*
X141559465Y-110305120D01*
X141788273Y-110458005D01*
X142042510Y-110563314D01*
X142312408Y-110617000D01*
X142587592Y-110617000D01*
X142857490Y-110563314D01*
X143111727Y-110458005D01*
X143340535Y-110305120D01*
X143535120Y-110110535D01*
X143688005Y-109881727D01*
X143793314Y-109627490D01*
X143847000Y-109357592D01*
X143847000Y-109082408D01*
X143816372Y-108928429D01*
X146109803Y-106634999D01*
X148568456Y-106634999D01*
X148515000Y-106903740D01*
X148515000Y-107196260D01*
X148572068Y-107483158D01*
X148684010Y-107753411D01*
X148846525Y-107996632D01*
X149053368Y-108203475D01*
X149296589Y-108365990D01*
X149566842Y-108477932D01*
X149853740Y-108535000D01*
X150146260Y-108535000D01*
X150433158Y-108477932D01*
X150703411Y-108365990D01*
X150946632Y-108203475D01*
X151153475Y-107996632D01*
X151270000Y-107822240D01*
X151386525Y-107996632D01*
X151593368Y-108203475D01*
X151836589Y-108365990D01*
X152106842Y-108477932D01*
X152393740Y-108535000D01*
X152686260Y-108535000D01*
X152973158Y-108477932D01*
X153243411Y-108365990D01*
X153486632Y-108203475D01*
X153693475Y-107996632D01*
X153811497Y-107820000D01*
X154971822Y-107820000D01*
X155096525Y-108006632D01*
X155303368Y-108213475D01*
X155546589Y-108375990D01*
X155816842Y-108487932D01*
X156103740Y-108545000D01*
X156396260Y-108545000D01*
X156683158Y-108487932D01*
X156953411Y-108375990D01*
X157101142Y-108277279D01*
X156613421Y-108765000D01*
X156588212Y-108765000D01*
X156368933Y-108808617D01*
X156162376Y-108894176D01*
X155976480Y-109018388D01*
X155818388Y-109176480D01*
X155694176Y-109362376D01*
X155608617Y-109568933D01*
X155565000Y-109788212D01*
X155565000Y-109813422D01*
X155225922Y-110152500D01*
X153847328Y-110152500D01*
X153779792Y-110070208D01*
X153646164Y-109960542D01*
X153493709Y-109879053D01*
X153328285Y-109828872D01*
X153156250Y-109811928D01*
X152243750Y-109811928D01*
X152071715Y-109828872D01*
X151906291Y-109879053D01*
X151754850Y-109960000D01*
X150598476Y-109960000D01*
X150555000Y-109955718D01*
X150511523Y-109960000D01*
X150388072Y-109960000D01*
X150388072Y-109655000D01*
X150375812Y-109530518D01*
X150339502Y-109410820D01*
X150280537Y-109300506D01*
X150201185Y-109203815D01*
X150104494Y-109124463D01*
X149994180Y-109065498D01*
X149874482Y-109029188D01*
X149750000Y-109016928D01*
X145050000Y-109016928D01*
X144925518Y-109029188D01*
X144805820Y-109065498D01*
X144695506Y-109124463D01*
X144598815Y-109203815D01*
X144519463Y-109300506D01*
X144460498Y-109410820D01*
X144424188Y-109530518D01*
X144411928Y-109655000D01*
X144411928Y-110835000D01*
X144424188Y-110959482D01*
X144460498Y-111079180D01*
X144519463Y-111189494D01*
X144598815Y-111286185D01*
X144695506Y-111365537D01*
X144805820Y-111424502D01*
X144925518Y-111460812D01*
X145050000Y-111473072D01*
X146970572Y-111473072D01*
X146971183Y-111473817D01*
X147105941Y-111584411D01*
X147259687Y-111666589D01*
X147426510Y-111717195D01*
X147556523Y-111730000D01*
X147556531Y-111730000D01*
X147600000Y-111734281D01*
X147643469Y-111730000D01*
X149670001Y-111730000D01*
X149670001Y-112298477D01*
X149672803Y-112326928D01*
X145050000Y-112326928D01*
X144925518Y-112339188D01*
X144805820Y-112375498D01*
X144695506Y-112434463D01*
X144598815Y-112513815D01*
X144519463Y-112610506D01*
X144460498Y-112720820D01*
X144424188Y-112840518D01*
X144411928Y-112965000D01*
X144411928Y-114145000D01*
X144424188Y-114269482D01*
X144460498Y-114389180D01*
X144519463Y-114499494D01*
X144598815Y-114596185D01*
X144695506Y-114675537D01*
X144805820Y-114734502D01*
X144925518Y-114770812D01*
X145050000Y-114783072D01*
X145640000Y-114783072D01*
X145640001Y-116762668D01*
X145636324Y-116800000D01*
X145640001Y-116837333D01*
X145650998Y-116948986D01*
X145656639Y-116967581D01*
X145694454Y-117092246D01*
X145765026Y-117224276D01*
X145831090Y-117304774D01*
X145860000Y-117340001D01*
X145888998Y-117363799D01*
X145938736Y-117413537D01*
X145815226Y-117496063D01*
X145671063Y-117640226D01*
X145557795Y-117809744D01*
X145479774Y-117998102D01*
X145440000Y-118198061D01*
X145440000Y-118401939D01*
X145479774Y-118601898D01*
X145554350Y-118781939D01*
X145496063Y-118840226D01*
X145382795Y-119009744D01*
X145304774Y-119198102D01*
X145265000Y-119398061D01*
X145265000Y-119601939D01*
X145304774Y-119801898D01*
X145382795Y-119990256D01*
X145496063Y-120159774D01*
X145640226Y-120303937D01*
X145809744Y-120417205D01*
X145998102Y-120495226D01*
X146054957Y-120506535D01*
X146063422Y-120515000D01*
X145638454Y-120515000D01*
X145590256Y-120482795D01*
X145401898Y-120404774D01*
X145201939Y-120365000D01*
X144998061Y-120365000D01*
X144798102Y-120404774D01*
X144609744Y-120482795D01*
X144440226Y-120596063D01*
X144296063Y-120740226D01*
X144182795Y-120909744D01*
X144104774Y-121098102D01*
X144065000Y-121298061D01*
X144065000Y-121501939D01*
X144104774Y-121701898D01*
X144182795Y-121890256D01*
X144296063Y-122059774D01*
X144440226Y-122203937D01*
X144586018Y-122301352D01*
X143845003Y-123042368D01*
X143793314Y-122782510D01*
X143688005Y-122528273D01*
X143535120Y-122299465D01*
X143340535Y-122104880D01*
X143111727Y-121951995D01*
X143034485Y-121920000D01*
X143111727Y-121888005D01*
X143340535Y-121735120D01*
X143535120Y-121540535D01*
X143688005Y-121311727D01*
X143793314Y-121057490D01*
X143847000Y-120787592D01*
X143847000Y-120512408D01*
X143793314Y-120242510D01*
X143688005Y-119988273D01*
X143535120Y-119759465D01*
X143340535Y-119564880D01*
X143111727Y-119411995D01*
X143034485Y-119380000D01*
X143111727Y-119348005D01*
X143340535Y-119195120D01*
X143535120Y-119000535D01*
X143688005Y-118771727D01*
X143793314Y-118517490D01*
X143847000Y-118247592D01*
X143847000Y-117972408D01*
X143793314Y-117702510D01*
X143688005Y-117448273D01*
X143535120Y-117219465D01*
X143340535Y-117024880D01*
X143111727Y-116871995D01*
X143034485Y-116840000D01*
X143111727Y-116808005D01*
X143340535Y-116655120D01*
X143535120Y-116460535D01*
X143688005Y-116231727D01*
X143793314Y-115977490D01*
X143847000Y-115707592D01*
X143847000Y-115432408D01*
X143793314Y-115162510D01*
X143688005Y-114908273D01*
X143535120Y-114679465D01*
X143340535Y-114484880D01*
X143111727Y-114331995D01*
X143034485Y-114300000D01*
X143111727Y-114268005D01*
X143340535Y-114115120D01*
X143535120Y-113920535D01*
X143688005Y-113691727D01*
X143793314Y-113437490D01*
X143847000Y-113167592D01*
X143847000Y-112892408D01*
X143793314Y-112622510D01*
X143688005Y-112368273D01*
X143535120Y-112139465D01*
X143340535Y-111944880D01*
X143111727Y-111791995D01*
X142857490Y-111686686D01*
X142587592Y-111633000D01*
X142312408Y-111633000D01*
X142042510Y-111686686D01*
X141788273Y-111791995D01*
X141559465Y-111944880D01*
X141364880Y-112139465D01*
X141211995Y-112368273D01*
X141106686Y-112622510D01*
X141053000Y-112892408D01*
X141053000Y-113167592D01*
X141106686Y-113437490D01*
X141211995Y-113691727D01*
X141364880Y-113920535D01*
X141559465Y-114115120D01*
X141788273Y-114268005D01*
X141865515Y-114300000D01*
X141788273Y-114331995D01*
X141559465Y-114484880D01*
X141364880Y-114679465D01*
X141211995Y-114908273D01*
X141106686Y-115162510D01*
X141053000Y-115432408D01*
X141053000Y-115707592D01*
X141106686Y-115977490D01*
X141211995Y-116231727D01*
X141364880Y-116460535D01*
X141559465Y-116655120D01*
X141788273Y-116808005D01*
X141865515Y-116840000D01*
X141788273Y-116871995D01*
X141559465Y-117024880D01*
X141364880Y-117219465D01*
X141211995Y-117448273D01*
X141106686Y-117702510D01*
X141053000Y-117972408D01*
X141053000Y-118247592D01*
X141106686Y-118517490D01*
X141211995Y-118771727D01*
X141364880Y-119000535D01*
X141559465Y-119195120D01*
X141788273Y-119348005D01*
X141865515Y-119380000D01*
X141788273Y-119411995D01*
X141559465Y-119564880D01*
X141364880Y-119759465D01*
X141211995Y-119988273D01*
X141106686Y-120242510D01*
X141053000Y-120512408D01*
X141053000Y-120787592D01*
X141106686Y-121057490D01*
X141211995Y-121311727D01*
X141364880Y-121540535D01*
X141559465Y-121735120D01*
X141788273Y-121888005D01*
X141865515Y-121920000D01*
X141788273Y-121951995D01*
X141559465Y-122104880D01*
X141364880Y-122299465D01*
X141211995Y-122528273D01*
X141106686Y-122782510D01*
X141053000Y-123052408D01*
X141053000Y-123327592D01*
X141106686Y-123597490D01*
X141211995Y-123851727D01*
X141364880Y-124080535D01*
X141559465Y-124275120D01*
X141788273Y-124428005D01*
X141865515Y-124460000D01*
X141788273Y-124491995D01*
X141559465Y-124644880D01*
X141364880Y-124839465D01*
X141211995Y-125068273D01*
X141106686Y-125322510D01*
X141053000Y-125592408D01*
X141053000Y-125867592D01*
X141106686Y-126137490D01*
X141211995Y-126391727D01*
X141364880Y-126620535D01*
X141559465Y-126815120D01*
X141788273Y-126968005D01*
X141865515Y-127000000D01*
X141788273Y-127031995D01*
X141559465Y-127184880D01*
X141364880Y-127379465D01*
X141211995Y-127608273D01*
X141106686Y-127862510D01*
X141053000Y-128132408D01*
X141053000Y-128407592D01*
X141106686Y-128677490D01*
X141211995Y-128931727D01*
X141238099Y-128970794D01*
X141211709Y-129002950D01*
X140289660Y-129925000D01*
X130838818Y-129925000D01*
X130835120Y-129919465D01*
X130640535Y-129724880D01*
X130411727Y-129571995D01*
X130157490Y-129466686D01*
X129887592Y-129413000D01*
X129612408Y-129413000D01*
X129342510Y-129466686D01*
X129088273Y-129571995D01*
X128859465Y-129724880D01*
X128664880Y-129919465D01*
X128511995Y-130148273D01*
X128406686Y-130402510D01*
X128353000Y-130672408D01*
X128353000Y-130947592D01*
X128406686Y-131217490D01*
X128511995Y-131471727D01*
X128664880Y-131700535D01*
X128837345Y-131873000D01*
X127399792Y-131873000D01*
X127440001Y-131840001D01*
X127463803Y-131810998D01*
X127811003Y-131463799D01*
X127840001Y-131440001D01*
X127934974Y-131324276D01*
X128005546Y-131192247D01*
X128049003Y-131048986D01*
X128060000Y-130937333D01*
X128060000Y-130937324D01*
X128063676Y-130900001D01*
X128060000Y-130862678D01*
X128060000Y-128637322D01*
X128063676Y-128599999D01*
X128060000Y-128562676D01*
X128060000Y-128562667D01*
X128049003Y-128451014D01*
X128005546Y-128307753D01*
X127934974Y-128175724D01*
X127840001Y-128059999D01*
X127811003Y-128036201D01*
X126932804Y-127158002D01*
X126933158Y-127157932D01*
X127203411Y-127045990D01*
X127446632Y-126883475D01*
X127653475Y-126676632D01*
X127778178Y-126490000D01*
X128577659Y-126490000D01*
X128664880Y-126620535D01*
X128859465Y-126815120D01*
X129088273Y-126968005D01*
X129342510Y-127073314D01*
X129612408Y-127127000D01*
X129887592Y-127127000D01*
X130157490Y-127073314D01*
X130411727Y-126968005D01*
X130640535Y-126815120D01*
X130835120Y-126620535D01*
X130988005Y-126391727D01*
X131093314Y-126137490D01*
X131147000Y-125867592D01*
X131147000Y-125592408D01*
X131093314Y-125322510D01*
X130988005Y-125068273D01*
X130835120Y-124839465D01*
X130640535Y-124644880D01*
X130411727Y-124491995D01*
X130334485Y-124460000D01*
X130411727Y-124428005D01*
X130640535Y-124275120D01*
X130835120Y-124080535D01*
X130988005Y-123851727D01*
X131093314Y-123597490D01*
X131147000Y-123327592D01*
X131147000Y-123052408D01*
X131093314Y-122782510D01*
X130988005Y-122528273D01*
X130835120Y-122299465D01*
X130640535Y-122104880D01*
X130411727Y-121951995D01*
X130334485Y-121920000D01*
X130411727Y-121888005D01*
X130640535Y-121735120D01*
X130835120Y-121540535D01*
X130988005Y-121311727D01*
X131093314Y-121057490D01*
X131147000Y-120787592D01*
X131147000Y-120512408D01*
X131093314Y-120242510D01*
X130988005Y-119988273D01*
X130835120Y-119759465D01*
X130640535Y-119564880D01*
X130411727Y-119411995D01*
X130334485Y-119380000D01*
X130411727Y-119348005D01*
X130640535Y-119195120D01*
X130835120Y-119000535D01*
X130988005Y-118771727D01*
X131093314Y-118517490D01*
X131147000Y-118247592D01*
X131147000Y-117972408D01*
X131093314Y-117702510D01*
X130988005Y-117448273D01*
X130835120Y-117219465D01*
X130640535Y-117024880D01*
X130411727Y-116871995D01*
X130334485Y-116840000D01*
X130411727Y-116808005D01*
X130640535Y-116655120D01*
X130835120Y-116460535D01*
X130988005Y-116231727D01*
X131093314Y-115977490D01*
X131147000Y-115707592D01*
X131147000Y-115432408D01*
X131145701Y-115425877D01*
X134095049Y-112476530D01*
X134128817Y-112448817D01*
X134166982Y-112402314D01*
X134239411Y-112314059D01*
X134267536Y-112261440D01*
X134321589Y-112160313D01*
X134372195Y-111993490D01*
X134385000Y-111863477D01*
X134385000Y-111863469D01*
X134389281Y-111820000D01*
X134385000Y-111776531D01*
X134385000Y-90451867D01*
X134467581Y-90460000D01*
G04 #@! TA.AperFunction,Conductor*
D25*
G36*
X134467581Y-90460000D02*
G01*
X134500000Y-90463193D01*
X134532419Y-90460000D01*
X141454345Y-90460000D01*
X141364880Y-90549465D01*
X141211995Y-90778273D01*
X141106686Y-91032510D01*
X141053000Y-91302408D01*
X141053000Y-91577592D01*
X141106686Y-91847490D01*
X141211995Y-92101727D01*
X141364880Y-92330535D01*
X141559465Y-92525120D01*
X141788273Y-92678005D01*
X141865515Y-92710000D01*
X141788273Y-92741995D01*
X141559465Y-92894880D01*
X141364880Y-93089465D01*
X141211995Y-93318273D01*
X141106686Y-93572510D01*
X141053000Y-93842408D01*
X141053000Y-94117592D01*
X141106686Y-94387490D01*
X141211995Y-94641727D01*
X141364880Y-94870535D01*
X141559465Y-95065120D01*
X141788273Y-95218005D01*
X141865515Y-95250000D01*
X141788273Y-95281995D01*
X141559465Y-95434880D01*
X141364880Y-95629465D01*
X141211995Y-95858273D01*
X141106686Y-96112510D01*
X141053000Y-96382408D01*
X141053000Y-96657592D01*
X141106686Y-96927490D01*
X141211995Y-97181727D01*
X141364880Y-97410535D01*
X141559465Y-97605120D01*
X141788273Y-97758005D01*
X141865515Y-97790000D01*
X141788273Y-97821995D01*
X141559465Y-97974880D01*
X141364880Y-98169465D01*
X141211995Y-98398273D01*
X141106686Y-98652510D01*
X141053000Y-98922408D01*
X141053000Y-99197592D01*
X141106686Y-99467490D01*
X141211995Y-99721727D01*
X141364880Y-99950535D01*
X141559465Y-100145120D01*
X141788273Y-100298005D01*
X141865515Y-100330000D01*
X141788273Y-100361995D01*
X141559465Y-100514880D01*
X141364880Y-100709465D01*
X141211995Y-100938273D01*
X141106686Y-101192510D01*
X141053000Y-101462408D01*
X141053000Y-101737592D01*
X141106686Y-102007490D01*
X141211995Y-102261727D01*
X141364880Y-102490535D01*
X141559465Y-102685120D01*
X141788273Y-102838005D01*
X141865515Y-102870000D01*
X141788273Y-102901995D01*
X141559465Y-103054880D01*
X141364880Y-103249465D01*
X141211995Y-103478273D01*
X141106686Y-103732510D01*
X141053000Y-104002408D01*
X141053000Y-104277592D01*
X141106686Y-104547490D01*
X141211995Y-104801727D01*
X141364880Y-105030535D01*
X141559465Y-105225120D01*
X141788273Y-105378005D01*
X141865515Y-105410000D01*
X141788273Y-105441995D01*
X141559465Y-105594880D01*
X141364880Y-105789465D01*
X141211995Y-106018273D01*
X141106686Y-106272510D01*
X141053000Y-106542408D01*
X141053000Y-106817592D01*
X141106686Y-107087490D01*
X141211995Y-107341727D01*
X141364880Y-107570535D01*
X141559465Y-107765120D01*
X141788273Y-107918005D01*
X141865515Y-107950000D01*
X141788273Y-107981995D01*
X141559465Y-108134880D01*
X141364880Y-108329465D01*
X141211995Y-108558273D01*
X141106686Y-108812510D01*
X141053000Y-109082408D01*
X141053000Y-109357592D01*
X141106686Y-109627490D01*
X141211995Y-109881727D01*
X141364880Y-110110535D01*
X141559465Y-110305120D01*
X141788273Y-110458005D01*
X142042510Y-110563314D01*
X142312408Y-110617000D01*
X142587592Y-110617000D01*
X142857490Y-110563314D01*
X143111727Y-110458005D01*
X143340535Y-110305120D01*
X143535120Y-110110535D01*
X143688005Y-109881727D01*
X143793314Y-109627490D01*
X143847000Y-109357592D01*
X143847000Y-109082408D01*
X143816372Y-108928429D01*
X146109803Y-106634999D01*
X148568456Y-106634999D01*
X148515000Y-106903740D01*
X148515000Y-107196260D01*
X148572068Y-107483158D01*
X148684010Y-107753411D01*
X148846525Y-107996632D01*
X149053368Y-108203475D01*
X149296589Y-108365990D01*
X149566842Y-108477932D01*
X149853740Y-108535000D01*
X150146260Y-108535000D01*
X150433158Y-108477932D01*
X150703411Y-108365990D01*
X150946632Y-108203475D01*
X151153475Y-107996632D01*
X151270000Y-107822240D01*
X151386525Y-107996632D01*
X151593368Y-108203475D01*
X151836589Y-108365990D01*
X152106842Y-108477932D01*
X152393740Y-108535000D01*
X152686260Y-108535000D01*
X152973158Y-108477932D01*
X153243411Y-108365990D01*
X153486632Y-108203475D01*
X153693475Y-107996632D01*
X153811497Y-107820000D01*
X154971822Y-107820000D01*
X155096525Y-108006632D01*
X155303368Y-108213475D01*
X155546589Y-108375990D01*
X155816842Y-108487932D01*
X156103740Y-108545000D01*
X156396260Y-108545000D01*
X156683158Y-108487932D01*
X156953411Y-108375990D01*
X157101142Y-108277279D01*
X156613421Y-108765000D01*
X156588212Y-108765000D01*
X156368933Y-108808617D01*
X156162376Y-108894176D01*
X155976480Y-109018388D01*
X155818388Y-109176480D01*
X155694176Y-109362376D01*
X155608617Y-109568933D01*
X155565000Y-109788212D01*
X155565000Y-109813422D01*
X155225922Y-110152500D01*
X153847328Y-110152500D01*
X153779792Y-110070208D01*
X153646164Y-109960542D01*
X153493709Y-109879053D01*
X153328285Y-109828872D01*
X153156250Y-109811928D01*
X152243750Y-109811928D01*
X152071715Y-109828872D01*
X151906291Y-109879053D01*
X151754850Y-109960000D01*
X150598476Y-109960000D01*
X150555000Y-109955718D01*
X150511523Y-109960000D01*
X150388072Y-109960000D01*
X150388072Y-109655000D01*
X150375812Y-109530518D01*
X150339502Y-109410820D01*
X150280537Y-109300506D01*
X150201185Y-109203815D01*
X150104494Y-109124463D01*
X149994180Y-109065498D01*
X149874482Y-109029188D01*
X149750000Y-109016928D01*
X145050000Y-109016928D01*
X144925518Y-109029188D01*
X144805820Y-109065498D01*
X144695506Y-109124463D01*
X144598815Y-109203815D01*
X144519463Y-109300506D01*
X144460498Y-109410820D01*
X144424188Y-109530518D01*
X144411928Y-109655000D01*
X144411928Y-110835000D01*
X144424188Y-110959482D01*
X144460498Y-111079180D01*
X144519463Y-111189494D01*
X144598815Y-111286185D01*
X144695506Y-111365537D01*
X144805820Y-111424502D01*
X144925518Y-111460812D01*
X145050000Y-111473072D01*
X146970572Y-111473072D01*
X146971183Y-111473817D01*
X147105941Y-111584411D01*
X147259687Y-111666589D01*
X147426510Y-111717195D01*
X147556523Y-111730000D01*
X147556531Y-111730000D01*
X147600000Y-111734281D01*
X147643469Y-111730000D01*
X149670001Y-111730000D01*
X149670001Y-112298477D01*
X149672803Y-112326928D01*
X145050000Y-112326928D01*
X144925518Y-112339188D01*
X144805820Y-112375498D01*
X144695506Y-112434463D01*
X144598815Y-112513815D01*
X144519463Y-112610506D01*
X144460498Y-112720820D01*
X144424188Y-112840518D01*
X144411928Y-112965000D01*
X144411928Y-114145000D01*
X144424188Y-114269482D01*
X144460498Y-114389180D01*
X144519463Y-114499494D01*
X144598815Y-114596185D01*
X144695506Y-114675537D01*
X144805820Y-114734502D01*
X144925518Y-114770812D01*
X145050000Y-114783072D01*
X145640000Y-114783072D01*
X145640001Y-116762668D01*
X145636324Y-116800000D01*
X145640001Y-116837333D01*
X145650998Y-116948986D01*
X145656639Y-116967581D01*
X145694454Y-117092246D01*
X145765026Y-117224276D01*
X145831090Y-117304774D01*
X145860000Y-117340001D01*
X145888998Y-117363799D01*
X145938736Y-117413537D01*
X145815226Y-117496063D01*
X145671063Y-117640226D01*
X145557795Y-117809744D01*
X145479774Y-117998102D01*
X145440000Y-118198061D01*
X145440000Y-118401939D01*
X145479774Y-118601898D01*
X145554350Y-118781939D01*
X145496063Y-118840226D01*
X145382795Y-119009744D01*
X145304774Y-119198102D01*
X145265000Y-119398061D01*
X145265000Y-119601939D01*
X145304774Y-119801898D01*
X145382795Y-119990256D01*
X145496063Y-120159774D01*
X145640226Y-120303937D01*
X145809744Y-120417205D01*
X145998102Y-120495226D01*
X146054957Y-120506535D01*
X146063422Y-120515000D01*
X145638454Y-120515000D01*
X145590256Y-120482795D01*
X145401898Y-120404774D01*
X145201939Y-120365000D01*
X144998061Y-120365000D01*
X144798102Y-120404774D01*
X144609744Y-120482795D01*
X144440226Y-120596063D01*
X144296063Y-120740226D01*
X144182795Y-120909744D01*
X144104774Y-121098102D01*
X144065000Y-121298061D01*
X144065000Y-121501939D01*
X144104774Y-121701898D01*
X144182795Y-121890256D01*
X144296063Y-122059774D01*
X144440226Y-122203937D01*
X144586018Y-122301352D01*
X143845003Y-123042368D01*
X143793314Y-122782510D01*
X143688005Y-122528273D01*
X143535120Y-122299465D01*
X143340535Y-122104880D01*
X143111727Y-121951995D01*
X143034485Y-121920000D01*
X143111727Y-121888005D01*
X143340535Y-121735120D01*
X143535120Y-121540535D01*
X143688005Y-121311727D01*
X143793314Y-121057490D01*
X143847000Y-120787592D01*
X143847000Y-120512408D01*
X143793314Y-120242510D01*
X143688005Y-119988273D01*
X143535120Y-119759465D01*
X143340535Y-119564880D01*
X143111727Y-119411995D01*
X143034485Y-119380000D01*
X143111727Y-119348005D01*
X143340535Y-119195120D01*
X143535120Y-119000535D01*
X143688005Y-118771727D01*
X143793314Y-118517490D01*
X143847000Y-118247592D01*
X143847000Y-117972408D01*
X143793314Y-117702510D01*
X143688005Y-117448273D01*
X143535120Y-117219465D01*
X143340535Y-117024880D01*
X143111727Y-116871995D01*
X143034485Y-116840000D01*
X143111727Y-116808005D01*
X143340535Y-116655120D01*
X143535120Y-116460535D01*
X143688005Y-116231727D01*
X143793314Y-115977490D01*
X143847000Y-115707592D01*
X143847000Y-115432408D01*
X143793314Y-115162510D01*
X143688005Y-114908273D01*
X143535120Y-114679465D01*
X143340535Y-114484880D01*
X143111727Y-114331995D01*
X143034485Y-114300000D01*
X143111727Y-114268005D01*
X143340535Y-114115120D01*
X143535120Y-113920535D01*
X143688005Y-113691727D01*
X143793314Y-113437490D01*
X143847000Y-113167592D01*
X143847000Y-112892408D01*
X143793314Y-112622510D01*
X143688005Y-112368273D01*
X143535120Y-112139465D01*
X143340535Y-111944880D01*
X143111727Y-111791995D01*
X142857490Y-111686686D01*
X142587592Y-111633000D01*
X142312408Y-111633000D01*
X142042510Y-111686686D01*
X141788273Y-111791995D01*
X141559465Y-111944880D01*
X141364880Y-112139465D01*
X141211995Y-112368273D01*
X141106686Y-112622510D01*
X141053000Y-112892408D01*
X141053000Y-113167592D01*
X141106686Y-113437490D01*
X141211995Y-113691727D01*
X141364880Y-113920535D01*
X141559465Y-114115120D01*
X141788273Y-114268005D01*
X141865515Y-114300000D01*
X141788273Y-114331995D01*
X141559465Y-114484880D01*
X141364880Y-114679465D01*
X141211995Y-114908273D01*
X141106686Y-115162510D01*
X141053000Y-115432408D01*
X141053000Y-115707592D01*
X141106686Y-115977490D01*
X141211995Y-116231727D01*
X141364880Y-116460535D01*
X141559465Y-116655120D01*
X141788273Y-116808005D01*
X141865515Y-116840000D01*
X141788273Y-116871995D01*
X141559465Y-117024880D01*
X141364880Y-117219465D01*
X141211995Y-117448273D01*
X141106686Y-117702510D01*
X141053000Y-117972408D01*
X141053000Y-118247592D01*
X141106686Y-118517490D01*
X141211995Y-118771727D01*
X141364880Y-119000535D01*
X141559465Y-119195120D01*
X141788273Y-119348005D01*
X141865515Y-119380000D01*
X141788273Y-119411995D01*
X141559465Y-119564880D01*
X141364880Y-119759465D01*
X141211995Y-119988273D01*
X141106686Y-120242510D01*
X141053000Y-120512408D01*
X141053000Y-120787592D01*
X141106686Y-121057490D01*
X141211995Y-121311727D01*
X141364880Y-121540535D01*
X141559465Y-121735120D01*
X141788273Y-121888005D01*
X141865515Y-121920000D01*
X141788273Y-121951995D01*
X141559465Y-122104880D01*
X141364880Y-122299465D01*
X141211995Y-122528273D01*
X141106686Y-122782510D01*
X141053000Y-123052408D01*
X141053000Y-123327592D01*
X141106686Y-123597490D01*
X141211995Y-123851727D01*
X141364880Y-124080535D01*
X141559465Y-124275120D01*
X141788273Y-124428005D01*
X141865515Y-124460000D01*
X141788273Y-124491995D01*
X141559465Y-124644880D01*
X141364880Y-124839465D01*
X141211995Y-125068273D01*
X141106686Y-125322510D01*
X141053000Y-125592408D01*
X141053000Y-125867592D01*
X141106686Y-126137490D01*
X141211995Y-126391727D01*
X141364880Y-126620535D01*
X141559465Y-126815120D01*
X141788273Y-126968005D01*
X141865515Y-127000000D01*
X141788273Y-127031995D01*
X141559465Y-127184880D01*
X141364880Y-127379465D01*
X141211995Y-127608273D01*
X141106686Y-127862510D01*
X141053000Y-128132408D01*
X141053000Y-128407592D01*
X141106686Y-128677490D01*
X141211995Y-128931727D01*
X141238099Y-128970794D01*
X141211709Y-129002950D01*
X140289660Y-129925000D01*
X130838818Y-129925000D01*
X130835120Y-129919465D01*
X130640535Y-129724880D01*
X130411727Y-129571995D01*
X130157490Y-129466686D01*
X129887592Y-129413000D01*
X129612408Y-129413000D01*
X129342510Y-129466686D01*
X129088273Y-129571995D01*
X128859465Y-129724880D01*
X128664880Y-129919465D01*
X128511995Y-130148273D01*
X128406686Y-130402510D01*
X128353000Y-130672408D01*
X128353000Y-130947592D01*
X128406686Y-131217490D01*
X128511995Y-131471727D01*
X128664880Y-131700535D01*
X128837345Y-131873000D01*
X127399792Y-131873000D01*
X127440001Y-131840001D01*
X127463803Y-131810998D01*
X127811003Y-131463799D01*
X127840001Y-131440001D01*
X127934974Y-131324276D01*
X128005546Y-131192247D01*
X128049003Y-131048986D01*
X128060000Y-130937333D01*
X128060000Y-130937324D01*
X128063676Y-130900001D01*
X128060000Y-130862678D01*
X128060000Y-128637322D01*
X128063676Y-128599999D01*
X128060000Y-128562676D01*
X128060000Y-128562667D01*
X128049003Y-128451014D01*
X128005546Y-128307753D01*
X127934974Y-128175724D01*
X127840001Y-128059999D01*
X127811003Y-128036201D01*
X126932804Y-127158002D01*
X126933158Y-127157932D01*
X127203411Y-127045990D01*
X127446632Y-126883475D01*
X127653475Y-126676632D01*
X127778178Y-126490000D01*
X128577659Y-126490000D01*
X128664880Y-126620535D01*
X128859465Y-126815120D01*
X129088273Y-126968005D01*
X129342510Y-127073314D01*
X129612408Y-127127000D01*
X129887592Y-127127000D01*
X130157490Y-127073314D01*
X130411727Y-126968005D01*
X130640535Y-126815120D01*
X130835120Y-126620535D01*
X130988005Y-126391727D01*
X131093314Y-126137490D01*
X131147000Y-125867592D01*
X131147000Y-125592408D01*
X131093314Y-125322510D01*
X130988005Y-125068273D01*
X130835120Y-124839465D01*
X130640535Y-124644880D01*
X130411727Y-124491995D01*
X130334485Y-124460000D01*
X130411727Y-124428005D01*
X130640535Y-124275120D01*
X130835120Y-124080535D01*
X130988005Y-123851727D01*
X131093314Y-123597490D01*
X131147000Y-123327592D01*
X131147000Y-123052408D01*
X131093314Y-122782510D01*
X130988005Y-122528273D01*
X130835120Y-122299465D01*
X130640535Y-122104880D01*
X130411727Y-121951995D01*
X130334485Y-121920000D01*
X130411727Y-121888005D01*
X130640535Y-121735120D01*
X130835120Y-121540535D01*
X130988005Y-121311727D01*
X131093314Y-121057490D01*
X131147000Y-120787592D01*
X131147000Y-120512408D01*
X131093314Y-120242510D01*
X130988005Y-119988273D01*
X130835120Y-119759465D01*
X130640535Y-119564880D01*
X130411727Y-119411995D01*
X130334485Y-119380000D01*
X130411727Y-119348005D01*
X130640535Y-119195120D01*
X130835120Y-119000535D01*
X130988005Y-118771727D01*
X131093314Y-118517490D01*
X131147000Y-118247592D01*
X131147000Y-117972408D01*
X131093314Y-117702510D01*
X130988005Y-117448273D01*
X130835120Y-117219465D01*
X130640535Y-117024880D01*
X130411727Y-116871995D01*
X130334485Y-116840000D01*
X130411727Y-116808005D01*
X130640535Y-116655120D01*
X130835120Y-116460535D01*
X130988005Y-116231727D01*
X131093314Y-115977490D01*
X131147000Y-115707592D01*
X131147000Y-115432408D01*
X131145701Y-115425877D01*
X134095049Y-112476530D01*
X134128817Y-112448817D01*
X134166982Y-112402314D01*
X134239411Y-112314059D01*
X134267536Y-112261440D01*
X134321589Y-112160313D01*
X134372195Y-111993490D01*
X134385000Y-111863477D01*
X134385000Y-111863469D01*
X134389281Y-111820000D01*
X134385000Y-111776531D01*
X134385000Y-90451867D01*
X134467581Y-90460000D01*
G37*
G04 #@! TD.AperFunction*
D24*
X120753206Y-127328009D02*
X120777000Y-127357002D01*
X120805993Y-127380796D01*
X120805997Y-127380800D01*
X120876686Y-127438812D01*
X120892725Y-127451975D01*
X121024754Y-127522547D01*
X121168015Y-127566004D01*
X121279668Y-127577001D01*
X121279677Y-127577001D01*
X121317000Y-127580677D01*
X121354323Y-127577001D01*
X122132890Y-127577001D01*
X122111995Y-127608273D01*
X122006686Y-127862510D01*
X121953000Y-128132408D01*
X121953000Y-128407592D01*
X122006686Y-128677490D01*
X122020371Y-128710527D01*
X122002000Y-128708718D01*
X121958534Y-128712999D01*
X121958524Y-128712999D01*
X121828511Y-128725804D01*
X121661688Y-128776410D01*
X121507942Y-128858588D01*
X121507940Y-128858589D01*
X121507941Y-128858589D01*
X121406954Y-128941467D01*
X121406952Y-128941469D01*
X121373184Y-128969182D01*
X121345471Y-129002950D01*
X120423422Y-129925000D01*
X111738818Y-129925000D01*
X111735120Y-129919465D01*
X111540535Y-129724880D01*
X111311727Y-129571995D01*
X111057490Y-129466686D01*
X110787592Y-129413000D01*
X110512408Y-129413000D01*
X110242510Y-129466686D01*
X109988273Y-129571995D01*
X109759465Y-129724880D01*
X109564880Y-129919465D01*
X109411995Y-130148273D01*
X109306686Y-130402510D01*
X109253000Y-130672408D01*
X109253000Y-130947592D01*
X109306686Y-131217490D01*
X109411995Y-131471727D01*
X109564880Y-131700535D01*
X109737345Y-131873000D01*
X106127000Y-131873000D01*
X106127000Y-126295776D01*
X106184010Y-126433411D01*
X106346525Y-126676632D01*
X106553368Y-126883475D01*
X106796589Y-127045990D01*
X107066842Y-127157932D01*
X107353740Y-127215000D01*
X107646260Y-127215000D01*
X107933158Y-127157932D01*
X108203411Y-127045990D01*
X108446632Y-126883475D01*
X108653475Y-126676632D01*
X108778178Y-126490000D01*
X109477659Y-126490000D01*
X109564880Y-126620535D01*
X109759465Y-126815120D01*
X109988273Y-126968005D01*
X110242510Y-127073314D01*
X110512408Y-127127000D01*
X110787592Y-127127000D01*
X111057490Y-127073314D01*
X111311727Y-126968005D01*
X111540535Y-126815120D01*
X111735120Y-126620535D01*
X111888005Y-126391727D01*
X111993314Y-126137490D01*
X112047000Y-125867592D01*
X112047000Y-125592408D01*
X111993314Y-125322510D01*
X111888005Y-125068273D01*
X111735120Y-124839465D01*
X111540535Y-124644880D01*
X111311727Y-124491995D01*
X111234485Y-124460000D01*
X111311727Y-124428005D01*
X111540535Y-124275120D01*
X111735120Y-124080535D01*
X111888005Y-123851727D01*
X111993314Y-123597490D01*
X112047000Y-123327592D01*
X112047000Y-123052408D01*
X111993314Y-122782510D01*
X111888005Y-122528273D01*
X111735120Y-122299465D01*
X111540535Y-122104880D01*
X111311727Y-121951995D01*
X111234485Y-121920000D01*
X111311727Y-121888005D01*
X111540535Y-121735120D01*
X111735120Y-121540535D01*
X111888005Y-121311727D01*
X111990202Y-121065003D01*
X119140485Y-128215287D01*
X119149010Y-128258145D01*
X119215723Y-128419205D01*
X119312576Y-128564155D01*
X119435845Y-128687424D01*
X119580795Y-128784277D01*
X119741855Y-128850990D01*
X119912835Y-128885000D01*
X120087165Y-128885000D01*
X120258145Y-128850990D01*
X120419205Y-128784277D01*
X120564155Y-128687424D01*
X120687424Y-128564155D01*
X120784277Y-128419205D01*
X120850990Y-128258145D01*
X120885000Y-128087165D01*
X120885000Y-127912835D01*
X120850990Y-127741855D01*
X120784277Y-127580795D01*
X120687424Y-127435845D01*
X120564155Y-127312576D01*
X120419205Y-127215723D01*
X120258145Y-127149010D01*
X120215287Y-127140485D01*
X111871392Y-118796591D01*
X111888005Y-118771727D01*
X111978486Y-118553287D01*
X120753206Y-127328009D01*
G04 #@! TA.AperFunction,Conductor*
D25*
G36*
X120753206Y-127328009D02*
G01*
X120777000Y-127357002D01*
X120805993Y-127380796D01*
X120805997Y-127380800D01*
X120876686Y-127438812D01*
X120892725Y-127451975D01*
X121024754Y-127522547D01*
X121168015Y-127566004D01*
X121279668Y-127577001D01*
X121279677Y-127577001D01*
X121317000Y-127580677D01*
X121354323Y-127577001D01*
X122132890Y-127577001D01*
X122111995Y-127608273D01*
X122006686Y-127862510D01*
X121953000Y-128132408D01*
X121953000Y-128407592D01*
X122006686Y-128677490D01*
X122020371Y-128710527D01*
X122002000Y-128708718D01*
X121958534Y-128712999D01*
X121958524Y-128712999D01*
X121828511Y-128725804D01*
X121661688Y-128776410D01*
X121507942Y-128858588D01*
X121507940Y-128858589D01*
X121507941Y-128858589D01*
X121406954Y-128941467D01*
X121406952Y-128941469D01*
X121373184Y-128969182D01*
X121345471Y-129002950D01*
X120423422Y-129925000D01*
X111738818Y-129925000D01*
X111735120Y-129919465D01*
X111540535Y-129724880D01*
X111311727Y-129571995D01*
X111057490Y-129466686D01*
X110787592Y-129413000D01*
X110512408Y-129413000D01*
X110242510Y-129466686D01*
X109988273Y-129571995D01*
X109759465Y-129724880D01*
X109564880Y-129919465D01*
X109411995Y-130148273D01*
X109306686Y-130402510D01*
X109253000Y-130672408D01*
X109253000Y-130947592D01*
X109306686Y-131217490D01*
X109411995Y-131471727D01*
X109564880Y-131700535D01*
X109737345Y-131873000D01*
X106127000Y-131873000D01*
X106127000Y-126295776D01*
X106184010Y-126433411D01*
X106346525Y-126676632D01*
X106553368Y-126883475D01*
X106796589Y-127045990D01*
X107066842Y-127157932D01*
X107353740Y-127215000D01*
X107646260Y-127215000D01*
X107933158Y-127157932D01*
X108203411Y-127045990D01*
X108446632Y-126883475D01*
X108653475Y-126676632D01*
X108778178Y-126490000D01*
X109477659Y-126490000D01*
X109564880Y-126620535D01*
X109759465Y-126815120D01*
X109988273Y-126968005D01*
X110242510Y-127073314D01*
X110512408Y-127127000D01*
X110787592Y-127127000D01*
X111057490Y-127073314D01*
X111311727Y-126968005D01*
X111540535Y-126815120D01*
X111735120Y-126620535D01*
X111888005Y-126391727D01*
X111993314Y-126137490D01*
X112047000Y-125867592D01*
X112047000Y-125592408D01*
X111993314Y-125322510D01*
X111888005Y-125068273D01*
X111735120Y-124839465D01*
X111540535Y-124644880D01*
X111311727Y-124491995D01*
X111234485Y-124460000D01*
X111311727Y-124428005D01*
X111540535Y-124275120D01*
X111735120Y-124080535D01*
X111888005Y-123851727D01*
X111993314Y-123597490D01*
X112047000Y-123327592D01*
X112047000Y-123052408D01*
X111993314Y-122782510D01*
X111888005Y-122528273D01*
X111735120Y-122299465D01*
X111540535Y-122104880D01*
X111311727Y-121951995D01*
X111234485Y-121920000D01*
X111311727Y-121888005D01*
X111540535Y-121735120D01*
X111735120Y-121540535D01*
X111888005Y-121311727D01*
X111990202Y-121065003D01*
X119140485Y-128215287D01*
X119149010Y-128258145D01*
X119215723Y-128419205D01*
X119312576Y-128564155D01*
X119435845Y-128687424D01*
X119580795Y-128784277D01*
X119741855Y-128850990D01*
X119912835Y-128885000D01*
X120087165Y-128885000D01*
X120258145Y-128850990D01*
X120419205Y-128784277D01*
X120564155Y-128687424D01*
X120687424Y-128564155D01*
X120784277Y-128419205D01*
X120850990Y-128258145D01*
X120885000Y-128087165D01*
X120885000Y-127912835D01*
X120850990Y-127741855D01*
X120784277Y-127580795D01*
X120687424Y-127435845D01*
X120564155Y-127312576D01*
X120419205Y-127215723D01*
X120258145Y-127149010D01*
X120215287Y-127140485D01*
X111871392Y-118796591D01*
X111888005Y-118771727D01*
X111978486Y-118553287D01*
X120753206Y-127328009D01*
G37*
G04 #@! TD.AperFunction*
D24*
X152431862Y-125189685D02*
X152910315Y-125668138D01*
X153472918Y-126044057D01*
X154098048Y-126302994D01*
X154115000Y-126306366D01*
X154115000Y-127233421D01*
X150983421Y-130365001D01*
X147116580Y-130365001D01*
X145754533Y-129002955D01*
X145726816Y-128969182D01*
X145592058Y-128858588D01*
X145438312Y-128776410D01*
X145271489Y-128725804D01*
X145141476Y-128712999D01*
X145141468Y-128712999D01*
X145097999Y-128708718D01*
X145054530Y-128712999D01*
X144412546Y-128712999D01*
X144501898Y-128695226D01*
X144690256Y-128617205D01*
X144859774Y-128503937D01*
X145003937Y-128359774D01*
X145117205Y-128190256D01*
X145195226Y-128001898D01*
X145206535Y-127945043D01*
X148066579Y-125085000D01*
X152256531Y-125085000D01*
X152300000Y-125089281D01*
X152343469Y-125085000D01*
X152343477Y-125085000D01*
X152360775Y-125083296D01*
X152431862Y-125189685D01*
G04 #@! TA.AperFunction,Conductor*
D25*
G36*
X152431862Y-125189685D02*
G01*
X152910315Y-125668138D01*
X153472918Y-126044057D01*
X154098048Y-126302994D01*
X154115000Y-126306366D01*
X154115000Y-127233421D01*
X150983421Y-130365001D01*
X147116580Y-130365001D01*
X145754533Y-129002955D01*
X145726816Y-128969182D01*
X145592058Y-128858588D01*
X145438312Y-128776410D01*
X145271489Y-128725804D01*
X145141476Y-128712999D01*
X145141468Y-128712999D01*
X145097999Y-128708718D01*
X145054530Y-128712999D01*
X144412546Y-128712999D01*
X144501898Y-128695226D01*
X144690256Y-128617205D01*
X144859774Y-128503937D01*
X145003937Y-128359774D01*
X145117205Y-128190256D01*
X145195226Y-128001898D01*
X145206535Y-127945043D01*
X148066579Y-125085000D01*
X152256531Y-125085000D01*
X152300000Y-125089281D01*
X152343469Y-125085000D01*
X152343477Y-125085000D01*
X152360775Y-125083296D01*
X152431862Y-125189685D01*
G37*
G04 #@! TD.AperFunction*
D24*
X120440000Y-112614802D02*
X120440001Y-113382668D01*
X120436324Y-113420000D01*
X120440001Y-113457333D01*
X120450998Y-113568986D01*
X120458525Y-113593799D01*
X120494454Y-113712246D01*
X120565026Y-113844276D01*
X120627611Y-113920535D01*
X120660000Y-113960001D01*
X120688998Y-113983799D01*
X121983628Y-115278430D01*
X121953000Y-115432408D01*
X121953000Y-115707592D01*
X121990676Y-115897001D01*
X120948580Y-115897001D01*
X120406535Y-115354957D01*
X120395226Y-115298102D01*
X120317205Y-115109744D01*
X120203937Y-114940226D01*
X120059774Y-114796063D01*
X119890256Y-114682795D01*
X119701898Y-114604774D01*
X119501939Y-114565000D01*
X119298061Y-114565000D01*
X119098102Y-114604774D01*
X118909744Y-114682795D01*
X118740226Y-114796063D01*
X118596063Y-114940226D01*
X118482795Y-115109744D01*
X118404774Y-115298102D01*
X118365000Y-115498061D01*
X118365000Y-115701939D01*
X118404774Y-115901898D01*
X118482795Y-116090256D01*
X118596063Y-116259774D01*
X118740226Y-116403937D01*
X118909744Y-116517205D01*
X119098102Y-116595226D01*
X119154957Y-116606535D01*
X119925471Y-117377050D01*
X119953184Y-117410818D01*
X119986952Y-117438531D01*
X119986954Y-117438533D01*
X120024015Y-117468948D01*
X120087942Y-117521412D01*
X120241688Y-117603590D01*
X120408511Y-117654196D01*
X120538524Y-117667001D01*
X120538532Y-117667001D01*
X120582001Y-117671282D01*
X120625470Y-117667001D01*
X122021394Y-117667001D01*
X122006686Y-117702510D01*
X121953000Y-117972408D01*
X121953000Y-118247592D01*
X122006686Y-118517490D01*
X122111995Y-118771727D01*
X122264880Y-119000535D01*
X122459465Y-119195120D01*
X122688273Y-119348005D01*
X122765515Y-119380000D01*
X122688273Y-119411995D01*
X122459465Y-119564880D01*
X122264880Y-119759465D01*
X122111995Y-119988273D01*
X122006686Y-120242510D01*
X121953000Y-120512408D01*
X121953000Y-120787592D01*
X122006686Y-121057490D01*
X122111995Y-121311727D01*
X122264880Y-121540535D01*
X122459465Y-121735120D01*
X122688273Y-121888005D01*
X122765515Y-121920000D01*
X122688273Y-121951995D01*
X122459465Y-122104880D01*
X122264880Y-122299465D01*
X122111995Y-122528273D01*
X122006686Y-122782510D01*
X121953000Y-123052408D01*
X121953000Y-123258198D01*
X112666803Y-113972002D01*
X112643000Y-113942998D01*
X112527275Y-113848025D01*
X112395246Y-113777453D01*
X112251985Y-113733996D01*
X112140332Y-113722999D01*
X112140321Y-113722999D01*
X112102999Y-113719323D01*
X112065677Y-113722999D01*
X107051802Y-113722999D01*
X108071803Y-112702999D01*
X114736762Y-112702999D01*
X114775724Y-112734974D01*
X114907753Y-112805546D01*
X115051014Y-112849003D01*
X115162667Y-112860000D01*
X115162677Y-112860000D01*
X115200000Y-112863676D01*
X115237323Y-112860000D01*
X119144462Y-112860000D01*
X119180795Y-112884277D01*
X119341855Y-112950990D01*
X119512835Y-112985000D01*
X119687165Y-112985000D01*
X119858145Y-112950990D01*
X120019205Y-112884277D01*
X120164155Y-112787424D01*
X120287424Y-112664155D01*
X120368306Y-112543108D01*
X120440000Y-112614802D01*
G04 #@! TA.AperFunction,Conductor*
D25*
G36*
X120440000Y-112614802D02*
G01*
X120440001Y-113382668D01*
X120436324Y-113420000D01*
X120440001Y-113457333D01*
X120450998Y-113568986D01*
X120458525Y-113593799D01*
X120494454Y-113712246D01*
X120565026Y-113844276D01*
X120627611Y-113920535D01*
X120660000Y-113960001D01*
X120688998Y-113983799D01*
X121983628Y-115278430D01*
X121953000Y-115432408D01*
X121953000Y-115707592D01*
X121990676Y-115897001D01*
X120948580Y-115897001D01*
X120406535Y-115354957D01*
X120395226Y-115298102D01*
X120317205Y-115109744D01*
X120203937Y-114940226D01*
X120059774Y-114796063D01*
X119890256Y-114682795D01*
X119701898Y-114604774D01*
X119501939Y-114565000D01*
X119298061Y-114565000D01*
X119098102Y-114604774D01*
X118909744Y-114682795D01*
X118740226Y-114796063D01*
X118596063Y-114940226D01*
X118482795Y-115109744D01*
X118404774Y-115298102D01*
X118365000Y-115498061D01*
X118365000Y-115701939D01*
X118404774Y-115901898D01*
X118482795Y-116090256D01*
X118596063Y-116259774D01*
X118740226Y-116403937D01*
X118909744Y-116517205D01*
X119098102Y-116595226D01*
X119154957Y-116606535D01*
X119925471Y-117377050D01*
X119953184Y-117410818D01*
X119986952Y-117438531D01*
X119986954Y-117438533D01*
X120024015Y-117468948D01*
X120087942Y-117521412D01*
X120241688Y-117603590D01*
X120408511Y-117654196D01*
X120538524Y-117667001D01*
X120538532Y-117667001D01*
X120582001Y-117671282D01*
X120625470Y-117667001D01*
X122021394Y-117667001D01*
X122006686Y-117702510D01*
X121953000Y-117972408D01*
X121953000Y-118247592D01*
X122006686Y-118517490D01*
X122111995Y-118771727D01*
X122264880Y-119000535D01*
X122459465Y-119195120D01*
X122688273Y-119348005D01*
X122765515Y-119380000D01*
X122688273Y-119411995D01*
X122459465Y-119564880D01*
X122264880Y-119759465D01*
X122111995Y-119988273D01*
X122006686Y-120242510D01*
X121953000Y-120512408D01*
X121953000Y-120787592D01*
X122006686Y-121057490D01*
X122111995Y-121311727D01*
X122264880Y-121540535D01*
X122459465Y-121735120D01*
X122688273Y-121888005D01*
X122765515Y-121920000D01*
X122688273Y-121951995D01*
X122459465Y-122104880D01*
X122264880Y-122299465D01*
X122111995Y-122528273D01*
X122006686Y-122782510D01*
X121953000Y-123052408D01*
X121953000Y-123258198D01*
X112666803Y-113972002D01*
X112643000Y-113942998D01*
X112527275Y-113848025D01*
X112395246Y-113777453D01*
X112251985Y-113733996D01*
X112140332Y-113722999D01*
X112140321Y-113722999D01*
X112102999Y-113719323D01*
X112065677Y-113722999D01*
X107051802Y-113722999D01*
X108071803Y-112702999D01*
X114736762Y-112702999D01*
X114775724Y-112734974D01*
X114907753Y-112805546D01*
X115051014Y-112849003D01*
X115162667Y-112860000D01*
X115162677Y-112860000D01*
X115200000Y-112863676D01*
X115237323Y-112860000D01*
X119144462Y-112860000D01*
X119180795Y-112884277D01*
X119341855Y-112950990D01*
X119512835Y-112985000D01*
X119687165Y-112985000D01*
X119858145Y-112950990D01*
X120019205Y-112884277D01*
X120164155Y-112787424D01*
X120287424Y-112664155D01*
X120368306Y-112543108D01*
X120440000Y-112614802D01*
G37*
G04 #@! TD.AperFunction*
D24*
X151965000Y-115738560D02*
X151976359Y-115853886D01*
X152021246Y-116001859D01*
X152094138Y-116138232D01*
X152192236Y-116257764D01*
X152311767Y-116355862D01*
X152329923Y-116365567D01*
X152322038Y-116372038D01*
X152211595Y-116506613D01*
X152129528Y-116660149D01*
X152078992Y-116826745D01*
X152061928Y-116999999D01*
X152061928Y-119200001D01*
X152078992Y-119373255D01*
X152129528Y-119539851D01*
X152211595Y-119693387D01*
X152322038Y-119827962D01*
X152456613Y-119938405D01*
X152599912Y-120015000D01*
X149441579Y-120015000D01*
X148189650Y-118763072D01*
X148475000Y-118763072D01*
X148648254Y-118746008D01*
X148814850Y-118695472D01*
X148968386Y-118613405D01*
X149102962Y-118502962D01*
X149213405Y-118368386D01*
X149295472Y-118214850D01*
X149346008Y-118048254D01*
X149363072Y-117875000D01*
X149363072Y-117411730D01*
X150314803Y-116460000D01*
X150462678Y-116460000D01*
X150500000Y-116463676D01*
X150537322Y-116460000D01*
X150537333Y-116460000D01*
X150648986Y-116449003D01*
X150792247Y-116405546D01*
X150924276Y-116334974D01*
X151040001Y-116240001D01*
X151063803Y-116210998D01*
X151536002Y-115738800D01*
X151565001Y-115715001D01*
X151614451Y-115654746D01*
X151659974Y-115599277D01*
X151692689Y-115538072D01*
X151965000Y-115538072D01*
X151965000Y-115738560D01*
G04 #@! TA.AperFunction,Conductor*
D25*
G36*
X151965000Y-115738560D02*
G01*
X151976359Y-115853886D01*
X152021246Y-116001859D01*
X152094138Y-116138232D01*
X152192236Y-116257764D01*
X152311767Y-116355862D01*
X152329923Y-116365567D01*
X152322038Y-116372038D01*
X152211595Y-116506613D01*
X152129528Y-116660149D01*
X152078992Y-116826745D01*
X152061928Y-116999999D01*
X152061928Y-119200001D01*
X152078992Y-119373255D01*
X152129528Y-119539851D01*
X152211595Y-119693387D01*
X152322038Y-119827962D01*
X152456613Y-119938405D01*
X152599912Y-120015000D01*
X149441579Y-120015000D01*
X148189650Y-118763072D01*
X148475000Y-118763072D01*
X148648254Y-118746008D01*
X148814850Y-118695472D01*
X148968386Y-118613405D01*
X149102962Y-118502962D01*
X149213405Y-118368386D01*
X149295472Y-118214850D01*
X149346008Y-118048254D01*
X149363072Y-117875000D01*
X149363072Y-117411730D01*
X150314803Y-116460000D01*
X150462678Y-116460000D01*
X150500000Y-116463676D01*
X150537322Y-116460000D01*
X150537333Y-116460000D01*
X150648986Y-116449003D01*
X150792247Y-116405546D01*
X150924276Y-116334974D01*
X151040001Y-116240001D01*
X151063803Y-116210998D01*
X151536002Y-115738800D01*
X151565001Y-115715001D01*
X151614451Y-115654746D01*
X151659974Y-115599277D01*
X151692689Y-115538072D01*
X151965000Y-115538072D01*
X151965000Y-115738560D01*
G37*
G04 #@! TD.AperFunction*
D24*
X157873000Y-116509249D02*
X157773255Y-116478992D01*
X157600001Y-116461928D01*
X156274230Y-116461928D01*
X155460000Y-115647699D01*
X155460000Y-114615557D01*
X155463676Y-114578234D01*
X155460000Y-114540911D01*
X155460000Y-114540902D01*
X155449003Y-114429249D01*
X155405546Y-114285988D01*
X155334974Y-114153959D01*
X155240001Y-114038234D01*
X155211003Y-114014436D01*
X154935568Y-113739002D01*
X154911766Y-113709999D01*
X154796041Y-113615026D01*
X154664012Y-113544454D01*
X154520751Y-113500997D01*
X154409098Y-113490000D01*
X154409087Y-113490000D01*
X154393936Y-113488508D01*
X154353887Y-113476359D01*
X154238561Y-113465000D01*
X154038072Y-113465000D01*
X154038072Y-113285000D01*
X155229604Y-113285000D01*
X155266684Y-113296248D01*
X155437500Y-113313072D01*
X156037500Y-113313072D01*
X156208316Y-113296248D01*
X156372567Y-113246423D01*
X156523942Y-113165512D01*
X156656623Y-113056623D01*
X156765512Y-112923942D01*
X156846423Y-112772567D01*
X156896248Y-112608316D01*
X156913072Y-112437500D01*
X156913072Y-111962500D01*
X156896248Y-111791684D01*
X156846423Y-111627433D01*
X156765512Y-111476058D01*
X156656623Y-111343377D01*
X156591580Y-111289998D01*
X156855217Y-111026362D01*
X157031067Y-110991383D01*
X157237624Y-110905824D01*
X157423520Y-110781612D01*
X157581612Y-110623520D01*
X157705824Y-110437624D01*
X157791383Y-110231067D01*
X157826361Y-110055217D01*
X157873000Y-110008578D01*
X157873000Y-116509249D01*
G04 #@! TA.AperFunction,Conductor*
D25*
G36*
X157873000Y-116509249D02*
G01*
X157773255Y-116478992D01*
X157600001Y-116461928D01*
X156274230Y-116461928D01*
X155460000Y-115647699D01*
X155460000Y-114615557D01*
X155463676Y-114578234D01*
X155460000Y-114540911D01*
X155460000Y-114540902D01*
X155449003Y-114429249D01*
X155405546Y-114285988D01*
X155334974Y-114153959D01*
X155240001Y-114038234D01*
X155211003Y-114014436D01*
X154935568Y-113739002D01*
X154911766Y-113709999D01*
X154796041Y-113615026D01*
X154664012Y-113544454D01*
X154520751Y-113500997D01*
X154409098Y-113490000D01*
X154409087Y-113490000D01*
X154393936Y-113488508D01*
X154353887Y-113476359D01*
X154238561Y-113465000D01*
X154038072Y-113465000D01*
X154038072Y-113285000D01*
X155229604Y-113285000D01*
X155266684Y-113296248D01*
X155437500Y-113313072D01*
X156037500Y-113313072D01*
X156208316Y-113296248D01*
X156372567Y-113246423D01*
X156523942Y-113165512D01*
X156656623Y-113056623D01*
X156765512Y-112923942D01*
X156846423Y-112772567D01*
X156896248Y-112608316D01*
X156913072Y-112437500D01*
X156913072Y-111962500D01*
X156896248Y-111791684D01*
X156846423Y-111627433D01*
X156765512Y-111476058D01*
X156656623Y-111343377D01*
X156591580Y-111289998D01*
X156855217Y-111026362D01*
X157031067Y-110991383D01*
X157237624Y-110905824D01*
X157423520Y-110781612D01*
X157581612Y-110623520D01*
X157705824Y-110437624D01*
X157791383Y-110231067D01*
X157826361Y-110055217D01*
X157873000Y-110008578D01*
X157873000Y-116509249D01*
G37*
G04 #@! TD.AperFunction*
D24*
X129955466Y-112307045D02*
X129966775Y-112363899D01*
X130044796Y-112552257D01*
X130158064Y-112721775D01*
X130302227Y-112865938D01*
X130471745Y-112979206D01*
X130660103Y-113057227D01*
X130860062Y-113097001D01*
X130971421Y-113097001D01*
X129894123Y-114174299D01*
X129887592Y-114173000D01*
X129612408Y-114173000D01*
X129342510Y-114226686D01*
X129088273Y-114331995D01*
X128859465Y-114484880D01*
X128664880Y-114679465D01*
X128511995Y-114908273D01*
X128406686Y-115162510D01*
X128353000Y-115432408D01*
X128353000Y-115707592D01*
X128354299Y-115714123D01*
X128171421Y-115897001D01*
X124709324Y-115897001D01*
X124747000Y-115707592D01*
X124747000Y-115432408D01*
X124693314Y-115162510D01*
X124588005Y-114908273D01*
X124435120Y-114679465D01*
X124240535Y-114484880D01*
X124011727Y-114331995D01*
X123934485Y-114300000D01*
X124011727Y-114268005D01*
X124240535Y-114115120D01*
X124435120Y-113920535D01*
X124588005Y-113691727D01*
X124693314Y-113437490D01*
X124747000Y-113167592D01*
X124747000Y-112892408D01*
X124693314Y-112622510D01*
X124588005Y-112368273D01*
X124435120Y-112139465D01*
X124380655Y-112085000D01*
X129733422Y-112085000D01*
X129955466Y-112307045D01*
G04 #@! TA.AperFunction,Conductor*
D25*
G36*
X129955466Y-112307045D02*
G01*
X129966775Y-112363899D01*
X130044796Y-112552257D01*
X130158064Y-112721775D01*
X130302227Y-112865938D01*
X130471745Y-112979206D01*
X130660103Y-113057227D01*
X130860062Y-113097001D01*
X130971421Y-113097001D01*
X129894123Y-114174299D01*
X129887592Y-114173000D01*
X129612408Y-114173000D01*
X129342510Y-114226686D01*
X129088273Y-114331995D01*
X128859465Y-114484880D01*
X128664880Y-114679465D01*
X128511995Y-114908273D01*
X128406686Y-115162510D01*
X128353000Y-115432408D01*
X128353000Y-115707592D01*
X128354299Y-115714123D01*
X128171421Y-115897001D01*
X124709324Y-115897001D01*
X124747000Y-115707592D01*
X124747000Y-115432408D01*
X124693314Y-115162510D01*
X124588005Y-114908273D01*
X124435120Y-114679465D01*
X124240535Y-114484880D01*
X124011727Y-114331995D01*
X123934485Y-114300000D01*
X124011727Y-114268005D01*
X124240535Y-114115120D01*
X124435120Y-113920535D01*
X124588005Y-113691727D01*
X124693314Y-113437490D01*
X124747000Y-113167592D01*
X124747000Y-112892408D01*
X124693314Y-112622510D01*
X124588005Y-112368273D01*
X124435120Y-112139465D01*
X124380655Y-112085000D01*
X129733422Y-112085000D01*
X129955466Y-112307045D01*
G37*
G04 #@! TD.AperFunction*
D24*
X132615001Y-111453420D02*
X131997001Y-112071420D01*
X131997001Y-111960062D01*
X131957227Y-111760103D01*
X131879206Y-111571745D01*
X131765938Y-111402227D01*
X131621775Y-111258064D01*
X131452257Y-111144796D01*
X131263899Y-111066775D01*
X131207045Y-111055466D01*
X130756534Y-110604956D01*
X130728817Y-110571183D01*
X130594059Y-110460589D01*
X130490612Y-110405296D01*
X130640535Y-110305120D01*
X130835120Y-110110535D01*
X130988005Y-109881727D01*
X131093314Y-109627490D01*
X131147000Y-109357592D01*
X131147000Y-109082408D01*
X131093314Y-108812510D01*
X130988005Y-108558273D01*
X130835120Y-108329465D01*
X130640535Y-108134880D01*
X130411727Y-107981995D01*
X130157490Y-107876686D01*
X129887592Y-107823000D01*
X129612408Y-107823000D01*
X129605877Y-107824299D01*
X129194531Y-107412953D01*
X129166816Y-107379182D01*
X129032058Y-107268588D01*
X128878312Y-107186410D01*
X128711489Y-107135804D01*
X128581476Y-107122999D01*
X128581468Y-107122999D01*
X128537999Y-107118718D01*
X128494530Y-107122999D01*
X128045064Y-107122999D01*
X128095226Y-107001898D01*
X128135000Y-106801939D01*
X128135000Y-106598061D01*
X128095226Y-106398102D01*
X128017205Y-106209744D01*
X127903937Y-106040226D01*
X127759774Y-105896063D01*
X127590256Y-105782795D01*
X127401898Y-105704774D01*
X127345044Y-105693465D01*
X127135640Y-105484062D01*
X127203411Y-105455990D01*
X127446632Y-105293475D01*
X127653475Y-105086632D01*
X127778178Y-104900000D01*
X128577659Y-104900000D01*
X128664880Y-105030535D01*
X128859465Y-105225120D01*
X129088273Y-105378005D01*
X129342510Y-105483314D01*
X129612408Y-105537000D01*
X129887592Y-105537000D01*
X130157490Y-105483314D01*
X130411727Y-105378005D01*
X130640535Y-105225120D01*
X130835120Y-105030535D01*
X130988005Y-104801727D01*
X131093314Y-104547490D01*
X131147000Y-104277592D01*
X131147000Y-104002408D01*
X131093314Y-103732510D01*
X130988005Y-103478273D01*
X130835120Y-103249465D01*
X130640535Y-103054880D01*
X130411727Y-102901995D01*
X130334485Y-102870000D01*
X130411727Y-102838005D01*
X130640535Y-102685120D01*
X130835120Y-102490535D01*
X130988005Y-102261727D01*
X131093314Y-102007490D01*
X131147000Y-101737592D01*
X131147000Y-101462408D01*
X131093314Y-101192510D01*
X130988005Y-100938273D01*
X130835120Y-100709465D01*
X130640535Y-100514880D01*
X130411727Y-100361995D01*
X130334485Y-100330000D01*
X130411727Y-100298005D01*
X130640535Y-100145120D01*
X130835120Y-99950535D01*
X130988005Y-99721727D01*
X131093314Y-99467490D01*
X131147000Y-99197592D01*
X131147000Y-98922408D01*
X131093314Y-98652510D01*
X130988005Y-98398273D01*
X130835120Y-98169465D01*
X130640535Y-97974880D01*
X130411727Y-97821995D01*
X130334485Y-97790000D01*
X130411727Y-97758005D01*
X130640535Y-97605120D01*
X130835120Y-97410535D01*
X130988005Y-97181727D01*
X131093314Y-96927490D01*
X131147000Y-96657592D01*
X131147000Y-96382408D01*
X131093314Y-96112510D01*
X130988005Y-95858273D01*
X130835120Y-95629465D01*
X130640535Y-95434880D01*
X130411727Y-95281995D01*
X130334485Y-95250000D01*
X130411727Y-95218005D01*
X130640535Y-95065120D01*
X130835120Y-94870535D01*
X130988005Y-94641727D01*
X131093314Y-94387490D01*
X131147000Y-94117592D01*
X131147000Y-93842408D01*
X131145701Y-93835877D01*
X132615000Y-92366578D01*
X132615001Y-111453420D01*
G04 #@! TA.AperFunction,Conductor*
D25*
G36*
X132615001Y-111453420D02*
G01*
X131997001Y-112071420D01*
X131997001Y-111960062D01*
X131957227Y-111760103D01*
X131879206Y-111571745D01*
X131765938Y-111402227D01*
X131621775Y-111258064D01*
X131452257Y-111144796D01*
X131263899Y-111066775D01*
X131207045Y-111055466D01*
X130756534Y-110604956D01*
X130728817Y-110571183D01*
X130594059Y-110460589D01*
X130490612Y-110405296D01*
X130640535Y-110305120D01*
X130835120Y-110110535D01*
X130988005Y-109881727D01*
X131093314Y-109627490D01*
X131147000Y-109357592D01*
X131147000Y-109082408D01*
X131093314Y-108812510D01*
X130988005Y-108558273D01*
X130835120Y-108329465D01*
X130640535Y-108134880D01*
X130411727Y-107981995D01*
X130157490Y-107876686D01*
X129887592Y-107823000D01*
X129612408Y-107823000D01*
X129605877Y-107824299D01*
X129194531Y-107412953D01*
X129166816Y-107379182D01*
X129032058Y-107268588D01*
X128878312Y-107186410D01*
X128711489Y-107135804D01*
X128581476Y-107122999D01*
X128581468Y-107122999D01*
X128537999Y-107118718D01*
X128494530Y-107122999D01*
X128045064Y-107122999D01*
X128095226Y-107001898D01*
X128135000Y-106801939D01*
X128135000Y-106598061D01*
X128095226Y-106398102D01*
X128017205Y-106209744D01*
X127903937Y-106040226D01*
X127759774Y-105896063D01*
X127590256Y-105782795D01*
X127401898Y-105704774D01*
X127345044Y-105693465D01*
X127135640Y-105484062D01*
X127203411Y-105455990D01*
X127446632Y-105293475D01*
X127653475Y-105086632D01*
X127778178Y-104900000D01*
X128577659Y-104900000D01*
X128664880Y-105030535D01*
X128859465Y-105225120D01*
X129088273Y-105378005D01*
X129342510Y-105483314D01*
X129612408Y-105537000D01*
X129887592Y-105537000D01*
X130157490Y-105483314D01*
X130411727Y-105378005D01*
X130640535Y-105225120D01*
X130835120Y-105030535D01*
X130988005Y-104801727D01*
X131093314Y-104547490D01*
X131147000Y-104277592D01*
X131147000Y-104002408D01*
X131093314Y-103732510D01*
X130988005Y-103478273D01*
X130835120Y-103249465D01*
X130640535Y-103054880D01*
X130411727Y-102901995D01*
X130334485Y-102870000D01*
X130411727Y-102838005D01*
X130640535Y-102685120D01*
X130835120Y-102490535D01*
X130988005Y-102261727D01*
X131093314Y-102007490D01*
X131147000Y-101737592D01*
X131147000Y-101462408D01*
X131093314Y-101192510D01*
X130988005Y-100938273D01*
X130835120Y-100709465D01*
X130640535Y-100514880D01*
X130411727Y-100361995D01*
X130334485Y-100330000D01*
X130411727Y-100298005D01*
X130640535Y-100145120D01*
X130835120Y-99950535D01*
X130988005Y-99721727D01*
X131093314Y-99467490D01*
X131147000Y-99197592D01*
X131147000Y-98922408D01*
X131093314Y-98652510D01*
X130988005Y-98398273D01*
X130835120Y-98169465D01*
X130640535Y-97974880D01*
X130411727Y-97821995D01*
X130334485Y-97790000D01*
X130411727Y-97758005D01*
X130640535Y-97605120D01*
X130835120Y-97410535D01*
X130988005Y-97181727D01*
X131093314Y-96927490D01*
X131147000Y-96657592D01*
X131147000Y-96382408D01*
X131093314Y-96112510D01*
X130988005Y-95858273D01*
X130835120Y-95629465D01*
X130640535Y-95434880D01*
X130411727Y-95281995D01*
X130334485Y-95250000D01*
X130411727Y-95218005D01*
X130640535Y-95065120D01*
X130835120Y-94870535D01*
X130988005Y-94641727D01*
X131093314Y-94387490D01*
X131147000Y-94117592D01*
X131147000Y-93842408D01*
X131145701Y-93835877D01*
X132615000Y-92366578D01*
X132615001Y-111453420D01*
G37*
G04 #@! TD.AperFunction*
D24*
X131865000Y-49383740D02*
X131865000Y-49676260D01*
X131922068Y-49963158D01*
X132034010Y-50233411D01*
X132196525Y-50476632D01*
X132403368Y-50683475D01*
X132646589Y-50845990D01*
X132916842Y-50957932D01*
X133203740Y-51015000D01*
X133496260Y-51015000D01*
X133783158Y-50957932D01*
X134053411Y-50845990D01*
X134296632Y-50683475D01*
X134503475Y-50476632D01*
X134620000Y-50302240D01*
X134736525Y-50476632D01*
X134943368Y-50683475D01*
X135186589Y-50845990D01*
X135456842Y-50957932D01*
X135743740Y-51015000D01*
X136036260Y-51015000D01*
X136323158Y-50957932D01*
X136593411Y-50845990D01*
X136836632Y-50683475D01*
X137043475Y-50476632D01*
X137205990Y-50233411D01*
X137317932Y-49963158D01*
X137375000Y-49676260D01*
X137375000Y-49383740D01*
X137321544Y-49114999D01*
X137644999Y-49114999D01*
X137645000Y-54103421D01*
X137360015Y-54388406D01*
X137317932Y-54176842D01*
X137205990Y-53906589D01*
X137043475Y-53663368D01*
X136836632Y-53456525D01*
X136593411Y-53294010D01*
X136323158Y-53182068D01*
X136036260Y-53125000D01*
X135743740Y-53125000D01*
X135456842Y-53182068D01*
X135186589Y-53294010D01*
X134996096Y-53421293D01*
X133359515Y-51784714D01*
X133350990Y-51741855D01*
X133284277Y-51580795D01*
X133187424Y-51435845D01*
X133064155Y-51312576D01*
X132919205Y-51215723D01*
X132758145Y-51149010D01*
X132587165Y-51115000D01*
X132412835Y-51115000D01*
X132241855Y-51149010D01*
X132080795Y-51215723D01*
X131935845Y-51312576D01*
X131812576Y-51435845D01*
X131715723Y-51580795D01*
X131649010Y-51741855D01*
X131615000Y-51912835D01*
X131615000Y-52087165D01*
X131649010Y-52258145D01*
X131715723Y-52419205D01*
X131812576Y-52564155D01*
X131935845Y-52687424D01*
X132080795Y-52784277D01*
X132241855Y-52850990D01*
X132284714Y-52859515D01*
X132697939Y-53272740D01*
X132646589Y-53294010D01*
X132403368Y-53456525D01*
X132196525Y-53663368D01*
X132034010Y-53906589D01*
X131922068Y-54176842D01*
X131865000Y-54463740D01*
X131865000Y-54756260D01*
X131922068Y-55043158D01*
X132034010Y-55313411D01*
X132196525Y-55556632D01*
X132403368Y-55763475D01*
X132646589Y-55925990D01*
X132916842Y-56037932D01*
X133203740Y-56095000D01*
X133496260Y-56095000D01*
X133783158Y-56037932D01*
X134053411Y-55925990D01*
X134296632Y-55763475D01*
X134503475Y-55556632D01*
X134620000Y-55382240D01*
X134736525Y-55556632D01*
X134943368Y-55763475D01*
X135186589Y-55925990D01*
X135456842Y-56037932D01*
X135668406Y-56080015D01*
X132904956Y-58843466D01*
X132871183Y-58871183D01*
X132760589Y-59005942D01*
X132678411Y-59159688D01*
X132644761Y-59270617D01*
X132633131Y-59308955D01*
X132627805Y-59326511D01*
X132615000Y-59456524D01*
X132615000Y-59456531D01*
X132610719Y-59500000D01*
X132615000Y-59543469D01*
X132615001Y-89863420D01*
X129894123Y-92584299D01*
X129887592Y-92583000D01*
X129612408Y-92583000D01*
X129605877Y-92584299D01*
X129194533Y-92172955D01*
X129166816Y-92139182D01*
X129032058Y-92028588D01*
X128878312Y-91946410D01*
X128711489Y-91895804D01*
X128581476Y-91882999D01*
X128581468Y-91882999D01*
X128537999Y-91878718D01*
X128494530Y-91882999D01*
X124678606Y-91882999D01*
X124693314Y-91847490D01*
X124747000Y-91577592D01*
X124747000Y-91302408D01*
X124693314Y-91032510D01*
X124588005Y-90778273D01*
X124435120Y-90549465D01*
X124240535Y-90354880D01*
X124011727Y-90201995D01*
X123757490Y-90096686D01*
X123487592Y-90043000D01*
X123212408Y-90043000D01*
X122942510Y-90096686D01*
X122688273Y-90201995D01*
X122459465Y-90354880D01*
X122264880Y-90549465D01*
X122111995Y-90778273D01*
X122006686Y-91032510D01*
X121953000Y-91302408D01*
X121953000Y-91577592D01*
X122006686Y-91847490D01*
X122021394Y-91882999D01*
X111905466Y-91882999D01*
X111862000Y-91878718D01*
X111818534Y-91882999D01*
X111818524Y-91882999D01*
X111688511Y-91895804D01*
X111521688Y-91946410D01*
X111367942Y-92028588D01*
X111367940Y-92028589D01*
X111367941Y-92028589D01*
X111266954Y-92111467D01*
X111266952Y-92111469D01*
X111233184Y-92139182D01*
X111205471Y-92172950D01*
X110794122Y-92584299D01*
X110787592Y-92583000D01*
X110512408Y-92583000D01*
X110242510Y-92636686D01*
X109988273Y-92741995D01*
X109759465Y-92894880D01*
X109564880Y-93089465D01*
X109411995Y-93318273D01*
X109306686Y-93572510D01*
X109253000Y-93842408D01*
X109253000Y-94117592D01*
X109306686Y-94387490D01*
X109411995Y-94641727D01*
X109564880Y-94870535D01*
X109759465Y-95065120D01*
X109988273Y-95218005D01*
X110065515Y-95250000D01*
X109988273Y-95281995D01*
X109759465Y-95434880D01*
X109564880Y-95629465D01*
X109477659Y-95760000D01*
X108988072Y-95760000D01*
X108988072Y-95670000D01*
X108975812Y-95545518D01*
X108939502Y-95425820D01*
X108880537Y-95315506D01*
X108801185Y-95218815D01*
X108704494Y-95139463D01*
X108594180Y-95080498D01*
X108474482Y-95044188D01*
X108350000Y-95031928D01*
X106650000Y-95031928D01*
X106525518Y-95044188D01*
X106405820Y-95080498D01*
X106295506Y-95139463D01*
X106198815Y-95218815D01*
X106119463Y-95315506D01*
X106060498Y-95425820D01*
X106024188Y-95545518D01*
X106011928Y-95670000D01*
X106011928Y-97370000D01*
X106024188Y-97494482D01*
X106060498Y-97614180D01*
X106119463Y-97724494D01*
X106198815Y-97821185D01*
X106295506Y-97900537D01*
X106405820Y-97959502D01*
X106478380Y-97981513D01*
X106346525Y-98113368D01*
X106184010Y-98356589D01*
X106072068Y-98626842D01*
X106015000Y-98913740D01*
X106015000Y-99206260D01*
X106072068Y-99493158D01*
X106184010Y-99763411D01*
X106346525Y-100006632D01*
X106553368Y-100213475D01*
X106727760Y-100330000D01*
X106553368Y-100446525D01*
X106346525Y-100653368D01*
X106184010Y-100896589D01*
X106072068Y-101166842D01*
X106015000Y-101453740D01*
X106015000Y-101746260D01*
X106072068Y-102033158D01*
X106184010Y-102303411D01*
X106346525Y-102546632D01*
X106553368Y-102753475D01*
X106727760Y-102870000D01*
X106553368Y-102986525D01*
X106346525Y-103193368D01*
X106184010Y-103436589D01*
X106072068Y-103706842D01*
X106015000Y-103993740D01*
X106015000Y-104286260D01*
X106072068Y-104573158D01*
X106184010Y-104843411D01*
X106346525Y-105086632D01*
X106553368Y-105293475D01*
X106796589Y-105455990D01*
X107066842Y-105567932D01*
X107353740Y-105625000D01*
X107646260Y-105625000D01*
X107933158Y-105567932D01*
X108203411Y-105455990D01*
X108446632Y-105293475D01*
X108653475Y-105086632D01*
X108778178Y-104900000D01*
X109477659Y-104900000D01*
X109564880Y-105030535D01*
X109759465Y-105225120D01*
X109988273Y-105378005D01*
X110242510Y-105483314D01*
X110512408Y-105537000D01*
X110787592Y-105537000D01*
X111057490Y-105483314D01*
X111311727Y-105378005D01*
X111540535Y-105225120D01*
X111735120Y-105030535D01*
X111888005Y-104801727D01*
X111993314Y-104547490D01*
X112047000Y-104277592D01*
X112047000Y-104002408D01*
X111993314Y-103732510D01*
X111888005Y-103478273D01*
X111735120Y-103249465D01*
X111540535Y-103054880D01*
X111311727Y-102901995D01*
X111234485Y-102870000D01*
X111311727Y-102838005D01*
X111540535Y-102685120D01*
X111735120Y-102490535D01*
X111888005Y-102261727D01*
X111993314Y-102007490D01*
X112047000Y-101737592D01*
X112047000Y-101462408D01*
X111993314Y-101192510D01*
X111888005Y-100938273D01*
X111735120Y-100709465D01*
X111540535Y-100514880D01*
X111311727Y-100361995D01*
X111234485Y-100330000D01*
X111311727Y-100298005D01*
X111540535Y-100145120D01*
X111735120Y-99950535D01*
X111888005Y-99721727D01*
X111993314Y-99467490D01*
X112047000Y-99197592D01*
X112047000Y-98922408D01*
X111993314Y-98652510D01*
X111888005Y-98398273D01*
X111735120Y-98169465D01*
X111540535Y-97974880D01*
X111311727Y-97821995D01*
X111234485Y-97790000D01*
X111311727Y-97758005D01*
X111540535Y-97605120D01*
X111735120Y-97410535D01*
X111888005Y-97181727D01*
X111993314Y-96927490D01*
X112047000Y-96657592D01*
X112047000Y-96382408D01*
X111993314Y-96112510D01*
X111888005Y-95858273D01*
X111735120Y-95629465D01*
X111540535Y-95434880D01*
X111311727Y-95281995D01*
X111234485Y-95250000D01*
X111311727Y-95218005D01*
X111540535Y-95065120D01*
X111735120Y-94870535D01*
X111888005Y-94641727D01*
X111993314Y-94387490D01*
X112047000Y-94117592D01*
X112047000Y-93842408D01*
X112045701Y-93835878D01*
X112228580Y-93652999D01*
X121990676Y-93652999D01*
X121953000Y-93842408D01*
X121953000Y-94117592D01*
X122006686Y-94387490D01*
X122111995Y-94641727D01*
X122264880Y-94870535D01*
X122459465Y-95065120D01*
X122688273Y-95218005D01*
X122765515Y-95250000D01*
X122688273Y-95281995D01*
X122459465Y-95434880D01*
X122264880Y-95629465D01*
X122111995Y-95858273D01*
X122006686Y-96112510D01*
X121953000Y-96382408D01*
X121953000Y-96657592D01*
X122006686Y-96927490D01*
X122111995Y-97181727D01*
X122264880Y-97410535D01*
X122459465Y-97605120D01*
X122688273Y-97758005D01*
X122765515Y-97790000D01*
X122688273Y-97821995D01*
X122459465Y-97974880D01*
X122264880Y-98169465D01*
X122111995Y-98398273D01*
X122006686Y-98652510D01*
X121953000Y-98922408D01*
X121953000Y-99197592D01*
X122006686Y-99467490D01*
X122111995Y-99721727D01*
X122264880Y-99950535D01*
X122459465Y-100145120D01*
X122688273Y-100298005D01*
X122765515Y-100330000D01*
X122688273Y-100361995D01*
X122459465Y-100514880D01*
X122264880Y-100709465D01*
X122111995Y-100938273D01*
X122006686Y-101192510D01*
X121953000Y-101462408D01*
X121953000Y-101737592D01*
X122006686Y-102007490D01*
X122111995Y-102261727D01*
X122264880Y-102490535D01*
X122459465Y-102685120D01*
X122688273Y-102838005D01*
X122765515Y-102870000D01*
X122688273Y-102901995D01*
X122459465Y-103054880D01*
X122264880Y-103249465D01*
X122111995Y-103478273D01*
X122006686Y-103732510D01*
X121953000Y-104002408D01*
X121953000Y-104277592D01*
X121990676Y-104467001D01*
X114561464Y-104467001D01*
X114517998Y-104462720D01*
X114474532Y-104467001D01*
X114474522Y-104467001D01*
X114344509Y-104479806D01*
X114177686Y-104530412D01*
X114023940Y-104612590D01*
X114023938Y-104612591D01*
X114023939Y-104612591D01*
X113922952Y-104695469D01*
X113922950Y-104695471D01*
X113889182Y-104723184D01*
X113861469Y-104756952D01*
X111266959Y-107351463D01*
X111266954Y-107351467D01*
X111266952Y-107351469D01*
X111233184Y-107379182D01*
X111205471Y-107412950D01*
X110794122Y-107824299D01*
X110787592Y-107823000D01*
X110512408Y-107823000D01*
X110242510Y-107876686D01*
X109988273Y-107981995D01*
X109759465Y-108134880D01*
X109564880Y-108329465D01*
X109411995Y-108558273D01*
X109306686Y-108812510D01*
X109253000Y-109082408D01*
X109253000Y-109357592D01*
X109290676Y-109547001D01*
X99226815Y-109547001D01*
X97839813Y-108160000D01*
X100017914Y-108160000D01*
X100050676Y-108163193D01*
X100115325Y-108156759D01*
X100179383Y-108150450D01*
X100179707Y-108150352D01*
X100180046Y-108150318D01*
X100242105Y-108131423D01*
X100303793Y-108112710D01*
X100304092Y-108112550D01*
X100304418Y-108112451D01*
X100361510Y-108081860D01*
X100418450Y-108051425D01*
X100418713Y-108051209D01*
X100419012Y-108051049D01*
X100468784Y-108010117D01*
X100518948Y-107968948D01*
X100519165Y-107968684D01*
X100519426Y-107968469D01*
X100560098Y-107918807D01*
X100601425Y-107868450D01*
X100601587Y-107868147D01*
X100601800Y-107867887D01*
X100631978Y-107811290D01*
X100662710Y-107753793D01*
X100662809Y-107753466D01*
X100662968Y-107753168D01*
X100681501Y-107691849D01*
X100700450Y-107629383D01*
X100700484Y-107629041D01*
X100700581Y-107628719D01*
X100706786Y-107565053D01*
X100713193Y-107500000D01*
X100709966Y-107467237D01*
X100688348Y-86279872D01*
X102265000Y-86279872D01*
X102265000Y-86720128D01*
X102350890Y-87151925D01*
X102519369Y-87558669D01*
X102763962Y-87924729D01*
X103075271Y-88236038D01*
X103441331Y-88480631D01*
X103848075Y-88649110D01*
X104279872Y-88735000D01*
X104720128Y-88735000D01*
X105151925Y-88649110D01*
X105558669Y-88480631D01*
X105924729Y-88236038D01*
X106236038Y-87924729D01*
X106480631Y-87558669D01*
X106649110Y-87151925D01*
X106735000Y-86720128D01*
X106735000Y-86279872D01*
X106649110Y-85848075D01*
X106480631Y-85441331D01*
X106236038Y-85075271D01*
X105924729Y-84763962D01*
X105558669Y-84519369D01*
X105151925Y-84350890D01*
X104720128Y-84265000D01*
X104279872Y-84265000D01*
X103848075Y-84350890D01*
X103441331Y-84519369D01*
X103075271Y-84763962D01*
X102763962Y-85075271D01*
X102519369Y-85441331D01*
X102350890Y-85848075D01*
X102265000Y-86279872D01*
X100688348Y-86279872D01*
X100675817Y-74000000D01*
X102177821Y-74000000D01*
X102261792Y-75575501D01*
X102512752Y-77133151D01*
X102927859Y-78655301D01*
X103502408Y-80124705D01*
X104229891Y-81524713D01*
X105102064Y-82839464D01*
X106109046Y-84054059D01*
X107239426Y-85154739D01*
X108480398Y-86129030D01*
X109817900Y-86965895D01*
X111236778Y-87655851D01*
X112720956Y-88191081D01*
X114253617Y-88565520D01*
X115817396Y-88774926D01*
X117394574Y-88816926D01*
X118967282Y-88691045D01*
X120517699Y-88398708D01*
X122028259Y-87943228D01*
X123481847Y-87329765D01*
X124861994Y-86565271D01*
X125268305Y-86279872D01*
X127265000Y-86279872D01*
X127265000Y-86720128D01*
X127350890Y-87151925D01*
X127519369Y-87558669D01*
X127763962Y-87924729D01*
X128075271Y-88236038D01*
X128441331Y-88480631D01*
X128848075Y-88649110D01*
X129279872Y-88735000D01*
X129720128Y-88735000D01*
X130151925Y-88649110D01*
X130558669Y-88480631D01*
X130924729Y-88236038D01*
X131236038Y-87924729D01*
X131480631Y-87558669D01*
X131649110Y-87151925D01*
X131735000Y-86720128D01*
X131735000Y-86279872D01*
X131649110Y-85848075D01*
X131480631Y-85441331D01*
X131236038Y-85075271D01*
X130924729Y-84763962D01*
X130558669Y-84519369D01*
X130151925Y-84350890D01*
X129720128Y-84265000D01*
X129279872Y-84265000D01*
X128848075Y-84350890D01*
X128441331Y-84519369D01*
X128075271Y-84763962D01*
X127763962Y-85075271D01*
X127519369Y-85441331D01*
X127350890Y-85848075D01*
X127265000Y-86279872D01*
X125268305Y-86279872D01*
X126153060Y-85658408D01*
X127340419Y-84619450D01*
X128410617Y-83460170D01*
X129351528Y-82193702D01*
X130152491Y-80834396D01*
X130804432Y-79397653D01*
X131299962Y-77899753D01*
X131633468Y-76357668D01*
X131801171Y-74788869D01*
X131801171Y-73211131D01*
X131633468Y-71642332D01*
X131299962Y-70100247D01*
X130804432Y-68602347D01*
X130152491Y-67165604D01*
X129351528Y-65806298D01*
X128410617Y-64539830D01*
X127340419Y-63380550D01*
X126153060Y-62341592D01*
X124861994Y-61434729D01*
X124582430Y-61279872D01*
X127265000Y-61279872D01*
X127265000Y-61720128D01*
X127350890Y-62151925D01*
X127519369Y-62558669D01*
X127763962Y-62924729D01*
X128075271Y-63236038D01*
X128441331Y-63480631D01*
X128848075Y-63649110D01*
X129279872Y-63735000D01*
X129720128Y-63735000D01*
X130151925Y-63649110D01*
X130558669Y-63480631D01*
X130924729Y-63236038D01*
X131236038Y-62924729D01*
X131480631Y-62558669D01*
X131649110Y-62151925D01*
X131735000Y-61720128D01*
X131735000Y-61279872D01*
X131649110Y-60848075D01*
X131480631Y-60441331D01*
X131236038Y-60075271D01*
X130924729Y-59763962D01*
X130558669Y-59519369D01*
X130151925Y-59350890D01*
X129720128Y-59265000D01*
X129279872Y-59265000D01*
X128848075Y-59350890D01*
X128441331Y-59519369D01*
X128075271Y-59763962D01*
X127763962Y-60075271D01*
X127519369Y-60441331D01*
X127350890Y-60848075D01*
X127265000Y-61279872D01*
X124582430Y-61279872D01*
X123481847Y-60670235D01*
X122028259Y-60056772D01*
X120517699Y-59601292D01*
X118967282Y-59308955D01*
X117394574Y-59183074D01*
X115817396Y-59225074D01*
X114253617Y-59434480D01*
X112720956Y-59808919D01*
X111236778Y-60344149D01*
X109817900Y-61034105D01*
X108480398Y-61870970D01*
X107239426Y-62845261D01*
X106109046Y-63945941D01*
X105102064Y-65160536D01*
X104229891Y-66475287D01*
X103502408Y-67875295D01*
X102927859Y-69344699D01*
X102512752Y-70866849D01*
X102261792Y-72424499D01*
X102177821Y-74000000D01*
X100675817Y-74000000D01*
X100662837Y-61279872D01*
X102265000Y-61279872D01*
X102265000Y-61720128D01*
X102350890Y-62151925D01*
X102519369Y-62558669D01*
X102763962Y-62924729D01*
X103075271Y-63236038D01*
X103441331Y-63480631D01*
X103848075Y-63649110D01*
X104279872Y-63735000D01*
X104720128Y-63735000D01*
X105151925Y-63649110D01*
X105558669Y-63480631D01*
X105924729Y-63236038D01*
X106236038Y-62924729D01*
X106480631Y-62558669D01*
X106649110Y-62151925D01*
X106735000Y-61720128D01*
X106735000Y-61279872D01*
X106649110Y-60848075D01*
X106480631Y-60441331D01*
X106236038Y-60075271D01*
X105924729Y-59763962D01*
X105558669Y-59519369D01*
X105151925Y-59350890D01*
X104720128Y-59265000D01*
X104279872Y-59265000D01*
X103848075Y-59350890D01*
X103441331Y-59519369D01*
X103075271Y-59763962D01*
X102763962Y-60075271D01*
X102519369Y-60441331D01*
X102350890Y-60848075D01*
X102265000Y-61279872D01*
X100662837Y-61279872D01*
X100660033Y-58532089D01*
X100663193Y-58500000D01*
X100659966Y-58467239D01*
X100659966Y-58466908D01*
X100656853Y-58435626D01*
X100650450Y-58370617D01*
X100650350Y-58370288D01*
X100650317Y-58369954D01*
X100631696Y-58308793D01*
X100612710Y-58246207D01*
X100612548Y-58245904D01*
X100612450Y-58245582D01*
X100582267Y-58189251D01*
X100551425Y-58131550D01*
X100551206Y-58131284D01*
X100551048Y-58130988D01*
X100510360Y-58081512D01*
X100468948Y-58031052D01*
X100468684Y-58030835D01*
X100468469Y-58030574D01*
X100418807Y-57989902D01*
X100368450Y-57948575D01*
X100368147Y-57948413D01*
X100367887Y-57948200D01*
X100311490Y-57918129D01*
X100253793Y-57887290D01*
X100253463Y-57887190D01*
X100253167Y-57887032D01*
X100191987Y-57868541D01*
X100129383Y-57849550D01*
X100129041Y-57849516D01*
X100128719Y-57849419D01*
X100064959Y-57843205D01*
X100032419Y-57840000D01*
X100032075Y-57840000D01*
X99999324Y-57836808D01*
X99967250Y-57840000D01*
X97839813Y-57840000D01*
X99919814Y-55760000D01*
X117682678Y-55760000D01*
X117720000Y-55763676D01*
X117757322Y-55760000D01*
X117757333Y-55760000D01*
X117868986Y-55749003D01*
X118012247Y-55705546D01*
X118144276Y-55634974D01*
X118260001Y-55540001D01*
X118283804Y-55510997D01*
X119013592Y-54781209D01*
X119233740Y-54825000D01*
X119526260Y-54825000D01*
X119813158Y-54767932D01*
X120083411Y-54655990D01*
X120326632Y-54493475D01*
X120533475Y-54286632D01*
X120695990Y-54043411D01*
X120807932Y-53773158D01*
X120865000Y-53486260D01*
X120865000Y-53193740D01*
X122975000Y-53193740D01*
X122975000Y-53486260D01*
X123032068Y-53773158D01*
X123144010Y-54043411D01*
X123306525Y-54286632D01*
X123513368Y-54493475D01*
X123756589Y-54655990D01*
X124026842Y-54767932D01*
X124313740Y-54825000D01*
X124606260Y-54825000D01*
X124893158Y-54767932D01*
X125163411Y-54655990D01*
X125406632Y-54493475D01*
X125613475Y-54286632D01*
X125775990Y-54043411D01*
X125887932Y-53773158D01*
X125945000Y-53486260D01*
X125945000Y-53193740D01*
X125887932Y-52906842D01*
X125775990Y-52636589D01*
X125613475Y-52393368D01*
X125406632Y-52186525D01*
X125163411Y-52024010D01*
X124893158Y-51912068D01*
X124606260Y-51855000D01*
X124313740Y-51855000D01*
X124026842Y-51912068D01*
X123756589Y-52024010D01*
X123513368Y-52186525D01*
X123306525Y-52393368D01*
X123144010Y-52636589D01*
X123032068Y-52906842D01*
X122975000Y-53193740D01*
X120865000Y-53193740D01*
X120807932Y-52906842D01*
X120695990Y-52636589D01*
X120533475Y-52393368D01*
X120326632Y-52186525D01*
X120083411Y-52024010D01*
X119813158Y-51912068D01*
X119526260Y-51855000D01*
X119233740Y-51855000D01*
X118946842Y-51912068D01*
X118676589Y-52024010D01*
X118433368Y-52186525D01*
X118226525Y-52393368D01*
X118064010Y-52636589D01*
X117952068Y-52906842D01*
X117895000Y-53193740D01*
X117895000Y-53486260D01*
X117938791Y-53706408D01*
X117405199Y-54240000D01*
X115484633Y-54240000D01*
X115615990Y-54043411D01*
X115727932Y-53773158D01*
X115785000Y-53486260D01*
X115785000Y-53193740D01*
X115727932Y-52906842D01*
X115615990Y-52636589D01*
X115453475Y-52393368D01*
X115246632Y-52186525D01*
X115003411Y-52024010D01*
X114733158Y-51912068D01*
X114446260Y-51855000D01*
X114153740Y-51855000D01*
X113866842Y-51912068D01*
X113596589Y-52024010D01*
X113353368Y-52186525D01*
X113146525Y-52393368D01*
X112984010Y-52636589D01*
X112872068Y-52906842D01*
X112815000Y-53193740D01*
X112815000Y-53486260D01*
X112872068Y-53773158D01*
X112984010Y-54043411D01*
X113115367Y-54240000D01*
X110404633Y-54240000D01*
X110535990Y-54043411D01*
X110647932Y-53773158D01*
X110705000Y-53486260D01*
X110705000Y-53193740D01*
X110647932Y-52906842D01*
X110535990Y-52636589D01*
X110373475Y-52393368D01*
X110166632Y-52186525D01*
X109923411Y-52024010D01*
X109653158Y-51912068D01*
X109366260Y-51855000D01*
X109073740Y-51855000D01*
X108786842Y-51912068D01*
X108516589Y-52024010D01*
X108273368Y-52186525D01*
X108066525Y-52393368D01*
X107904010Y-52636589D01*
X107792068Y-52906842D01*
X107735000Y-53193740D01*
X107735000Y-53486260D01*
X107792068Y-53773158D01*
X107904010Y-54043411D01*
X108035367Y-54240000D01*
X105324633Y-54240000D01*
X105455990Y-54043411D01*
X105567932Y-53773158D01*
X105625000Y-53486260D01*
X105625000Y-53193740D01*
X105567932Y-52906842D01*
X105455990Y-52636589D01*
X105293475Y-52393368D01*
X105086632Y-52186525D01*
X104843411Y-52024010D01*
X104573158Y-51912068D01*
X104286260Y-51855000D01*
X103993740Y-51855000D01*
X103706842Y-51912068D01*
X103436589Y-52024010D01*
X103193368Y-52186525D01*
X102986525Y-52393368D01*
X102824010Y-52636589D01*
X102712068Y-52906842D01*
X102655000Y-53193740D01*
X102655000Y-53486260D01*
X102712068Y-53773158D01*
X102824010Y-54043411D01*
X102955367Y-54240000D01*
X100244633Y-54240000D01*
X100375990Y-54043411D01*
X100487932Y-53773158D01*
X100545000Y-53486260D01*
X100545000Y-53193740D01*
X100487932Y-52906842D01*
X100375990Y-52636589D01*
X100213475Y-52393368D01*
X100006632Y-52186525D01*
X99763411Y-52024010D01*
X99493158Y-51912068D01*
X99206260Y-51855000D01*
X98913740Y-51855000D01*
X98626842Y-51912068D01*
X98356589Y-52024010D01*
X98113368Y-52186525D01*
X97906525Y-52393368D01*
X97744010Y-52636589D01*
X97632068Y-52906842D01*
X97575000Y-53193740D01*
X97575000Y-53486260D01*
X97632068Y-53773158D01*
X97744010Y-54043411D01*
X97906525Y-54286632D01*
X98113368Y-54493475D01*
X98356589Y-54655990D01*
X98626842Y-54767932D01*
X98739808Y-54790402D01*
X95770159Y-57760052D01*
X95646632Y-57636525D01*
X95403411Y-57474010D01*
X95133158Y-57362068D01*
X94846260Y-57305000D01*
X94553740Y-57305000D01*
X94333592Y-57348790D01*
X90385000Y-53400199D01*
X90385000Y-53193740D01*
X90331544Y-52924999D01*
X92490198Y-52924999D01*
X92538791Y-52973592D01*
X92495000Y-53193740D01*
X92495000Y-53486260D01*
X92552068Y-53773158D01*
X92664010Y-54043411D01*
X92826525Y-54286632D01*
X93033368Y-54493475D01*
X93276589Y-54655990D01*
X93546842Y-54767932D01*
X93833740Y-54825000D01*
X94126260Y-54825000D01*
X94413158Y-54767932D01*
X94683411Y-54655990D01*
X94926632Y-54493475D01*
X95133475Y-54286632D01*
X95295990Y-54043411D01*
X95407932Y-53773158D01*
X95465000Y-53486260D01*
X95465000Y-53193740D01*
X95407932Y-52906842D01*
X95295990Y-52636589D01*
X95133475Y-52393368D01*
X94926632Y-52186525D01*
X94683411Y-52024010D01*
X94413158Y-51912068D01*
X94126260Y-51855000D01*
X93833740Y-51855000D01*
X93613592Y-51898791D01*
X93368803Y-51654002D01*
X93345000Y-51624998D01*
X93229275Y-51530025D01*
X93097246Y-51459453D01*
X92953985Y-51415996D01*
X92842332Y-51404999D01*
X92842321Y-51404999D01*
X92804999Y-51401323D01*
X92767677Y-51404999D01*
X88373321Y-51404999D01*
X88335998Y-51401323D01*
X88298675Y-51404999D01*
X88298666Y-51404999D01*
X88187013Y-51415996D01*
X88043752Y-51459453D01*
X87911723Y-51530025D01*
X87911721Y-51530026D01*
X87911722Y-51530026D01*
X87885000Y-51551956D01*
X87885000Y-50556576D01*
X89256577Y-49185000D01*
X129486529Y-49185000D01*
X129529998Y-49189281D01*
X129573467Y-49185000D01*
X129573475Y-49185000D01*
X129703488Y-49172195D01*
X129870311Y-49121589D01*
X129882640Y-49114999D01*
X131918456Y-49114999D01*
X131865000Y-49383740D01*
G04 #@! TA.AperFunction,Conductor*
D25*
G36*
X131865000Y-49383740D02*
G01*
X131865000Y-49676260D01*
X131922068Y-49963158D01*
X132034010Y-50233411D01*
X132196525Y-50476632D01*
X132403368Y-50683475D01*
X132646589Y-50845990D01*
X132916842Y-50957932D01*
X133203740Y-51015000D01*
X133496260Y-51015000D01*
X133783158Y-50957932D01*
X134053411Y-50845990D01*
X134296632Y-50683475D01*
X134503475Y-50476632D01*
X134620000Y-50302240D01*
X134736525Y-50476632D01*
X134943368Y-50683475D01*
X135186589Y-50845990D01*
X135456842Y-50957932D01*
X135743740Y-51015000D01*
X136036260Y-51015000D01*
X136323158Y-50957932D01*
X136593411Y-50845990D01*
X136836632Y-50683475D01*
X137043475Y-50476632D01*
X137205990Y-50233411D01*
X137317932Y-49963158D01*
X137375000Y-49676260D01*
X137375000Y-49383740D01*
X137321544Y-49114999D01*
X137644999Y-49114999D01*
X137645000Y-54103421D01*
X137360015Y-54388406D01*
X137317932Y-54176842D01*
X137205990Y-53906589D01*
X137043475Y-53663368D01*
X136836632Y-53456525D01*
X136593411Y-53294010D01*
X136323158Y-53182068D01*
X136036260Y-53125000D01*
X135743740Y-53125000D01*
X135456842Y-53182068D01*
X135186589Y-53294010D01*
X134996096Y-53421293D01*
X133359515Y-51784714D01*
X133350990Y-51741855D01*
X133284277Y-51580795D01*
X133187424Y-51435845D01*
X133064155Y-51312576D01*
X132919205Y-51215723D01*
X132758145Y-51149010D01*
X132587165Y-51115000D01*
X132412835Y-51115000D01*
X132241855Y-51149010D01*
X132080795Y-51215723D01*
X131935845Y-51312576D01*
X131812576Y-51435845D01*
X131715723Y-51580795D01*
X131649010Y-51741855D01*
X131615000Y-51912835D01*
X131615000Y-52087165D01*
X131649010Y-52258145D01*
X131715723Y-52419205D01*
X131812576Y-52564155D01*
X131935845Y-52687424D01*
X132080795Y-52784277D01*
X132241855Y-52850990D01*
X132284714Y-52859515D01*
X132697939Y-53272740D01*
X132646589Y-53294010D01*
X132403368Y-53456525D01*
X132196525Y-53663368D01*
X132034010Y-53906589D01*
X131922068Y-54176842D01*
X131865000Y-54463740D01*
X131865000Y-54756260D01*
X131922068Y-55043158D01*
X132034010Y-55313411D01*
X132196525Y-55556632D01*
X132403368Y-55763475D01*
X132646589Y-55925990D01*
X132916842Y-56037932D01*
X133203740Y-56095000D01*
X133496260Y-56095000D01*
X133783158Y-56037932D01*
X134053411Y-55925990D01*
X134296632Y-55763475D01*
X134503475Y-55556632D01*
X134620000Y-55382240D01*
X134736525Y-55556632D01*
X134943368Y-55763475D01*
X135186589Y-55925990D01*
X135456842Y-56037932D01*
X135668406Y-56080015D01*
X132904956Y-58843466D01*
X132871183Y-58871183D01*
X132760589Y-59005942D01*
X132678411Y-59159688D01*
X132644761Y-59270617D01*
X132633131Y-59308955D01*
X132627805Y-59326511D01*
X132615000Y-59456524D01*
X132615000Y-59456531D01*
X132610719Y-59500000D01*
X132615000Y-59543469D01*
X132615001Y-89863420D01*
X129894123Y-92584299D01*
X129887592Y-92583000D01*
X129612408Y-92583000D01*
X129605877Y-92584299D01*
X129194533Y-92172955D01*
X129166816Y-92139182D01*
X129032058Y-92028588D01*
X128878312Y-91946410D01*
X128711489Y-91895804D01*
X128581476Y-91882999D01*
X128581468Y-91882999D01*
X128537999Y-91878718D01*
X128494530Y-91882999D01*
X124678606Y-91882999D01*
X124693314Y-91847490D01*
X124747000Y-91577592D01*
X124747000Y-91302408D01*
X124693314Y-91032510D01*
X124588005Y-90778273D01*
X124435120Y-90549465D01*
X124240535Y-90354880D01*
X124011727Y-90201995D01*
X123757490Y-90096686D01*
X123487592Y-90043000D01*
X123212408Y-90043000D01*
X122942510Y-90096686D01*
X122688273Y-90201995D01*
X122459465Y-90354880D01*
X122264880Y-90549465D01*
X122111995Y-90778273D01*
X122006686Y-91032510D01*
X121953000Y-91302408D01*
X121953000Y-91577592D01*
X122006686Y-91847490D01*
X122021394Y-91882999D01*
X111905466Y-91882999D01*
X111862000Y-91878718D01*
X111818534Y-91882999D01*
X111818524Y-91882999D01*
X111688511Y-91895804D01*
X111521688Y-91946410D01*
X111367942Y-92028588D01*
X111367940Y-92028589D01*
X111367941Y-92028589D01*
X111266954Y-92111467D01*
X111266952Y-92111469D01*
X111233184Y-92139182D01*
X111205471Y-92172950D01*
X110794122Y-92584299D01*
X110787592Y-92583000D01*
X110512408Y-92583000D01*
X110242510Y-92636686D01*
X109988273Y-92741995D01*
X109759465Y-92894880D01*
X109564880Y-93089465D01*
X109411995Y-93318273D01*
X109306686Y-93572510D01*
X109253000Y-93842408D01*
X109253000Y-94117592D01*
X109306686Y-94387490D01*
X109411995Y-94641727D01*
X109564880Y-94870535D01*
X109759465Y-95065120D01*
X109988273Y-95218005D01*
X110065515Y-95250000D01*
X109988273Y-95281995D01*
X109759465Y-95434880D01*
X109564880Y-95629465D01*
X109477659Y-95760000D01*
X108988072Y-95760000D01*
X108988072Y-95670000D01*
X108975812Y-95545518D01*
X108939502Y-95425820D01*
X108880537Y-95315506D01*
X108801185Y-95218815D01*
X108704494Y-95139463D01*
X108594180Y-95080498D01*
X108474482Y-95044188D01*
X108350000Y-95031928D01*
X106650000Y-95031928D01*
X106525518Y-95044188D01*
X106405820Y-95080498D01*
X106295506Y-95139463D01*
X106198815Y-95218815D01*
X106119463Y-95315506D01*
X106060498Y-95425820D01*
X106024188Y-95545518D01*
X106011928Y-95670000D01*
X106011928Y-97370000D01*
X106024188Y-97494482D01*
X106060498Y-97614180D01*
X106119463Y-97724494D01*
X106198815Y-97821185D01*
X106295506Y-97900537D01*
X106405820Y-97959502D01*
X106478380Y-97981513D01*
X106346525Y-98113368D01*
X106184010Y-98356589D01*
X106072068Y-98626842D01*
X106015000Y-98913740D01*
X106015000Y-99206260D01*
X106072068Y-99493158D01*
X106184010Y-99763411D01*
X106346525Y-100006632D01*
X106553368Y-100213475D01*
X106727760Y-100330000D01*
X106553368Y-100446525D01*
X106346525Y-100653368D01*
X106184010Y-100896589D01*
X106072068Y-101166842D01*
X106015000Y-101453740D01*
X106015000Y-101746260D01*
X106072068Y-102033158D01*
X106184010Y-102303411D01*
X106346525Y-102546632D01*
X106553368Y-102753475D01*
X106727760Y-102870000D01*
X106553368Y-102986525D01*
X106346525Y-103193368D01*
X106184010Y-103436589D01*
X106072068Y-103706842D01*
X106015000Y-103993740D01*
X106015000Y-104286260D01*
X106072068Y-104573158D01*
X106184010Y-104843411D01*
X106346525Y-105086632D01*
X106553368Y-105293475D01*
X106796589Y-105455990D01*
X107066842Y-105567932D01*
X107353740Y-105625000D01*
X107646260Y-105625000D01*
X107933158Y-105567932D01*
X108203411Y-105455990D01*
X108446632Y-105293475D01*
X108653475Y-105086632D01*
X108778178Y-104900000D01*
X109477659Y-104900000D01*
X109564880Y-105030535D01*
X109759465Y-105225120D01*
X109988273Y-105378005D01*
X110242510Y-105483314D01*
X110512408Y-105537000D01*
X110787592Y-105537000D01*
X111057490Y-105483314D01*
X111311727Y-105378005D01*
X111540535Y-105225120D01*
X111735120Y-105030535D01*
X111888005Y-104801727D01*
X111993314Y-104547490D01*
X112047000Y-104277592D01*
X112047000Y-104002408D01*
X111993314Y-103732510D01*
X111888005Y-103478273D01*
X111735120Y-103249465D01*
X111540535Y-103054880D01*
X111311727Y-102901995D01*
X111234485Y-102870000D01*
X111311727Y-102838005D01*
X111540535Y-102685120D01*
X111735120Y-102490535D01*
X111888005Y-102261727D01*
X111993314Y-102007490D01*
X112047000Y-101737592D01*
X112047000Y-101462408D01*
X111993314Y-101192510D01*
X111888005Y-100938273D01*
X111735120Y-100709465D01*
X111540535Y-100514880D01*
X111311727Y-100361995D01*
X111234485Y-100330000D01*
X111311727Y-100298005D01*
X111540535Y-100145120D01*
X111735120Y-99950535D01*
X111888005Y-99721727D01*
X111993314Y-99467490D01*
X112047000Y-99197592D01*
X112047000Y-98922408D01*
X111993314Y-98652510D01*
X111888005Y-98398273D01*
X111735120Y-98169465D01*
X111540535Y-97974880D01*
X111311727Y-97821995D01*
X111234485Y-97790000D01*
X111311727Y-97758005D01*
X111540535Y-97605120D01*
X111735120Y-97410535D01*
X111888005Y-97181727D01*
X111993314Y-96927490D01*
X112047000Y-96657592D01*
X112047000Y-96382408D01*
X111993314Y-96112510D01*
X111888005Y-95858273D01*
X111735120Y-95629465D01*
X111540535Y-95434880D01*
X111311727Y-95281995D01*
X111234485Y-95250000D01*
X111311727Y-95218005D01*
X111540535Y-95065120D01*
X111735120Y-94870535D01*
X111888005Y-94641727D01*
X111993314Y-94387490D01*
X112047000Y-94117592D01*
X112047000Y-93842408D01*
X112045701Y-93835878D01*
X112228580Y-93652999D01*
X121990676Y-93652999D01*
X121953000Y-93842408D01*
X121953000Y-94117592D01*
X122006686Y-94387490D01*
X122111995Y-94641727D01*
X122264880Y-94870535D01*
X122459465Y-95065120D01*
X122688273Y-95218005D01*
X122765515Y-95250000D01*
X122688273Y-95281995D01*
X122459465Y-95434880D01*
X122264880Y-95629465D01*
X122111995Y-95858273D01*
X122006686Y-96112510D01*
X121953000Y-96382408D01*
X121953000Y-96657592D01*
X122006686Y-96927490D01*
X122111995Y-97181727D01*
X122264880Y-97410535D01*
X122459465Y-97605120D01*
X122688273Y-97758005D01*
X122765515Y-97790000D01*
X122688273Y-97821995D01*
X122459465Y-97974880D01*
X122264880Y-98169465D01*
X122111995Y-98398273D01*
X122006686Y-98652510D01*
X121953000Y-98922408D01*
X121953000Y-99197592D01*
X122006686Y-99467490D01*
X122111995Y-99721727D01*
X122264880Y-99950535D01*
X122459465Y-100145120D01*
X122688273Y-100298005D01*
X122765515Y-100330000D01*
X122688273Y-100361995D01*
X122459465Y-100514880D01*
X122264880Y-100709465D01*
X122111995Y-100938273D01*
X122006686Y-101192510D01*
X121953000Y-101462408D01*
X121953000Y-101737592D01*
X122006686Y-102007490D01*
X122111995Y-102261727D01*
X122264880Y-102490535D01*
X122459465Y-102685120D01*
X122688273Y-102838005D01*
X122765515Y-102870000D01*
X122688273Y-102901995D01*
X122459465Y-103054880D01*
X122264880Y-103249465D01*
X122111995Y-103478273D01*
X122006686Y-103732510D01*
X121953000Y-104002408D01*
X121953000Y-104277592D01*
X121990676Y-104467001D01*
X114561464Y-104467001D01*
X114517998Y-104462720D01*
X114474532Y-104467001D01*
X114474522Y-104467001D01*
X114344509Y-104479806D01*
X114177686Y-104530412D01*
X114023940Y-104612590D01*
X114023938Y-104612591D01*
X114023939Y-104612591D01*
X113922952Y-104695469D01*
X113922950Y-104695471D01*
X113889182Y-104723184D01*
X113861469Y-104756952D01*
X111266959Y-107351463D01*
X111266954Y-107351467D01*
X111266952Y-107351469D01*
X111233184Y-107379182D01*
X111205471Y-107412950D01*
X110794122Y-107824299D01*
X110787592Y-107823000D01*
X110512408Y-107823000D01*
X110242510Y-107876686D01*
X109988273Y-107981995D01*
X109759465Y-108134880D01*
X109564880Y-108329465D01*
X109411995Y-108558273D01*
X109306686Y-108812510D01*
X109253000Y-109082408D01*
X109253000Y-109357592D01*
X109290676Y-109547001D01*
X99226815Y-109547001D01*
X97839813Y-108160000D01*
X100017914Y-108160000D01*
X100050676Y-108163193D01*
X100115325Y-108156759D01*
X100179383Y-108150450D01*
X100179707Y-108150352D01*
X100180046Y-108150318D01*
X100242105Y-108131423D01*
X100303793Y-108112710D01*
X100304092Y-108112550D01*
X100304418Y-108112451D01*
X100361510Y-108081860D01*
X100418450Y-108051425D01*
X100418713Y-108051209D01*
X100419012Y-108051049D01*
X100468784Y-108010117D01*
X100518948Y-107968948D01*
X100519165Y-107968684D01*
X100519426Y-107968469D01*
X100560098Y-107918807D01*
X100601425Y-107868450D01*
X100601587Y-107868147D01*
X100601800Y-107867887D01*
X100631978Y-107811290D01*
X100662710Y-107753793D01*
X100662809Y-107753466D01*
X100662968Y-107753168D01*
X100681501Y-107691849D01*
X100700450Y-107629383D01*
X100700484Y-107629041D01*
X100700581Y-107628719D01*
X100706786Y-107565053D01*
X100713193Y-107500000D01*
X100709966Y-107467237D01*
X100688348Y-86279872D01*
X102265000Y-86279872D01*
X102265000Y-86720128D01*
X102350890Y-87151925D01*
X102519369Y-87558669D01*
X102763962Y-87924729D01*
X103075271Y-88236038D01*
X103441331Y-88480631D01*
X103848075Y-88649110D01*
X104279872Y-88735000D01*
X104720128Y-88735000D01*
X105151925Y-88649110D01*
X105558669Y-88480631D01*
X105924729Y-88236038D01*
X106236038Y-87924729D01*
X106480631Y-87558669D01*
X106649110Y-87151925D01*
X106735000Y-86720128D01*
X106735000Y-86279872D01*
X106649110Y-85848075D01*
X106480631Y-85441331D01*
X106236038Y-85075271D01*
X105924729Y-84763962D01*
X105558669Y-84519369D01*
X105151925Y-84350890D01*
X104720128Y-84265000D01*
X104279872Y-84265000D01*
X103848075Y-84350890D01*
X103441331Y-84519369D01*
X103075271Y-84763962D01*
X102763962Y-85075271D01*
X102519369Y-85441331D01*
X102350890Y-85848075D01*
X102265000Y-86279872D01*
X100688348Y-86279872D01*
X100675817Y-74000000D01*
X102177821Y-74000000D01*
X102261792Y-75575501D01*
X102512752Y-77133151D01*
X102927859Y-78655301D01*
X103502408Y-80124705D01*
X104229891Y-81524713D01*
X105102064Y-82839464D01*
X106109046Y-84054059D01*
X107239426Y-85154739D01*
X108480398Y-86129030D01*
X109817900Y-86965895D01*
X111236778Y-87655851D01*
X112720956Y-88191081D01*
X114253617Y-88565520D01*
X115817396Y-88774926D01*
X117394574Y-88816926D01*
X118967282Y-88691045D01*
X120517699Y-88398708D01*
X122028259Y-87943228D01*
X123481847Y-87329765D01*
X124861994Y-86565271D01*
X125268305Y-86279872D01*
X127265000Y-86279872D01*
X127265000Y-86720128D01*
X127350890Y-87151925D01*
X127519369Y-87558669D01*
X127763962Y-87924729D01*
X128075271Y-88236038D01*
X128441331Y-88480631D01*
X128848075Y-88649110D01*
X129279872Y-88735000D01*
X129720128Y-88735000D01*
X130151925Y-88649110D01*
X130558669Y-88480631D01*
X130924729Y-88236038D01*
X131236038Y-87924729D01*
X131480631Y-87558669D01*
X131649110Y-87151925D01*
X131735000Y-86720128D01*
X131735000Y-86279872D01*
X131649110Y-85848075D01*
X131480631Y-85441331D01*
X131236038Y-85075271D01*
X130924729Y-84763962D01*
X130558669Y-84519369D01*
X130151925Y-84350890D01*
X129720128Y-84265000D01*
X129279872Y-84265000D01*
X128848075Y-84350890D01*
X128441331Y-84519369D01*
X128075271Y-84763962D01*
X127763962Y-85075271D01*
X127519369Y-85441331D01*
X127350890Y-85848075D01*
X127265000Y-86279872D01*
X125268305Y-86279872D01*
X126153060Y-85658408D01*
X127340419Y-84619450D01*
X128410617Y-83460170D01*
X129351528Y-82193702D01*
X130152491Y-80834396D01*
X130804432Y-79397653D01*
X131299962Y-77899753D01*
X131633468Y-76357668D01*
X131801171Y-74788869D01*
X131801171Y-73211131D01*
X131633468Y-71642332D01*
X131299962Y-70100247D01*
X130804432Y-68602347D01*
X130152491Y-67165604D01*
X129351528Y-65806298D01*
X128410617Y-64539830D01*
X127340419Y-63380550D01*
X126153060Y-62341592D01*
X124861994Y-61434729D01*
X124582430Y-61279872D01*
X127265000Y-61279872D01*
X127265000Y-61720128D01*
X127350890Y-62151925D01*
X127519369Y-62558669D01*
X127763962Y-62924729D01*
X128075271Y-63236038D01*
X128441331Y-63480631D01*
X128848075Y-63649110D01*
X129279872Y-63735000D01*
X129720128Y-63735000D01*
X130151925Y-63649110D01*
X130558669Y-63480631D01*
X130924729Y-63236038D01*
X131236038Y-62924729D01*
X131480631Y-62558669D01*
X131649110Y-62151925D01*
X131735000Y-61720128D01*
X131735000Y-61279872D01*
X131649110Y-60848075D01*
X131480631Y-60441331D01*
X131236038Y-60075271D01*
X130924729Y-59763962D01*
X130558669Y-59519369D01*
X130151925Y-59350890D01*
X129720128Y-59265000D01*
X129279872Y-59265000D01*
X128848075Y-59350890D01*
X128441331Y-59519369D01*
X128075271Y-59763962D01*
X127763962Y-60075271D01*
X127519369Y-60441331D01*
X127350890Y-60848075D01*
X127265000Y-61279872D01*
X124582430Y-61279872D01*
X123481847Y-60670235D01*
X122028259Y-60056772D01*
X120517699Y-59601292D01*
X118967282Y-59308955D01*
X117394574Y-59183074D01*
X115817396Y-59225074D01*
X114253617Y-59434480D01*
X112720956Y-59808919D01*
X111236778Y-60344149D01*
X109817900Y-61034105D01*
X108480398Y-61870970D01*
X107239426Y-62845261D01*
X106109046Y-63945941D01*
X105102064Y-65160536D01*
X104229891Y-66475287D01*
X103502408Y-67875295D01*
X102927859Y-69344699D01*
X102512752Y-70866849D01*
X102261792Y-72424499D01*
X102177821Y-74000000D01*
X100675817Y-74000000D01*
X100662837Y-61279872D01*
X102265000Y-61279872D01*
X102265000Y-61720128D01*
X102350890Y-62151925D01*
X102519369Y-62558669D01*
X102763962Y-62924729D01*
X103075271Y-63236038D01*
X103441331Y-63480631D01*
X103848075Y-63649110D01*
X104279872Y-63735000D01*
X104720128Y-63735000D01*
X105151925Y-63649110D01*
X105558669Y-63480631D01*
X105924729Y-63236038D01*
X106236038Y-62924729D01*
X106480631Y-62558669D01*
X106649110Y-62151925D01*
X106735000Y-61720128D01*
X106735000Y-61279872D01*
X106649110Y-60848075D01*
X106480631Y-60441331D01*
X106236038Y-60075271D01*
X105924729Y-59763962D01*
X105558669Y-59519369D01*
X105151925Y-59350890D01*
X104720128Y-59265000D01*
X104279872Y-59265000D01*
X103848075Y-59350890D01*
X103441331Y-59519369D01*
X103075271Y-59763962D01*
X102763962Y-60075271D01*
X102519369Y-60441331D01*
X102350890Y-60848075D01*
X102265000Y-61279872D01*
X100662837Y-61279872D01*
X100660033Y-58532089D01*
X100663193Y-58500000D01*
X100659966Y-58467239D01*
X100659966Y-58466908D01*
X100656853Y-58435626D01*
X100650450Y-58370617D01*
X100650350Y-58370288D01*
X100650317Y-58369954D01*
X100631696Y-58308793D01*
X100612710Y-58246207D01*
X100612548Y-58245904D01*
X100612450Y-58245582D01*
X100582267Y-58189251D01*
X100551425Y-58131550D01*
X100551206Y-58131284D01*
X100551048Y-58130988D01*
X100510360Y-58081512D01*
X100468948Y-58031052D01*
X100468684Y-58030835D01*
X100468469Y-58030574D01*
X100418807Y-57989902D01*
X100368450Y-57948575D01*
X100368147Y-57948413D01*
X100367887Y-57948200D01*
X100311490Y-57918129D01*
X100253793Y-57887290D01*
X100253463Y-57887190D01*
X100253167Y-57887032D01*
X100191987Y-57868541D01*
X100129383Y-57849550D01*
X100129041Y-57849516D01*
X100128719Y-57849419D01*
X100064959Y-57843205D01*
X100032419Y-57840000D01*
X100032075Y-57840000D01*
X99999324Y-57836808D01*
X99967250Y-57840000D01*
X97839813Y-57840000D01*
X99919814Y-55760000D01*
X117682678Y-55760000D01*
X117720000Y-55763676D01*
X117757322Y-55760000D01*
X117757333Y-55760000D01*
X117868986Y-55749003D01*
X118012247Y-55705546D01*
X118144276Y-55634974D01*
X118260001Y-55540001D01*
X118283804Y-55510997D01*
X119013592Y-54781209D01*
X119233740Y-54825000D01*
X119526260Y-54825000D01*
X119813158Y-54767932D01*
X120083411Y-54655990D01*
X120326632Y-54493475D01*
X120533475Y-54286632D01*
X120695990Y-54043411D01*
X120807932Y-53773158D01*
X120865000Y-53486260D01*
X120865000Y-53193740D01*
X122975000Y-53193740D01*
X122975000Y-53486260D01*
X123032068Y-53773158D01*
X123144010Y-54043411D01*
X123306525Y-54286632D01*
X123513368Y-54493475D01*
X123756589Y-54655990D01*
X124026842Y-54767932D01*
X124313740Y-54825000D01*
X124606260Y-54825000D01*
X124893158Y-54767932D01*
X125163411Y-54655990D01*
X125406632Y-54493475D01*
X125613475Y-54286632D01*
X125775990Y-54043411D01*
X125887932Y-53773158D01*
X125945000Y-53486260D01*
X125945000Y-53193740D01*
X125887932Y-52906842D01*
X125775990Y-52636589D01*
X125613475Y-52393368D01*
X125406632Y-52186525D01*
X125163411Y-52024010D01*
X124893158Y-51912068D01*
X124606260Y-51855000D01*
X124313740Y-51855000D01*
X124026842Y-51912068D01*
X123756589Y-52024010D01*
X123513368Y-52186525D01*
X123306525Y-52393368D01*
X123144010Y-52636589D01*
X123032068Y-52906842D01*
X122975000Y-53193740D01*
X120865000Y-53193740D01*
X120807932Y-52906842D01*
X120695990Y-52636589D01*
X120533475Y-52393368D01*
X120326632Y-52186525D01*
X120083411Y-52024010D01*
X119813158Y-51912068D01*
X119526260Y-51855000D01*
X119233740Y-51855000D01*
X118946842Y-51912068D01*
X118676589Y-52024010D01*
X118433368Y-52186525D01*
X118226525Y-52393368D01*
X118064010Y-52636589D01*
X117952068Y-52906842D01*
X117895000Y-53193740D01*
X117895000Y-53486260D01*
X117938791Y-53706408D01*
X117405199Y-54240000D01*
X115484633Y-54240000D01*
X115615990Y-54043411D01*
X115727932Y-53773158D01*
X115785000Y-53486260D01*
X115785000Y-53193740D01*
X115727932Y-52906842D01*
X115615990Y-52636589D01*
X115453475Y-52393368D01*
X115246632Y-52186525D01*
X115003411Y-52024010D01*
X114733158Y-51912068D01*
X114446260Y-51855000D01*
X114153740Y-51855000D01*
X113866842Y-51912068D01*
X113596589Y-52024010D01*
X113353368Y-52186525D01*
X113146525Y-52393368D01*
X112984010Y-52636589D01*
X112872068Y-52906842D01*
X112815000Y-53193740D01*
X112815000Y-53486260D01*
X112872068Y-53773158D01*
X112984010Y-54043411D01*
X113115367Y-54240000D01*
X110404633Y-54240000D01*
X110535990Y-54043411D01*
X110647932Y-53773158D01*
X110705000Y-53486260D01*
X110705000Y-53193740D01*
X110647932Y-52906842D01*
X110535990Y-52636589D01*
X110373475Y-52393368D01*
X110166632Y-52186525D01*
X109923411Y-52024010D01*
X109653158Y-51912068D01*
X109366260Y-51855000D01*
X109073740Y-51855000D01*
X108786842Y-51912068D01*
X108516589Y-52024010D01*
X108273368Y-52186525D01*
X108066525Y-52393368D01*
X107904010Y-52636589D01*
X107792068Y-52906842D01*
X107735000Y-53193740D01*
X107735000Y-53486260D01*
X107792068Y-53773158D01*
X107904010Y-54043411D01*
X108035367Y-54240000D01*
X105324633Y-54240000D01*
X105455990Y-54043411D01*
X105567932Y-53773158D01*
X105625000Y-53486260D01*
X105625000Y-53193740D01*
X105567932Y-52906842D01*
X105455990Y-52636589D01*
X105293475Y-52393368D01*
X105086632Y-52186525D01*
X104843411Y-52024010D01*
X104573158Y-51912068D01*
X104286260Y-51855000D01*
X103993740Y-51855000D01*
X103706842Y-51912068D01*
X103436589Y-52024010D01*
X103193368Y-52186525D01*
X102986525Y-52393368D01*
X102824010Y-52636589D01*
X102712068Y-52906842D01*
X102655000Y-53193740D01*
X102655000Y-53486260D01*
X102712068Y-53773158D01*
X102824010Y-54043411D01*
X102955367Y-54240000D01*
X100244633Y-54240000D01*
X100375990Y-54043411D01*
X100487932Y-53773158D01*
X100545000Y-53486260D01*
X100545000Y-53193740D01*
X100487932Y-52906842D01*
X100375990Y-52636589D01*
X100213475Y-52393368D01*
X100006632Y-52186525D01*
X99763411Y-52024010D01*
X99493158Y-51912068D01*
X99206260Y-51855000D01*
X98913740Y-51855000D01*
X98626842Y-51912068D01*
X98356589Y-52024010D01*
X98113368Y-52186525D01*
X97906525Y-52393368D01*
X97744010Y-52636589D01*
X97632068Y-52906842D01*
X97575000Y-53193740D01*
X97575000Y-53486260D01*
X97632068Y-53773158D01*
X97744010Y-54043411D01*
X97906525Y-54286632D01*
X98113368Y-54493475D01*
X98356589Y-54655990D01*
X98626842Y-54767932D01*
X98739808Y-54790402D01*
X95770159Y-57760052D01*
X95646632Y-57636525D01*
X95403411Y-57474010D01*
X95133158Y-57362068D01*
X94846260Y-57305000D01*
X94553740Y-57305000D01*
X94333592Y-57348790D01*
X90385000Y-53400199D01*
X90385000Y-53193740D01*
X90331544Y-52924999D01*
X92490198Y-52924999D01*
X92538791Y-52973592D01*
X92495000Y-53193740D01*
X92495000Y-53486260D01*
X92552068Y-53773158D01*
X92664010Y-54043411D01*
X92826525Y-54286632D01*
X93033368Y-54493475D01*
X93276589Y-54655990D01*
X93546842Y-54767932D01*
X93833740Y-54825000D01*
X94126260Y-54825000D01*
X94413158Y-54767932D01*
X94683411Y-54655990D01*
X94926632Y-54493475D01*
X95133475Y-54286632D01*
X95295990Y-54043411D01*
X95407932Y-53773158D01*
X95465000Y-53486260D01*
X95465000Y-53193740D01*
X95407932Y-52906842D01*
X95295990Y-52636589D01*
X95133475Y-52393368D01*
X94926632Y-52186525D01*
X94683411Y-52024010D01*
X94413158Y-51912068D01*
X94126260Y-51855000D01*
X93833740Y-51855000D01*
X93613592Y-51898791D01*
X93368803Y-51654002D01*
X93345000Y-51624998D01*
X93229275Y-51530025D01*
X93097246Y-51459453D01*
X92953985Y-51415996D01*
X92842332Y-51404999D01*
X92842321Y-51404999D01*
X92804999Y-51401323D01*
X92767677Y-51404999D01*
X88373321Y-51404999D01*
X88335998Y-51401323D01*
X88298675Y-51404999D01*
X88298666Y-51404999D01*
X88187013Y-51415996D01*
X88043752Y-51459453D01*
X87911723Y-51530025D01*
X87911721Y-51530026D01*
X87911722Y-51530026D01*
X87885000Y-51551956D01*
X87885000Y-50556576D01*
X89256577Y-49185000D01*
X129486529Y-49185000D01*
X129529998Y-49189281D01*
X129573467Y-49185000D01*
X129573475Y-49185000D01*
X129703488Y-49172195D01*
X129870311Y-49121589D01*
X129882640Y-49114999D01*
X131918456Y-49114999D01*
X131865000Y-49383740D01*
G37*
G04 #@! TD.AperFunction*
D24*
X87150000Y-101488072D02*
X88740001Y-101488072D01*
X88740001Y-103265197D01*
X88366408Y-103638790D01*
X88146260Y-103595000D01*
X87853740Y-103595000D01*
X87566842Y-103652068D01*
X87296589Y-103764010D01*
X87127000Y-103877326D01*
X87127000Y-101485807D01*
X87150000Y-101488072D01*
G04 #@! TA.AperFunction,Conductor*
D25*
G36*
X87150000Y-101488072D02*
G01*
X88740001Y-101488072D01*
X88740001Y-103265197D01*
X88366408Y-103638790D01*
X88146260Y-103595000D01*
X87853740Y-103595000D01*
X87566842Y-103652068D01*
X87296589Y-103764010D01*
X87127000Y-103877326D01*
X87127000Y-101485807D01*
X87150000Y-101488072D01*
G37*
G04 #@! TD.AperFunction*
D24*
X88415001Y-89648456D02*
X88146260Y-89595000D01*
X87853740Y-89595000D01*
X87633592Y-89638791D01*
X87260000Y-89265199D01*
X87260000Y-87488072D01*
X88415002Y-87488072D01*
X88415001Y-89648456D01*
G04 #@! TA.AperFunction,Conductor*
D25*
G36*
X88415001Y-89648456D02*
G01*
X88146260Y-89595000D01*
X87853740Y-89595000D01*
X87633592Y-89638791D01*
X87260000Y-89265199D01*
X87260000Y-87488072D01*
X88415002Y-87488072D01*
X88415001Y-89648456D01*
G37*
G04 #@! TD.AperFunction*
D24*
X87150000Y-73488072D02*
X88415002Y-73488072D01*
X88415002Y-75590196D01*
X88366408Y-75638790D01*
X88146260Y-75595000D01*
X87853740Y-75595000D01*
X87566842Y-75652068D01*
X87296589Y-75764010D01*
X87127000Y-75877326D01*
X87127000Y-73485807D01*
X87150000Y-73488072D01*
G04 #@! TA.AperFunction,Conductor*
D25*
G36*
X87150000Y-73488072D02*
G01*
X88415002Y-73488072D01*
X88415002Y-75590196D01*
X88366408Y-75638790D01*
X88146260Y-75595000D01*
X87853740Y-75595000D01*
X87566842Y-75652068D01*
X87296589Y-75764010D01*
X87127000Y-75877326D01*
X87127000Y-73485807D01*
X87150000Y-73488072D01*
G37*
G04 #@! TD.AperFunction*
D24*
X89257198Y-56511002D02*
X89280997Y-56540001D01*
X89396722Y-56634974D01*
X89528751Y-56705546D01*
X89672012Y-56749003D01*
X89783665Y-56760000D01*
X89783674Y-56760000D01*
X89820997Y-56763676D01*
X89858320Y-56760000D01*
X90794201Y-56760000D01*
X91493091Y-57458890D01*
X91456589Y-57474010D01*
X91213368Y-57636525D01*
X91006525Y-57843368D01*
X90844010Y-58086589D01*
X90732068Y-58356842D01*
X90675000Y-58643740D01*
X90675000Y-58936260D01*
X90718790Y-59156407D01*
X88257977Y-61617222D01*
X88146260Y-61595000D01*
X87853740Y-61595000D01*
X87566842Y-61652068D01*
X87360010Y-61737740D01*
X87360010Y-59891568D01*
X87763506Y-59488072D01*
X88850000Y-59488072D01*
X88974482Y-59475812D01*
X89094180Y-59439502D01*
X89204494Y-59380537D01*
X89301185Y-59301185D01*
X89380537Y-59204494D01*
X89439502Y-59094180D01*
X89475812Y-58974482D01*
X89488072Y-58850000D01*
X89488072Y-57150000D01*
X89475812Y-57025518D01*
X89439502Y-56905820D01*
X89380537Y-56795506D01*
X89301185Y-56698815D01*
X89204494Y-56619463D01*
X89094180Y-56560498D01*
X88974482Y-56524188D01*
X88850000Y-56511928D01*
X88742611Y-56511928D01*
X88739411Y-56505941D01*
X88656532Y-56404953D01*
X88656530Y-56404951D01*
X88628817Y-56371183D01*
X88595049Y-56343470D01*
X87885000Y-55633422D01*
X87885000Y-55138803D01*
X89257198Y-56511002D01*
G04 #@! TA.AperFunction,Conductor*
D25*
G36*
X89257198Y-56511002D02*
G01*
X89280997Y-56540001D01*
X89396722Y-56634974D01*
X89528751Y-56705546D01*
X89672012Y-56749003D01*
X89783665Y-56760000D01*
X89783674Y-56760000D01*
X89820997Y-56763676D01*
X89858320Y-56760000D01*
X90794201Y-56760000D01*
X91493091Y-57458890D01*
X91456589Y-57474010D01*
X91213368Y-57636525D01*
X91006525Y-57843368D01*
X90844010Y-58086589D01*
X90732068Y-58356842D01*
X90675000Y-58643740D01*
X90675000Y-58936260D01*
X90718790Y-59156407D01*
X88257977Y-61617222D01*
X88146260Y-61595000D01*
X87853740Y-61595000D01*
X87566842Y-61652068D01*
X87360010Y-61737740D01*
X87360010Y-59891568D01*
X87763506Y-59488072D01*
X88850000Y-59488072D01*
X88974482Y-59475812D01*
X89094180Y-59439502D01*
X89204494Y-59380537D01*
X89301185Y-59301185D01*
X89380537Y-59204494D01*
X89439502Y-59094180D01*
X89475812Y-58974482D01*
X89488072Y-58850000D01*
X89488072Y-57150000D01*
X89475812Y-57025518D01*
X89439502Y-56905820D01*
X89380537Y-56795506D01*
X89301185Y-56698815D01*
X89204494Y-56619463D01*
X89094180Y-56560498D01*
X88974482Y-56524188D01*
X88850000Y-56511928D01*
X88742611Y-56511928D01*
X88739411Y-56505941D01*
X88656532Y-56404953D01*
X88656530Y-56404951D01*
X88628817Y-56371183D01*
X88595049Y-56343470D01*
X87885000Y-55633422D01*
X87885000Y-55138803D01*
X89257198Y-56511002D01*
G37*
G04 #@! TD.AperFunction*
D24*
X142496303Y-53447882D02*
X142483368Y-53456525D01*
X142276525Y-53663368D01*
X142114010Y-53906589D01*
X142002068Y-54176842D01*
X141945000Y-54463740D01*
X141945000Y-54756260D01*
X142002068Y-55043158D01*
X142114010Y-55313411D01*
X142276525Y-55556632D01*
X142483368Y-55763475D01*
X142726589Y-55925990D01*
X142996842Y-56037932D01*
X143283740Y-56095000D01*
X143576260Y-56095000D01*
X143863158Y-56037932D01*
X144133411Y-55925990D01*
X144376632Y-55763475D01*
X144583475Y-55556632D01*
X144700000Y-55382240D01*
X144816525Y-55556632D01*
X145023368Y-55763475D01*
X145266589Y-55925990D01*
X145536842Y-56037932D01*
X145823740Y-56095000D01*
X146116260Y-56095000D01*
X146336408Y-56051209D01*
X148511928Y-58226730D01*
X148511928Y-58484257D01*
X148468450Y-58448575D01*
X148353793Y-58387290D01*
X148229383Y-58349550D01*
X148132419Y-58340000D01*
X148100000Y-58336807D01*
X148067581Y-58340000D01*
X144032419Y-58340000D01*
X144000000Y-58336807D01*
X143967581Y-58340000D01*
X143870617Y-58349550D01*
X143746207Y-58387290D01*
X143631550Y-58448575D01*
X143531052Y-58531052D01*
X143448575Y-58631550D01*
X143390608Y-58740000D01*
X135511578Y-58740000D01*
X139125048Y-55126531D01*
X139158816Y-55098818D01*
X139204496Y-55043158D01*
X139269410Y-54964060D01*
X139329833Y-54851015D01*
X139351588Y-54810314D01*
X139402194Y-54643491D01*
X139414999Y-54513478D01*
X139414999Y-54513470D01*
X139419280Y-54470001D01*
X139414999Y-54426532D01*
X139414999Y-50366577D01*
X142496303Y-53447882D01*
G04 #@! TA.AperFunction,Conductor*
D25*
G36*
X142496303Y-53447882D02*
G01*
X142483368Y-53456525D01*
X142276525Y-53663368D01*
X142114010Y-53906589D01*
X142002068Y-54176842D01*
X141945000Y-54463740D01*
X141945000Y-54756260D01*
X142002068Y-55043158D01*
X142114010Y-55313411D01*
X142276525Y-55556632D01*
X142483368Y-55763475D01*
X142726589Y-55925990D01*
X142996842Y-56037932D01*
X143283740Y-56095000D01*
X143576260Y-56095000D01*
X143863158Y-56037932D01*
X144133411Y-55925990D01*
X144376632Y-55763475D01*
X144583475Y-55556632D01*
X144700000Y-55382240D01*
X144816525Y-55556632D01*
X145023368Y-55763475D01*
X145266589Y-55925990D01*
X145536842Y-56037932D01*
X145823740Y-56095000D01*
X146116260Y-56095000D01*
X146336408Y-56051209D01*
X148511928Y-58226730D01*
X148511928Y-58484257D01*
X148468450Y-58448575D01*
X148353793Y-58387290D01*
X148229383Y-58349550D01*
X148132419Y-58340000D01*
X148100000Y-58336807D01*
X148067581Y-58340000D01*
X144032419Y-58340000D01*
X144000000Y-58336807D01*
X143967581Y-58340000D01*
X143870617Y-58349550D01*
X143746207Y-58387290D01*
X143631550Y-58448575D01*
X143531052Y-58531052D01*
X143448575Y-58631550D01*
X143390608Y-58740000D01*
X135511578Y-58740000D01*
X139125048Y-55126531D01*
X139158816Y-55098818D01*
X139204496Y-55043158D01*
X139269410Y-54964060D01*
X139329833Y-54851015D01*
X139351588Y-54810314D01*
X139402194Y-54643491D01*
X139414999Y-54513478D01*
X139414999Y-54513470D01*
X139419280Y-54470001D01*
X139414999Y-54426532D01*
X139414999Y-50366577D01*
X142496303Y-53447882D01*
G37*
G04 #@! TD.AperFunction*
D24*
X142806589Y-48214010D02*
X142563368Y-48376525D01*
X142356525Y-48583368D01*
X142194010Y-48826589D01*
X142082068Y-49096842D01*
X142025000Y-49383740D01*
X142025000Y-49676260D01*
X142082068Y-49963158D01*
X142194010Y-50233411D01*
X142356525Y-50476632D01*
X142563368Y-50683475D01*
X142806589Y-50845990D01*
X143076842Y-50957932D01*
X143363740Y-51015000D01*
X143656260Y-51015000D01*
X143943158Y-50957932D01*
X144213411Y-50845990D01*
X144456632Y-50683475D01*
X144663475Y-50476632D01*
X144825990Y-50233411D01*
X144937932Y-49963158D01*
X144995000Y-49676260D01*
X144995000Y-49383740D01*
X144980539Y-49311040D01*
X145506579Y-48785000D01*
X152381799Y-48785000D01*
X152354010Y-48826589D01*
X152242068Y-49096842D01*
X152185000Y-49383740D01*
X152185000Y-49676260D01*
X152242068Y-49963158D01*
X152354010Y-50233411D01*
X152516525Y-50476632D01*
X152723368Y-50683475D01*
X152966589Y-50845990D01*
X153236842Y-50957932D01*
X153523740Y-51015000D01*
X153816260Y-51015000D01*
X154103158Y-50957932D01*
X154373411Y-50845990D01*
X154616632Y-50683475D01*
X154823475Y-50476632D01*
X154985990Y-50233411D01*
X155097932Y-49963158D01*
X155155000Y-49676260D01*
X155155000Y-49383740D01*
X155097932Y-49096842D01*
X154985990Y-48826589D01*
X154958201Y-48785000D01*
X156933422Y-48785000D01*
X157440021Y-49291600D01*
X157440022Y-53897657D01*
X157283475Y-53663368D01*
X157076632Y-53456525D01*
X156833411Y-53294010D01*
X156563158Y-53182068D01*
X156276260Y-53125000D01*
X155983740Y-53125000D01*
X155696842Y-53182068D01*
X155426589Y-53294010D01*
X155183368Y-53456525D01*
X154976525Y-53663368D01*
X154860000Y-53837760D01*
X154743475Y-53663368D01*
X154536632Y-53456525D01*
X154293411Y-53294010D01*
X154023158Y-53182068D01*
X153736260Y-53125000D01*
X153443740Y-53125000D01*
X153156842Y-53182068D01*
X152886589Y-53294010D01*
X152643368Y-53456525D01*
X152436525Y-53663368D01*
X152320000Y-53837760D01*
X152203475Y-53663368D01*
X151996632Y-53456525D01*
X151753411Y-53294010D01*
X151483158Y-53182068D01*
X151196260Y-53125000D01*
X150903740Y-53125000D01*
X150616842Y-53182068D01*
X150346589Y-53294010D01*
X150103368Y-53456525D01*
X149896525Y-53663368D01*
X149780000Y-53837760D01*
X149663475Y-53663368D01*
X149456632Y-53456525D01*
X149213411Y-53294010D01*
X148943158Y-53182068D01*
X148656260Y-53125000D01*
X148363740Y-53125000D01*
X148076842Y-53182068D01*
X147806589Y-53294010D01*
X147563368Y-53456525D01*
X147356525Y-53663368D01*
X147240000Y-53837760D01*
X147123475Y-53663368D01*
X146916632Y-53456525D01*
X146673411Y-53294010D01*
X146403158Y-53182068D01*
X146116260Y-53125000D01*
X145823740Y-53125000D01*
X145536842Y-53182068D01*
X145266589Y-53294010D01*
X145023368Y-53456525D01*
X144816525Y-53663368D01*
X144700000Y-53837760D01*
X144583475Y-53663368D01*
X144376632Y-53456525D01*
X144315000Y-53415344D01*
X144315000Y-53173469D01*
X144319281Y-53130000D01*
X144315000Y-53086531D01*
X144315000Y-53086523D01*
X144302195Y-52956510D01*
X144251589Y-52789687D01*
X144169411Y-52635941D01*
X144120484Y-52576324D01*
X144086532Y-52534953D01*
X144086530Y-52534951D01*
X144058817Y-52501183D01*
X144025051Y-52473472D01*
X139678578Y-48127000D01*
X143016651Y-48127000D01*
X142806589Y-48214010D01*
G04 #@! TA.AperFunction,Conductor*
D25*
G36*
X142806589Y-48214010D02*
G01*
X142563368Y-48376525D01*
X142356525Y-48583368D01*
X142194010Y-48826589D01*
X142082068Y-49096842D01*
X142025000Y-49383740D01*
X142025000Y-49676260D01*
X142082068Y-49963158D01*
X142194010Y-50233411D01*
X142356525Y-50476632D01*
X142563368Y-50683475D01*
X142806589Y-50845990D01*
X143076842Y-50957932D01*
X143363740Y-51015000D01*
X143656260Y-51015000D01*
X143943158Y-50957932D01*
X144213411Y-50845990D01*
X144456632Y-50683475D01*
X144663475Y-50476632D01*
X144825990Y-50233411D01*
X144937932Y-49963158D01*
X144995000Y-49676260D01*
X144995000Y-49383740D01*
X144980539Y-49311040D01*
X145506579Y-48785000D01*
X152381799Y-48785000D01*
X152354010Y-48826589D01*
X152242068Y-49096842D01*
X152185000Y-49383740D01*
X152185000Y-49676260D01*
X152242068Y-49963158D01*
X152354010Y-50233411D01*
X152516525Y-50476632D01*
X152723368Y-50683475D01*
X152966589Y-50845990D01*
X153236842Y-50957932D01*
X153523740Y-51015000D01*
X153816260Y-51015000D01*
X154103158Y-50957932D01*
X154373411Y-50845990D01*
X154616632Y-50683475D01*
X154823475Y-50476632D01*
X154985990Y-50233411D01*
X155097932Y-49963158D01*
X155155000Y-49676260D01*
X155155000Y-49383740D01*
X155097932Y-49096842D01*
X154985990Y-48826589D01*
X154958201Y-48785000D01*
X156933422Y-48785000D01*
X157440021Y-49291600D01*
X157440022Y-53897657D01*
X157283475Y-53663368D01*
X157076632Y-53456525D01*
X156833411Y-53294010D01*
X156563158Y-53182068D01*
X156276260Y-53125000D01*
X155983740Y-53125000D01*
X155696842Y-53182068D01*
X155426589Y-53294010D01*
X155183368Y-53456525D01*
X154976525Y-53663368D01*
X154860000Y-53837760D01*
X154743475Y-53663368D01*
X154536632Y-53456525D01*
X154293411Y-53294010D01*
X154023158Y-53182068D01*
X153736260Y-53125000D01*
X153443740Y-53125000D01*
X153156842Y-53182068D01*
X152886589Y-53294010D01*
X152643368Y-53456525D01*
X152436525Y-53663368D01*
X152320000Y-53837760D01*
X152203475Y-53663368D01*
X151996632Y-53456525D01*
X151753411Y-53294010D01*
X151483158Y-53182068D01*
X151196260Y-53125000D01*
X150903740Y-53125000D01*
X150616842Y-53182068D01*
X150346589Y-53294010D01*
X150103368Y-53456525D01*
X149896525Y-53663368D01*
X149780000Y-53837760D01*
X149663475Y-53663368D01*
X149456632Y-53456525D01*
X149213411Y-53294010D01*
X148943158Y-53182068D01*
X148656260Y-53125000D01*
X148363740Y-53125000D01*
X148076842Y-53182068D01*
X147806589Y-53294010D01*
X147563368Y-53456525D01*
X147356525Y-53663368D01*
X147240000Y-53837760D01*
X147123475Y-53663368D01*
X146916632Y-53456525D01*
X146673411Y-53294010D01*
X146403158Y-53182068D01*
X146116260Y-53125000D01*
X145823740Y-53125000D01*
X145536842Y-53182068D01*
X145266589Y-53294010D01*
X145023368Y-53456525D01*
X144816525Y-53663368D01*
X144700000Y-53837760D01*
X144583475Y-53663368D01*
X144376632Y-53456525D01*
X144315000Y-53415344D01*
X144315000Y-53173469D01*
X144319281Y-53130000D01*
X144315000Y-53086531D01*
X144315000Y-53086523D01*
X144302195Y-52956510D01*
X144251589Y-52789687D01*
X144169411Y-52635941D01*
X144120484Y-52576324D01*
X144086532Y-52534953D01*
X144086530Y-52534951D01*
X144058817Y-52501183D01*
X144025051Y-52473472D01*
X139678578Y-48127000D01*
X143016651Y-48127000D01*
X142806589Y-48214010D01*
G37*
G04 #@! TD.AperFunction*
M02*
