G04 #@! TF.GenerationSoftware,KiCad,Pcbnew,5.1.9-73d0e3b20d~88~ubuntu20.04.1*
G04 #@! TF.CreationDate,2021-03-18T21:34:13+01:00*
G04 #@! TF.ProjectId,de10-shield,64653130-2d73-4686-9965-6c642e6b6963,rev?*
G04 #@! TF.SameCoordinates,Original*
G04 #@! TF.FileFunction,Profile,NP*
%FSLAX46Y46*%
G04 Gerber Fmt 4.6, Leading zero omitted, Abs format (unit mm)*
G04 Created by KiCad (PCBNEW 5.1.9-73d0e3b20d~88~ubuntu20.04.1) date 2021-03-18 21:34:13*
%MOMM*%
%LPD*%
G01*
G04 APERTURE LIST*
G04 #@! TA.AperFunction,Profile*
%ADD10C,0.050000*%
G04 #@! TD*
G04 #@! TA.AperFunction,Profile*
%ADD11C,0.120000*%
G04 #@! TD*
G04 APERTURE END LIST*
D10*
X105000000Y-133000000D02*
X105000000Y-117000000D01*
X159000000Y-133000000D02*
X105000000Y-133000000D01*
X159000000Y-46990000D02*
X159000000Y-133000000D01*
X86000000Y-117000000D02*
X86000000Y-47000000D01*
X148100000Y-59000000D02*
X144000000Y-59000000D01*
X144000000Y-59000000D02*
X144000000Y-59400000D01*
X86000000Y-117000000D02*
X105000000Y-117000000D01*
X96600000Y-58500000D02*
X100000000Y-58500000D01*
X148100000Y-98800000D02*
X148100000Y-59000000D01*
X144000000Y-98800000D02*
X148100000Y-98800000D01*
X144000000Y-89800000D02*
X144000000Y-98800000D01*
X134500000Y-89800000D02*
X144000000Y-89800000D01*
X134500000Y-75500000D02*
X134500000Y-89800000D01*
X134500000Y-59400000D02*
X134500000Y-75500000D01*
X144000000Y-59400000D02*
X134500000Y-59400000D01*
D11*
X131107179Y-74000000D02*
G75*
G03*
X131107179Y-74000000I-14107179J0D01*
G01*
D10*
X100000000Y-58500000D02*
X100050000Y-107500000D01*
X96600000Y-107500000D02*
X96600000Y-58500000D01*
X96600000Y-107500000D02*
X100050000Y-107500000D01*
X159000000Y-46990000D02*
X86000000Y-47000000D01*
M02*
