G04 #@! TF.GenerationSoftware,KiCad,Pcbnew,5.1.9-73d0e3b20d~88~ubuntu20.04.1*
G04 #@! TF.CreationDate,2021-03-18T21:34:13+01:00*
G04 #@! TF.ProjectId,de10-shield,64653130-2d73-4686-9965-6c642e6b6963,rev?*
G04 #@! TF.SameCoordinates,Original*
G04 #@! TF.FileFunction,Legend,Top*
G04 #@! TF.FilePolarity,Positive*
%FSLAX46Y46*%
G04 Gerber Fmt 4.6, Leading zero omitted, Abs format (unit mm)*
G04 Created by KiCad (PCBNEW 5.1.9-73d0e3b20d~88~ubuntu20.04.1) date 2021-03-18 21:34:13*
%MOMM*%
%LPD*%
G01*
G04 APERTURE LIST*
%ADD10C,0.250000*%
%ADD11C,0.100000*%
%ADD12C,0.150000*%
%ADD13C,0.120000*%
G04 APERTURE END LIST*
D10*
X147238095Y-120904761D02*
X146761904Y-120904761D01*
X146714285Y-121857142D01*
X146761904Y-121761904D01*
X146857142Y-121666666D01*
X147095238Y-121666666D01*
X147190476Y-121761904D01*
X147238095Y-121857142D01*
X147285714Y-122047619D01*
X147285714Y-122523809D01*
X147238095Y-122714285D01*
X147190476Y-122809523D01*
X147095238Y-122904761D01*
X146857142Y-122904761D01*
X146761904Y-122809523D01*
X146714285Y-122714285D01*
X147714285Y-122142857D02*
X148476190Y-122142857D01*
X148857142Y-120904761D02*
X149476190Y-120904761D01*
X149142857Y-121666666D01*
X149285714Y-121666666D01*
X149380952Y-121761904D01*
X149428571Y-121857142D01*
X149476190Y-122047619D01*
X149476190Y-122523809D01*
X149428571Y-122714285D01*
X149380952Y-122809523D01*
X149285714Y-122904761D01*
X149000000Y-122904761D01*
X148904761Y-122809523D01*
X148857142Y-122714285D01*
X150333333Y-120904761D02*
X150142857Y-120904761D01*
X150047619Y-121000000D01*
X150000000Y-121095238D01*
X149904761Y-121380952D01*
X149857142Y-121761904D01*
X149857142Y-122523809D01*
X149904761Y-122714285D01*
X149952380Y-122809523D01*
X150047619Y-122904761D01*
X150238095Y-122904761D01*
X150333333Y-122809523D01*
X150380952Y-122714285D01*
X150428571Y-122523809D01*
X150428571Y-122047619D01*
X150380952Y-121857142D01*
X150333333Y-121761904D01*
X150238095Y-121666666D01*
X150047619Y-121666666D01*
X149952380Y-121761904D01*
X149904761Y-121857142D01*
X149857142Y-122047619D01*
X150714285Y-120904761D02*
X151047619Y-122904761D01*
X151380952Y-120904761D01*
D11*
G36*
X154900000Y-128800000D02*
G01*
X154900000Y-131800000D01*
X145900000Y-131800000D01*
X145900000Y-124700000D01*
X150600000Y-124700000D01*
X154900000Y-128800000D01*
G37*
X154900000Y-128800000D02*
X154900000Y-131800000D01*
X145900000Y-131800000D01*
X145900000Y-124700000D01*
X150600000Y-124700000D01*
X154900000Y-128800000D01*
D12*
X89895238Y-107628571D02*
X90038095Y-107676190D01*
X90085714Y-107723809D01*
X90133333Y-107819047D01*
X90133333Y-107961904D01*
X90085714Y-108057142D01*
X90038095Y-108104761D01*
X89942857Y-108152380D01*
X89561904Y-108152380D01*
X89561904Y-107152380D01*
X89895238Y-107152380D01*
X89990476Y-107200000D01*
X90038095Y-107247619D01*
X90085714Y-107342857D01*
X90085714Y-107438095D01*
X90038095Y-107533333D01*
X89990476Y-107580952D01*
X89895238Y-107628571D01*
X89561904Y-107628571D01*
X90466666Y-107152380D02*
X91085714Y-107152380D01*
X90752380Y-107533333D01*
X90895238Y-107533333D01*
X90990476Y-107580952D01*
X91038095Y-107628571D01*
X91085714Y-107723809D01*
X91085714Y-107961904D01*
X91038095Y-108057142D01*
X90990476Y-108104761D01*
X90895238Y-108152380D01*
X90609523Y-108152380D01*
X90514285Y-108104761D01*
X90466666Y-108057142D01*
X89585714Y-105366666D02*
X90061904Y-105366666D01*
X89490476Y-105652380D02*
X89823809Y-104652380D01*
X90157142Y-105652380D01*
X90395238Y-104652380D02*
X91014285Y-104652380D01*
X90680952Y-105033333D01*
X90823809Y-105033333D01*
X90919047Y-105080952D01*
X90966666Y-105128571D01*
X91014285Y-105223809D01*
X91014285Y-105461904D01*
X90966666Y-105557142D01*
X90919047Y-105604761D01*
X90823809Y-105652380D01*
X90538095Y-105652380D01*
X90442857Y-105604761D01*
X90395238Y-105557142D01*
X89823809Y-110752380D02*
X89823809Y-109752380D01*
X90204761Y-109752380D02*
X90823809Y-109752380D01*
X90490476Y-110133333D01*
X90633333Y-110133333D01*
X90728571Y-110180952D01*
X90776190Y-110228571D01*
X90823809Y-110323809D01*
X90823809Y-110561904D01*
X90776190Y-110657142D01*
X90728571Y-110704761D01*
X90633333Y-110752380D01*
X90347619Y-110752380D01*
X90252380Y-110704761D01*
X90204761Y-110657142D01*
X89895238Y-93628571D02*
X90038095Y-93676190D01*
X90085714Y-93723809D01*
X90133333Y-93819047D01*
X90133333Y-93961904D01*
X90085714Y-94057142D01*
X90038095Y-94104761D01*
X89942857Y-94152380D01*
X89561904Y-94152380D01*
X89561904Y-93152380D01*
X89895238Y-93152380D01*
X89990476Y-93200000D01*
X90038095Y-93247619D01*
X90085714Y-93342857D01*
X90085714Y-93438095D01*
X90038095Y-93533333D01*
X89990476Y-93580952D01*
X89895238Y-93628571D01*
X89561904Y-93628571D01*
X90514285Y-93247619D02*
X90561904Y-93200000D01*
X90657142Y-93152380D01*
X90895238Y-93152380D01*
X90990476Y-93200000D01*
X91038095Y-93247619D01*
X91085714Y-93342857D01*
X91085714Y-93438095D01*
X91038095Y-93580952D01*
X90466666Y-94152380D01*
X91085714Y-94152380D01*
X89585714Y-91366666D02*
X90061904Y-91366666D01*
X89490476Y-91652380D02*
X89823809Y-90652380D01*
X90157142Y-91652380D01*
X90442857Y-90747619D02*
X90490476Y-90700000D01*
X90585714Y-90652380D01*
X90823809Y-90652380D01*
X90919047Y-90700000D01*
X90966666Y-90747619D01*
X91014285Y-90842857D01*
X91014285Y-90938095D01*
X90966666Y-91080952D01*
X90395238Y-91652380D01*
X91014285Y-91652380D01*
X89823809Y-96752380D02*
X89823809Y-95752380D01*
X90252380Y-95847619D02*
X90300000Y-95800000D01*
X90395238Y-95752380D01*
X90633333Y-95752380D01*
X90728571Y-95800000D01*
X90776190Y-95847619D01*
X90823809Y-95942857D01*
X90823809Y-96038095D01*
X90776190Y-96180952D01*
X90204761Y-96752380D01*
X90823809Y-96752380D01*
X89795238Y-79628571D02*
X89938095Y-79676190D01*
X89985714Y-79723809D01*
X90033333Y-79819047D01*
X90033333Y-79961904D01*
X89985714Y-80057142D01*
X89938095Y-80104761D01*
X89842857Y-80152380D01*
X89461904Y-80152380D01*
X89461904Y-79152380D01*
X89795238Y-79152380D01*
X89890476Y-79200000D01*
X89938095Y-79247619D01*
X89985714Y-79342857D01*
X89985714Y-79438095D01*
X89938095Y-79533333D01*
X89890476Y-79580952D01*
X89795238Y-79628571D01*
X89461904Y-79628571D01*
X90985714Y-80152380D02*
X90414285Y-80152380D01*
X90700000Y-80152380D02*
X90700000Y-79152380D01*
X90604761Y-79295238D01*
X90509523Y-79390476D01*
X90414285Y-79438095D01*
X89485714Y-77366666D02*
X89961904Y-77366666D01*
X89390476Y-77652380D02*
X89723809Y-76652380D01*
X90057142Y-77652380D01*
X90914285Y-77652380D02*
X90342857Y-77652380D01*
X90628571Y-77652380D02*
X90628571Y-76652380D01*
X90533333Y-76795238D01*
X90438095Y-76890476D01*
X90342857Y-76938095D01*
X89723809Y-82752380D02*
X89723809Y-81752380D01*
X90723809Y-82752380D02*
X90152380Y-82752380D01*
X90438095Y-82752380D02*
X90438095Y-81752380D01*
X90342857Y-81895238D01*
X90247619Y-81990476D01*
X90152380Y-82038095D01*
X89823809Y-68752380D02*
X89823809Y-67752380D01*
X90490476Y-67752380D02*
X90585714Y-67752380D01*
X90680952Y-67800000D01*
X90728571Y-67847619D01*
X90776190Y-67942857D01*
X90823809Y-68133333D01*
X90823809Y-68371428D01*
X90776190Y-68561904D01*
X90728571Y-68657142D01*
X90680952Y-68704761D01*
X90585714Y-68752380D01*
X90490476Y-68752380D01*
X90395238Y-68704761D01*
X90347619Y-68657142D01*
X90300000Y-68561904D01*
X90252380Y-68371428D01*
X90252380Y-68133333D01*
X90300000Y-67942857D01*
X90347619Y-67847619D01*
X90395238Y-67800000D01*
X90490476Y-67752380D01*
X89895238Y-65628571D02*
X90038095Y-65676190D01*
X90085714Y-65723809D01*
X90133333Y-65819047D01*
X90133333Y-65961904D01*
X90085714Y-66057142D01*
X90038095Y-66104761D01*
X89942857Y-66152380D01*
X89561904Y-66152380D01*
X89561904Y-65152380D01*
X89895238Y-65152380D01*
X89990476Y-65200000D01*
X90038095Y-65247619D01*
X90085714Y-65342857D01*
X90085714Y-65438095D01*
X90038095Y-65533333D01*
X89990476Y-65580952D01*
X89895238Y-65628571D01*
X89561904Y-65628571D01*
X90752380Y-65152380D02*
X90847619Y-65152380D01*
X90942857Y-65200000D01*
X90990476Y-65247619D01*
X91038095Y-65342857D01*
X91085714Y-65533333D01*
X91085714Y-65771428D01*
X91038095Y-65961904D01*
X90990476Y-66057142D01*
X90942857Y-66104761D01*
X90847619Y-66152380D01*
X90752380Y-66152380D01*
X90657142Y-66104761D01*
X90609523Y-66057142D01*
X90561904Y-65961904D01*
X90514285Y-65771428D01*
X90514285Y-65533333D01*
X90561904Y-65342857D01*
X90609523Y-65247619D01*
X90657142Y-65200000D01*
X90752380Y-65152380D01*
X89585714Y-63366666D02*
X90061904Y-63366666D01*
X89490476Y-63652380D02*
X89823809Y-62652380D01*
X90157142Y-63652380D01*
X90680952Y-62652380D02*
X90776190Y-62652380D01*
X90871428Y-62700000D01*
X90919047Y-62747619D01*
X90966666Y-62842857D01*
X91014285Y-63033333D01*
X91014285Y-63271428D01*
X90966666Y-63461904D01*
X90919047Y-63557142D01*
X90871428Y-63604761D01*
X90776190Y-63652380D01*
X90680952Y-63652380D01*
X90585714Y-63604761D01*
X90538095Y-63557142D01*
X90490476Y-63461904D01*
X90442857Y-63271428D01*
X90442857Y-63033333D01*
X90490476Y-62842857D01*
X90538095Y-62747619D01*
X90585714Y-62700000D01*
X90680952Y-62652380D01*
X89722380Y-101006190D02*
X89722380Y-100387142D01*
X90103333Y-100720476D01*
X90103333Y-100577619D01*
X90150952Y-100482380D01*
X90198571Y-100434761D01*
X90293809Y-100387142D01*
X90531904Y-100387142D01*
X90627142Y-100434761D01*
X90674761Y-100482380D01*
X90722380Y-100577619D01*
X90722380Y-100863333D01*
X90674761Y-100958571D01*
X90627142Y-101006190D01*
X90627142Y-99958571D02*
X90674761Y-99910952D01*
X90722380Y-99958571D01*
X90674761Y-100006190D01*
X90627142Y-99958571D01*
X90722380Y-99958571D01*
X89722380Y-99577619D02*
X89722380Y-98958571D01*
X90103333Y-99291904D01*
X90103333Y-99149047D01*
X90150952Y-99053809D01*
X90198571Y-99006190D01*
X90293809Y-98958571D01*
X90531904Y-98958571D01*
X90627142Y-99006190D01*
X90674761Y-99053809D01*
X90722380Y-99149047D01*
X90722380Y-99434761D01*
X90674761Y-99530000D01*
X90627142Y-99577619D01*
X89722380Y-98672857D02*
X90722380Y-98339523D01*
X89722380Y-98006190D01*
X89622380Y-87006190D02*
X89622380Y-86387142D01*
X90003333Y-86720476D01*
X90003333Y-86577619D01*
X90050952Y-86482380D01*
X90098571Y-86434761D01*
X90193809Y-86387142D01*
X90431904Y-86387142D01*
X90527142Y-86434761D01*
X90574761Y-86482380D01*
X90622380Y-86577619D01*
X90622380Y-86863333D01*
X90574761Y-86958571D01*
X90527142Y-87006190D01*
X90527142Y-85958571D02*
X90574761Y-85910952D01*
X90622380Y-85958571D01*
X90574761Y-86006190D01*
X90527142Y-85958571D01*
X90622380Y-85958571D01*
X89622380Y-85577619D02*
X89622380Y-84958571D01*
X90003333Y-85291904D01*
X90003333Y-85149047D01*
X90050952Y-85053809D01*
X90098571Y-85006190D01*
X90193809Y-84958571D01*
X90431904Y-84958571D01*
X90527142Y-85006190D01*
X90574761Y-85053809D01*
X90622380Y-85149047D01*
X90622380Y-85434761D01*
X90574761Y-85530000D01*
X90527142Y-85577619D01*
X89622380Y-84672857D02*
X90622380Y-84339523D01*
X89622380Y-84006190D01*
X89622380Y-73006190D02*
X89622380Y-72387142D01*
X90003333Y-72720476D01*
X90003333Y-72577619D01*
X90050952Y-72482380D01*
X90098571Y-72434761D01*
X90193809Y-72387142D01*
X90431904Y-72387142D01*
X90527142Y-72434761D01*
X90574761Y-72482380D01*
X90622380Y-72577619D01*
X90622380Y-72863333D01*
X90574761Y-72958571D01*
X90527142Y-73006190D01*
X90527142Y-71958571D02*
X90574761Y-71910952D01*
X90622380Y-71958571D01*
X90574761Y-72006190D01*
X90527142Y-71958571D01*
X90622380Y-71958571D01*
X89622380Y-71577619D02*
X89622380Y-70958571D01*
X90003333Y-71291904D01*
X90003333Y-71149047D01*
X90050952Y-71053809D01*
X90098571Y-71006190D01*
X90193809Y-70958571D01*
X90431904Y-70958571D01*
X90527142Y-71006190D01*
X90574761Y-71053809D01*
X90622380Y-71149047D01*
X90622380Y-71434761D01*
X90574761Y-71530000D01*
X90527142Y-71577619D01*
X89622380Y-70672857D02*
X90622380Y-70339523D01*
X89622380Y-70006190D01*
D11*
G36*
X90970000Y-101280000D02*
G01*
X91030000Y-103820000D01*
X86300000Y-103800000D01*
X86300000Y-101200000D01*
X90970000Y-101280000D01*
G37*
X90970000Y-101280000D02*
X91030000Y-103820000D01*
X86300000Y-103800000D01*
X86300000Y-101200000D01*
X90970000Y-101280000D01*
G36*
X90870000Y-87280000D02*
G01*
X90930000Y-89820000D01*
X86200000Y-89800000D01*
X86200000Y-87200000D01*
X90870000Y-87280000D01*
G37*
X90870000Y-87280000D02*
X90930000Y-89820000D01*
X86200000Y-89800000D01*
X86200000Y-87200000D01*
X90870000Y-87280000D01*
G36*
X90870000Y-73280000D02*
G01*
X90930000Y-75820000D01*
X86200000Y-75800000D01*
X86200000Y-73200000D01*
X90870000Y-73280000D01*
G37*
X90870000Y-73280000D02*
X90930000Y-75820000D01*
X86200000Y-75800000D01*
X86200000Y-73200000D01*
X90870000Y-73280000D01*
G36*
X90870000Y-59380000D02*
G01*
X90930000Y-61920000D01*
X86200000Y-61900000D01*
X86200000Y-59300000D01*
X90870000Y-59380000D01*
G37*
X90870000Y-59380000D02*
X90930000Y-61920000D01*
X86200000Y-61900000D01*
X86200000Y-59300000D01*
X90870000Y-59380000D01*
D12*
X89622380Y-59106190D02*
X89622380Y-58487142D01*
X90003333Y-58820476D01*
X90003333Y-58677619D01*
X90050952Y-58582380D01*
X90098571Y-58534761D01*
X90193809Y-58487142D01*
X90431904Y-58487142D01*
X90527142Y-58534761D01*
X90574761Y-58582380D01*
X90622380Y-58677619D01*
X90622380Y-58963333D01*
X90574761Y-59058571D01*
X90527142Y-59106190D01*
X90527142Y-58058571D02*
X90574761Y-58010952D01*
X90622380Y-58058571D01*
X90574761Y-58106190D01*
X90527142Y-58058571D01*
X90622380Y-58058571D01*
X89622380Y-57677619D02*
X89622380Y-57058571D01*
X90003333Y-57391904D01*
X90003333Y-57249047D01*
X90050952Y-57153809D01*
X90098571Y-57106190D01*
X90193809Y-57058571D01*
X90431904Y-57058571D01*
X90527142Y-57106190D01*
X90574761Y-57153809D01*
X90622380Y-57249047D01*
X90622380Y-57534761D01*
X90574761Y-57630000D01*
X90527142Y-57677619D01*
X89622380Y-56772857D02*
X90622380Y-56439523D01*
X89622380Y-56106190D01*
X144161904Y-130828571D02*
X144495238Y-130828571D01*
X144638095Y-131352380D02*
X144161904Y-131352380D01*
X144161904Y-130352380D01*
X144638095Y-130352380D01*
X145066666Y-131352380D02*
X145066666Y-130352380D01*
X145638095Y-131352380D01*
X145638095Y-130352380D01*
X144061904Y-109228571D02*
X144395238Y-109228571D01*
X144538095Y-109752380D02*
X144061904Y-109752380D01*
X144061904Y-108752380D01*
X144538095Y-108752380D01*
X144966666Y-109752380D02*
X144966666Y-108752380D01*
X145538095Y-109752380D01*
X145538095Y-108752380D01*
X125161904Y-109228571D02*
X125495238Y-109228571D01*
X125638095Y-109752380D02*
X125161904Y-109752380D01*
X125161904Y-108752380D01*
X125638095Y-108752380D01*
X126066666Y-109752380D02*
X126066666Y-108752380D01*
X126638095Y-109752380D01*
X126638095Y-108752380D01*
X124961904Y-130828571D02*
X125295238Y-130828571D01*
X125438095Y-131352380D02*
X124961904Y-131352380D01*
X124961904Y-130352380D01*
X125438095Y-130352380D01*
X125866666Y-131352380D02*
X125866666Y-130352380D01*
X126438095Y-131352380D01*
X126438095Y-130352380D01*
X126238095Y-112600000D02*
X126142857Y-112552380D01*
X126000000Y-112552380D01*
X125857142Y-112600000D01*
X125761904Y-112695238D01*
X125714285Y-112790476D01*
X125666666Y-112980952D01*
X125666666Y-113123809D01*
X125714285Y-113314285D01*
X125761904Y-113409523D01*
X125857142Y-113504761D01*
X126000000Y-113552380D01*
X126095238Y-113552380D01*
X126238095Y-113504761D01*
X126285714Y-113457142D01*
X126285714Y-113123809D01*
X126095238Y-113123809D01*
X126714285Y-113552380D02*
X126714285Y-112552380D01*
X127285714Y-113552380D01*
X127285714Y-112552380D01*
X127761904Y-113552380D02*
X127761904Y-112552380D01*
X128000000Y-112552380D01*
X128142857Y-112600000D01*
X128238095Y-112695238D01*
X128285714Y-112790476D01*
X128333333Y-112980952D01*
X128333333Y-113123809D01*
X128285714Y-113314285D01*
X128238095Y-113409523D01*
X128142857Y-113504761D01*
X128000000Y-113552380D01*
X127761904Y-113552380D01*
X126138095Y-91000000D02*
X126042857Y-90952380D01*
X125900000Y-90952380D01*
X125757142Y-91000000D01*
X125661904Y-91095238D01*
X125614285Y-91190476D01*
X125566666Y-91380952D01*
X125566666Y-91523809D01*
X125614285Y-91714285D01*
X125661904Y-91809523D01*
X125757142Y-91904761D01*
X125900000Y-91952380D01*
X125995238Y-91952380D01*
X126138095Y-91904761D01*
X126185714Y-91857142D01*
X126185714Y-91523809D01*
X125995238Y-91523809D01*
X126614285Y-91952380D02*
X126614285Y-90952380D01*
X127185714Y-91952380D01*
X127185714Y-90952380D01*
X127661904Y-91952380D02*
X127661904Y-90952380D01*
X127900000Y-90952380D01*
X128042857Y-91000000D01*
X128138095Y-91095238D01*
X128185714Y-91190476D01*
X128233333Y-91380952D01*
X128233333Y-91523809D01*
X128185714Y-91714285D01*
X128138095Y-91809523D01*
X128042857Y-91904761D01*
X127900000Y-91952380D01*
X127661904Y-91952380D01*
X107038095Y-112600000D02*
X106942857Y-112552380D01*
X106800000Y-112552380D01*
X106657142Y-112600000D01*
X106561904Y-112695238D01*
X106514285Y-112790476D01*
X106466666Y-112980952D01*
X106466666Y-113123809D01*
X106514285Y-113314285D01*
X106561904Y-113409523D01*
X106657142Y-113504761D01*
X106800000Y-113552380D01*
X106895238Y-113552380D01*
X107038095Y-113504761D01*
X107085714Y-113457142D01*
X107085714Y-113123809D01*
X106895238Y-113123809D01*
X107514285Y-113552380D02*
X107514285Y-112552380D01*
X108085714Y-113552380D01*
X108085714Y-112552380D01*
X108561904Y-113552380D02*
X108561904Y-112552380D01*
X108800000Y-112552380D01*
X108942857Y-112600000D01*
X109038095Y-112695238D01*
X109085714Y-112790476D01*
X109133333Y-112980952D01*
X109133333Y-113123809D01*
X109085714Y-113314285D01*
X109038095Y-113409523D01*
X108942857Y-113504761D01*
X108800000Y-113552380D01*
X108561904Y-113552380D01*
X107038095Y-91000000D02*
X106942857Y-90952380D01*
X106800000Y-90952380D01*
X106657142Y-91000000D01*
X106561904Y-91095238D01*
X106514285Y-91190476D01*
X106466666Y-91380952D01*
X106466666Y-91523809D01*
X106514285Y-91714285D01*
X106561904Y-91809523D01*
X106657142Y-91904761D01*
X106800000Y-91952380D01*
X106895238Y-91952380D01*
X107038095Y-91904761D01*
X107085714Y-91857142D01*
X107085714Y-91523809D01*
X106895238Y-91523809D01*
X107514285Y-91952380D02*
X107514285Y-90952380D01*
X108085714Y-91952380D01*
X108085714Y-90952380D01*
X108561904Y-91952380D02*
X108561904Y-90952380D01*
X108800000Y-90952380D01*
X108942857Y-91000000D01*
X109038095Y-91095238D01*
X109085714Y-91190476D01*
X109133333Y-91380952D01*
X109133333Y-91523809D01*
X109085714Y-91714285D01*
X109038095Y-91809523D01*
X108942857Y-91904761D01*
X108800000Y-91952380D01*
X108561904Y-91952380D01*
X135300000Y-57252380D02*
X134823809Y-57252380D01*
X134823809Y-56252380D01*
X135633333Y-56728571D02*
X135966666Y-56728571D01*
X136109523Y-57252380D02*
X135633333Y-57252380D01*
X135633333Y-56252380D01*
X136109523Y-56252380D01*
X136538095Y-57252380D02*
X136538095Y-56252380D01*
X136776190Y-56252380D01*
X136919047Y-56300000D01*
X137014285Y-56395238D01*
X137061904Y-56490476D01*
X137109523Y-56680952D01*
X137109523Y-56823809D01*
X137061904Y-57014285D01*
X137014285Y-57109523D01*
X136919047Y-57204761D01*
X136776190Y-57252380D01*
X136538095Y-57252380D01*
X137300000Y-57347619D02*
X138061904Y-57347619D01*
X138823809Y-57252380D02*
X138252380Y-57252380D01*
X138538095Y-57252380D02*
X138538095Y-56252380D01*
X138442857Y-56395238D01*
X138347619Y-56490476D01*
X138252380Y-56538095D01*
X135300000Y-52052380D02*
X134823809Y-52052380D01*
X134823809Y-51052380D01*
X135633333Y-51528571D02*
X135966666Y-51528571D01*
X136109523Y-52052380D02*
X135633333Y-52052380D01*
X135633333Y-51052380D01*
X136109523Y-51052380D01*
X136538095Y-52052380D02*
X136538095Y-51052380D01*
X136776190Y-51052380D01*
X136919047Y-51100000D01*
X137014285Y-51195238D01*
X137061904Y-51290476D01*
X137109523Y-51480952D01*
X137109523Y-51623809D01*
X137061904Y-51814285D01*
X137014285Y-51909523D01*
X136919047Y-52004761D01*
X136776190Y-52052380D01*
X136538095Y-52052380D01*
X137300000Y-52147619D02*
X138061904Y-52147619D01*
X138490476Y-51052380D02*
X138585714Y-51052380D01*
X138680952Y-51100000D01*
X138728571Y-51147619D01*
X138776190Y-51242857D01*
X138823809Y-51433333D01*
X138823809Y-51671428D01*
X138776190Y-51861904D01*
X138728571Y-51957142D01*
X138680952Y-52004761D01*
X138585714Y-52052380D01*
X138490476Y-52052380D01*
X138395238Y-52004761D01*
X138347619Y-51957142D01*
X138300000Y-51861904D01*
X138252380Y-51671428D01*
X138252380Y-51433333D01*
X138300000Y-51242857D01*
X138347619Y-51147619D01*
X138395238Y-51100000D01*
X138490476Y-51052380D01*
X133209523Y-51052380D02*
X132733333Y-51052380D01*
X132685714Y-51528571D01*
X132733333Y-51480952D01*
X132828571Y-51433333D01*
X133066666Y-51433333D01*
X133161904Y-51480952D01*
X133209523Y-51528571D01*
X133257142Y-51623809D01*
X133257142Y-51861904D01*
X133209523Y-51957142D01*
X133161904Y-52004761D01*
X133066666Y-52052380D01*
X132828571Y-52052380D01*
X132733333Y-52004761D01*
X132685714Y-51957142D01*
X133542857Y-51052380D02*
X133876190Y-52052380D01*
X134209523Y-51052380D01*
X133209523Y-56252380D02*
X132733333Y-56252380D01*
X132685714Y-56728571D01*
X132733333Y-56680952D01*
X132828571Y-56633333D01*
X133066666Y-56633333D01*
X133161904Y-56680952D01*
X133209523Y-56728571D01*
X133257142Y-56823809D01*
X133257142Y-57061904D01*
X133209523Y-57157142D01*
X133161904Y-57204761D01*
X133066666Y-57252380D01*
X132828571Y-57252380D01*
X132733333Y-57204761D01*
X132685714Y-57157142D01*
X133542857Y-56252380D02*
X133876190Y-57252380D01*
X134209523Y-56252380D01*
X155566666Y-57028571D02*
X155709523Y-57076190D01*
X155757142Y-57123809D01*
X155804761Y-57219047D01*
X155804761Y-57361904D01*
X155757142Y-57457142D01*
X155709523Y-57504761D01*
X155614285Y-57552380D01*
X155233333Y-57552380D01*
X155233333Y-56552380D01*
X155566666Y-56552380D01*
X155661904Y-56600000D01*
X155709523Y-56647619D01*
X155757142Y-56742857D01*
X155757142Y-56838095D01*
X155709523Y-56933333D01*
X155661904Y-56980952D01*
X155566666Y-57028571D01*
X155233333Y-57028571D01*
X156709523Y-57552380D02*
X156233333Y-57552380D01*
X156233333Y-56552380D01*
X157042857Y-57552380D02*
X157042857Y-56552380D01*
X157614285Y-57552380D02*
X157185714Y-56980952D01*
X157614285Y-56552380D02*
X157042857Y-57123809D01*
X153238095Y-57522380D02*
X153238095Y-56522380D01*
X153476190Y-56522380D01*
X153619047Y-56570000D01*
X153714285Y-56665238D01*
X153761904Y-56760476D01*
X153809523Y-56950952D01*
X153809523Y-57093809D01*
X153761904Y-57284285D01*
X153714285Y-57379523D01*
X153619047Y-57474761D01*
X153476190Y-57522380D01*
X153238095Y-57522380D01*
X154809523Y-57427142D02*
X154761904Y-57474761D01*
X154619047Y-57522380D01*
X154523809Y-57522380D01*
X154380952Y-57474761D01*
X154285714Y-57379523D01*
X154238095Y-57284285D01*
X154190476Y-57093809D01*
X154190476Y-56950952D01*
X154238095Y-56760476D01*
X154285714Y-56665238D01*
X154380952Y-56570000D01*
X154523809Y-56522380D01*
X154619047Y-56522380D01*
X154761904Y-56570000D01*
X154809523Y-56617619D01*
X151050952Y-57522380D02*
X150717619Y-57046190D01*
X150479523Y-57522380D02*
X150479523Y-56522380D01*
X150860476Y-56522380D01*
X150955714Y-56570000D01*
X151003333Y-56617619D01*
X151050952Y-56712857D01*
X151050952Y-56855714D01*
X151003333Y-56950952D01*
X150955714Y-56998571D01*
X150860476Y-57046190D01*
X150479523Y-57046190D01*
X151479523Y-56998571D02*
X151812857Y-56998571D01*
X151955714Y-57522380D02*
X151479523Y-57522380D01*
X151479523Y-56522380D01*
X151955714Y-56522380D01*
X152336666Y-57474761D02*
X152479523Y-57522380D01*
X152717619Y-57522380D01*
X152812857Y-57474761D01*
X152860476Y-57427142D01*
X152908095Y-57331904D01*
X152908095Y-57236666D01*
X152860476Y-57141428D01*
X152812857Y-57093809D01*
X152717619Y-57046190D01*
X152527142Y-56998571D01*
X152431904Y-56950952D01*
X152384285Y-56903333D01*
X152336666Y-56808095D01*
X152336666Y-56712857D01*
X152384285Y-56617619D01*
X152431904Y-56570000D01*
X152527142Y-56522380D01*
X152765238Y-56522380D01*
X152908095Y-56570000D01*
X147455714Y-57474761D02*
X147598571Y-57522380D01*
X147836666Y-57522380D01*
X147931904Y-57474761D01*
X147979523Y-57427142D01*
X148027142Y-57331904D01*
X148027142Y-57236666D01*
X147979523Y-57141428D01*
X147931904Y-57093809D01*
X147836666Y-57046190D01*
X147646190Y-56998571D01*
X147550952Y-56950952D01*
X147503333Y-56903333D01*
X147455714Y-56808095D01*
X147455714Y-56712857D01*
X147503333Y-56617619D01*
X147550952Y-56570000D01*
X147646190Y-56522380D01*
X147884285Y-56522380D01*
X148027142Y-56570000D01*
X148455714Y-57522380D02*
X148455714Y-56522380D01*
X148693809Y-56522380D01*
X148836666Y-56570000D01*
X148931904Y-56665238D01*
X148979523Y-56760476D01*
X149027142Y-56950952D01*
X149027142Y-57093809D01*
X148979523Y-57284285D01*
X148931904Y-57379523D01*
X148836666Y-57474761D01*
X148693809Y-57522380D01*
X148455714Y-57522380D01*
X149408095Y-57236666D02*
X149884285Y-57236666D01*
X149312857Y-57522380D02*
X149646190Y-56522380D01*
X149979523Y-57522380D01*
X144479523Y-57474761D02*
X144622380Y-57522380D01*
X144860476Y-57522380D01*
X144955714Y-57474761D01*
X145003333Y-57427142D01*
X145050952Y-57331904D01*
X145050952Y-57236666D01*
X145003333Y-57141428D01*
X144955714Y-57093809D01*
X144860476Y-57046190D01*
X144670000Y-56998571D01*
X144574761Y-56950952D01*
X144527142Y-56903333D01*
X144479523Y-56808095D01*
X144479523Y-56712857D01*
X144527142Y-56617619D01*
X144574761Y-56570000D01*
X144670000Y-56522380D01*
X144908095Y-56522380D01*
X145050952Y-56570000D01*
X146050952Y-57427142D02*
X146003333Y-57474761D01*
X145860476Y-57522380D01*
X145765238Y-57522380D01*
X145622380Y-57474761D01*
X145527142Y-57379523D01*
X145479523Y-57284285D01*
X145431904Y-57093809D01*
X145431904Y-56950952D01*
X145479523Y-56760476D01*
X145527142Y-56665238D01*
X145622380Y-56570000D01*
X145765238Y-56522380D01*
X145860476Y-56522380D01*
X146003333Y-56570000D01*
X146050952Y-56617619D01*
X146955714Y-57522380D02*
X146479523Y-57522380D01*
X146479523Y-56522380D01*
X141193809Y-56522380D02*
X141812857Y-56522380D01*
X141479523Y-56903333D01*
X141622380Y-56903333D01*
X141717619Y-56950952D01*
X141765238Y-56998571D01*
X141812857Y-57093809D01*
X141812857Y-57331904D01*
X141765238Y-57427142D01*
X141717619Y-57474761D01*
X141622380Y-57522380D01*
X141336666Y-57522380D01*
X141241428Y-57474761D01*
X141193809Y-57427142D01*
X142241428Y-57427142D02*
X142289047Y-57474761D01*
X142241428Y-57522380D01*
X142193809Y-57474761D01*
X142241428Y-57427142D01*
X142241428Y-57522380D01*
X142622380Y-56522380D02*
X143241428Y-56522380D01*
X142908095Y-56903333D01*
X143050952Y-56903333D01*
X143146190Y-56950952D01*
X143193809Y-56998571D01*
X143241428Y-57093809D01*
X143241428Y-57331904D01*
X143193809Y-57427142D01*
X143146190Y-57474761D01*
X143050952Y-57522380D01*
X142765238Y-57522380D01*
X142670000Y-57474761D01*
X142622380Y-57427142D01*
X143527142Y-56522380D02*
X143860476Y-57522380D01*
X144193809Y-56522380D01*
D11*
G36*
X125730000Y-52070000D02*
G01*
X87630000Y-52130000D01*
X87630000Y-49470000D01*
X125790000Y-49470000D01*
X125730000Y-52070000D01*
G37*
X125730000Y-52070000D02*
X87630000Y-52130000D01*
X87630000Y-49470000D01*
X125790000Y-49470000D01*
X125730000Y-52070000D01*
G36*
X142160000Y-55940000D02*
G01*
X139620000Y-56000000D01*
X139600000Y-52100000D01*
X142200000Y-52100000D01*
X142160000Y-55940000D01*
G37*
X142160000Y-55940000D02*
X139620000Y-56000000D01*
X139600000Y-52100000D01*
X142200000Y-52100000D01*
X142160000Y-55940000D01*
G36*
X132080000Y-55880000D02*
G01*
X129540000Y-55940000D01*
X129500000Y-47800000D01*
X132100000Y-47800000D01*
X132080000Y-55880000D01*
G37*
X132080000Y-55880000D02*
X129540000Y-55940000D01*
X129500000Y-47800000D01*
X132100000Y-47800000D01*
X132080000Y-55880000D01*
G36*
X147320000Y-51870000D02*
G01*
X144780000Y-51930000D01*
X144800000Y-47200000D01*
X147400000Y-47200000D01*
X147320000Y-51870000D01*
G37*
X147320000Y-51870000D02*
X144780000Y-51930000D01*
X144800000Y-47200000D01*
X147400000Y-47200000D01*
X147320000Y-51870000D01*
G36*
X157480000Y-51870000D02*
G01*
X154940000Y-51930000D01*
X154900000Y-47200000D01*
X157500000Y-47200000D01*
X157480000Y-51870000D01*
G37*
X157480000Y-51870000D02*
X154940000Y-51930000D01*
X154900000Y-47200000D01*
X157500000Y-47200000D01*
X157480000Y-51870000D01*
D12*
X151723809Y-51522380D02*
X152342857Y-51522380D01*
X152009523Y-51903333D01*
X152152380Y-51903333D01*
X152247619Y-51950952D01*
X152295238Y-51998571D01*
X152342857Y-52093809D01*
X152342857Y-52331904D01*
X152295238Y-52427142D01*
X152247619Y-52474761D01*
X152152380Y-52522380D01*
X151866666Y-52522380D01*
X151771428Y-52474761D01*
X151723809Y-52427142D01*
X152771428Y-52427142D02*
X152819047Y-52474761D01*
X152771428Y-52522380D01*
X152723809Y-52474761D01*
X152771428Y-52427142D01*
X152771428Y-52522380D01*
X153152380Y-51522380D02*
X153771428Y-51522380D01*
X153438095Y-51903333D01*
X153580952Y-51903333D01*
X153676190Y-51950952D01*
X153723809Y-51998571D01*
X153771428Y-52093809D01*
X153771428Y-52331904D01*
X153723809Y-52427142D01*
X153676190Y-52474761D01*
X153580952Y-52522380D01*
X153295238Y-52522380D01*
X153200000Y-52474761D01*
X153152380Y-52427142D01*
X154057142Y-51522380D02*
X154390476Y-52522380D01*
X154723809Y-51522380D01*
X143309523Y-51452380D02*
X142833333Y-51452380D01*
X142785714Y-51928571D01*
X142833333Y-51880952D01*
X142928571Y-51833333D01*
X143166666Y-51833333D01*
X143261904Y-51880952D01*
X143309523Y-51928571D01*
X143357142Y-52023809D01*
X143357142Y-52261904D01*
X143309523Y-52357142D01*
X143261904Y-52404761D01*
X143166666Y-52452380D01*
X142928571Y-52452380D01*
X142833333Y-52404761D01*
X142785714Y-52357142D01*
X143642857Y-51452380D02*
X143976190Y-52452380D01*
X144309523Y-51452380D01*
X128832380Y-56140000D02*
X128832380Y-56616190D01*
X127832380Y-56616190D01*
X128308571Y-55806666D02*
X128308571Y-55473333D01*
X128832380Y-55330476D02*
X128832380Y-55806666D01*
X127832380Y-55806666D01*
X127832380Y-55330476D01*
X128832380Y-54901904D02*
X127832380Y-54901904D01*
X127832380Y-54663809D01*
X127880000Y-54520952D01*
X127975238Y-54425714D01*
X128070476Y-54378095D01*
X128260952Y-54330476D01*
X128403809Y-54330476D01*
X128594285Y-54378095D01*
X128689523Y-54425714D01*
X128784761Y-54520952D01*
X128832380Y-54663809D01*
X128832380Y-54901904D01*
X128927619Y-54140000D02*
X128927619Y-53378095D01*
X128832380Y-52616190D02*
X128832380Y-53187619D01*
X128832380Y-52901904D02*
X127832380Y-52901904D01*
X127975238Y-52997142D01*
X128070476Y-53092380D01*
X128118095Y-53187619D01*
X128832380Y-51060000D02*
X128832380Y-51536190D01*
X127832380Y-51536190D01*
X128308571Y-50726666D02*
X128308571Y-50393333D01*
X128832380Y-50250476D02*
X128832380Y-50726666D01*
X127832380Y-50726666D01*
X127832380Y-50250476D01*
X128832380Y-49821904D02*
X127832380Y-49821904D01*
X127832380Y-49583809D01*
X127880000Y-49440952D01*
X127975238Y-49345714D01*
X128070476Y-49298095D01*
X128260952Y-49250476D01*
X128403809Y-49250476D01*
X128594285Y-49298095D01*
X128689523Y-49345714D01*
X128784761Y-49440952D01*
X128832380Y-49583809D01*
X128832380Y-49821904D01*
X128927619Y-49060000D02*
X128927619Y-48298095D01*
X127832380Y-47869523D02*
X127832380Y-47774285D01*
X127880000Y-47679047D01*
X127927619Y-47631428D01*
X128022857Y-47583809D01*
X128213333Y-47536190D01*
X128451428Y-47536190D01*
X128641904Y-47583809D01*
X128737142Y-47631428D01*
X128784761Y-47679047D01*
X128832380Y-47774285D01*
X128832380Y-47869523D01*
X128784761Y-47964761D01*
X128737142Y-48012380D01*
X128641904Y-48060000D01*
X128451428Y-48107619D01*
X128213333Y-48107619D01*
X128022857Y-48060000D01*
X127927619Y-48012380D01*
X127880000Y-47964761D01*
X127832380Y-47869523D01*
X123096666Y-48774761D02*
X123239523Y-48822380D01*
X123477619Y-48822380D01*
X123572857Y-48774761D01*
X123620476Y-48727142D01*
X123668095Y-48631904D01*
X123668095Y-48536666D01*
X123620476Y-48441428D01*
X123572857Y-48393809D01*
X123477619Y-48346190D01*
X123287142Y-48298571D01*
X123191904Y-48250952D01*
X123144285Y-48203333D01*
X123096666Y-48108095D01*
X123096666Y-48012857D01*
X123144285Y-47917619D01*
X123191904Y-47870000D01*
X123287142Y-47822380D01*
X123525238Y-47822380D01*
X123668095Y-47870000D01*
X124001428Y-47822380D02*
X124239523Y-48822380D01*
X124430000Y-48108095D01*
X124620476Y-48822380D01*
X124858571Y-47822380D01*
X125144285Y-47822380D02*
X125810952Y-47822380D01*
X125382380Y-48822380D01*
X118016666Y-48774761D02*
X118159523Y-48822380D01*
X118397619Y-48822380D01*
X118492857Y-48774761D01*
X118540476Y-48727142D01*
X118588095Y-48631904D01*
X118588095Y-48536666D01*
X118540476Y-48441428D01*
X118492857Y-48393809D01*
X118397619Y-48346190D01*
X118207142Y-48298571D01*
X118111904Y-48250952D01*
X118064285Y-48203333D01*
X118016666Y-48108095D01*
X118016666Y-48012857D01*
X118064285Y-47917619D01*
X118111904Y-47870000D01*
X118207142Y-47822380D01*
X118445238Y-47822380D01*
X118588095Y-47870000D01*
X118921428Y-47822380D02*
X119159523Y-48822380D01*
X119350000Y-48108095D01*
X119540476Y-48822380D01*
X119778571Y-47822380D01*
X120588095Y-47822380D02*
X120397619Y-47822380D01*
X120302380Y-47870000D01*
X120254761Y-47917619D01*
X120159523Y-48060476D01*
X120111904Y-48250952D01*
X120111904Y-48631904D01*
X120159523Y-48727142D01*
X120207142Y-48774761D01*
X120302380Y-48822380D01*
X120492857Y-48822380D01*
X120588095Y-48774761D01*
X120635714Y-48727142D01*
X120683333Y-48631904D01*
X120683333Y-48393809D01*
X120635714Y-48298571D01*
X120588095Y-48250952D01*
X120492857Y-48203333D01*
X120302380Y-48203333D01*
X120207142Y-48250952D01*
X120159523Y-48298571D01*
X120111904Y-48393809D01*
X112936666Y-48774761D02*
X113079523Y-48822380D01*
X113317619Y-48822380D01*
X113412857Y-48774761D01*
X113460476Y-48727142D01*
X113508095Y-48631904D01*
X113508095Y-48536666D01*
X113460476Y-48441428D01*
X113412857Y-48393809D01*
X113317619Y-48346190D01*
X113127142Y-48298571D01*
X113031904Y-48250952D01*
X112984285Y-48203333D01*
X112936666Y-48108095D01*
X112936666Y-48012857D01*
X112984285Y-47917619D01*
X113031904Y-47870000D01*
X113127142Y-47822380D01*
X113365238Y-47822380D01*
X113508095Y-47870000D01*
X113841428Y-47822380D02*
X114079523Y-48822380D01*
X114270000Y-48108095D01*
X114460476Y-48822380D01*
X114698571Y-47822380D01*
X115555714Y-47822380D02*
X115079523Y-47822380D01*
X115031904Y-48298571D01*
X115079523Y-48250952D01*
X115174761Y-48203333D01*
X115412857Y-48203333D01*
X115508095Y-48250952D01*
X115555714Y-48298571D01*
X115603333Y-48393809D01*
X115603333Y-48631904D01*
X115555714Y-48727142D01*
X115508095Y-48774761D01*
X115412857Y-48822380D01*
X115174761Y-48822380D01*
X115079523Y-48774761D01*
X115031904Y-48727142D01*
X107856666Y-48774761D02*
X107999523Y-48822380D01*
X108237619Y-48822380D01*
X108332857Y-48774761D01*
X108380476Y-48727142D01*
X108428095Y-48631904D01*
X108428095Y-48536666D01*
X108380476Y-48441428D01*
X108332857Y-48393809D01*
X108237619Y-48346190D01*
X108047142Y-48298571D01*
X107951904Y-48250952D01*
X107904285Y-48203333D01*
X107856666Y-48108095D01*
X107856666Y-48012857D01*
X107904285Y-47917619D01*
X107951904Y-47870000D01*
X108047142Y-47822380D01*
X108285238Y-47822380D01*
X108428095Y-47870000D01*
X108761428Y-47822380D02*
X108999523Y-48822380D01*
X109190000Y-48108095D01*
X109380476Y-48822380D01*
X109618571Y-47822380D01*
X110428095Y-48155714D02*
X110428095Y-48822380D01*
X110190000Y-47774761D02*
X109951904Y-48489047D01*
X110570952Y-48489047D01*
X102776666Y-48774761D02*
X102919523Y-48822380D01*
X103157619Y-48822380D01*
X103252857Y-48774761D01*
X103300476Y-48727142D01*
X103348095Y-48631904D01*
X103348095Y-48536666D01*
X103300476Y-48441428D01*
X103252857Y-48393809D01*
X103157619Y-48346190D01*
X102967142Y-48298571D01*
X102871904Y-48250952D01*
X102824285Y-48203333D01*
X102776666Y-48108095D01*
X102776666Y-48012857D01*
X102824285Y-47917619D01*
X102871904Y-47870000D01*
X102967142Y-47822380D01*
X103205238Y-47822380D01*
X103348095Y-47870000D01*
X103681428Y-47822380D02*
X103919523Y-48822380D01*
X104110000Y-48108095D01*
X104300476Y-48822380D01*
X104538571Y-47822380D01*
X104824285Y-47822380D02*
X105443333Y-47822380D01*
X105110000Y-48203333D01*
X105252857Y-48203333D01*
X105348095Y-48250952D01*
X105395714Y-48298571D01*
X105443333Y-48393809D01*
X105443333Y-48631904D01*
X105395714Y-48727142D01*
X105348095Y-48774761D01*
X105252857Y-48822380D01*
X104967142Y-48822380D01*
X104871904Y-48774761D01*
X104824285Y-48727142D01*
X97696666Y-48774761D02*
X97839523Y-48822380D01*
X98077619Y-48822380D01*
X98172857Y-48774761D01*
X98220476Y-48727142D01*
X98268095Y-48631904D01*
X98268095Y-48536666D01*
X98220476Y-48441428D01*
X98172857Y-48393809D01*
X98077619Y-48346190D01*
X97887142Y-48298571D01*
X97791904Y-48250952D01*
X97744285Y-48203333D01*
X97696666Y-48108095D01*
X97696666Y-48012857D01*
X97744285Y-47917619D01*
X97791904Y-47870000D01*
X97887142Y-47822380D01*
X98125238Y-47822380D01*
X98268095Y-47870000D01*
X98601428Y-47822380D02*
X98839523Y-48822380D01*
X99030000Y-48108095D01*
X99220476Y-48822380D01*
X99458571Y-47822380D01*
X99791904Y-47917619D02*
X99839523Y-47870000D01*
X99934761Y-47822380D01*
X100172857Y-47822380D01*
X100268095Y-47870000D01*
X100315714Y-47917619D01*
X100363333Y-48012857D01*
X100363333Y-48108095D01*
X100315714Y-48250952D01*
X99744285Y-48822380D01*
X100363333Y-48822380D01*
X92616666Y-48774761D02*
X92759523Y-48822380D01*
X92997619Y-48822380D01*
X93092857Y-48774761D01*
X93140476Y-48727142D01*
X93188095Y-48631904D01*
X93188095Y-48536666D01*
X93140476Y-48441428D01*
X93092857Y-48393809D01*
X92997619Y-48346190D01*
X92807142Y-48298571D01*
X92711904Y-48250952D01*
X92664285Y-48203333D01*
X92616666Y-48108095D01*
X92616666Y-48012857D01*
X92664285Y-47917619D01*
X92711904Y-47870000D01*
X92807142Y-47822380D01*
X93045238Y-47822380D01*
X93188095Y-47870000D01*
X93521428Y-47822380D02*
X93759523Y-48822380D01*
X93950000Y-48108095D01*
X94140476Y-48822380D01*
X94378571Y-47822380D01*
X94950000Y-47822380D02*
X95045238Y-47822380D01*
X95140476Y-47870000D01*
X95188095Y-47917619D01*
X95235714Y-48012857D01*
X95283333Y-48203333D01*
X95283333Y-48441428D01*
X95235714Y-48631904D01*
X95188095Y-48727142D01*
X95140476Y-48774761D01*
X95045238Y-48822380D01*
X94950000Y-48822380D01*
X94854761Y-48774761D01*
X94807142Y-48727142D01*
X94759523Y-48631904D01*
X94711904Y-48441428D01*
X94711904Y-48203333D01*
X94759523Y-48012857D01*
X94807142Y-47917619D01*
X94854761Y-47870000D01*
X94950000Y-47822380D01*
X87536666Y-48774761D02*
X87679523Y-48822380D01*
X87917619Y-48822380D01*
X88012857Y-48774761D01*
X88060476Y-48727142D01*
X88108095Y-48631904D01*
X88108095Y-48536666D01*
X88060476Y-48441428D01*
X88012857Y-48393809D01*
X87917619Y-48346190D01*
X87727142Y-48298571D01*
X87631904Y-48250952D01*
X87584285Y-48203333D01*
X87536666Y-48108095D01*
X87536666Y-48012857D01*
X87584285Y-47917619D01*
X87631904Y-47870000D01*
X87727142Y-47822380D01*
X87965238Y-47822380D01*
X88108095Y-47870000D01*
X88441428Y-47822380D02*
X88679523Y-48822380D01*
X88870000Y-48108095D01*
X89060476Y-48822380D01*
X89298571Y-47822380D01*
X89870000Y-47822380D02*
X89965238Y-47822380D01*
X90060476Y-47870000D01*
X90108095Y-47917619D01*
X90155714Y-48012857D01*
X90203333Y-48203333D01*
X90203333Y-48441428D01*
X90155714Y-48631904D01*
X90108095Y-48727142D01*
X90060476Y-48774761D01*
X89965238Y-48822380D01*
X89870000Y-48822380D01*
X89774761Y-48774761D01*
X89727142Y-48727142D01*
X89679523Y-48631904D01*
X89631904Y-48441428D01*
X89631904Y-48203333D01*
X89679523Y-48012857D01*
X89727142Y-47917619D01*
X89774761Y-47870000D01*
X89870000Y-47822380D01*
D13*
X151990000Y-109741422D02*
X151990000Y-110258578D01*
X153410000Y-109741422D02*
X153410000Y-110258578D01*
X157400000Y-109900000D02*
G75*
G03*
X157400000Y-109900000I-700000J0D01*
G01*
X106170000Y-105470000D02*
X108830000Y-105470000D01*
X106170000Y-97790000D02*
X106170000Y-105470000D01*
X108830000Y-97790000D02*
X108830000Y-105470000D01*
X106170000Y-97790000D02*
X108830000Y-97790000D01*
X106170000Y-96520000D02*
X106170000Y-95190000D01*
X106170000Y-95190000D02*
X107500000Y-95190000D01*
X106170000Y-116780000D02*
X107500000Y-116780000D01*
X106170000Y-118110000D02*
X106170000Y-116780000D01*
X106170000Y-119380000D02*
X108830000Y-119380000D01*
X108830000Y-119380000D02*
X108830000Y-127060000D01*
X106170000Y-119380000D02*
X106170000Y-127060000D01*
X106170000Y-127060000D02*
X108830000Y-127060000D01*
X125170000Y-105470000D02*
X127830000Y-105470000D01*
X125170000Y-97790000D02*
X125170000Y-105470000D01*
X127830000Y-97790000D02*
X127830000Y-105470000D01*
X125170000Y-97790000D02*
X127830000Y-97790000D01*
X125170000Y-96520000D02*
X125170000Y-95190000D01*
X125170000Y-95190000D02*
X126500000Y-95190000D01*
X125170000Y-116780000D02*
X126500000Y-116780000D01*
X125170000Y-118110000D02*
X125170000Y-116780000D01*
X125170000Y-119380000D02*
X127830000Y-119380000D01*
X127830000Y-119380000D02*
X127830000Y-127060000D01*
X125170000Y-119380000D02*
X125170000Y-127060000D01*
X125170000Y-127060000D02*
X127830000Y-127060000D01*
X87570000Y-49470000D02*
X88900000Y-49470000D01*
X87570000Y-50800000D02*
X87570000Y-49470000D01*
X87570000Y-52070000D02*
X90230000Y-52070000D01*
X90230000Y-52070000D02*
X90230000Y-54670000D01*
X87570000Y-52070000D02*
X87570000Y-54670000D01*
X87570000Y-54670000D02*
X90230000Y-54670000D01*
X92650000Y-54670000D02*
X95310000Y-54670000D01*
X92650000Y-52070000D02*
X92650000Y-54670000D01*
X95310000Y-52070000D02*
X95310000Y-54670000D01*
X92650000Y-52070000D02*
X95310000Y-52070000D01*
X92650000Y-50800000D02*
X92650000Y-49470000D01*
X92650000Y-49470000D02*
X93980000Y-49470000D01*
X97730000Y-49470000D02*
X99060000Y-49470000D01*
X97730000Y-50800000D02*
X97730000Y-49470000D01*
X97730000Y-52070000D02*
X100390000Y-52070000D01*
X100390000Y-52070000D02*
X100390000Y-54670000D01*
X97730000Y-52070000D02*
X97730000Y-54670000D01*
X97730000Y-54670000D02*
X100390000Y-54670000D01*
X102810000Y-54670000D02*
X105470000Y-54670000D01*
X102810000Y-52070000D02*
X102810000Y-54670000D01*
X105470000Y-52070000D02*
X105470000Y-54670000D01*
X102810000Y-52070000D02*
X105470000Y-52070000D01*
X102810000Y-50800000D02*
X102810000Y-49470000D01*
X102810000Y-49470000D02*
X104140000Y-49470000D01*
X107890000Y-54670000D02*
X110550000Y-54670000D01*
X107890000Y-52070000D02*
X107890000Y-54670000D01*
X110550000Y-52070000D02*
X110550000Y-54670000D01*
X107890000Y-52070000D02*
X110550000Y-52070000D01*
X107890000Y-50800000D02*
X107890000Y-49470000D01*
X107890000Y-49470000D02*
X109220000Y-49470000D01*
X112970000Y-49470000D02*
X114300000Y-49470000D01*
X112970000Y-50800000D02*
X112970000Y-49470000D01*
X112970000Y-52070000D02*
X115630000Y-52070000D01*
X115630000Y-52070000D02*
X115630000Y-54670000D01*
X112970000Y-52070000D02*
X112970000Y-54670000D01*
X112970000Y-54670000D02*
X115630000Y-54670000D01*
X118050000Y-54670000D02*
X120710000Y-54670000D01*
X118050000Y-52070000D02*
X118050000Y-54670000D01*
X120710000Y-52070000D02*
X120710000Y-54670000D01*
X118050000Y-52070000D02*
X120710000Y-52070000D01*
X118050000Y-50800000D02*
X118050000Y-49470000D01*
X118050000Y-49470000D02*
X119380000Y-49470000D01*
X123130000Y-49470000D02*
X124460000Y-49470000D01*
X123130000Y-50800000D02*
X123130000Y-49470000D01*
X123130000Y-52070000D02*
X125790000Y-52070000D01*
X125790000Y-52070000D02*
X125790000Y-54670000D01*
X123130000Y-52070000D02*
X123130000Y-54670000D01*
X123130000Y-54670000D02*
X125790000Y-54670000D01*
X154920000Y-60070000D02*
X157580000Y-60070000D01*
X154920000Y-60070000D02*
X154920000Y-108390000D01*
X154920000Y-108390000D02*
X157580000Y-108390000D01*
X157580000Y-60070000D02*
X157580000Y-108390000D01*
X157580000Y-57470000D02*
X157580000Y-58800000D01*
X156250000Y-57470000D02*
X157580000Y-57470000D01*
X157460000Y-55940000D02*
X157460000Y-53280000D01*
X142160000Y-55940000D02*
X157460000Y-55940000D01*
X142160000Y-53280000D02*
X157460000Y-53280000D01*
X142160000Y-55940000D02*
X142160000Y-53280000D01*
X140890000Y-55940000D02*
X139560000Y-55940000D01*
X139560000Y-55940000D02*
X139560000Y-54610000D01*
X129480000Y-50860000D02*
X129480000Y-49530000D01*
X130810000Y-50860000D02*
X129480000Y-50860000D01*
X132080000Y-50860000D02*
X132080000Y-48200000D01*
X132080000Y-48200000D02*
X137220000Y-48200000D01*
X132080000Y-50860000D02*
X137220000Y-50860000D01*
X137220000Y-50860000D02*
X137220000Y-48200000D01*
X137220000Y-55940000D02*
X137220000Y-53280000D01*
X132080000Y-55940000D02*
X137220000Y-55940000D01*
X132080000Y-53280000D02*
X137220000Y-53280000D01*
X132080000Y-55940000D02*
X132080000Y-53280000D01*
X130810000Y-55940000D02*
X129480000Y-55940000D01*
X129480000Y-55940000D02*
X129480000Y-54610000D01*
D12*
X150875000Y-115625000D02*
X150875000Y-115125000D01*
X154125000Y-112375000D02*
X154125000Y-112875000D01*
X150875000Y-112375000D02*
X150875000Y-112875000D01*
X154125000Y-115625000D02*
X153625000Y-115625000D01*
X154125000Y-112375000D02*
X153625000Y-112375000D01*
X150875000Y-112375000D02*
X151375000Y-112375000D01*
X150875000Y-115625000D02*
X151375000Y-115625000D01*
D13*
X109380000Y-90170000D02*
X124620000Y-90170000D01*
X124620000Y-90170000D02*
X124620000Y-110490000D01*
X124620000Y-110490000D02*
X109380000Y-110490000D01*
X109380000Y-110490000D02*
X109380000Y-90170000D01*
X109380000Y-111760000D02*
X124620000Y-111760000D01*
X124620000Y-111760000D02*
X124620000Y-132080000D01*
X124620000Y-132080000D02*
X109380000Y-132080000D01*
X109380000Y-132080000D02*
X109380000Y-111760000D01*
X128480000Y-110490000D02*
X128480000Y-90170000D01*
X143720000Y-110490000D02*
X128480000Y-110490000D01*
X143720000Y-90170000D02*
X143720000Y-110490000D01*
X128480000Y-90170000D02*
X143720000Y-90170000D01*
X128480000Y-132080000D02*
X128480000Y-111760000D01*
X143720000Y-132080000D02*
X128480000Y-132080000D01*
X143720000Y-111760000D02*
X143720000Y-132080000D01*
X128480000Y-111760000D02*
X143720000Y-111760000D01*
X147380000Y-48200000D02*
X147380000Y-49530000D01*
X146050000Y-48200000D02*
X147380000Y-48200000D01*
X144780000Y-48200000D02*
X144780000Y-50860000D01*
X144780000Y-50860000D02*
X142180000Y-50860000D01*
X144780000Y-48200000D02*
X142180000Y-48200000D01*
X142180000Y-48200000D02*
X142180000Y-50860000D01*
X152340000Y-48200000D02*
X152340000Y-50860000D01*
X154940000Y-48200000D02*
X152340000Y-48200000D01*
X154940000Y-50860000D02*
X152340000Y-50860000D01*
X154940000Y-48200000D02*
X154940000Y-50860000D01*
X156210000Y-48200000D02*
X157540000Y-48200000D01*
X157540000Y-48200000D02*
X157540000Y-49530000D01*
X86670000Y-59270000D02*
X89330000Y-59270000D01*
X86670000Y-59270000D02*
X86670000Y-69490000D01*
X86670000Y-69490000D02*
X89330000Y-69490000D01*
X89330000Y-59270000D02*
X89330000Y-69490000D01*
X89330000Y-56670000D02*
X89330000Y-58000000D01*
X88000000Y-56670000D02*
X89330000Y-56670000D01*
X86670000Y-73270000D02*
X89330000Y-73270000D01*
X86670000Y-73270000D02*
X86670000Y-83490000D01*
X86670000Y-83490000D02*
X89330000Y-83490000D01*
X89330000Y-73270000D02*
X89330000Y-83490000D01*
X89330000Y-70670000D02*
X89330000Y-72000000D01*
X88000000Y-70670000D02*
X89330000Y-70670000D01*
X88000000Y-84670000D02*
X89330000Y-84670000D01*
X89330000Y-84670000D02*
X89330000Y-86000000D01*
X89330000Y-87270000D02*
X89330000Y-97490000D01*
X86670000Y-97490000D02*
X89330000Y-97490000D01*
X86670000Y-87270000D02*
X86670000Y-97490000D01*
X86670000Y-87270000D02*
X89330000Y-87270000D01*
X88000000Y-98670000D02*
X89330000Y-98670000D01*
X89330000Y-98670000D02*
X89330000Y-100000000D01*
X89330000Y-101270000D02*
X89330000Y-111490000D01*
X86670000Y-111490000D02*
X89330000Y-111490000D01*
X86670000Y-101270000D02*
X86670000Y-111490000D01*
X86670000Y-101270000D02*
X89330000Y-101270000D01*
X157860000Y-116911252D02*
X157860000Y-115488748D01*
X155140000Y-116911252D02*
X155140000Y-115488748D01*
X152511252Y-119460000D02*
X151088748Y-119460000D01*
X152511252Y-116740000D02*
X151088748Y-116740000D01*
X148735000Y-116761252D02*
X148735000Y-116238748D01*
X147265000Y-116761252D02*
X147265000Y-116238748D01*
X156453733Y-112710000D02*
X156746267Y-112710000D01*
X156453733Y-111690000D02*
X156746267Y-111690000D01*
M02*
