M48
; DRILL file {KiCad 5.1.9-73d0e3b20d~88~ubuntu20.04.1} date Thu Mar 18 21:34:16 2021
; FORMAT={-:-/ absolute / inch / decimal}
; #@! TF.CreationDate,2021-03-18T21:34:16+01:00
; #@! TF.GenerationSoftware,Kicad,Pcbnew,5.1.9-73d0e3b20d~88~ubuntu20.04.1
; #@! TF.FileFunction,Plated,1,2,PTH
FMAT,2
INCH
T1C0.0118
T2C0.0157
T3C0.0300
T4C0.0394
T5C0.1260
%
G90
G05
T1
X3.563Y-2.874
X3.622Y-4.4685
X3.7795Y-4.4488
X3.7992Y-4.4094
X3.8386Y-4.4124
X3.8976Y-4.4124
X4.06Y-4.4715
X4.4567Y-4.8858
X4.4567Y-4.9134
X4.4567Y-4.9409
X4.4843Y-4.8858
X4.4843Y-4.9134
X4.4843Y-4.9409
X4.5118Y-4.8858
X4.5118Y-4.9134
X4.5118Y-4.9409
X4.7087Y-4.4134
X4.7244Y-5.0394
X4.752Y-4.7677
X5.2047Y-4.8228
X5.2047Y-4.8504
X5.2047Y-4.878
X5.2165Y-2.0472
X5.2323Y-4.8228
X5.2323Y-4.8504
X5.2323Y-4.878
X5.2598Y-4.8228
X5.2598Y-4.8504
X5.2598Y-4.878
X5.563Y-4.3465
X5.563Y-4.374
X5.563Y-4.4055
X5.5866Y-4.3661
X5.5866Y-4.3898
X5.6102Y-4.3661
X5.6102Y-4.3898
X5.6339Y-4.3622
X5.6378Y-4.3898
X5.6575Y-4.3504
X5.6614Y-4.378
X5.6614Y-4.4055
X5.6811Y-4.2874
X5.6811Y-4.311
X5.6811Y-4.3346
X5.6929Y-4.2677
X5.7047Y-4.2874
X5.7165Y-4.2677
X5.7283Y-4.2874
X5.7345Y-4.8487
X5.7402Y-4.2677
X5.752Y-4.2874
X5.7899Y-4.8253
X5.8268Y-3.9961
X5.9055Y-4.7205
X5.9331Y-4.7205
X5.9567Y-4.6417
X5.9567Y-4.6654
X5.9567Y-4.689
X5.9567Y-4.7126
X5.9803Y-4.6417
X5.9803Y-4.6654
X5.9803Y-4.689
X5.9803Y-4.7126
X6.0669Y-4.2913
X6.0787Y-4.2717
X6.0787Y-4.311
X6.0827Y-3.4843
X6.0827Y-3.8583
X6.0906Y-4.252
X6.0906Y-4.2913
X6.1024Y-4.2717
X6.1024Y-4.311
X6.1142Y-4.2913
X6.126Y-4.2717
X6.1339Y-4.5591
X6.1457Y-4.5787
X6.1575Y-4.5591
X6.1693Y-4.5787
X6.1811Y-4.5591
X6.1929Y-4.5787
X6.2047Y-4.5591
T2
X4.4134Y-4.5512
X4.7008Y-4.5512
X4.9606Y-5.1339
X5.0039Y-4.2008
X5.156Y-4.4119
X5.6772Y-5.0276
X5.7126Y-4.7795
X5.7598Y-4.7047
X5.7667Y-4.6575
T3
X4.3563Y-3.6
X4.3563Y-3.7
X4.3563Y-3.8
X4.3563Y-3.9
X4.3563Y-4.0
X4.3563Y-4.1
X4.3563Y-4.2
X4.3563Y-4.3
X4.3563Y-4.45
X4.3563Y-4.55
X4.3563Y-4.65
X4.3563Y-4.75
X4.3563Y-4.85
X4.3563Y-4.95
X4.3563Y-5.05
X4.3563Y-5.15
X4.8563Y-3.6
X4.8563Y-3.7
X4.8563Y-3.8
X4.8563Y-3.9
X4.8563Y-4.0
X4.8563Y-4.1
X4.8563Y-4.2
X4.8563Y-4.3
X4.8563Y-4.45
X4.8563Y-4.55
X4.8563Y-4.65
X4.8563Y-4.75
X4.8563Y-4.85
X4.8563Y-4.95
X4.8563Y-5.05
X4.8563Y-5.15
X5.1083Y-3.6
X5.1083Y-3.7
X5.1083Y-3.8
X5.1083Y-3.9
X5.1083Y-4.0
X5.1083Y-4.1
X5.1083Y-4.2
X5.1083Y-4.3
X5.1083Y-4.45
X5.1083Y-4.55
X5.1083Y-4.65
X5.1083Y-4.75
X5.1083Y-4.85
X5.1083Y-4.95
X5.1083Y-5.05
X5.1083Y-5.15
X5.6083Y-3.6
X5.6083Y-3.7
X5.6083Y-3.8
X5.6083Y-3.9
X5.6083Y-4.0
X5.6083Y-4.1
X5.6083Y-4.2
X5.6083Y-4.3
X5.6083Y-4.45
X5.6083Y-4.55
X5.6083Y-4.65
X5.6083Y-4.75
X5.6083Y-4.85
X5.6083Y-4.95
X5.6083Y-5.05
X5.6083Y-5.15
T4
X3.4646Y-2.2835
X3.4646Y-2.3835
X3.4646Y-2.4835
X3.4646Y-2.5835
X3.4646Y-2.6835
X3.4646Y-2.8346
X3.4646Y-2.9346
X3.4646Y-3.0346
X3.4646Y-3.1346
X3.4646Y-3.2346
X3.4646Y-3.3858
X3.4646Y-3.4858
X3.4646Y-3.5858
X3.4646Y-3.6858
X3.4646Y-3.7858
X3.4646Y-3.937
X3.4646Y-4.037
X3.4646Y-4.137
X3.4646Y-4.237
X3.4646Y-4.337
X3.5Y-2.0
X3.5Y-2.1
X3.6283Y-2.3146
X3.6283Y-2.4146
X3.6283Y-2.5146
X3.6283Y-2.6146
X3.6283Y-2.7146
X3.6283Y-2.8146
X3.6283Y-2.9146
X3.6283Y-3.0146
X3.6283Y-3.1146
X3.6283Y-3.2146
X3.6283Y-3.3146
X3.6283Y-3.4146
X3.6283Y-3.5146
X3.6283Y-3.6146
X3.6283Y-3.7146
X3.6283Y-3.8146
X3.6283Y-3.9146
X3.6283Y-4.0146
X3.6283Y-4.1146
X3.6283Y-4.2146
X3.7Y-2.0
X3.7Y-2.1
X3.7283Y-2.3146
X3.7283Y-2.4146
X3.7283Y-2.5146
X3.7283Y-2.6146
X3.7283Y-2.7146
X3.7283Y-2.8146
X3.7283Y-2.9146
X3.7283Y-3.0146
X3.7283Y-3.1146
X3.7283Y-3.2146
X3.7283Y-3.3146
X3.7283Y-3.4146
X3.7283Y-3.5146
X3.7283Y-3.6146
X3.7283Y-3.7146
X3.7283Y-3.8146
X3.7283Y-3.9146
X3.7283Y-4.0146
X3.7283Y-4.1146
X3.7283Y-4.2146
X3.9Y-2.0
X3.9Y-2.1
X4.1Y-2.0
X4.1Y-2.1
X4.2323Y-3.8
X4.2323Y-3.9
X4.2323Y-4.0
X4.2323Y-4.1
X4.2323Y-4.65
X4.2323Y-4.75
X4.2323Y-4.85
X4.2323Y-4.95
X4.3Y-2.0
X4.3Y-2.1
X4.5Y-2.0
X4.5Y-2.1
X4.7Y-2.0
X4.7Y-2.1
X4.9Y-2.0
X4.9Y-2.1
X4.9803Y-3.8
X4.9803Y-3.9
X4.9803Y-4.0
X4.9803Y-4.1
X4.9803Y-4.65
X4.9803Y-4.75
X4.9803Y-4.85
X4.9803Y-4.95
X5.15Y-1.95
X5.15Y-2.15
X5.25Y-1.95
X5.25Y-2.15
X5.35Y-1.95
X5.35Y-2.15
X5.5469Y-2.15
X5.6469Y-2.15
X5.65Y-1.95
X5.7469Y-2.15
X5.75Y-1.95
X5.8469Y-2.15
X5.9055Y-2.3146
X5.9055Y-2.4146
X5.9055Y-2.5146
X5.9055Y-2.6146
X5.9055Y-2.7146
X5.9055Y-2.8146
X5.9055Y-2.9146
X5.9055Y-3.0146
X5.9055Y-3.1146
X5.9055Y-3.2146
X5.9055Y-3.3146
X5.9055Y-3.4146
X5.9055Y-3.5146
X5.9055Y-3.6146
X5.9055Y-3.7146
X5.9055Y-3.8146
X5.9055Y-3.9146
X5.9055Y-4.0146
X5.9055Y-4.1146
X5.9055Y-4.2146
X5.9469Y-2.15
X6.0055Y-2.3146
X6.0055Y-2.4146
X6.0055Y-2.5146
X6.0055Y-2.6146
X6.0055Y-2.7146
X6.0055Y-2.8146
X6.0055Y-2.9146
X6.0055Y-3.0146
X6.0055Y-3.1146
X6.0055Y-3.2146
X6.0055Y-3.3146
X6.0055Y-3.4146
X6.0055Y-3.5146
X6.0055Y-3.6146
X6.0055Y-3.7146
X6.0055Y-3.8146
X6.0055Y-3.9146
X6.0055Y-4.0146
X6.0055Y-4.1146
X6.0055Y-4.2146
X6.0469Y-2.15
X6.05Y-1.95
X6.1469Y-2.15
X6.15Y-1.95
X6.1516Y-2.315
X6.1516Y-2.415
X6.1516Y-2.515
X6.1516Y-2.615
X6.1516Y-2.715
X6.1516Y-2.815
X6.1516Y-2.915
X6.1516Y-3.015
X6.1516Y-3.115
X6.1516Y-3.215
X6.1516Y-3.315
X6.1516Y-3.415
X6.1516Y-3.515
X6.1516Y-3.615
X6.1516Y-3.715
X6.1516Y-3.815
X6.1516Y-3.915
X6.1516Y-4.015
X6.1516Y-4.115
X6.1516Y-4.215
T5
X4.6496Y-3.9449
X5.8661Y-5.0394
X6.1063Y-4.8425
T0
M30
