G04 #@! TF.GenerationSoftware,KiCad,Pcbnew,5.1.9-73d0e3b20d~88~ubuntu20.04.1*
G04 #@! TF.CreationDate,2021-03-18T21:34:13+01:00*
G04 #@! TF.ProjectId,de10-shield,64653130-2d73-4686-9965-6c642e6b6963,rev?*
G04 #@! TF.SameCoordinates,Original*
G04 #@! TF.FileFunction,Copper,L2,Bot*
G04 #@! TF.FilePolarity,Positive*
%FSLAX46Y46*%
G04 Gerber Fmt 4.6, Leading zero omitted, Abs format (unit mm)*
G04 Created by KiCad (PCBNEW 5.1.9-73d0e3b20d~88~ubuntu20.04.1) date 2021-03-18 21:34:13*
%MOMM*%
%LPD*%
G01*
G04 APERTURE LIST*
G04 #@! TA.AperFunction,ComponentPad*
%ADD10O,1.700000X1.700000*%
G04 #@! TD*
G04 #@! TA.AperFunction,ComponentPad*
%ADD11R,1.700000X1.700000*%
G04 #@! TD*
G04 #@! TA.AperFunction,ComponentPad*
%ADD12C,1.524000*%
G04 #@! TD*
G04 #@! TA.AperFunction,ComponentPad*
%ADD13C,5.600000*%
G04 #@! TD*
G04 #@! TA.AperFunction,ViaPad*
%ADD14C,0.500000*%
G04 #@! TD*
G04 #@! TA.AperFunction,ViaPad*
%ADD15C,0.800000*%
G04 #@! TD*
G04 #@! TA.AperFunction,Conductor*
%ADD16C,0.500000*%
G04 #@! TD*
G04 #@! TA.AperFunction,Conductor*
%ADD17C,0.250000*%
G04 #@! TD*
G04 #@! TA.AperFunction,Conductor*
%ADD18C,0.254000*%
G04 #@! TD*
G04 #@! TA.AperFunction,Conductor*
%ADD19C,0.100000*%
G04 #@! TD*
G04 APERTURE END LIST*
D10*
X152540000Y-107050000D03*
X150000000Y-107050000D03*
X152540000Y-104510000D03*
X150000000Y-104510000D03*
X152540000Y-101970000D03*
X150000000Y-101970000D03*
X152540000Y-99430000D03*
X150000000Y-99430000D03*
X152540000Y-96890000D03*
X150000000Y-96890000D03*
X152540000Y-94350000D03*
X150000000Y-94350000D03*
X152540000Y-91810000D03*
X150000000Y-91810000D03*
X152540000Y-89270000D03*
X150000000Y-89270000D03*
X152540000Y-86730000D03*
X150000000Y-86730000D03*
X152540000Y-84190000D03*
X150000000Y-84190000D03*
X152540000Y-81650000D03*
X150000000Y-81650000D03*
X152540000Y-79110000D03*
X150000000Y-79110000D03*
X152540000Y-76570000D03*
X150000000Y-76570000D03*
X152540000Y-74030000D03*
X150000000Y-74030000D03*
X152540000Y-71490000D03*
X150000000Y-71490000D03*
X152540000Y-68950000D03*
X150000000Y-68950000D03*
X152540000Y-66410000D03*
X150000000Y-66410000D03*
X152540000Y-63870000D03*
X150000000Y-63870000D03*
X152540000Y-61330000D03*
X150000000Y-61330000D03*
X152540000Y-58790000D03*
D11*
X150000000Y-58790000D03*
X94700000Y-107050000D03*
D10*
X92160000Y-107050000D03*
X94700000Y-104510000D03*
X92160000Y-104510000D03*
X94700000Y-101970000D03*
X92160000Y-101970000D03*
X94700000Y-99430000D03*
X92160000Y-99430000D03*
X94700000Y-96890000D03*
X92160000Y-96890000D03*
X94700000Y-94350000D03*
X92160000Y-94350000D03*
X94700000Y-91810000D03*
X92160000Y-91810000D03*
X94700000Y-89270000D03*
X92160000Y-89270000D03*
X94700000Y-86730000D03*
X92160000Y-86730000D03*
X94700000Y-84190000D03*
X92160000Y-84190000D03*
X94700000Y-81650000D03*
X92160000Y-81650000D03*
X94700000Y-79110000D03*
X92160000Y-79110000D03*
X94700000Y-76570000D03*
X92160000Y-76570000D03*
X94700000Y-74030000D03*
X92160000Y-74030000D03*
X94700000Y-71490000D03*
X92160000Y-71490000D03*
X94700000Y-68950000D03*
X92160000Y-68950000D03*
X94700000Y-66410000D03*
X92160000Y-66410000D03*
X94700000Y-63870000D03*
X92160000Y-63870000D03*
X94700000Y-61330000D03*
X92160000Y-61330000D03*
X94700000Y-58790000D03*
X92160000Y-58790000D03*
D11*
X107500000Y-96520000D03*
D10*
X107500000Y-99060000D03*
X107500000Y-101600000D03*
X107500000Y-104140000D03*
X107500000Y-125730000D03*
X107500000Y-123190000D03*
X107500000Y-120650000D03*
D11*
X107500000Y-118110000D03*
X126500000Y-96520000D03*
D10*
X126500000Y-99060000D03*
X126500000Y-101600000D03*
X126500000Y-104140000D03*
X126500000Y-125730000D03*
X126500000Y-123190000D03*
X126500000Y-120650000D03*
D11*
X126500000Y-118110000D03*
D10*
X88900000Y-53340000D03*
D11*
X88900000Y-50800000D03*
X93980000Y-50800000D03*
D10*
X93980000Y-53340000D03*
X99060000Y-53340000D03*
D11*
X99060000Y-50800000D03*
X104140000Y-50800000D03*
D10*
X104140000Y-53340000D03*
D11*
X109220000Y-50800000D03*
D10*
X109220000Y-53340000D03*
X114300000Y-53340000D03*
D11*
X114300000Y-50800000D03*
X119380000Y-50800000D03*
D10*
X119380000Y-53340000D03*
X124460000Y-53340000D03*
D11*
X124460000Y-50800000D03*
X156250000Y-58800000D03*
D10*
X156250000Y-61340000D03*
X156250000Y-63880000D03*
X156250000Y-66420000D03*
X156250000Y-68960000D03*
X156250000Y-71500000D03*
X156250000Y-74040000D03*
X156250000Y-76580000D03*
X156250000Y-79120000D03*
X156250000Y-81660000D03*
X156250000Y-84200000D03*
X156250000Y-86740000D03*
X156250000Y-89280000D03*
X156250000Y-91820000D03*
X156250000Y-94360000D03*
X156250000Y-96900000D03*
X156250000Y-99440000D03*
X156250000Y-101980000D03*
X156250000Y-104520000D03*
X156250000Y-107060000D03*
D11*
X140890000Y-54610000D03*
D10*
X143430000Y-54610000D03*
X145970000Y-54610000D03*
X148510000Y-54610000D03*
X151050000Y-54610000D03*
X153590000Y-54610000D03*
X156130000Y-54610000D03*
X135890000Y-49530000D03*
X133350000Y-49530000D03*
D11*
X130810000Y-49530000D03*
X130810000Y-54610000D03*
D10*
X133350000Y-54610000D03*
X135890000Y-54610000D03*
D12*
X110650000Y-91440000D03*
X110650000Y-93980000D03*
X110650000Y-96520000D03*
X110650000Y-99060000D03*
X110650000Y-101600000D03*
X110650000Y-104140000D03*
X110650000Y-106680000D03*
X110650000Y-109220000D03*
X123350000Y-109220000D03*
X123350000Y-106680000D03*
X123350000Y-104140000D03*
X123350000Y-101600000D03*
X123350000Y-99060000D03*
X123350000Y-96520000D03*
X123350000Y-93980000D03*
X123350000Y-91440000D03*
X110650000Y-113030000D03*
X110650000Y-115570000D03*
X110650000Y-118110000D03*
X110650000Y-120650000D03*
X110650000Y-123190000D03*
X110650000Y-125730000D03*
X110650000Y-128270000D03*
X110650000Y-130810000D03*
X123350000Y-130810000D03*
X123350000Y-128270000D03*
X123350000Y-125730000D03*
X123350000Y-123190000D03*
X123350000Y-120650000D03*
X123350000Y-118110000D03*
X123350000Y-115570000D03*
X123350000Y-113030000D03*
X142450000Y-91440000D03*
X142450000Y-93980000D03*
X142450000Y-96520000D03*
X142450000Y-99060000D03*
X142450000Y-101600000D03*
X142450000Y-104140000D03*
X142450000Y-106680000D03*
X142450000Y-109220000D03*
X129750000Y-109220000D03*
X129750000Y-106680000D03*
X129750000Y-104140000D03*
X129750000Y-101600000D03*
X129750000Y-99060000D03*
X129750000Y-96520000D03*
X129750000Y-93980000D03*
X129750000Y-91440000D03*
X142450000Y-113030000D03*
X142450000Y-115570000D03*
X142450000Y-118110000D03*
X142450000Y-120650000D03*
X142450000Y-123190000D03*
X142450000Y-125730000D03*
X142450000Y-128270000D03*
X142450000Y-130810000D03*
X129750000Y-130810000D03*
X129750000Y-128270000D03*
X129750000Y-125730000D03*
X129750000Y-123190000D03*
X129750000Y-120650000D03*
X129750000Y-118110000D03*
X129750000Y-115570000D03*
X129750000Y-113030000D03*
D13*
X149000000Y-128000000D03*
X155100000Y-123000000D03*
D10*
X143510000Y-49530000D03*
D11*
X146050000Y-49530000D03*
X156210000Y-49530000D03*
D10*
X153670000Y-49530000D03*
D11*
X88000000Y-58000000D03*
D10*
X88000000Y-60540000D03*
X88000000Y-63080000D03*
X88000000Y-65620000D03*
X88000000Y-68160000D03*
D11*
X88000000Y-72000000D03*
D10*
X88000000Y-74540000D03*
X88000000Y-77080000D03*
X88000000Y-79620000D03*
X88000000Y-82160000D03*
X88000000Y-96160000D03*
X88000000Y-93620000D03*
X88000000Y-91080000D03*
X88000000Y-88540000D03*
D11*
X88000000Y-86000000D03*
D10*
X88000000Y-110160000D03*
X88000000Y-107620000D03*
X88000000Y-105080000D03*
X88000000Y-102540000D03*
D11*
X88000000Y-100000000D03*
D13*
X118100000Y-100200000D03*
D14*
X132200000Y-123200000D03*
X133600000Y-123200000D03*
X132200000Y-123900000D03*
X133600000Y-122500000D03*
X133600000Y-123900000D03*
X132900000Y-123200000D03*
X132200000Y-122500000D03*
X132900000Y-122500000D03*
X132900000Y-123900000D03*
X120700000Y-121100000D03*
X113200000Y-125500000D03*
X113200000Y-124800000D03*
X113200000Y-124100000D03*
X113900000Y-124100000D03*
X113900000Y-124800000D03*
X113900000Y-125500000D03*
X114600000Y-125500000D03*
X114600000Y-124800000D03*
X114600000Y-124100000D03*
X144300000Y-108900000D03*
X144900000Y-108900000D03*
X144300000Y-109500000D03*
X145800000Y-108400000D03*
X146100000Y-108900000D03*
X145500000Y-108900000D03*
X151300000Y-117900000D03*
X151300000Y-118500000D03*
X151300000Y-119100000D03*
X151300000Y-119700000D03*
X150700000Y-119900000D03*
X150000000Y-119900000D03*
X151900000Y-117900000D03*
X151900000Y-118500000D03*
X151900000Y-119100000D03*
X151900000Y-119700000D03*
X155800000Y-115800000D03*
X156400000Y-115800000D03*
X157000000Y-115800000D03*
X157600000Y-115800000D03*
X157300000Y-116300000D03*
X156700000Y-116300000D03*
X156100000Y-116300000D03*
X155600000Y-108500000D03*
X155000000Y-108500000D03*
X154400000Y-108500000D03*
X154700000Y-108000000D03*
X154100000Y-109000000D03*
X154700000Y-109000000D03*
X155300000Y-109000000D03*
X154400000Y-109500000D03*
X155000000Y-109500000D03*
X145200000Y-108400000D03*
X144600000Y-108400000D03*
X143800000Y-111200000D03*
X143800000Y-111900000D03*
X143200000Y-111500000D03*
X142500000Y-111500000D03*
X141900000Y-111500000D03*
X141300000Y-111900000D03*
X141300000Y-111100000D03*
X141300000Y-110400000D03*
X141900000Y-110900000D03*
X142500000Y-110900000D03*
X143100000Y-110800000D03*
X143700000Y-110500000D03*
X144300000Y-110100000D03*
X90500000Y-73000000D03*
D15*
X112100000Y-115600000D03*
X119400000Y-115600000D03*
X146300000Y-119500000D03*
X145100000Y-121400000D03*
X130962001Y-112062001D03*
X126000000Y-130400000D03*
X146475000Y-118300000D03*
X144200000Y-127700000D03*
X127100000Y-106700000D03*
D14*
X92000000Y-113500000D03*
X96000000Y-113000000D03*
X103124999Y-113575001D03*
X119600000Y-112100000D03*
X99000000Y-112075000D03*
X96500000Y-112000000D03*
X120000000Y-128000000D03*
X97500000Y-112075000D03*
X132500000Y-52000000D03*
X154500000Y-98000000D03*
X154500000Y-88500000D03*
X148000000Y-101500000D03*
X147063174Y-122563174D03*
X145656587Y-123156587D03*
D16*
X86699999Y-89840001D02*
X88000000Y-88540000D01*
X86699999Y-101239999D02*
X86699999Y-89840001D01*
X88000000Y-102540000D02*
X86699999Y-101239999D01*
X86699999Y-75840001D02*
X88000000Y-74540000D01*
X86699999Y-87239999D02*
X86699999Y-75840001D01*
X88000000Y-88540000D02*
X86699999Y-87239999D01*
X86699999Y-61840001D02*
X88000000Y-60540000D01*
X86699999Y-73239999D02*
X86699999Y-61840001D01*
X88000000Y-74540000D02*
X86699999Y-73239999D01*
X86699999Y-103840001D02*
X86699999Y-112699999D01*
X88000000Y-102540000D02*
X86699999Y-103840001D01*
X86699999Y-112699999D02*
X88500000Y-114500000D01*
X86699999Y-59239999D02*
X86699999Y-53000001D01*
X86699999Y-53000001D02*
X88900000Y-50800000D01*
X88000000Y-60540000D02*
X86699999Y-59239999D01*
X141190000Y-51850000D02*
X143510000Y-49530000D01*
X133350000Y-51850000D02*
X141190000Y-51850000D01*
X133350000Y-54610000D02*
X133350000Y-51850000D01*
X133350000Y-51850000D02*
X133350000Y-49530000D01*
X89500000Y-72000000D02*
X88000000Y-72000000D01*
X90500000Y-73000000D02*
X89500000Y-72000000D01*
X89424990Y-87424990D02*
X88000000Y-86000000D01*
X89424990Y-99925010D02*
X89424990Y-87424990D01*
X89350000Y-100000000D02*
X89424990Y-99925010D01*
X88000000Y-100000000D02*
X89350000Y-100000000D01*
X89300001Y-74199999D02*
X90500000Y-73000000D01*
X89300001Y-84699999D02*
X89300001Y-74199999D01*
X88000000Y-86000000D02*
X89300001Y-84699999D01*
X148510000Y-49530000D02*
X153670000Y-49530000D01*
X143430000Y-54610000D02*
X148510000Y-49530000D01*
X112100000Y-115600000D02*
X119400000Y-115600000D01*
X128537999Y-129597999D02*
X129750000Y-130810000D01*
X111862001Y-129597999D02*
X128537999Y-129597999D01*
X110650000Y-130810000D02*
X111862001Y-129597999D01*
X143662001Y-122837999D02*
X145100000Y-121400000D01*
X143662001Y-123771761D02*
X143662001Y-122837999D01*
X143031761Y-124402001D02*
X143662001Y-123771761D01*
X136157999Y-124402001D02*
X143031761Y-124402001D01*
X129750000Y-130810000D02*
X136157999Y-124402001D01*
X130962001Y-110432001D02*
X130962001Y-112062001D01*
X129750000Y-109220000D02*
X130962001Y-110432001D01*
X146237999Y-119437999D02*
X146300000Y-119500000D01*
X138337999Y-119437999D02*
X146237999Y-119437999D01*
X130962001Y-112062001D02*
X138337999Y-119437999D01*
X126000000Y-130400000D02*
X127800000Y-130400000D01*
X128210000Y-130810000D02*
X129750000Y-130810000D01*
X127800000Y-130400000D02*
X128210000Y-130810000D01*
X130962001Y-110432001D02*
X131732001Y-110432001D01*
X131732001Y-110432001D02*
X138197999Y-116897999D01*
X145072999Y-116897999D02*
X146475000Y-118300000D01*
X138197999Y-116897999D02*
X145072999Y-116897999D01*
X136157999Y-124402001D02*
X136157999Y-120457999D01*
X127100000Y-112173762D02*
X127100000Y-106700000D01*
X129168239Y-114242001D02*
X127100000Y-112173762D01*
X136157999Y-120184237D02*
X130215763Y-114242001D01*
X130215763Y-114242001D02*
X129168239Y-114242001D01*
X136157999Y-120457999D02*
X136157999Y-120184237D01*
X134757999Y-126942001D02*
X143442001Y-126942001D01*
X143442001Y-126942001D02*
X144200000Y-127700000D01*
X130890000Y-130810000D02*
X134757999Y-126942001D01*
X129750000Y-130810000D02*
X130890000Y-130810000D01*
D17*
X98410998Y-53340000D02*
X99060000Y-53340000D01*
X93335001Y-58415997D02*
X98410998Y-53340000D01*
X93335001Y-62505001D02*
X93335001Y-58415997D01*
X94700000Y-63870000D02*
X93335001Y-62505001D01*
X102964999Y-52164999D02*
X104140000Y-53340000D01*
X97045999Y-52164999D02*
X102964999Y-52164999D01*
X90984999Y-58225999D02*
X97045999Y-52164999D01*
X90984999Y-64434001D02*
X90984999Y-58225999D01*
X91785997Y-65234999D02*
X90984999Y-64434001D01*
X93524999Y-65234999D02*
X91785997Y-65234999D01*
X94700000Y-66410000D02*
X93524999Y-65234999D01*
X105504999Y-49624999D02*
X109220000Y-53340000D01*
X95599997Y-51975001D02*
X97949999Y-49624999D01*
X93605997Y-51975001D02*
X95599997Y-51975001D01*
X90534990Y-55046008D02*
X93605997Y-51975001D01*
X90534990Y-66523992D02*
X90534990Y-55046008D01*
X91595999Y-67585001D02*
X90534990Y-66523992D01*
X93335001Y-67585001D02*
X91595999Y-67585001D01*
X97949999Y-49624999D02*
X105504999Y-49624999D01*
X94700000Y-68950000D02*
X93335001Y-67585001D01*
X110134990Y-49174990D02*
X114300000Y-53340000D01*
X93320008Y-49174990D02*
X110134990Y-49174990D01*
X90084981Y-52410017D02*
X93320008Y-49174990D01*
X91785997Y-72854999D02*
X90084981Y-71153983D01*
X93524999Y-72854999D02*
X91785997Y-72854999D01*
X90084981Y-71153983D02*
X90084981Y-52410017D01*
X94700000Y-74030000D02*
X93524999Y-72854999D01*
X100090011Y-54515001D02*
X123284999Y-54515001D01*
X96249990Y-58355022D02*
X100090011Y-54515001D01*
X123284999Y-54515001D02*
X124460000Y-53340000D01*
X96249990Y-77560010D02*
X96249990Y-58355022D01*
X94700000Y-79110000D02*
X96249990Y-77560010D01*
X125500000Y-115028762D02*
X125500000Y-104879002D01*
X123194237Y-116657001D02*
X123871761Y-116657001D01*
X120654237Y-119197001D02*
X123194237Y-116657001D01*
X110128239Y-119197001D02*
X120654237Y-119197001D01*
X109376599Y-118445361D02*
X110128239Y-119197001D01*
X124437001Y-92527001D02*
X123350000Y-91440000D01*
X125500000Y-104879002D02*
X124437001Y-103816003D01*
X109376599Y-116541771D02*
X109376599Y-118445361D01*
X95041771Y-116541771D02*
X109376599Y-116541771D01*
X124437001Y-103816003D02*
X124437001Y-92527001D01*
X123871761Y-116657001D02*
X125500000Y-115028762D01*
X92000000Y-113500000D02*
X95041771Y-116541771D01*
X98926002Y-113000000D02*
X106611001Y-105315001D01*
X106611001Y-105315001D02*
X111083761Y-105315001D01*
X96000000Y-113000000D02*
X98926002Y-113000000D01*
X112599381Y-103799381D02*
X112599381Y-97900619D01*
X111083761Y-105315001D02*
X112599381Y-103799381D01*
X116520000Y-93980000D02*
X123350000Y-93980000D01*
X112599381Y-97900619D02*
X116520000Y-93980000D01*
X92160000Y-101970000D02*
X90630000Y-103500000D01*
X90630000Y-103500000D02*
X90630000Y-105063216D01*
X90630000Y-105063216D02*
X89625011Y-106068205D01*
X124887010Y-105677010D02*
X123350000Y-104140000D01*
X124887010Y-113101752D02*
X124887010Y-105677010D01*
X123871761Y-114117001D02*
X124887010Y-113101752D01*
X122882999Y-114117001D02*
X123871761Y-114117001D01*
X120342999Y-116657001D02*
X122882999Y-114117001D01*
X110128239Y-116657001D02*
X120342999Y-116657001D01*
X109562999Y-116091761D02*
X110128239Y-116657001D01*
X96138941Y-116091761D02*
X109562999Y-116091761D01*
X89625011Y-109577831D02*
X96138941Y-116091761D01*
X89625011Y-106068205D02*
X89625011Y-109577831D01*
X124437001Y-109741761D02*
X124437001Y-107767001D01*
X119695763Y-114482999D02*
X124437001Y-109741761D01*
X95166589Y-114482999D02*
X119695763Y-114482999D01*
X90585000Y-109901410D02*
X95166589Y-114482999D01*
X90585000Y-106085000D02*
X90585000Y-109901410D01*
X124437001Y-107767001D02*
X123350000Y-106680000D01*
X92160000Y-104510000D02*
X90585000Y-106085000D01*
X94895001Y-113575001D02*
X103124999Y-113575001D01*
X92160000Y-110840000D02*
X94895001Y-113575001D01*
X92160000Y-107050000D02*
X92160000Y-110840000D01*
X120470000Y-112100000D02*
X123350000Y-109220000D01*
X119600000Y-112100000D02*
X120470000Y-112100000D01*
X96249990Y-103519990D02*
X96249990Y-107644978D01*
X94700000Y-101970000D02*
X96249990Y-103519990D01*
X96249990Y-109324990D02*
X99000000Y-112075000D01*
X96249990Y-107644978D02*
X96249990Y-109324990D01*
X94700000Y-104510000D02*
X93524999Y-105685001D01*
X93524999Y-105685001D02*
X93524999Y-107975001D01*
X93524999Y-107975001D02*
X93524999Y-108160001D01*
X93524999Y-109024999D02*
X96500000Y-112000000D01*
X93524999Y-108160001D02*
X93524999Y-109024999D01*
X120270000Y-128270000D02*
X123350000Y-128270000D01*
X120000000Y-128000000D02*
X120270000Y-128270000D01*
X94700000Y-107050000D02*
X94700000Y-107700000D01*
X94700000Y-109275000D02*
X97500000Y-112075000D01*
X94700000Y-107050000D02*
X94700000Y-109275000D01*
X151175001Y-54735001D02*
X151050000Y-54610000D01*
X151175001Y-62694999D02*
X151175001Y-54735001D01*
X150000000Y-63870000D02*
X151175001Y-62694999D01*
X151364999Y-65045001D02*
X150000000Y-66410000D01*
X153104001Y-65045001D02*
X151364999Y-65045001D01*
X154439999Y-63709003D02*
X153104001Y-65045001D01*
X154439999Y-55459999D02*
X154439999Y-63709003D01*
X153590000Y-54610000D02*
X154439999Y-55459999D01*
X155074999Y-55665001D02*
X156130000Y-54610000D01*
X155074999Y-65614003D02*
X155074999Y-55665001D01*
X152914003Y-67774999D02*
X155074999Y-65614003D01*
X151175001Y-67774999D02*
X152914003Y-67774999D01*
X150000000Y-68950000D02*
X151175001Y-67774999D01*
X156814001Y-72675001D02*
X151354999Y-72675001D01*
X157425001Y-72064001D02*
X156814001Y-72675001D01*
X157425001Y-54165999D02*
X157425001Y-72064001D01*
X155000000Y-51740998D02*
X157425001Y-54165999D01*
X155000000Y-49120998D02*
X155000000Y-51740998D01*
X154234001Y-48354999D02*
X155000000Y-49120998D01*
X141645001Y-48354999D02*
X154234001Y-48354999D01*
X140470000Y-49530000D02*
X141645001Y-48354999D01*
X151354999Y-72675001D02*
X150000000Y-74030000D01*
X135890000Y-49530000D02*
X140470000Y-49530000D01*
X133236009Y-47904989D02*
X132174999Y-48965999D01*
X157875011Y-48910009D02*
X156869991Y-47904989D01*
X157875011Y-74153991D02*
X157875011Y-48910009D01*
X132174999Y-51674999D02*
X132500000Y-52000000D01*
X132174999Y-48965999D02*
X132174999Y-51674999D01*
X156814001Y-75215001D02*
X157875011Y-74153991D01*
X151354999Y-75215001D02*
X156814001Y-75215001D01*
X156869991Y-47904989D02*
X133236009Y-47904989D01*
X150000000Y-76570000D02*
X151354999Y-75215001D01*
X148450010Y-80100010D02*
X150000000Y-81650000D01*
X148450010Y-58855022D02*
X148450010Y-80100010D01*
X148244978Y-58649990D02*
X148450010Y-58855022D01*
X134755022Y-58649990D02*
X148244978Y-58649990D01*
X134149990Y-59255022D02*
X134755022Y-58649990D01*
X134149990Y-89944978D02*
X134149990Y-59255022D01*
X135645012Y-91440000D02*
X134149990Y-89944978D01*
X142450000Y-91440000D02*
X135645012Y-91440000D01*
X148824999Y-85365001D02*
X150000000Y-84190000D01*
X148824999Y-98569989D02*
X148824999Y-85365001D01*
X148244978Y-99150010D02*
X148824999Y-98569989D01*
X143855022Y-99150010D02*
X148244978Y-99150010D01*
X143649990Y-95179990D02*
X143649990Y-98944978D01*
X143649990Y-98944978D02*
X143855022Y-99150010D01*
X142450000Y-93980000D02*
X143649990Y-95179990D01*
X154500000Y-98000000D02*
X154500000Y-88500000D01*
X150000000Y-97394988D02*
X150000000Y-96890000D01*
X147474969Y-102025031D02*
X148000000Y-101500000D01*
X147474969Y-109525031D02*
X147474969Y-102025031D01*
X143970000Y-113030000D02*
X147474969Y-109525031D01*
X142450000Y-113030000D02*
X143970000Y-113030000D01*
X147924979Y-110095021D02*
X147500000Y-110520000D01*
X147924979Y-103408611D02*
X147924979Y-110095021D01*
X148824999Y-102508591D02*
X147924979Y-103408611D01*
X147500000Y-110520000D02*
X142450000Y-115570000D01*
X148824999Y-100605001D02*
X148824999Y-102508591D01*
X150000000Y-99430000D02*
X148824999Y-100605001D01*
X153715001Y-101374001D02*
X153135999Y-100794999D01*
X153715001Y-107614001D02*
X153715001Y-101374001D01*
X153029002Y-108300000D02*
X153715001Y-107614001D01*
X153135999Y-100794999D02*
X151175001Y-100794999D01*
X149700000Y-110400000D02*
X151800000Y-108300000D01*
X148400000Y-112436410D02*
X149700000Y-111136410D01*
X151800000Y-108300000D02*
X153029002Y-108300000D01*
X148400000Y-121226348D02*
X148400000Y-112436410D01*
X151175001Y-100794999D02*
X150000000Y-101970000D01*
X149700000Y-111136410D02*
X149700000Y-110400000D01*
X147063174Y-122563174D02*
X148400000Y-121226348D01*
X151175001Y-105685001D02*
X150000000Y-104510000D01*
X151175001Y-108024999D02*
X151175001Y-105685001D01*
X147900000Y-120713174D02*
X147900000Y-112300000D01*
X149200000Y-111000000D02*
X149200000Y-110000000D01*
X147656587Y-120956587D02*
X147900000Y-120713174D01*
X149200000Y-110000000D02*
X151175001Y-108024999D01*
X147900000Y-112300000D02*
X149200000Y-111000000D01*
X147656587Y-121156587D02*
X147656587Y-120956587D01*
X145656587Y-123156587D02*
X147656587Y-121156587D01*
X148500000Y-110156410D02*
X148500000Y-108550000D01*
X147200000Y-111456410D02*
X148500000Y-110156410D01*
X147200000Y-120800000D02*
X147200000Y-111456410D01*
X148500000Y-108550000D02*
X150000000Y-107050000D01*
X145000000Y-123000000D02*
X147200000Y-120800000D01*
X145000000Y-128260000D02*
X145000000Y-123000000D01*
X142450000Y-130810000D02*
X145000000Y-128260000D01*
X89175001Y-108984999D02*
X88000000Y-110160000D01*
X89175001Y-108984999D02*
X89175001Y-105824999D01*
X89175001Y-105824999D02*
X90000000Y-105000000D01*
X90000000Y-91430000D02*
X92160000Y-89270000D01*
X90000000Y-105000000D02*
X90000000Y-91430000D01*
D18*
X122264880Y-119000535D02*
X122459465Y-119195120D01*
X122688273Y-119348005D01*
X122765515Y-119380000D01*
X122688273Y-119411995D01*
X122459465Y-119564880D01*
X122264880Y-119759465D01*
X122111995Y-119988273D01*
X122006686Y-120242510D01*
X121953000Y-120512408D01*
X121953000Y-120787592D01*
X122006686Y-121057490D01*
X122111995Y-121311727D01*
X122264880Y-121540535D01*
X122459465Y-121735120D01*
X122688273Y-121888005D01*
X122765515Y-121920000D01*
X122688273Y-121951995D01*
X122459465Y-122104880D01*
X122264880Y-122299465D01*
X122111995Y-122528273D01*
X122006686Y-122782510D01*
X121953000Y-123052408D01*
X121953000Y-123327592D01*
X122006686Y-123597490D01*
X122111995Y-123851727D01*
X122264880Y-124080535D01*
X122459465Y-124275120D01*
X122688273Y-124428005D01*
X122765515Y-124460000D01*
X122688273Y-124491995D01*
X122459465Y-124644880D01*
X122264880Y-124839465D01*
X122111995Y-125068273D01*
X122006686Y-125322510D01*
X121953000Y-125592408D01*
X121953000Y-125867592D01*
X122006686Y-126137490D01*
X122111995Y-126391727D01*
X122264880Y-126620535D01*
X122459465Y-126815120D01*
X122688273Y-126968005D01*
X122765515Y-127000000D01*
X122688273Y-127031995D01*
X122459465Y-127184880D01*
X122264880Y-127379465D01*
X122177659Y-127510000D01*
X120736973Y-127510000D01*
X120687424Y-127435845D01*
X120564155Y-127312576D01*
X120419205Y-127215723D01*
X120258145Y-127149010D01*
X120087165Y-127115000D01*
X119912835Y-127115000D01*
X119741855Y-127149010D01*
X119580795Y-127215723D01*
X119435845Y-127312576D01*
X119312576Y-127435845D01*
X119215723Y-127580795D01*
X119149010Y-127741855D01*
X119115000Y-127912835D01*
X119115000Y-128087165D01*
X119149010Y-128258145D01*
X119215723Y-128419205D01*
X119312576Y-128564155D01*
X119435845Y-128687424D01*
X119474120Y-128712999D01*
X111905466Y-128712999D01*
X111862000Y-128708718D01*
X111818534Y-128712999D01*
X111818524Y-128712999D01*
X111688511Y-128725804D01*
X111521688Y-128776410D01*
X111367942Y-128858588D01*
X111367940Y-128858589D01*
X111367941Y-128858589D01*
X111266954Y-128941467D01*
X111266952Y-128941469D01*
X111233184Y-128969182D01*
X111205471Y-129002950D01*
X110794122Y-129414299D01*
X110787592Y-129413000D01*
X110512408Y-129413000D01*
X110242510Y-129466686D01*
X109988273Y-129571995D01*
X109759465Y-129724880D01*
X109564880Y-129919465D01*
X109411995Y-130148273D01*
X109306686Y-130402510D01*
X109253000Y-130672408D01*
X109253000Y-130947592D01*
X109306686Y-131217490D01*
X109411995Y-131471727D01*
X109564880Y-131700535D01*
X109737345Y-131873000D01*
X106127000Y-131873000D01*
X106127000Y-126295776D01*
X106184010Y-126433411D01*
X106346525Y-126676632D01*
X106553368Y-126883475D01*
X106796589Y-127045990D01*
X107066842Y-127157932D01*
X107353740Y-127215000D01*
X107646260Y-127215000D01*
X107933158Y-127157932D01*
X108203411Y-127045990D01*
X108446632Y-126883475D01*
X108653475Y-126676632D01*
X108815990Y-126433411D01*
X108927932Y-126163158D01*
X108985000Y-125876260D01*
X108985000Y-125583740D01*
X108927932Y-125296842D01*
X108815990Y-125026589D01*
X108653475Y-124783368D01*
X108446632Y-124576525D01*
X108272240Y-124460000D01*
X108446632Y-124343475D01*
X108653475Y-124136632D01*
X108815990Y-123893411D01*
X108927932Y-123623158D01*
X108985000Y-123336260D01*
X108985000Y-123043740D01*
X108927932Y-122756842D01*
X108815990Y-122486589D01*
X108653475Y-122243368D01*
X108446632Y-122036525D01*
X108272240Y-121920000D01*
X108446632Y-121803475D01*
X108653475Y-121596632D01*
X108815990Y-121353411D01*
X108927932Y-121083158D01*
X108985000Y-120796260D01*
X108985000Y-120503740D01*
X108927932Y-120216842D01*
X108815990Y-119946589D01*
X108653475Y-119703368D01*
X108521620Y-119571513D01*
X108594180Y-119549502D01*
X108704494Y-119490537D01*
X108801185Y-119411185D01*
X108880537Y-119314494D01*
X108939502Y-119204180D01*
X108967691Y-119111254D01*
X109564444Y-119708009D01*
X109587835Y-119736510D01*
X109564880Y-119759465D01*
X109411995Y-119988273D01*
X109306686Y-120242510D01*
X109253000Y-120512408D01*
X109253000Y-120787592D01*
X109306686Y-121057490D01*
X109411995Y-121311727D01*
X109564880Y-121540535D01*
X109759465Y-121735120D01*
X109988273Y-121888005D01*
X110065515Y-121920000D01*
X109988273Y-121951995D01*
X109759465Y-122104880D01*
X109564880Y-122299465D01*
X109411995Y-122528273D01*
X109306686Y-122782510D01*
X109253000Y-123052408D01*
X109253000Y-123327592D01*
X109306686Y-123597490D01*
X109411995Y-123851727D01*
X109564880Y-124080535D01*
X109759465Y-124275120D01*
X109988273Y-124428005D01*
X110065515Y-124460000D01*
X109988273Y-124491995D01*
X109759465Y-124644880D01*
X109564880Y-124839465D01*
X109411995Y-125068273D01*
X109306686Y-125322510D01*
X109253000Y-125592408D01*
X109253000Y-125867592D01*
X109306686Y-126137490D01*
X109411995Y-126391727D01*
X109564880Y-126620535D01*
X109759465Y-126815120D01*
X109988273Y-126968005D01*
X110242510Y-127073314D01*
X110512408Y-127127000D01*
X110787592Y-127127000D01*
X111057490Y-127073314D01*
X111311727Y-126968005D01*
X111540535Y-126815120D01*
X111735120Y-126620535D01*
X111888005Y-126391727D01*
X111993314Y-126137490D01*
X112047000Y-125867592D01*
X112047000Y-125592408D01*
X111993314Y-125322510D01*
X111888005Y-125068273D01*
X111735120Y-124839465D01*
X111540535Y-124644880D01*
X111311727Y-124491995D01*
X111234485Y-124460000D01*
X111311727Y-124428005D01*
X111540535Y-124275120D01*
X111735120Y-124080535D01*
X111888005Y-123851727D01*
X111993314Y-123597490D01*
X112047000Y-123327592D01*
X112047000Y-123052408D01*
X111993314Y-122782510D01*
X111888005Y-122528273D01*
X111735120Y-122299465D01*
X111540535Y-122104880D01*
X111311727Y-121951995D01*
X111234485Y-121920000D01*
X111311727Y-121888005D01*
X111540535Y-121735120D01*
X111735120Y-121540535D01*
X111888005Y-121311727D01*
X111993314Y-121057490D01*
X112047000Y-120787592D01*
X112047000Y-120512408D01*
X111993314Y-120242510D01*
X111888005Y-119988273D01*
X111867110Y-119957001D01*
X120616915Y-119957001D01*
X120654237Y-119960677D01*
X120691559Y-119957001D01*
X120691570Y-119957001D01*
X120803223Y-119946004D01*
X120946484Y-119902547D01*
X121078513Y-119831975D01*
X121194238Y-119737002D01*
X121218041Y-119707998D01*
X122128945Y-118797095D01*
X122264880Y-119000535D01*
G04 #@! TA.AperFunction,Conductor*
D19*
G36*
X122264880Y-119000535D02*
G01*
X122459465Y-119195120D01*
X122688273Y-119348005D01*
X122765515Y-119380000D01*
X122688273Y-119411995D01*
X122459465Y-119564880D01*
X122264880Y-119759465D01*
X122111995Y-119988273D01*
X122006686Y-120242510D01*
X121953000Y-120512408D01*
X121953000Y-120787592D01*
X122006686Y-121057490D01*
X122111995Y-121311727D01*
X122264880Y-121540535D01*
X122459465Y-121735120D01*
X122688273Y-121888005D01*
X122765515Y-121920000D01*
X122688273Y-121951995D01*
X122459465Y-122104880D01*
X122264880Y-122299465D01*
X122111995Y-122528273D01*
X122006686Y-122782510D01*
X121953000Y-123052408D01*
X121953000Y-123327592D01*
X122006686Y-123597490D01*
X122111995Y-123851727D01*
X122264880Y-124080535D01*
X122459465Y-124275120D01*
X122688273Y-124428005D01*
X122765515Y-124460000D01*
X122688273Y-124491995D01*
X122459465Y-124644880D01*
X122264880Y-124839465D01*
X122111995Y-125068273D01*
X122006686Y-125322510D01*
X121953000Y-125592408D01*
X121953000Y-125867592D01*
X122006686Y-126137490D01*
X122111995Y-126391727D01*
X122264880Y-126620535D01*
X122459465Y-126815120D01*
X122688273Y-126968005D01*
X122765515Y-127000000D01*
X122688273Y-127031995D01*
X122459465Y-127184880D01*
X122264880Y-127379465D01*
X122177659Y-127510000D01*
X120736973Y-127510000D01*
X120687424Y-127435845D01*
X120564155Y-127312576D01*
X120419205Y-127215723D01*
X120258145Y-127149010D01*
X120087165Y-127115000D01*
X119912835Y-127115000D01*
X119741855Y-127149010D01*
X119580795Y-127215723D01*
X119435845Y-127312576D01*
X119312576Y-127435845D01*
X119215723Y-127580795D01*
X119149010Y-127741855D01*
X119115000Y-127912835D01*
X119115000Y-128087165D01*
X119149010Y-128258145D01*
X119215723Y-128419205D01*
X119312576Y-128564155D01*
X119435845Y-128687424D01*
X119474120Y-128712999D01*
X111905466Y-128712999D01*
X111862000Y-128708718D01*
X111818534Y-128712999D01*
X111818524Y-128712999D01*
X111688511Y-128725804D01*
X111521688Y-128776410D01*
X111367942Y-128858588D01*
X111367940Y-128858589D01*
X111367941Y-128858589D01*
X111266954Y-128941467D01*
X111266952Y-128941469D01*
X111233184Y-128969182D01*
X111205471Y-129002950D01*
X110794122Y-129414299D01*
X110787592Y-129413000D01*
X110512408Y-129413000D01*
X110242510Y-129466686D01*
X109988273Y-129571995D01*
X109759465Y-129724880D01*
X109564880Y-129919465D01*
X109411995Y-130148273D01*
X109306686Y-130402510D01*
X109253000Y-130672408D01*
X109253000Y-130947592D01*
X109306686Y-131217490D01*
X109411995Y-131471727D01*
X109564880Y-131700535D01*
X109737345Y-131873000D01*
X106127000Y-131873000D01*
X106127000Y-126295776D01*
X106184010Y-126433411D01*
X106346525Y-126676632D01*
X106553368Y-126883475D01*
X106796589Y-127045990D01*
X107066842Y-127157932D01*
X107353740Y-127215000D01*
X107646260Y-127215000D01*
X107933158Y-127157932D01*
X108203411Y-127045990D01*
X108446632Y-126883475D01*
X108653475Y-126676632D01*
X108815990Y-126433411D01*
X108927932Y-126163158D01*
X108985000Y-125876260D01*
X108985000Y-125583740D01*
X108927932Y-125296842D01*
X108815990Y-125026589D01*
X108653475Y-124783368D01*
X108446632Y-124576525D01*
X108272240Y-124460000D01*
X108446632Y-124343475D01*
X108653475Y-124136632D01*
X108815990Y-123893411D01*
X108927932Y-123623158D01*
X108985000Y-123336260D01*
X108985000Y-123043740D01*
X108927932Y-122756842D01*
X108815990Y-122486589D01*
X108653475Y-122243368D01*
X108446632Y-122036525D01*
X108272240Y-121920000D01*
X108446632Y-121803475D01*
X108653475Y-121596632D01*
X108815990Y-121353411D01*
X108927932Y-121083158D01*
X108985000Y-120796260D01*
X108985000Y-120503740D01*
X108927932Y-120216842D01*
X108815990Y-119946589D01*
X108653475Y-119703368D01*
X108521620Y-119571513D01*
X108594180Y-119549502D01*
X108704494Y-119490537D01*
X108801185Y-119411185D01*
X108880537Y-119314494D01*
X108939502Y-119204180D01*
X108967691Y-119111254D01*
X109564444Y-119708009D01*
X109587835Y-119736510D01*
X109564880Y-119759465D01*
X109411995Y-119988273D01*
X109306686Y-120242510D01*
X109253000Y-120512408D01*
X109253000Y-120787592D01*
X109306686Y-121057490D01*
X109411995Y-121311727D01*
X109564880Y-121540535D01*
X109759465Y-121735120D01*
X109988273Y-121888005D01*
X110065515Y-121920000D01*
X109988273Y-121951995D01*
X109759465Y-122104880D01*
X109564880Y-122299465D01*
X109411995Y-122528273D01*
X109306686Y-122782510D01*
X109253000Y-123052408D01*
X109253000Y-123327592D01*
X109306686Y-123597490D01*
X109411995Y-123851727D01*
X109564880Y-124080535D01*
X109759465Y-124275120D01*
X109988273Y-124428005D01*
X110065515Y-124460000D01*
X109988273Y-124491995D01*
X109759465Y-124644880D01*
X109564880Y-124839465D01*
X109411995Y-125068273D01*
X109306686Y-125322510D01*
X109253000Y-125592408D01*
X109253000Y-125867592D01*
X109306686Y-126137490D01*
X109411995Y-126391727D01*
X109564880Y-126620535D01*
X109759465Y-126815120D01*
X109988273Y-126968005D01*
X110242510Y-127073314D01*
X110512408Y-127127000D01*
X110787592Y-127127000D01*
X111057490Y-127073314D01*
X111311727Y-126968005D01*
X111540535Y-126815120D01*
X111735120Y-126620535D01*
X111888005Y-126391727D01*
X111993314Y-126137490D01*
X112047000Y-125867592D01*
X112047000Y-125592408D01*
X111993314Y-125322510D01*
X111888005Y-125068273D01*
X111735120Y-124839465D01*
X111540535Y-124644880D01*
X111311727Y-124491995D01*
X111234485Y-124460000D01*
X111311727Y-124428005D01*
X111540535Y-124275120D01*
X111735120Y-124080535D01*
X111888005Y-123851727D01*
X111993314Y-123597490D01*
X112047000Y-123327592D01*
X112047000Y-123052408D01*
X111993314Y-122782510D01*
X111888005Y-122528273D01*
X111735120Y-122299465D01*
X111540535Y-122104880D01*
X111311727Y-121951995D01*
X111234485Y-121920000D01*
X111311727Y-121888005D01*
X111540535Y-121735120D01*
X111735120Y-121540535D01*
X111888005Y-121311727D01*
X111993314Y-121057490D01*
X112047000Y-120787592D01*
X112047000Y-120512408D01*
X111993314Y-120242510D01*
X111888005Y-119988273D01*
X111867110Y-119957001D01*
X120616915Y-119957001D01*
X120654237Y-119960677D01*
X120691559Y-119957001D01*
X120691570Y-119957001D01*
X120803223Y-119946004D01*
X120946484Y-119902547D01*
X121078513Y-119831975D01*
X121194238Y-119737002D01*
X121218041Y-119707998D01*
X122128945Y-118797095D01*
X122264880Y-119000535D01*
G37*
G04 #@! TD.AperFunction*
D18*
X157873000Y-120967252D02*
X157768138Y-120810315D01*
X157289685Y-120331862D01*
X156727082Y-119955943D01*
X156101952Y-119697006D01*
X155438318Y-119565000D01*
X154761682Y-119565000D01*
X154098048Y-119697006D01*
X153472918Y-119955943D01*
X152910315Y-120331862D01*
X152431862Y-120810315D01*
X152055943Y-121372918D01*
X151797006Y-121998048D01*
X151665000Y-122661682D01*
X151665000Y-123338318D01*
X151797006Y-124001952D01*
X152055943Y-124627082D01*
X152431862Y-125189685D01*
X152910315Y-125668138D01*
X153472918Y-126044057D01*
X154098048Y-126302994D01*
X154761682Y-126435000D01*
X155438318Y-126435000D01*
X156101952Y-126302994D01*
X156727082Y-126044057D01*
X157289685Y-125668138D01*
X157768138Y-125189685D01*
X157873000Y-125032748D01*
X157873000Y-131873000D01*
X143362655Y-131873000D01*
X143535120Y-131700535D01*
X143688005Y-131471727D01*
X143793314Y-131217490D01*
X143847000Y-130947592D01*
X143847000Y-130672408D01*
X143816372Y-130518430D01*
X145511004Y-128823798D01*
X145540001Y-128800001D01*
X145634974Y-128684276D01*
X145705546Y-128552247D01*
X145749003Y-128408986D01*
X145760000Y-128297333D01*
X145760000Y-128297332D01*
X145763677Y-128260000D01*
X145760000Y-128222667D01*
X145760000Y-124038355D01*
X145914732Y-124007577D01*
X146075792Y-123940864D01*
X146220742Y-123844011D01*
X146344011Y-123720742D01*
X146440864Y-123575792D01*
X146507577Y-123414732D01*
X146516102Y-123371873D01*
X146581959Y-123306017D01*
X146643969Y-123347451D01*
X146805029Y-123414164D01*
X146976009Y-123448174D01*
X147150339Y-123448174D01*
X147321319Y-123414164D01*
X147482379Y-123347451D01*
X147627329Y-123250598D01*
X147750598Y-123127329D01*
X147847451Y-122982379D01*
X147914164Y-122821319D01*
X147922689Y-122778460D01*
X148911009Y-121790142D01*
X148940001Y-121766349D01*
X148963795Y-121737356D01*
X148963799Y-121737352D01*
X149034973Y-121650625D01*
X149034974Y-121650624D01*
X149105546Y-121518595D01*
X149149003Y-121375334D01*
X149160000Y-121263681D01*
X149160000Y-121263672D01*
X149163676Y-121226349D01*
X149160000Y-121189026D01*
X149160000Y-112751211D01*
X150211004Y-111700208D01*
X150240001Y-111676411D01*
X150334974Y-111560686D01*
X150405546Y-111428657D01*
X150449003Y-111285396D01*
X150460000Y-111173743D01*
X150460000Y-111173735D01*
X150463676Y-111136410D01*
X150460000Y-111099085D01*
X150460000Y-110714801D01*
X152114803Y-109060000D01*
X152991680Y-109060000D01*
X153029002Y-109063676D01*
X153066324Y-109060000D01*
X153066335Y-109060000D01*
X153177988Y-109049003D01*
X153321249Y-109005546D01*
X153453278Y-108934974D01*
X153569003Y-108840001D01*
X153592805Y-108810998D01*
X154226005Y-108177799D01*
X154255002Y-108154002D01*
X154288677Y-108112969D01*
X154349975Y-108038278D01*
X154420547Y-107906248D01*
X154432183Y-107867887D01*
X154464004Y-107762987D01*
X154475001Y-107651334D01*
X154475001Y-107651325D01*
X154478677Y-107614002D01*
X154475001Y-107576679D01*
X154475001Y-101411323D01*
X154478677Y-101374000D01*
X154475001Y-101336677D01*
X154475001Y-101336668D01*
X154464004Y-101225015D01*
X154420547Y-101081754D01*
X154349975Y-100949725D01*
X154321477Y-100915000D01*
X154278800Y-100862997D01*
X154278796Y-100862993D01*
X154255002Y-100834000D01*
X154226008Y-100810206D01*
X153733112Y-100317311D01*
X153855990Y-100133411D01*
X153967932Y-99863158D01*
X154025000Y-99576260D01*
X154025000Y-99283740D01*
X153967932Y-98996842D01*
X153855990Y-98726589D01*
X153693475Y-98483368D01*
X153486632Y-98276525D01*
X153312240Y-98160000D01*
X153486632Y-98043475D01*
X153615000Y-97915107D01*
X153615000Y-98087165D01*
X153649010Y-98258145D01*
X153715723Y-98419205D01*
X153812576Y-98564155D01*
X153935845Y-98687424D01*
X154080795Y-98784277D01*
X154241855Y-98850990D01*
X154412835Y-98885000D01*
X154587165Y-98885000D01*
X154758145Y-98850990D01*
X154913232Y-98786751D01*
X154822068Y-99006842D01*
X154765000Y-99293740D01*
X154765000Y-99586260D01*
X154822068Y-99873158D01*
X154934010Y-100143411D01*
X155096525Y-100386632D01*
X155303368Y-100593475D01*
X155477760Y-100710000D01*
X155303368Y-100826525D01*
X155096525Y-101033368D01*
X154934010Y-101276589D01*
X154822068Y-101546842D01*
X154765000Y-101833740D01*
X154765000Y-102126260D01*
X154822068Y-102413158D01*
X154934010Y-102683411D01*
X155096525Y-102926632D01*
X155303368Y-103133475D01*
X155477760Y-103250000D01*
X155303368Y-103366525D01*
X155096525Y-103573368D01*
X154934010Y-103816589D01*
X154822068Y-104086842D01*
X154765000Y-104373740D01*
X154765000Y-104666260D01*
X154822068Y-104953158D01*
X154934010Y-105223411D01*
X155096525Y-105466632D01*
X155303368Y-105673475D01*
X155477760Y-105790000D01*
X155303368Y-105906525D01*
X155096525Y-106113368D01*
X154934010Y-106356589D01*
X154822068Y-106626842D01*
X154765000Y-106913740D01*
X154765000Y-107206260D01*
X154822068Y-107493158D01*
X154934010Y-107763411D01*
X155096525Y-108006632D01*
X155303368Y-108213475D01*
X155546589Y-108375990D01*
X155816842Y-108487932D01*
X156103740Y-108545000D01*
X156396260Y-108545000D01*
X156683158Y-108487932D01*
X156953411Y-108375990D01*
X157196632Y-108213475D01*
X157403475Y-108006632D01*
X157565990Y-107763411D01*
X157677932Y-107493158D01*
X157735000Y-107206260D01*
X157735000Y-106913740D01*
X157677932Y-106626842D01*
X157565990Y-106356589D01*
X157403475Y-106113368D01*
X157196632Y-105906525D01*
X157022240Y-105790000D01*
X157196632Y-105673475D01*
X157403475Y-105466632D01*
X157565990Y-105223411D01*
X157677932Y-104953158D01*
X157735000Y-104666260D01*
X157735000Y-104373740D01*
X157677932Y-104086842D01*
X157565990Y-103816589D01*
X157403475Y-103573368D01*
X157196632Y-103366525D01*
X157022240Y-103250000D01*
X157196632Y-103133475D01*
X157403475Y-102926632D01*
X157565990Y-102683411D01*
X157677932Y-102413158D01*
X157735000Y-102126260D01*
X157735000Y-101833740D01*
X157677932Y-101546842D01*
X157565990Y-101276589D01*
X157403475Y-101033368D01*
X157196632Y-100826525D01*
X157022240Y-100710000D01*
X157196632Y-100593475D01*
X157403475Y-100386632D01*
X157565990Y-100143411D01*
X157677932Y-99873158D01*
X157735000Y-99586260D01*
X157735000Y-99293740D01*
X157677932Y-99006842D01*
X157565990Y-98736589D01*
X157403475Y-98493368D01*
X157196632Y-98286525D01*
X157022240Y-98170000D01*
X157196632Y-98053475D01*
X157403475Y-97846632D01*
X157565990Y-97603411D01*
X157677932Y-97333158D01*
X157735000Y-97046260D01*
X157735000Y-96753740D01*
X157677932Y-96466842D01*
X157565990Y-96196589D01*
X157403475Y-95953368D01*
X157196632Y-95746525D01*
X157022240Y-95630000D01*
X157196632Y-95513475D01*
X157403475Y-95306632D01*
X157565990Y-95063411D01*
X157677932Y-94793158D01*
X157735000Y-94506260D01*
X157735000Y-94213740D01*
X157677932Y-93926842D01*
X157565990Y-93656589D01*
X157403475Y-93413368D01*
X157196632Y-93206525D01*
X157022240Y-93090000D01*
X157196632Y-92973475D01*
X157403475Y-92766632D01*
X157565990Y-92523411D01*
X157677932Y-92253158D01*
X157735000Y-91966260D01*
X157735000Y-91673740D01*
X157677932Y-91386842D01*
X157565990Y-91116589D01*
X157403475Y-90873368D01*
X157196632Y-90666525D01*
X157022240Y-90550000D01*
X157196632Y-90433475D01*
X157403475Y-90226632D01*
X157565990Y-89983411D01*
X157677932Y-89713158D01*
X157735000Y-89426260D01*
X157735000Y-89133740D01*
X157677932Y-88846842D01*
X157565990Y-88576589D01*
X157403475Y-88333368D01*
X157196632Y-88126525D01*
X157022240Y-88010000D01*
X157196632Y-87893475D01*
X157403475Y-87686632D01*
X157565990Y-87443411D01*
X157677932Y-87173158D01*
X157735000Y-86886260D01*
X157735000Y-86593740D01*
X157677932Y-86306842D01*
X157565990Y-86036589D01*
X157403475Y-85793368D01*
X157196632Y-85586525D01*
X157022240Y-85470000D01*
X157196632Y-85353475D01*
X157403475Y-85146632D01*
X157565990Y-84903411D01*
X157677932Y-84633158D01*
X157735000Y-84346260D01*
X157735000Y-84053740D01*
X157677932Y-83766842D01*
X157565990Y-83496589D01*
X157403475Y-83253368D01*
X157196632Y-83046525D01*
X157022240Y-82930000D01*
X157196632Y-82813475D01*
X157403475Y-82606632D01*
X157565990Y-82363411D01*
X157677932Y-82093158D01*
X157735000Y-81806260D01*
X157735000Y-81513740D01*
X157677932Y-81226842D01*
X157565990Y-80956589D01*
X157403475Y-80713368D01*
X157196632Y-80506525D01*
X157022240Y-80390000D01*
X157196632Y-80273475D01*
X157403475Y-80066632D01*
X157565990Y-79823411D01*
X157677932Y-79553158D01*
X157735000Y-79266260D01*
X157735000Y-78973740D01*
X157677932Y-78686842D01*
X157565990Y-78416589D01*
X157403475Y-78173368D01*
X157196632Y-77966525D01*
X157022240Y-77850000D01*
X157196632Y-77733475D01*
X157403475Y-77526632D01*
X157565990Y-77283411D01*
X157677932Y-77013158D01*
X157735000Y-76726260D01*
X157735000Y-76433740D01*
X157677932Y-76146842D01*
X157565990Y-75876589D01*
X157430295Y-75673508D01*
X157873000Y-75230803D01*
X157873000Y-120967252D01*
G04 #@! TA.AperFunction,Conductor*
D19*
G36*
X157873000Y-120967252D02*
G01*
X157768138Y-120810315D01*
X157289685Y-120331862D01*
X156727082Y-119955943D01*
X156101952Y-119697006D01*
X155438318Y-119565000D01*
X154761682Y-119565000D01*
X154098048Y-119697006D01*
X153472918Y-119955943D01*
X152910315Y-120331862D01*
X152431862Y-120810315D01*
X152055943Y-121372918D01*
X151797006Y-121998048D01*
X151665000Y-122661682D01*
X151665000Y-123338318D01*
X151797006Y-124001952D01*
X152055943Y-124627082D01*
X152431862Y-125189685D01*
X152910315Y-125668138D01*
X153472918Y-126044057D01*
X154098048Y-126302994D01*
X154761682Y-126435000D01*
X155438318Y-126435000D01*
X156101952Y-126302994D01*
X156727082Y-126044057D01*
X157289685Y-125668138D01*
X157768138Y-125189685D01*
X157873000Y-125032748D01*
X157873000Y-131873000D01*
X143362655Y-131873000D01*
X143535120Y-131700535D01*
X143688005Y-131471727D01*
X143793314Y-131217490D01*
X143847000Y-130947592D01*
X143847000Y-130672408D01*
X143816372Y-130518430D01*
X145511004Y-128823798D01*
X145540001Y-128800001D01*
X145634974Y-128684276D01*
X145705546Y-128552247D01*
X145749003Y-128408986D01*
X145760000Y-128297333D01*
X145760000Y-128297332D01*
X145763677Y-128260000D01*
X145760000Y-128222667D01*
X145760000Y-124038355D01*
X145914732Y-124007577D01*
X146075792Y-123940864D01*
X146220742Y-123844011D01*
X146344011Y-123720742D01*
X146440864Y-123575792D01*
X146507577Y-123414732D01*
X146516102Y-123371873D01*
X146581959Y-123306017D01*
X146643969Y-123347451D01*
X146805029Y-123414164D01*
X146976009Y-123448174D01*
X147150339Y-123448174D01*
X147321319Y-123414164D01*
X147482379Y-123347451D01*
X147627329Y-123250598D01*
X147750598Y-123127329D01*
X147847451Y-122982379D01*
X147914164Y-122821319D01*
X147922689Y-122778460D01*
X148911009Y-121790142D01*
X148940001Y-121766349D01*
X148963795Y-121737356D01*
X148963799Y-121737352D01*
X149034973Y-121650625D01*
X149034974Y-121650624D01*
X149105546Y-121518595D01*
X149149003Y-121375334D01*
X149160000Y-121263681D01*
X149160000Y-121263672D01*
X149163676Y-121226349D01*
X149160000Y-121189026D01*
X149160000Y-112751211D01*
X150211004Y-111700208D01*
X150240001Y-111676411D01*
X150334974Y-111560686D01*
X150405546Y-111428657D01*
X150449003Y-111285396D01*
X150460000Y-111173743D01*
X150460000Y-111173735D01*
X150463676Y-111136410D01*
X150460000Y-111099085D01*
X150460000Y-110714801D01*
X152114803Y-109060000D01*
X152991680Y-109060000D01*
X153029002Y-109063676D01*
X153066324Y-109060000D01*
X153066335Y-109060000D01*
X153177988Y-109049003D01*
X153321249Y-109005546D01*
X153453278Y-108934974D01*
X153569003Y-108840001D01*
X153592805Y-108810998D01*
X154226005Y-108177799D01*
X154255002Y-108154002D01*
X154288677Y-108112969D01*
X154349975Y-108038278D01*
X154420547Y-107906248D01*
X154432183Y-107867887D01*
X154464004Y-107762987D01*
X154475001Y-107651334D01*
X154475001Y-107651325D01*
X154478677Y-107614002D01*
X154475001Y-107576679D01*
X154475001Y-101411323D01*
X154478677Y-101374000D01*
X154475001Y-101336677D01*
X154475001Y-101336668D01*
X154464004Y-101225015D01*
X154420547Y-101081754D01*
X154349975Y-100949725D01*
X154321477Y-100915000D01*
X154278800Y-100862997D01*
X154278796Y-100862993D01*
X154255002Y-100834000D01*
X154226008Y-100810206D01*
X153733112Y-100317311D01*
X153855990Y-100133411D01*
X153967932Y-99863158D01*
X154025000Y-99576260D01*
X154025000Y-99283740D01*
X153967932Y-98996842D01*
X153855990Y-98726589D01*
X153693475Y-98483368D01*
X153486632Y-98276525D01*
X153312240Y-98160000D01*
X153486632Y-98043475D01*
X153615000Y-97915107D01*
X153615000Y-98087165D01*
X153649010Y-98258145D01*
X153715723Y-98419205D01*
X153812576Y-98564155D01*
X153935845Y-98687424D01*
X154080795Y-98784277D01*
X154241855Y-98850990D01*
X154412835Y-98885000D01*
X154587165Y-98885000D01*
X154758145Y-98850990D01*
X154913232Y-98786751D01*
X154822068Y-99006842D01*
X154765000Y-99293740D01*
X154765000Y-99586260D01*
X154822068Y-99873158D01*
X154934010Y-100143411D01*
X155096525Y-100386632D01*
X155303368Y-100593475D01*
X155477760Y-100710000D01*
X155303368Y-100826525D01*
X155096525Y-101033368D01*
X154934010Y-101276589D01*
X154822068Y-101546842D01*
X154765000Y-101833740D01*
X154765000Y-102126260D01*
X154822068Y-102413158D01*
X154934010Y-102683411D01*
X155096525Y-102926632D01*
X155303368Y-103133475D01*
X155477760Y-103250000D01*
X155303368Y-103366525D01*
X155096525Y-103573368D01*
X154934010Y-103816589D01*
X154822068Y-104086842D01*
X154765000Y-104373740D01*
X154765000Y-104666260D01*
X154822068Y-104953158D01*
X154934010Y-105223411D01*
X155096525Y-105466632D01*
X155303368Y-105673475D01*
X155477760Y-105790000D01*
X155303368Y-105906525D01*
X155096525Y-106113368D01*
X154934010Y-106356589D01*
X154822068Y-106626842D01*
X154765000Y-106913740D01*
X154765000Y-107206260D01*
X154822068Y-107493158D01*
X154934010Y-107763411D01*
X155096525Y-108006632D01*
X155303368Y-108213475D01*
X155546589Y-108375990D01*
X155816842Y-108487932D01*
X156103740Y-108545000D01*
X156396260Y-108545000D01*
X156683158Y-108487932D01*
X156953411Y-108375990D01*
X157196632Y-108213475D01*
X157403475Y-108006632D01*
X157565990Y-107763411D01*
X157677932Y-107493158D01*
X157735000Y-107206260D01*
X157735000Y-106913740D01*
X157677932Y-106626842D01*
X157565990Y-106356589D01*
X157403475Y-106113368D01*
X157196632Y-105906525D01*
X157022240Y-105790000D01*
X157196632Y-105673475D01*
X157403475Y-105466632D01*
X157565990Y-105223411D01*
X157677932Y-104953158D01*
X157735000Y-104666260D01*
X157735000Y-104373740D01*
X157677932Y-104086842D01*
X157565990Y-103816589D01*
X157403475Y-103573368D01*
X157196632Y-103366525D01*
X157022240Y-103250000D01*
X157196632Y-103133475D01*
X157403475Y-102926632D01*
X157565990Y-102683411D01*
X157677932Y-102413158D01*
X157735000Y-102126260D01*
X157735000Y-101833740D01*
X157677932Y-101546842D01*
X157565990Y-101276589D01*
X157403475Y-101033368D01*
X157196632Y-100826525D01*
X157022240Y-100710000D01*
X157196632Y-100593475D01*
X157403475Y-100386632D01*
X157565990Y-100143411D01*
X157677932Y-99873158D01*
X157735000Y-99586260D01*
X157735000Y-99293740D01*
X157677932Y-99006842D01*
X157565990Y-98736589D01*
X157403475Y-98493368D01*
X157196632Y-98286525D01*
X157022240Y-98170000D01*
X157196632Y-98053475D01*
X157403475Y-97846632D01*
X157565990Y-97603411D01*
X157677932Y-97333158D01*
X157735000Y-97046260D01*
X157735000Y-96753740D01*
X157677932Y-96466842D01*
X157565990Y-96196589D01*
X157403475Y-95953368D01*
X157196632Y-95746525D01*
X157022240Y-95630000D01*
X157196632Y-95513475D01*
X157403475Y-95306632D01*
X157565990Y-95063411D01*
X157677932Y-94793158D01*
X157735000Y-94506260D01*
X157735000Y-94213740D01*
X157677932Y-93926842D01*
X157565990Y-93656589D01*
X157403475Y-93413368D01*
X157196632Y-93206525D01*
X157022240Y-93090000D01*
X157196632Y-92973475D01*
X157403475Y-92766632D01*
X157565990Y-92523411D01*
X157677932Y-92253158D01*
X157735000Y-91966260D01*
X157735000Y-91673740D01*
X157677932Y-91386842D01*
X157565990Y-91116589D01*
X157403475Y-90873368D01*
X157196632Y-90666525D01*
X157022240Y-90550000D01*
X157196632Y-90433475D01*
X157403475Y-90226632D01*
X157565990Y-89983411D01*
X157677932Y-89713158D01*
X157735000Y-89426260D01*
X157735000Y-89133740D01*
X157677932Y-88846842D01*
X157565990Y-88576589D01*
X157403475Y-88333368D01*
X157196632Y-88126525D01*
X157022240Y-88010000D01*
X157196632Y-87893475D01*
X157403475Y-87686632D01*
X157565990Y-87443411D01*
X157677932Y-87173158D01*
X157735000Y-86886260D01*
X157735000Y-86593740D01*
X157677932Y-86306842D01*
X157565990Y-86036589D01*
X157403475Y-85793368D01*
X157196632Y-85586525D01*
X157022240Y-85470000D01*
X157196632Y-85353475D01*
X157403475Y-85146632D01*
X157565990Y-84903411D01*
X157677932Y-84633158D01*
X157735000Y-84346260D01*
X157735000Y-84053740D01*
X157677932Y-83766842D01*
X157565990Y-83496589D01*
X157403475Y-83253368D01*
X157196632Y-83046525D01*
X157022240Y-82930000D01*
X157196632Y-82813475D01*
X157403475Y-82606632D01*
X157565990Y-82363411D01*
X157677932Y-82093158D01*
X157735000Y-81806260D01*
X157735000Y-81513740D01*
X157677932Y-81226842D01*
X157565990Y-80956589D01*
X157403475Y-80713368D01*
X157196632Y-80506525D01*
X157022240Y-80390000D01*
X157196632Y-80273475D01*
X157403475Y-80066632D01*
X157565990Y-79823411D01*
X157677932Y-79553158D01*
X157735000Y-79266260D01*
X157735000Y-78973740D01*
X157677932Y-78686842D01*
X157565990Y-78416589D01*
X157403475Y-78173368D01*
X157196632Y-77966525D01*
X157022240Y-77850000D01*
X157196632Y-77733475D01*
X157403475Y-77526632D01*
X157565990Y-77283411D01*
X157677932Y-77013158D01*
X157735000Y-76726260D01*
X157735000Y-76433740D01*
X157677932Y-76146842D01*
X157565990Y-75876589D01*
X157430295Y-75673508D01*
X157873000Y-75230803D01*
X157873000Y-120967252D01*
G37*
G04 #@! TD.AperFunction*
D18*
X126278411Y-112514074D02*
X126360589Y-112667820D01*
X126471183Y-112802579D01*
X126504956Y-112830296D01*
X128511709Y-114837050D01*
X128538099Y-114869206D01*
X128511995Y-114908273D01*
X128406686Y-115162510D01*
X128353000Y-115432408D01*
X128353000Y-115707592D01*
X128406686Y-115977490D01*
X128511995Y-116231727D01*
X128664880Y-116460535D01*
X128859465Y-116655120D01*
X129088273Y-116808005D01*
X129165515Y-116840000D01*
X129088273Y-116871995D01*
X128859465Y-117024880D01*
X128664880Y-117219465D01*
X128511995Y-117448273D01*
X128406686Y-117702510D01*
X128353000Y-117972408D01*
X128353000Y-118247592D01*
X128406686Y-118517490D01*
X128511995Y-118771727D01*
X128664880Y-119000535D01*
X128859465Y-119195120D01*
X129088273Y-119348005D01*
X129165515Y-119380000D01*
X129088273Y-119411995D01*
X128859465Y-119564880D01*
X128664880Y-119759465D01*
X128511995Y-119988273D01*
X128406686Y-120242510D01*
X128353000Y-120512408D01*
X128353000Y-120787592D01*
X128406686Y-121057490D01*
X128511995Y-121311727D01*
X128664880Y-121540535D01*
X128859465Y-121735120D01*
X129088273Y-121888005D01*
X129165515Y-121920000D01*
X129088273Y-121951995D01*
X128859465Y-122104880D01*
X128664880Y-122299465D01*
X128511995Y-122528273D01*
X128406686Y-122782510D01*
X128353000Y-123052408D01*
X128353000Y-123327592D01*
X128406686Y-123597490D01*
X128511995Y-123851727D01*
X128664880Y-124080535D01*
X128859465Y-124275120D01*
X129088273Y-124428005D01*
X129165515Y-124460000D01*
X129088273Y-124491995D01*
X128859465Y-124644880D01*
X128664880Y-124839465D01*
X128511995Y-125068273D01*
X128406686Y-125322510D01*
X128353000Y-125592408D01*
X128353000Y-125867592D01*
X128406686Y-126137490D01*
X128511995Y-126391727D01*
X128664880Y-126620535D01*
X128859465Y-126815120D01*
X129088273Y-126968005D01*
X129342510Y-127073314D01*
X129612408Y-127127000D01*
X129887592Y-127127000D01*
X130157490Y-127073314D01*
X130411727Y-126968005D01*
X130640535Y-126815120D01*
X130835120Y-126620535D01*
X130988005Y-126391727D01*
X131093314Y-126137490D01*
X131147000Y-125867592D01*
X131147000Y-125592408D01*
X131093314Y-125322510D01*
X130988005Y-125068273D01*
X130835120Y-124839465D01*
X130640535Y-124644880D01*
X130411727Y-124491995D01*
X130334485Y-124460000D01*
X130411727Y-124428005D01*
X130640535Y-124275120D01*
X130835120Y-124080535D01*
X130988005Y-123851727D01*
X131093314Y-123597490D01*
X131147000Y-123327592D01*
X131147000Y-123052408D01*
X131093314Y-122782510D01*
X130988005Y-122528273D01*
X130835120Y-122299465D01*
X130640535Y-122104880D01*
X130411727Y-121951995D01*
X130334485Y-121920000D01*
X130411727Y-121888005D01*
X130640535Y-121735120D01*
X130835120Y-121540535D01*
X130988005Y-121311727D01*
X131093314Y-121057490D01*
X131147000Y-120787592D01*
X131147000Y-120512408D01*
X131093314Y-120242510D01*
X130988005Y-119988273D01*
X130835120Y-119759465D01*
X130640535Y-119564880D01*
X130411727Y-119411995D01*
X130334485Y-119380000D01*
X130411727Y-119348005D01*
X130640535Y-119195120D01*
X130835120Y-119000535D01*
X130988005Y-118771727D01*
X131093314Y-118517490D01*
X131147000Y-118247592D01*
X131147000Y-117972408D01*
X131093314Y-117702510D01*
X130988005Y-117448273D01*
X130835120Y-117219465D01*
X130640535Y-117024880D01*
X130411727Y-116871995D01*
X130334485Y-116840000D01*
X130411727Y-116808005D01*
X130640535Y-116655120D01*
X130835120Y-116460535D01*
X130974349Y-116252165D01*
X135273000Y-120550817D01*
X135272999Y-124035422D01*
X129894123Y-129414299D01*
X129887592Y-129413000D01*
X129612408Y-129413000D01*
X129605877Y-129414299D01*
X129194533Y-129002955D01*
X129166816Y-128969182D01*
X129032058Y-128858588D01*
X128878312Y-128776410D01*
X128711489Y-128725804D01*
X128581476Y-128712999D01*
X128581468Y-128712999D01*
X128537999Y-128708718D01*
X128494530Y-128712999D01*
X124678606Y-128712999D01*
X124693314Y-128677490D01*
X124747000Y-128407592D01*
X124747000Y-128132408D01*
X124693314Y-127862510D01*
X124588005Y-127608273D01*
X124435120Y-127379465D01*
X124240535Y-127184880D01*
X124011727Y-127031995D01*
X123934485Y-127000000D01*
X124011727Y-126968005D01*
X124240535Y-126815120D01*
X124435120Y-126620535D01*
X124588005Y-126391727D01*
X124693314Y-126137490D01*
X124747000Y-125867592D01*
X124747000Y-125592408D01*
X124693314Y-125322510D01*
X124588005Y-125068273D01*
X124435120Y-124839465D01*
X124240535Y-124644880D01*
X124011727Y-124491995D01*
X123934485Y-124460000D01*
X124011727Y-124428005D01*
X124240535Y-124275120D01*
X124435120Y-124080535D01*
X124588005Y-123851727D01*
X124693314Y-123597490D01*
X124747000Y-123327592D01*
X124747000Y-123052408D01*
X124693314Y-122782510D01*
X124588005Y-122528273D01*
X124435120Y-122299465D01*
X124240535Y-122104880D01*
X124011727Y-121951995D01*
X123934485Y-121920000D01*
X124011727Y-121888005D01*
X124240535Y-121735120D01*
X124435120Y-121540535D01*
X124588005Y-121311727D01*
X124693314Y-121057490D01*
X124747000Y-120787592D01*
X124747000Y-120512408D01*
X124693314Y-120242510D01*
X124588005Y-119988273D01*
X124435120Y-119759465D01*
X124240535Y-119564880D01*
X124011727Y-119411995D01*
X123934485Y-119380000D01*
X124011727Y-119348005D01*
X124240535Y-119195120D01*
X124435120Y-119000535D01*
X124588005Y-118771727D01*
X124693314Y-118517490D01*
X124747000Y-118247592D01*
X124747000Y-117972408D01*
X124693314Y-117702510D01*
X124588005Y-117448273D01*
X124462205Y-117260000D01*
X125011928Y-117260000D01*
X125011928Y-118960000D01*
X125024188Y-119084482D01*
X125060498Y-119204180D01*
X125119463Y-119314494D01*
X125198815Y-119411185D01*
X125295506Y-119490537D01*
X125405820Y-119549502D01*
X125478380Y-119571513D01*
X125346525Y-119703368D01*
X125184010Y-119946589D01*
X125072068Y-120216842D01*
X125015000Y-120503740D01*
X125015000Y-120796260D01*
X125072068Y-121083158D01*
X125184010Y-121353411D01*
X125346525Y-121596632D01*
X125553368Y-121803475D01*
X125727760Y-121920000D01*
X125553368Y-122036525D01*
X125346525Y-122243368D01*
X125184010Y-122486589D01*
X125072068Y-122756842D01*
X125015000Y-123043740D01*
X125015000Y-123336260D01*
X125072068Y-123623158D01*
X125184010Y-123893411D01*
X125346525Y-124136632D01*
X125553368Y-124343475D01*
X125727760Y-124460000D01*
X125553368Y-124576525D01*
X125346525Y-124783368D01*
X125184010Y-125026589D01*
X125072068Y-125296842D01*
X125015000Y-125583740D01*
X125015000Y-125876260D01*
X125072068Y-126163158D01*
X125184010Y-126433411D01*
X125346525Y-126676632D01*
X125553368Y-126883475D01*
X125796589Y-127045990D01*
X126066842Y-127157932D01*
X126353740Y-127215000D01*
X126646260Y-127215000D01*
X126933158Y-127157932D01*
X127203411Y-127045990D01*
X127446632Y-126883475D01*
X127653475Y-126676632D01*
X127815990Y-126433411D01*
X127927932Y-126163158D01*
X127985000Y-125876260D01*
X127985000Y-125583740D01*
X127927932Y-125296842D01*
X127815990Y-125026589D01*
X127653475Y-124783368D01*
X127446632Y-124576525D01*
X127272240Y-124460000D01*
X127446632Y-124343475D01*
X127653475Y-124136632D01*
X127815990Y-123893411D01*
X127927932Y-123623158D01*
X127985000Y-123336260D01*
X127985000Y-123043740D01*
X127927932Y-122756842D01*
X127815990Y-122486589D01*
X127653475Y-122243368D01*
X127446632Y-122036525D01*
X127272240Y-121920000D01*
X127446632Y-121803475D01*
X127653475Y-121596632D01*
X127815990Y-121353411D01*
X127927932Y-121083158D01*
X127985000Y-120796260D01*
X127985000Y-120503740D01*
X127927932Y-120216842D01*
X127815990Y-119946589D01*
X127653475Y-119703368D01*
X127521620Y-119571513D01*
X127594180Y-119549502D01*
X127704494Y-119490537D01*
X127801185Y-119411185D01*
X127880537Y-119314494D01*
X127939502Y-119204180D01*
X127975812Y-119084482D01*
X127988072Y-118960000D01*
X127988072Y-117260000D01*
X127975812Y-117135518D01*
X127939502Y-117015820D01*
X127880537Y-116905506D01*
X127801185Y-116808815D01*
X127704494Y-116729463D01*
X127594180Y-116670498D01*
X127474482Y-116634188D01*
X127350000Y-116621928D01*
X125650000Y-116621928D01*
X125525518Y-116634188D01*
X125405820Y-116670498D01*
X125295506Y-116729463D01*
X125198815Y-116808815D01*
X125119463Y-116905506D01*
X125060498Y-117015820D01*
X125024188Y-117135518D01*
X125011928Y-117260000D01*
X124462205Y-117260000D01*
X124435120Y-117219465D01*
X124412165Y-117196510D01*
X124435565Y-117167998D01*
X126011004Y-115592560D01*
X126040001Y-115568763D01*
X126134974Y-115453038D01*
X126205546Y-115321009D01*
X126249003Y-115177748D01*
X126260000Y-115066095D01*
X126260000Y-115066087D01*
X126263676Y-115028762D01*
X126260000Y-114991437D01*
X126260000Y-112453382D01*
X126278411Y-112514074D01*
G04 #@! TA.AperFunction,Conductor*
D19*
G36*
X126278411Y-112514074D02*
G01*
X126360589Y-112667820D01*
X126471183Y-112802579D01*
X126504956Y-112830296D01*
X128511709Y-114837050D01*
X128538099Y-114869206D01*
X128511995Y-114908273D01*
X128406686Y-115162510D01*
X128353000Y-115432408D01*
X128353000Y-115707592D01*
X128406686Y-115977490D01*
X128511995Y-116231727D01*
X128664880Y-116460535D01*
X128859465Y-116655120D01*
X129088273Y-116808005D01*
X129165515Y-116840000D01*
X129088273Y-116871995D01*
X128859465Y-117024880D01*
X128664880Y-117219465D01*
X128511995Y-117448273D01*
X128406686Y-117702510D01*
X128353000Y-117972408D01*
X128353000Y-118247592D01*
X128406686Y-118517490D01*
X128511995Y-118771727D01*
X128664880Y-119000535D01*
X128859465Y-119195120D01*
X129088273Y-119348005D01*
X129165515Y-119380000D01*
X129088273Y-119411995D01*
X128859465Y-119564880D01*
X128664880Y-119759465D01*
X128511995Y-119988273D01*
X128406686Y-120242510D01*
X128353000Y-120512408D01*
X128353000Y-120787592D01*
X128406686Y-121057490D01*
X128511995Y-121311727D01*
X128664880Y-121540535D01*
X128859465Y-121735120D01*
X129088273Y-121888005D01*
X129165515Y-121920000D01*
X129088273Y-121951995D01*
X128859465Y-122104880D01*
X128664880Y-122299465D01*
X128511995Y-122528273D01*
X128406686Y-122782510D01*
X128353000Y-123052408D01*
X128353000Y-123327592D01*
X128406686Y-123597490D01*
X128511995Y-123851727D01*
X128664880Y-124080535D01*
X128859465Y-124275120D01*
X129088273Y-124428005D01*
X129165515Y-124460000D01*
X129088273Y-124491995D01*
X128859465Y-124644880D01*
X128664880Y-124839465D01*
X128511995Y-125068273D01*
X128406686Y-125322510D01*
X128353000Y-125592408D01*
X128353000Y-125867592D01*
X128406686Y-126137490D01*
X128511995Y-126391727D01*
X128664880Y-126620535D01*
X128859465Y-126815120D01*
X129088273Y-126968005D01*
X129342510Y-127073314D01*
X129612408Y-127127000D01*
X129887592Y-127127000D01*
X130157490Y-127073314D01*
X130411727Y-126968005D01*
X130640535Y-126815120D01*
X130835120Y-126620535D01*
X130988005Y-126391727D01*
X131093314Y-126137490D01*
X131147000Y-125867592D01*
X131147000Y-125592408D01*
X131093314Y-125322510D01*
X130988005Y-125068273D01*
X130835120Y-124839465D01*
X130640535Y-124644880D01*
X130411727Y-124491995D01*
X130334485Y-124460000D01*
X130411727Y-124428005D01*
X130640535Y-124275120D01*
X130835120Y-124080535D01*
X130988005Y-123851727D01*
X131093314Y-123597490D01*
X131147000Y-123327592D01*
X131147000Y-123052408D01*
X131093314Y-122782510D01*
X130988005Y-122528273D01*
X130835120Y-122299465D01*
X130640535Y-122104880D01*
X130411727Y-121951995D01*
X130334485Y-121920000D01*
X130411727Y-121888005D01*
X130640535Y-121735120D01*
X130835120Y-121540535D01*
X130988005Y-121311727D01*
X131093314Y-121057490D01*
X131147000Y-120787592D01*
X131147000Y-120512408D01*
X131093314Y-120242510D01*
X130988005Y-119988273D01*
X130835120Y-119759465D01*
X130640535Y-119564880D01*
X130411727Y-119411995D01*
X130334485Y-119380000D01*
X130411727Y-119348005D01*
X130640535Y-119195120D01*
X130835120Y-119000535D01*
X130988005Y-118771727D01*
X131093314Y-118517490D01*
X131147000Y-118247592D01*
X131147000Y-117972408D01*
X131093314Y-117702510D01*
X130988005Y-117448273D01*
X130835120Y-117219465D01*
X130640535Y-117024880D01*
X130411727Y-116871995D01*
X130334485Y-116840000D01*
X130411727Y-116808005D01*
X130640535Y-116655120D01*
X130835120Y-116460535D01*
X130974349Y-116252165D01*
X135273000Y-120550817D01*
X135272999Y-124035422D01*
X129894123Y-129414299D01*
X129887592Y-129413000D01*
X129612408Y-129413000D01*
X129605877Y-129414299D01*
X129194533Y-129002955D01*
X129166816Y-128969182D01*
X129032058Y-128858588D01*
X128878312Y-128776410D01*
X128711489Y-128725804D01*
X128581476Y-128712999D01*
X128581468Y-128712999D01*
X128537999Y-128708718D01*
X128494530Y-128712999D01*
X124678606Y-128712999D01*
X124693314Y-128677490D01*
X124747000Y-128407592D01*
X124747000Y-128132408D01*
X124693314Y-127862510D01*
X124588005Y-127608273D01*
X124435120Y-127379465D01*
X124240535Y-127184880D01*
X124011727Y-127031995D01*
X123934485Y-127000000D01*
X124011727Y-126968005D01*
X124240535Y-126815120D01*
X124435120Y-126620535D01*
X124588005Y-126391727D01*
X124693314Y-126137490D01*
X124747000Y-125867592D01*
X124747000Y-125592408D01*
X124693314Y-125322510D01*
X124588005Y-125068273D01*
X124435120Y-124839465D01*
X124240535Y-124644880D01*
X124011727Y-124491995D01*
X123934485Y-124460000D01*
X124011727Y-124428005D01*
X124240535Y-124275120D01*
X124435120Y-124080535D01*
X124588005Y-123851727D01*
X124693314Y-123597490D01*
X124747000Y-123327592D01*
X124747000Y-123052408D01*
X124693314Y-122782510D01*
X124588005Y-122528273D01*
X124435120Y-122299465D01*
X124240535Y-122104880D01*
X124011727Y-121951995D01*
X123934485Y-121920000D01*
X124011727Y-121888005D01*
X124240535Y-121735120D01*
X124435120Y-121540535D01*
X124588005Y-121311727D01*
X124693314Y-121057490D01*
X124747000Y-120787592D01*
X124747000Y-120512408D01*
X124693314Y-120242510D01*
X124588005Y-119988273D01*
X124435120Y-119759465D01*
X124240535Y-119564880D01*
X124011727Y-119411995D01*
X123934485Y-119380000D01*
X124011727Y-119348005D01*
X124240535Y-119195120D01*
X124435120Y-119000535D01*
X124588005Y-118771727D01*
X124693314Y-118517490D01*
X124747000Y-118247592D01*
X124747000Y-117972408D01*
X124693314Y-117702510D01*
X124588005Y-117448273D01*
X124462205Y-117260000D01*
X125011928Y-117260000D01*
X125011928Y-118960000D01*
X125024188Y-119084482D01*
X125060498Y-119204180D01*
X125119463Y-119314494D01*
X125198815Y-119411185D01*
X125295506Y-119490537D01*
X125405820Y-119549502D01*
X125478380Y-119571513D01*
X125346525Y-119703368D01*
X125184010Y-119946589D01*
X125072068Y-120216842D01*
X125015000Y-120503740D01*
X125015000Y-120796260D01*
X125072068Y-121083158D01*
X125184010Y-121353411D01*
X125346525Y-121596632D01*
X125553368Y-121803475D01*
X125727760Y-121920000D01*
X125553368Y-122036525D01*
X125346525Y-122243368D01*
X125184010Y-122486589D01*
X125072068Y-122756842D01*
X125015000Y-123043740D01*
X125015000Y-123336260D01*
X125072068Y-123623158D01*
X125184010Y-123893411D01*
X125346525Y-124136632D01*
X125553368Y-124343475D01*
X125727760Y-124460000D01*
X125553368Y-124576525D01*
X125346525Y-124783368D01*
X125184010Y-125026589D01*
X125072068Y-125296842D01*
X125015000Y-125583740D01*
X125015000Y-125876260D01*
X125072068Y-126163158D01*
X125184010Y-126433411D01*
X125346525Y-126676632D01*
X125553368Y-126883475D01*
X125796589Y-127045990D01*
X126066842Y-127157932D01*
X126353740Y-127215000D01*
X126646260Y-127215000D01*
X126933158Y-127157932D01*
X127203411Y-127045990D01*
X127446632Y-126883475D01*
X127653475Y-126676632D01*
X127815990Y-126433411D01*
X127927932Y-126163158D01*
X127985000Y-125876260D01*
X127985000Y-125583740D01*
X127927932Y-125296842D01*
X127815990Y-125026589D01*
X127653475Y-124783368D01*
X127446632Y-124576525D01*
X127272240Y-124460000D01*
X127446632Y-124343475D01*
X127653475Y-124136632D01*
X127815990Y-123893411D01*
X127927932Y-123623158D01*
X127985000Y-123336260D01*
X127985000Y-123043740D01*
X127927932Y-122756842D01*
X127815990Y-122486589D01*
X127653475Y-122243368D01*
X127446632Y-122036525D01*
X127272240Y-121920000D01*
X127446632Y-121803475D01*
X127653475Y-121596632D01*
X127815990Y-121353411D01*
X127927932Y-121083158D01*
X127985000Y-120796260D01*
X127985000Y-120503740D01*
X127927932Y-120216842D01*
X127815990Y-119946589D01*
X127653475Y-119703368D01*
X127521620Y-119571513D01*
X127594180Y-119549502D01*
X127704494Y-119490537D01*
X127801185Y-119411185D01*
X127880537Y-119314494D01*
X127939502Y-119204180D01*
X127975812Y-119084482D01*
X127988072Y-118960000D01*
X127988072Y-117260000D01*
X127975812Y-117135518D01*
X127939502Y-117015820D01*
X127880537Y-116905506D01*
X127801185Y-116808815D01*
X127704494Y-116729463D01*
X127594180Y-116670498D01*
X127474482Y-116634188D01*
X127350000Y-116621928D01*
X125650000Y-116621928D01*
X125525518Y-116634188D01*
X125405820Y-116670498D01*
X125295506Y-116729463D01*
X125198815Y-116808815D01*
X125119463Y-116905506D01*
X125060498Y-117015820D01*
X125024188Y-117135518D01*
X125011928Y-117260000D01*
X124462205Y-117260000D01*
X124435120Y-117219465D01*
X124412165Y-117196510D01*
X124435565Y-117167998D01*
X126011004Y-115592560D01*
X126040001Y-115568763D01*
X126134974Y-115453038D01*
X126205546Y-115321009D01*
X126249003Y-115177748D01*
X126260000Y-115066095D01*
X126260000Y-115066087D01*
X126263676Y-115028762D01*
X126260000Y-114991437D01*
X126260000Y-112453382D01*
X126278411Y-112514074D01*
G37*
G04 #@! TD.AperFunction*
D18*
X131664001Y-48402195D02*
X131634998Y-48425998D01*
X131579870Y-48493173D01*
X131540025Y-48541723D01*
X131469454Y-48673752D01*
X131469453Y-48673753D01*
X131425996Y-48817014D01*
X131414999Y-48928667D01*
X131414999Y-48928677D01*
X131411323Y-48965999D01*
X131414999Y-49003322D01*
X131415000Y-51637667D01*
X131411323Y-51674999D01*
X131415000Y-51712332D01*
X131425997Y-51823985D01*
X131434196Y-51851014D01*
X131469453Y-51967245D01*
X131540025Y-52099275D01*
X131593964Y-52164999D01*
X131634999Y-52215000D01*
X131641487Y-52220325D01*
X131649010Y-52258145D01*
X131715723Y-52419205D01*
X131812576Y-52564155D01*
X131935845Y-52687424D01*
X132080795Y-52784277D01*
X132241855Y-52850990D01*
X132412835Y-52885000D01*
X132465001Y-52885000D01*
X132465000Y-53415344D01*
X132403368Y-53456525D01*
X132196525Y-53663368D01*
X132034010Y-53906589D01*
X131922068Y-54176842D01*
X131865000Y-54463740D01*
X131865000Y-54756260D01*
X131922068Y-55043158D01*
X132034010Y-55313411D01*
X132196525Y-55556632D01*
X132403368Y-55763475D01*
X132646589Y-55925990D01*
X132916842Y-56037932D01*
X133203740Y-56095000D01*
X133496260Y-56095000D01*
X133783158Y-56037932D01*
X134053411Y-55925990D01*
X134296632Y-55763475D01*
X134503475Y-55556632D01*
X134620000Y-55382240D01*
X134736525Y-55556632D01*
X134943368Y-55763475D01*
X135186589Y-55925990D01*
X135456842Y-56037932D01*
X135743740Y-56095000D01*
X136036260Y-56095000D01*
X136323158Y-56037932D01*
X136593411Y-55925990D01*
X136836632Y-55763475D01*
X137043475Y-55556632D01*
X137205990Y-55313411D01*
X137317932Y-55043158D01*
X137375000Y-54756260D01*
X137375000Y-54463740D01*
X137317932Y-54176842D01*
X137205990Y-53906589D01*
X137043475Y-53663368D01*
X136836632Y-53456525D01*
X136593411Y-53294010D01*
X136323158Y-53182068D01*
X136036260Y-53125000D01*
X135743740Y-53125000D01*
X135456842Y-53182068D01*
X135186589Y-53294010D01*
X134943368Y-53456525D01*
X134736525Y-53663368D01*
X134620000Y-53837760D01*
X134503475Y-53663368D01*
X134296632Y-53456525D01*
X134235000Y-53415344D01*
X134235000Y-52735000D01*
X141146531Y-52735000D01*
X141190000Y-52739281D01*
X141233469Y-52735000D01*
X141233477Y-52735000D01*
X141363490Y-52722195D01*
X141530313Y-52671589D01*
X141684059Y-52589411D01*
X141818817Y-52478817D01*
X141846534Y-52445044D01*
X143291040Y-51000539D01*
X143363740Y-51015000D01*
X143656260Y-51015000D01*
X143943158Y-50957932D01*
X144213411Y-50845990D01*
X144456632Y-50683475D01*
X144663475Y-50476632D01*
X144825990Y-50233411D01*
X144937932Y-49963158D01*
X144995000Y-49676260D01*
X144995000Y-49383740D01*
X144941544Y-49114999D01*
X147673422Y-49114999D01*
X143648961Y-53139461D01*
X143576260Y-53125000D01*
X143283740Y-53125000D01*
X142996842Y-53182068D01*
X142726589Y-53294010D01*
X142483368Y-53456525D01*
X142276525Y-53663368D01*
X142114010Y-53906589D01*
X142002068Y-54176842D01*
X141945000Y-54463740D01*
X141945000Y-54756260D01*
X142002068Y-55043158D01*
X142114010Y-55313411D01*
X142276525Y-55556632D01*
X142483368Y-55763475D01*
X142726589Y-55925990D01*
X142996842Y-56037932D01*
X143283740Y-56095000D01*
X143576260Y-56095000D01*
X143863158Y-56037932D01*
X144133411Y-55925990D01*
X144376632Y-55763475D01*
X144583475Y-55556632D01*
X144700000Y-55382240D01*
X144816525Y-55556632D01*
X145023368Y-55763475D01*
X145266589Y-55925990D01*
X145536842Y-56037932D01*
X145823740Y-56095000D01*
X146116260Y-56095000D01*
X146403158Y-56037932D01*
X146673411Y-55925990D01*
X146916632Y-55763475D01*
X147123475Y-55556632D01*
X147240000Y-55382240D01*
X147356525Y-55556632D01*
X147563368Y-55763475D01*
X147806589Y-55925990D01*
X148076842Y-56037932D01*
X148363740Y-56095000D01*
X148656260Y-56095000D01*
X148943158Y-56037932D01*
X149213411Y-55925990D01*
X149456632Y-55763475D01*
X149663475Y-55556632D01*
X149780000Y-55382240D01*
X149896525Y-55556632D01*
X150103368Y-55763475D01*
X150346589Y-55925990D01*
X150415002Y-55954327D01*
X150415002Y-57301928D01*
X149150000Y-57301928D01*
X149025518Y-57314188D01*
X148905820Y-57350498D01*
X148795506Y-57409463D01*
X148698815Y-57488815D01*
X148619463Y-57585506D01*
X148560498Y-57695820D01*
X148524188Y-57815518D01*
X148512237Y-57936864D01*
X148393964Y-57900987D01*
X148282311Y-57889990D01*
X148282300Y-57889990D01*
X148244978Y-57886314D01*
X148207656Y-57889990D01*
X134792344Y-57889990D01*
X134755021Y-57886314D01*
X134717698Y-57889990D01*
X134717689Y-57889990D01*
X134606036Y-57900987D01*
X134462775Y-57944444D01*
X134330746Y-58015016D01*
X134330744Y-58015017D01*
X134330745Y-58015017D01*
X134244018Y-58086191D01*
X134244014Y-58086195D01*
X134215021Y-58109989D01*
X134191227Y-58138982D01*
X133638987Y-58691224D01*
X133609990Y-58715021D01*
X133586192Y-58744019D01*
X133586191Y-58744020D01*
X133515016Y-58830746D01*
X133444444Y-58962776D01*
X133423582Y-59031551D01*
X133400988Y-59106036D01*
X133397031Y-59146208D01*
X133386314Y-59255022D01*
X133389991Y-59292355D01*
X133389990Y-89907656D01*
X133386314Y-89944978D01*
X133389990Y-89982300D01*
X133389990Y-89982310D01*
X133400987Y-90093963D01*
X133423582Y-90168450D01*
X133444444Y-90237224D01*
X133515016Y-90369254D01*
X133550680Y-90412710D01*
X133609989Y-90484979D01*
X133638992Y-90508781D01*
X135081217Y-91951008D01*
X135105011Y-91980001D01*
X135134004Y-92003795D01*
X135134008Y-92003799D01*
X135204697Y-92061811D01*
X135220736Y-92074974D01*
X135352765Y-92145546D01*
X135496026Y-92189003D01*
X135607679Y-92200000D01*
X135607688Y-92200000D01*
X135645011Y-92203676D01*
X135682334Y-92200000D01*
X141277659Y-92200000D01*
X141364880Y-92330535D01*
X141559465Y-92525120D01*
X141788273Y-92678005D01*
X141865515Y-92710000D01*
X141788273Y-92741995D01*
X141559465Y-92894880D01*
X141364880Y-93089465D01*
X141211995Y-93318273D01*
X141106686Y-93572510D01*
X141053000Y-93842408D01*
X141053000Y-94117592D01*
X141106686Y-94387490D01*
X141211995Y-94641727D01*
X141364880Y-94870535D01*
X141559465Y-95065120D01*
X141788273Y-95218005D01*
X141865515Y-95250000D01*
X141788273Y-95281995D01*
X141559465Y-95434880D01*
X141364880Y-95629465D01*
X141211995Y-95858273D01*
X141106686Y-96112510D01*
X141053000Y-96382408D01*
X141053000Y-96657592D01*
X141106686Y-96927490D01*
X141211995Y-97181727D01*
X141364880Y-97410535D01*
X141559465Y-97605120D01*
X141788273Y-97758005D01*
X141865515Y-97790000D01*
X141788273Y-97821995D01*
X141559465Y-97974880D01*
X141364880Y-98169465D01*
X141211995Y-98398273D01*
X141106686Y-98652510D01*
X141053000Y-98922408D01*
X141053000Y-99197592D01*
X141106686Y-99467490D01*
X141211995Y-99721727D01*
X141364880Y-99950535D01*
X141559465Y-100145120D01*
X141788273Y-100298005D01*
X141865515Y-100330000D01*
X141788273Y-100361995D01*
X141559465Y-100514880D01*
X141364880Y-100709465D01*
X141211995Y-100938273D01*
X141106686Y-101192510D01*
X141053000Y-101462408D01*
X141053000Y-101737592D01*
X141106686Y-102007490D01*
X141211995Y-102261727D01*
X141364880Y-102490535D01*
X141559465Y-102685120D01*
X141788273Y-102838005D01*
X141865515Y-102870000D01*
X141788273Y-102901995D01*
X141559465Y-103054880D01*
X141364880Y-103249465D01*
X141211995Y-103478273D01*
X141106686Y-103732510D01*
X141053000Y-104002408D01*
X141053000Y-104277592D01*
X141106686Y-104547490D01*
X141211995Y-104801727D01*
X141364880Y-105030535D01*
X141559465Y-105225120D01*
X141788273Y-105378005D01*
X141865515Y-105410000D01*
X141788273Y-105441995D01*
X141559465Y-105594880D01*
X141364880Y-105789465D01*
X141211995Y-106018273D01*
X141106686Y-106272510D01*
X141053000Y-106542408D01*
X141053000Y-106817592D01*
X141106686Y-107087490D01*
X141211995Y-107341727D01*
X141364880Y-107570535D01*
X141559465Y-107765120D01*
X141788273Y-107918005D01*
X141865515Y-107950000D01*
X141788273Y-107981995D01*
X141559465Y-108134880D01*
X141364880Y-108329465D01*
X141211995Y-108558273D01*
X141106686Y-108812510D01*
X141053000Y-109082408D01*
X141053000Y-109357592D01*
X141106686Y-109627490D01*
X141211995Y-109881727D01*
X141364880Y-110110535D01*
X141559465Y-110305120D01*
X141788273Y-110458005D01*
X142042510Y-110563314D01*
X142312408Y-110617000D01*
X142587592Y-110617000D01*
X142857490Y-110563314D01*
X143111727Y-110458005D01*
X143340535Y-110305120D01*
X143535120Y-110110535D01*
X143688005Y-109881727D01*
X143793314Y-109627490D01*
X143847000Y-109357592D01*
X143847000Y-109082408D01*
X143793314Y-108812510D01*
X143688005Y-108558273D01*
X143535120Y-108329465D01*
X143340535Y-108134880D01*
X143111727Y-107981995D01*
X143034485Y-107950000D01*
X143111727Y-107918005D01*
X143340535Y-107765120D01*
X143535120Y-107570535D01*
X143688005Y-107341727D01*
X143793314Y-107087490D01*
X143847000Y-106817592D01*
X143847000Y-106542408D01*
X143793314Y-106272510D01*
X143688005Y-106018273D01*
X143535120Y-105789465D01*
X143340535Y-105594880D01*
X143111727Y-105441995D01*
X143034485Y-105410000D01*
X143111727Y-105378005D01*
X143340535Y-105225120D01*
X143535120Y-105030535D01*
X143688005Y-104801727D01*
X143793314Y-104547490D01*
X143847000Y-104277592D01*
X143847000Y-104002408D01*
X143793314Y-103732510D01*
X143688005Y-103478273D01*
X143535120Y-103249465D01*
X143340535Y-103054880D01*
X143111727Y-102901995D01*
X143034485Y-102870000D01*
X143111727Y-102838005D01*
X143340535Y-102685120D01*
X143535120Y-102490535D01*
X143688005Y-102261727D01*
X143793314Y-102007490D01*
X143847000Y-101737592D01*
X143847000Y-101462408D01*
X143793314Y-101192510D01*
X143688005Y-100938273D01*
X143535120Y-100709465D01*
X143340535Y-100514880D01*
X143111727Y-100361995D01*
X143034485Y-100330000D01*
X143111727Y-100298005D01*
X143340535Y-100145120D01*
X143535120Y-99950535D01*
X143592548Y-99864588D01*
X143706036Y-99899013D01*
X143817689Y-99910010D01*
X143817698Y-99910010D01*
X143855021Y-99913686D01*
X143892344Y-99910010D01*
X148207656Y-99910010D01*
X148244978Y-99913686D01*
X148282300Y-99910010D01*
X148282311Y-99910010D01*
X148393964Y-99899013D01*
X148483279Y-99871920D01*
X148314002Y-100041197D01*
X148284998Y-100065000D01*
X148229870Y-100132175D01*
X148190025Y-100180725D01*
X148149423Y-100256686D01*
X148119453Y-100312755D01*
X148075996Y-100456016D01*
X148064999Y-100567669D01*
X148064999Y-100567679D01*
X148061323Y-100605001D01*
X148062308Y-100615000D01*
X147912835Y-100615000D01*
X147741855Y-100649010D01*
X147580795Y-100715723D01*
X147435845Y-100812576D01*
X147312576Y-100935845D01*
X147215723Y-101080795D01*
X147149010Y-101241855D01*
X147140485Y-101284714D01*
X146963967Y-101461232D01*
X146934969Y-101485030D01*
X146911171Y-101514028D01*
X146911170Y-101514029D01*
X146839995Y-101600755D01*
X146769423Y-101732785D01*
X146725967Y-101876046D01*
X146711293Y-102025031D01*
X146714970Y-102062363D01*
X146714969Y-109210229D01*
X143655199Y-112270000D01*
X143622341Y-112270000D01*
X143535120Y-112139465D01*
X143340535Y-111944880D01*
X143111727Y-111791995D01*
X142857490Y-111686686D01*
X142587592Y-111633000D01*
X142312408Y-111633000D01*
X142042510Y-111686686D01*
X141788273Y-111791995D01*
X141559465Y-111944880D01*
X141364880Y-112139465D01*
X141211995Y-112368273D01*
X141106686Y-112622510D01*
X141053000Y-112892408D01*
X141053000Y-113167592D01*
X141106686Y-113437490D01*
X141211995Y-113691727D01*
X141364880Y-113920535D01*
X141559465Y-114115120D01*
X141788273Y-114268005D01*
X141865515Y-114300000D01*
X141788273Y-114331995D01*
X141559465Y-114484880D01*
X141364880Y-114679465D01*
X141211995Y-114908273D01*
X141106686Y-115162510D01*
X141053000Y-115432408D01*
X141053000Y-115707592D01*
X141106686Y-115977490D01*
X141121394Y-116012999D01*
X138564578Y-116012999D01*
X132388535Y-109836957D01*
X132360818Y-109803184D01*
X132226060Y-109692590D01*
X132072314Y-109610412D01*
X131905491Y-109559806D01*
X131775478Y-109547001D01*
X131775470Y-109547001D01*
X131732001Y-109542720D01*
X131688532Y-109547001D01*
X131328580Y-109547001D01*
X131145701Y-109364122D01*
X131147000Y-109357592D01*
X131147000Y-109082408D01*
X131093314Y-108812510D01*
X130988005Y-108558273D01*
X130835120Y-108329465D01*
X130640535Y-108134880D01*
X130411727Y-107981995D01*
X130157490Y-107876686D01*
X129887592Y-107823000D01*
X129612408Y-107823000D01*
X129342510Y-107876686D01*
X129088273Y-107981995D01*
X128859465Y-108134880D01*
X128664880Y-108329465D01*
X128511995Y-108558273D01*
X128406686Y-108812510D01*
X128353000Y-109082408D01*
X128353000Y-109357592D01*
X128406686Y-109627490D01*
X128511995Y-109881727D01*
X128664880Y-110110535D01*
X128859465Y-110305120D01*
X129088273Y-110458005D01*
X129342510Y-110563314D01*
X129612408Y-110617000D01*
X129887592Y-110617000D01*
X129894122Y-110615701D01*
X130077001Y-110798580D01*
X130077002Y-111523546D01*
X130044796Y-111571745D01*
X129966775Y-111760103D01*
X129927001Y-111960062D01*
X129927001Y-112163940D01*
X129966775Y-112363899D01*
X130044796Y-112552257D01*
X130158064Y-112721775D01*
X130302227Y-112865938D01*
X130471745Y-112979206D01*
X130660103Y-113057227D01*
X130716958Y-113068536D01*
X137681469Y-120033048D01*
X137709182Y-120066816D01*
X137742950Y-120094529D01*
X137742952Y-120094531D01*
X137784730Y-120128817D01*
X137843940Y-120177410D01*
X137997686Y-120259588D01*
X138164509Y-120310194D01*
X138294522Y-120322999D01*
X138294532Y-120322999D01*
X138337998Y-120327280D01*
X138381464Y-120322999D01*
X141090676Y-120322999D01*
X141053000Y-120512408D01*
X141053000Y-120787592D01*
X141106686Y-121057490D01*
X141211995Y-121311727D01*
X141364880Y-121540535D01*
X141559465Y-121735120D01*
X141788273Y-121888005D01*
X141865515Y-121920000D01*
X141788273Y-121951995D01*
X141559465Y-122104880D01*
X141364880Y-122299465D01*
X141211995Y-122528273D01*
X141106686Y-122782510D01*
X141053000Y-123052408D01*
X141053000Y-123327592D01*
X141090676Y-123517001D01*
X137042999Y-123517001D01*
X137042999Y-120227706D01*
X137047280Y-120184237D01*
X137042999Y-120140768D01*
X137042999Y-120140761D01*
X137030194Y-120010748D01*
X137025132Y-119994059D01*
X136997371Y-119902546D01*
X136979588Y-119843924D01*
X136897410Y-119690178D01*
X136883714Y-119673490D01*
X136814531Y-119589190D01*
X136814529Y-119589188D01*
X136786816Y-119555420D01*
X136753048Y-119527707D01*
X130872297Y-113646957D01*
X130844580Y-113613184D01*
X130709822Y-113502590D01*
X130556076Y-113420412D01*
X130389253Y-113369806D01*
X130259240Y-113357001D01*
X130259232Y-113357001D01*
X130215763Y-113352720D01*
X130172294Y-113357001D01*
X129534818Y-113357001D01*
X127985000Y-111807184D01*
X127985000Y-107238454D01*
X128017205Y-107190256D01*
X128095226Y-107001898D01*
X128135000Y-106801939D01*
X128135000Y-106598061D01*
X128095226Y-106398102D01*
X128017205Y-106209744D01*
X127903937Y-106040226D01*
X127759774Y-105896063D01*
X127590256Y-105782795D01*
X127401898Y-105704774D01*
X127201939Y-105665000D01*
X126998061Y-105665000D01*
X126798102Y-105704774D01*
X126609744Y-105782795D01*
X126440226Y-105896063D01*
X126296063Y-106040226D01*
X126260000Y-106094198D01*
X126260000Y-105606354D01*
X126353740Y-105625000D01*
X126646260Y-105625000D01*
X126933158Y-105567932D01*
X127203411Y-105455990D01*
X127446632Y-105293475D01*
X127653475Y-105086632D01*
X127815990Y-104843411D01*
X127927932Y-104573158D01*
X127985000Y-104286260D01*
X127985000Y-103993740D01*
X127927932Y-103706842D01*
X127815990Y-103436589D01*
X127653475Y-103193368D01*
X127446632Y-102986525D01*
X127272240Y-102870000D01*
X127446632Y-102753475D01*
X127653475Y-102546632D01*
X127815990Y-102303411D01*
X127927932Y-102033158D01*
X127985000Y-101746260D01*
X127985000Y-101453740D01*
X127927932Y-101166842D01*
X127815990Y-100896589D01*
X127653475Y-100653368D01*
X127446632Y-100446525D01*
X127272240Y-100330000D01*
X127446632Y-100213475D01*
X127653475Y-100006632D01*
X127815990Y-99763411D01*
X127927932Y-99493158D01*
X127985000Y-99206260D01*
X127985000Y-98913740D01*
X127927932Y-98626842D01*
X127815990Y-98356589D01*
X127653475Y-98113368D01*
X127521620Y-97981513D01*
X127594180Y-97959502D01*
X127704494Y-97900537D01*
X127801185Y-97821185D01*
X127880537Y-97724494D01*
X127939502Y-97614180D01*
X127975812Y-97494482D01*
X127988072Y-97370000D01*
X127988072Y-95670000D01*
X127975812Y-95545518D01*
X127939502Y-95425820D01*
X127880537Y-95315506D01*
X127801185Y-95218815D01*
X127704494Y-95139463D01*
X127594180Y-95080498D01*
X127474482Y-95044188D01*
X127350000Y-95031928D01*
X125650000Y-95031928D01*
X125525518Y-95044188D01*
X125405820Y-95080498D01*
X125295506Y-95139463D01*
X125198815Y-95218815D01*
X125197001Y-95221025D01*
X125197001Y-93842408D01*
X128353000Y-93842408D01*
X128353000Y-94117592D01*
X128406686Y-94387490D01*
X128511995Y-94641727D01*
X128664880Y-94870535D01*
X128859465Y-95065120D01*
X129088273Y-95218005D01*
X129165515Y-95250000D01*
X129088273Y-95281995D01*
X128859465Y-95434880D01*
X128664880Y-95629465D01*
X128511995Y-95858273D01*
X128406686Y-96112510D01*
X128353000Y-96382408D01*
X128353000Y-96657592D01*
X128406686Y-96927490D01*
X128511995Y-97181727D01*
X128664880Y-97410535D01*
X128859465Y-97605120D01*
X129088273Y-97758005D01*
X129165515Y-97790000D01*
X129088273Y-97821995D01*
X128859465Y-97974880D01*
X128664880Y-98169465D01*
X128511995Y-98398273D01*
X128406686Y-98652510D01*
X128353000Y-98922408D01*
X128353000Y-99197592D01*
X128406686Y-99467490D01*
X128511995Y-99721727D01*
X128664880Y-99950535D01*
X128859465Y-100145120D01*
X129088273Y-100298005D01*
X129165515Y-100330000D01*
X129088273Y-100361995D01*
X128859465Y-100514880D01*
X128664880Y-100709465D01*
X128511995Y-100938273D01*
X128406686Y-101192510D01*
X128353000Y-101462408D01*
X128353000Y-101737592D01*
X128406686Y-102007490D01*
X128511995Y-102261727D01*
X128664880Y-102490535D01*
X128859465Y-102685120D01*
X129088273Y-102838005D01*
X129165515Y-102870000D01*
X129088273Y-102901995D01*
X128859465Y-103054880D01*
X128664880Y-103249465D01*
X128511995Y-103478273D01*
X128406686Y-103732510D01*
X128353000Y-104002408D01*
X128353000Y-104277592D01*
X128406686Y-104547490D01*
X128511995Y-104801727D01*
X128664880Y-105030535D01*
X128859465Y-105225120D01*
X129088273Y-105378005D01*
X129342510Y-105483314D01*
X129612408Y-105537000D01*
X129887592Y-105537000D01*
X130157490Y-105483314D01*
X130411727Y-105378005D01*
X130640535Y-105225120D01*
X130835120Y-105030535D01*
X130988005Y-104801727D01*
X131093314Y-104547490D01*
X131147000Y-104277592D01*
X131147000Y-104002408D01*
X131093314Y-103732510D01*
X130988005Y-103478273D01*
X130835120Y-103249465D01*
X130640535Y-103054880D01*
X130411727Y-102901995D01*
X130334485Y-102870000D01*
X130411727Y-102838005D01*
X130640535Y-102685120D01*
X130835120Y-102490535D01*
X130988005Y-102261727D01*
X131093314Y-102007490D01*
X131147000Y-101737592D01*
X131147000Y-101462408D01*
X131093314Y-101192510D01*
X130988005Y-100938273D01*
X130835120Y-100709465D01*
X130640535Y-100514880D01*
X130411727Y-100361995D01*
X130334485Y-100330000D01*
X130411727Y-100298005D01*
X130640535Y-100145120D01*
X130835120Y-99950535D01*
X130988005Y-99721727D01*
X131093314Y-99467490D01*
X131147000Y-99197592D01*
X131147000Y-98922408D01*
X131093314Y-98652510D01*
X130988005Y-98398273D01*
X130835120Y-98169465D01*
X130640535Y-97974880D01*
X130411727Y-97821995D01*
X130334485Y-97790000D01*
X130411727Y-97758005D01*
X130640535Y-97605120D01*
X130835120Y-97410535D01*
X130988005Y-97181727D01*
X131093314Y-96927490D01*
X131147000Y-96657592D01*
X131147000Y-96382408D01*
X131093314Y-96112510D01*
X130988005Y-95858273D01*
X130835120Y-95629465D01*
X130640535Y-95434880D01*
X130411727Y-95281995D01*
X130334485Y-95250000D01*
X130411727Y-95218005D01*
X130640535Y-95065120D01*
X130835120Y-94870535D01*
X130988005Y-94641727D01*
X131093314Y-94387490D01*
X131147000Y-94117592D01*
X131147000Y-93842408D01*
X131093314Y-93572510D01*
X130988005Y-93318273D01*
X130835120Y-93089465D01*
X130640535Y-92894880D01*
X130411727Y-92741995D01*
X130157490Y-92636686D01*
X129887592Y-92583000D01*
X129612408Y-92583000D01*
X129342510Y-92636686D01*
X129088273Y-92741995D01*
X128859465Y-92894880D01*
X128664880Y-93089465D01*
X128511995Y-93318273D01*
X128406686Y-93572510D01*
X128353000Y-93842408D01*
X125197001Y-93842408D01*
X125197001Y-92564334D01*
X125200678Y-92527001D01*
X125186004Y-92378015D01*
X125142547Y-92234754D01*
X125071975Y-92102725D01*
X125000800Y-92015998D01*
X124977002Y-91987000D01*
X124948004Y-91963202D01*
X124716372Y-91731570D01*
X124747000Y-91577592D01*
X124747000Y-91302408D01*
X124693314Y-91032510D01*
X124588005Y-90778273D01*
X124435120Y-90549465D01*
X124240535Y-90354880D01*
X124011727Y-90201995D01*
X123757490Y-90096686D01*
X123487592Y-90043000D01*
X123212408Y-90043000D01*
X122942510Y-90096686D01*
X122688273Y-90201995D01*
X122459465Y-90354880D01*
X122264880Y-90549465D01*
X122111995Y-90778273D01*
X122006686Y-91032510D01*
X121953000Y-91302408D01*
X121953000Y-91577592D01*
X122006686Y-91847490D01*
X122111995Y-92101727D01*
X122264880Y-92330535D01*
X122459465Y-92525120D01*
X122688273Y-92678005D01*
X122765515Y-92710000D01*
X122688273Y-92741995D01*
X122459465Y-92894880D01*
X122264880Y-93089465D01*
X122177659Y-93220000D01*
X116557333Y-93220000D01*
X116520000Y-93216323D01*
X116482667Y-93220000D01*
X116371014Y-93230997D01*
X116227753Y-93274454D01*
X116095724Y-93345026D01*
X115979999Y-93439999D01*
X115956201Y-93468997D01*
X112088379Y-97336820D01*
X112059381Y-97360618D01*
X112035583Y-97389616D01*
X112035582Y-97389617D01*
X111964407Y-97476343D01*
X111893835Y-97608373D01*
X111863561Y-97708177D01*
X111850379Y-97751633D01*
X111844994Y-97806312D01*
X111835705Y-97900619D01*
X111839382Y-97937951D01*
X111839382Y-98325504D01*
X111735120Y-98169465D01*
X111540535Y-97974880D01*
X111311727Y-97821995D01*
X111234485Y-97790000D01*
X111311727Y-97758005D01*
X111540535Y-97605120D01*
X111735120Y-97410535D01*
X111888005Y-97181727D01*
X111993314Y-96927490D01*
X112047000Y-96657592D01*
X112047000Y-96382408D01*
X111993314Y-96112510D01*
X111888005Y-95858273D01*
X111735120Y-95629465D01*
X111540535Y-95434880D01*
X111311727Y-95281995D01*
X111234485Y-95250000D01*
X111311727Y-95218005D01*
X111540535Y-95065120D01*
X111735120Y-94870535D01*
X111888005Y-94641727D01*
X111993314Y-94387490D01*
X112047000Y-94117592D01*
X112047000Y-93842408D01*
X111993314Y-93572510D01*
X111888005Y-93318273D01*
X111735120Y-93089465D01*
X111540535Y-92894880D01*
X111311727Y-92741995D01*
X111057490Y-92636686D01*
X110787592Y-92583000D01*
X110512408Y-92583000D01*
X110242510Y-92636686D01*
X109988273Y-92741995D01*
X109759465Y-92894880D01*
X109564880Y-93089465D01*
X109411995Y-93318273D01*
X109306686Y-93572510D01*
X109253000Y-93842408D01*
X109253000Y-94117592D01*
X109306686Y-94387490D01*
X109411995Y-94641727D01*
X109564880Y-94870535D01*
X109759465Y-95065120D01*
X109988273Y-95218005D01*
X110065515Y-95250000D01*
X109988273Y-95281995D01*
X109759465Y-95434880D01*
X109564880Y-95629465D01*
X109411995Y-95858273D01*
X109306686Y-96112510D01*
X109253000Y-96382408D01*
X109253000Y-96657592D01*
X109306686Y-96927490D01*
X109411995Y-97181727D01*
X109564880Y-97410535D01*
X109759465Y-97605120D01*
X109988273Y-97758005D01*
X110065515Y-97790000D01*
X109988273Y-97821995D01*
X109759465Y-97974880D01*
X109564880Y-98169465D01*
X109411995Y-98398273D01*
X109306686Y-98652510D01*
X109253000Y-98922408D01*
X109253000Y-99197592D01*
X109306686Y-99467490D01*
X109411995Y-99721727D01*
X109564880Y-99950535D01*
X109759465Y-100145120D01*
X109988273Y-100298005D01*
X110065515Y-100330000D01*
X109988273Y-100361995D01*
X109759465Y-100514880D01*
X109564880Y-100709465D01*
X109411995Y-100938273D01*
X109306686Y-101192510D01*
X109253000Y-101462408D01*
X109253000Y-101737592D01*
X109306686Y-102007490D01*
X109411995Y-102261727D01*
X109564880Y-102490535D01*
X109759465Y-102685120D01*
X109988273Y-102838005D01*
X110065515Y-102870000D01*
X109988273Y-102901995D01*
X109759465Y-103054880D01*
X109564880Y-103249465D01*
X109411995Y-103478273D01*
X109306686Y-103732510D01*
X109253000Y-104002408D01*
X109253000Y-104277592D01*
X109306686Y-104547490D01*
X109309797Y-104555001D01*
X108931544Y-104555001D01*
X108985000Y-104286260D01*
X108985000Y-103993740D01*
X108927932Y-103706842D01*
X108815990Y-103436589D01*
X108653475Y-103193368D01*
X108446632Y-102986525D01*
X108272240Y-102870000D01*
X108446632Y-102753475D01*
X108653475Y-102546632D01*
X108815990Y-102303411D01*
X108927932Y-102033158D01*
X108985000Y-101746260D01*
X108985000Y-101453740D01*
X108927932Y-101166842D01*
X108815990Y-100896589D01*
X108653475Y-100653368D01*
X108446632Y-100446525D01*
X108272240Y-100330000D01*
X108446632Y-100213475D01*
X108653475Y-100006632D01*
X108815990Y-99763411D01*
X108927932Y-99493158D01*
X108985000Y-99206260D01*
X108985000Y-98913740D01*
X108927932Y-98626842D01*
X108815990Y-98356589D01*
X108653475Y-98113368D01*
X108521620Y-97981513D01*
X108594180Y-97959502D01*
X108704494Y-97900537D01*
X108801185Y-97821185D01*
X108880537Y-97724494D01*
X108939502Y-97614180D01*
X108975812Y-97494482D01*
X108988072Y-97370000D01*
X108988072Y-95670000D01*
X108975812Y-95545518D01*
X108939502Y-95425820D01*
X108880537Y-95315506D01*
X108801185Y-95218815D01*
X108704494Y-95139463D01*
X108594180Y-95080498D01*
X108474482Y-95044188D01*
X108350000Y-95031928D01*
X106650000Y-95031928D01*
X106525518Y-95044188D01*
X106405820Y-95080498D01*
X106295506Y-95139463D01*
X106198815Y-95218815D01*
X106119463Y-95315506D01*
X106060498Y-95425820D01*
X106024188Y-95545518D01*
X106011928Y-95670000D01*
X106011928Y-97370000D01*
X106024188Y-97494482D01*
X106060498Y-97614180D01*
X106119463Y-97724494D01*
X106198815Y-97821185D01*
X106295506Y-97900537D01*
X106405820Y-97959502D01*
X106478380Y-97981513D01*
X106346525Y-98113368D01*
X106184010Y-98356589D01*
X106072068Y-98626842D01*
X106015000Y-98913740D01*
X106015000Y-99206260D01*
X106072068Y-99493158D01*
X106184010Y-99763411D01*
X106346525Y-100006632D01*
X106553368Y-100213475D01*
X106727760Y-100330000D01*
X106553368Y-100446525D01*
X106346525Y-100653368D01*
X106184010Y-100896589D01*
X106072068Y-101166842D01*
X106015000Y-101453740D01*
X106015000Y-101746260D01*
X106072068Y-102033158D01*
X106184010Y-102303411D01*
X106346525Y-102546632D01*
X106553368Y-102753475D01*
X106727760Y-102870000D01*
X106553368Y-102986525D01*
X106346525Y-103193368D01*
X106184010Y-103436589D01*
X106072068Y-103706842D01*
X106015000Y-103993740D01*
X106015000Y-104286260D01*
X106072068Y-104573158D01*
X106134192Y-104723140D01*
X106071000Y-104775000D01*
X106047202Y-104803998D01*
X99503892Y-111347309D01*
X99419205Y-111290723D01*
X99258145Y-111224010D01*
X99215288Y-111215485D01*
X97009990Y-109010189D01*
X97009990Y-108160000D01*
X100017914Y-108160000D01*
X100050676Y-108163193D01*
X100115325Y-108156759D01*
X100179383Y-108150450D01*
X100179707Y-108150352D01*
X100180046Y-108150318D01*
X100242105Y-108131423D01*
X100303793Y-108112710D01*
X100304092Y-108112550D01*
X100304418Y-108112451D01*
X100361510Y-108081860D01*
X100418450Y-108051425D01*
X100418713Y-108051209D01*
X100419012Y-108051049D01*
X100468927Y-108009999D01*
X100518948Y-107968948D01*
X100519165Y-107968684D01*
X100519426Y-107968469D01*
X100560098Y-107918807D01*
X100601425Y-107868450D01*
X100601587Y-107868147D01*
X100601800Y-107867887D01*
X100631978Y-107811290D01*
X100662710Y-107753793D01*
X100662809Y-107753466D01*
X100662968Y-107753168D01*
X100681501Y-107691849D01*
X100700450Y-107629383D01*
X100700484Y-107629041D01*
X100700581Y-107628719D01*
X100706786Y-107565053D01*
X100713193Y-107500000D01*
X100709966Y-107467237D01*
X100688348Y-86279872D01*
X102265000Y-86279872D01*
X102265000Y-86720128D01*
X102350890Y-87151925D01*
X102519369Y-87558669D01*
X102763962Y-87924729D01*
X103075271Y-88236038D01*
X103441331Y-88480631D01*
X103848075Y-88649110D01*
X104279872Y-88735000D01*
X104720128Y-88735000D01*
X105151925Y-88649110D01*
X105558669Y-88480631D01*
X105924729Y-88236038D01*
X106236038Y-87924729D01*
X106480631Y-87558669D01*
X106649110Y-87151925D01*
X106735000Y-86720128D01*
X106735000Y-86279872D01*
X106649110Y-85848075D01*
X106480631Y-85441331D01*
X106236038Y-85075271D01*
X105924729Y-84763962D01*
X105558669Y-84519369D01*
X105151925Y-84350890D01*
X104720128Y-84265000D01*
X104279872Y-84265000D01*
X103848075Y-84350890D01*
X103441331Y-84519369D01*
X103075271Y-84763962D01*
X102763962Y-85075271D01*
X102519369Y-85441331D01*
X102350890Y-85848075D01*
X102265000Y-86279872D01*
X100688348Y-86279872D01*
X100675817Y-74000000D01*
X102177821Y-74000000D01*
X102261792Y-75575501D01*
X102512752Y-77133151D01*
X102927859Y-78655301D01*
X103502408Y-80124705D01*
X104229891Y-81524713D01*
X105102064Y-82839464D01*
X106109046Y-84054059D01*
X107239426Y-85154739D01*
X108480398Y-86129030D01*
X109817900Y-86965895D01*
X111236778Y-87655851D01*
X112720956Y-88191081D01*
X114253617Y-88565520D01*
X115817396Y-88774926D01*
X117394574Y-88816926D01*
X118967282Y-88691045D01*
X120517699Y-88398708D01*
X122028259Y-87943228D01*
X123481847Y-87329765D01*
X124861994Y-86565271D01*
X125268305Y-86279872D01*
X127265000Y-86279872D01*
X127265000Y-86720128D01*
X127350890Y-87151925D01*
X127519369Y-87558669D01*
X127763962Y-87924729D01*
X128075271Y-88236038D01*
X128441331Y-88480631D01*
X128848075Y-88649110D01*
X129279872Y-88735000D01*
X129720128Y-88735000D01*
X130151925Y-88649110D01*
X130558669Y-88480631D01*
X130924729Y-88236038D01*
X131236038Y-87924729D01*
X131480631Y-87558669D01*
X131649110Y-87151925D01*
X131735000Y-86720128D01*
X131735000Y-86279872D01*
X131649110Y-85848075D01*
X131480631Y-85441331D01*
X131236038Y-85075271D01*
X130924729Y-84763962D01*
X130558669Y-84519369D01*
X130151925Y-84350890D01*
X129720128Y-84265000D01*
X129279872Y-84265000D01*
X128848075Y-84350890D01*
X128441331Y-84519369D01*
X128075271Y-84763962D01*
X127763962Y-85075271D01*
X127519369Y-85441331D01*
X127350890Y-85848075D01*
X127265000Y-86279872D01*
X125268305Y-86279872D01*
X126153060Y-85658408D01*
X127340419Y-84619450D01*
X128410617Y-83460170D01*
X129351528Y-82193702D01*
X130152491Y-80834396D01*
X130804432Y-79397653D01*
X131299962Y-77899753D01*
X131633468Y-76357668D01*
X131801171Y-74788869D01*
X131801171Y-73211131D01*
X131633468Y-71642332D01*
X131299962Y-70100247D01*
X130804432Y-68602347D01*
X130152491Y-67165604D01*
X129351528Y-65806298D01*
X128410617Y-64539830D01*
X127340419Y-63380550D01*
X126153060Y-62341592D01*
X124861994Y-61434729D01*
X124582430Y-61279872D01*
X127265000Y-61279872D01*
X127265000Y-61720128D01*
X127350890Y-62151925D01*
X127519369Y-62558669D01*
X127763962Y-62924729D01*
X128075271Y-63236038D01*
X128441331Y-63480631D01*
X128848075Y-63649110D01*
X129279872Y-63735000D01*
X129720128Y-63735000D01*
X130151925Y-63649110D01*
X130558669Y-63480631D01*
X130924729Y-63236038D01*
X131236038Y-62924729D01*
X131480631Y-62558669D01*
X131649110Y-62151925D01*
X131735000Y-61720128D01*
X131735000Y-61279872D01*
X131649110Y-60848075D01*
X131480631Y-60441331D01*
X131236038Y-60075271D01*
X130924729Y-59763962D01*
X130558669Y-59519369D01*
X130151925Y-59350890D01*
X129720128Y-59265000D01*
X129279872Y-59265000D01*
X128848075Y-59350890D01*
X128441331Y-59519369D01*
X128075271Y-59763962D01*
X127763962Y-60075271D01*
X127519369Y-60441331D01*
X127350890Y-60848075D01*
X127265000Y-61279872D01*
X124582430Y-61279872D01*
X123481847Y-60670235D01*
X122028259Y-60056772D01*
X120517699Y-59601292D01*
X118967282Y-59308955D01*
X117394574Y-59183074D01*
X115817396Y-59225074D01*
X114253617Y-59434480D01*
X112720956Y-59808919D01*
X111236778Y-60344149D01*
X109817900Y-61034105D01*
X108480398Y-61870970D01*
X107239426Y-62845261D01*
X106109046Y-63945941D01*
X105102064Y-65160536D01*
X104229891Y-66475287D01*
X103502408Y-67875295D01*
X102927859Y-69344699D01*
X102512752Y-70866849D01*
X102261792Y-72424499D01*
X102177821Y-74000000D01*
X100675817Y-74000000D01*
X100662837Y-61279872D01*
X102265000Y-61279872D01*
X102265000Y-61720128D01*
X102350890Y-62151925D01*
X102519369Y-62558669D01*
X102763962Y-62924729D01*
X103075271Y-63236038D01*
X103441331Y-63480631D01*
X103848075Y-63649110D01*
X104279872Y-63735000D01*
X104720128Y-63735000D01*
X105151925Y-63649110D01*
X105558669Y-63480631D01*
X105924729Y-63236038D01*
X106236038Y-62924729D01*
X106480631Y-62558669D01*
X106649110Y-62151925D01*
X106735000Y-61720128D01*
X106735000Y-61279872D01*
X106649110Y-60848075D01*
X106480631Y-60441331D01*
X106236038Y-60075271D01*
X105924729Y-59763962D01*
X105558669Y-59519369D01*
X105151925Y-59350890D01*
X104720128Y-59265000D01*
X104279872Y-59265000D01*
X103848075Y-59350890D01*
X103441331Y-59519369D01*
X103075271Y-59763962D01*
X102763962Y-60075271D01*
X102519369Y-60441331D01*
X102350890Y-60848075D01*
X102265000Y-61279872D01*
X100662837Y-61279872D01*
X100660033Y-58532089D01*
X100663193Y-58500000D01*
X100659966Y-58467239D01*
X100659966Y-58466908D01*
X100656853Y-58435626D01*
X100650450Y-58370617D01*
X100650350Y-58370288D01*
X100650317Y-58369954D01*
X100631696Y-58308793D01*
X100612710Y-58246207D01*
X100612548Y-58245904D01*
X100612450Y-58245582D01*
X100582267Y-58189251D01*
X100551425Y-58131550D01*
X100551206Y-58131284D01*
X100551048Y-58130988D01*
X100510360Y-58081512D01*
X100468948Y-58031052D01*
X100468684Y-58030835D01*
X100468469Y-58030574D01*
X100418807Y-57989902D01*
X100368450Y-57948575D01*
X100368147Y-57948413D01*
X100367887Y-57948200D01*
X100311490Y-57918129D01*
X100253793Y-57887290D01*
X100253463Y-57887190D01*
X100253167Y-57887032D01*
X100191987Y-57868541D01*
X100129383Y-57849550D01*
X100129041Y-57849516D01*
X100128719Y-57849419D01*
X100064959Y-57843205D01*
X100032419Y-57840000D01*
X100032075Y-57840000D01*
X99999324Y-57836808D01*
X99967250Y-57840000D01*
X97839813Y-57840000D01*
X100404813Y-55275001D01*
X123247677Y-55275001D01*
X123284999Y-55278677D01*
X123322321Y-55275001D01*
X123322332Y-55275001D01*
X123433985Y-55264004D01*
X123577246Y-55220547D01*
X123709275Y-55149975D01*
X123825000Y-55055002D01*
X123848803Y-55025998D01*
X124093592Y-54781209D01*
X124313740Y-54825000D01*
X124606260Y-54825000D01*
X124893158Y-54767932D01*
X125163411Y-54655990D01*
X125406632Y-54493475D01*
X125613475Y-54286632D01*
X125775990Y-54043411D01*
X125887932Y-53773158D01*
X125945000Y-53486260D01*
X125945000Y-53193740D01*
X125887932Y-52906842D01*
X125775990Y-52636589D01*
X125613475Y-52393368D01*
X125406632Y-52186525D01*
X125163411Y-52024010D01*
X124893158Y-51912068D01*
X124606260Y-51855000D01*
X124313740Y-51855000D01*
X124026842Y-51912068D01*
X123756589Y-52024010D01*
X123513368Y-52186525D01*
X123306525Y-52393368D01*
X123144010Y-52636589D01*
X123032068Y-52906842D01*
X122975000Y-53193740D01*
X122975000Y-53486260D01*
X123018791Y-53706408D01*
X122970198Y-53755001D01*
X120811544Y-53755001D01*
X120865000Y-53486260D01*
X120865000Y-53193740D01*
X120807932Y-52906842D01*
X120695990Y-52636589D01*
X120533475Y-52393368D01*
X120326632Y-52186525D01*
X120083411Y-52024010D01*
X119813158Y-51912068D01*
X119526260Y-51855000D01*
X119233740Y-51855000D01*
X118946842Y-51912068D01*
X118676589Y-52024010D01*
X118433368Y-52186525D01*
X118226525Y-52393368D01*
X118064010Y-52636589D01*
X117952068Y-52906842D01*
X117895000Y-53193740D01*
X117895000Y-53486260D01*
X117948456Y-53755001D01*
X115731544Y-53755001D01*
X115785000Y-53486260D01*
X115785000Y-53193740D01*
X115727932Y-52906842D01*
X115615990Y-52636589D01*
X115453475Y-52393368D01*
X115246632Y-52186525D01*
X115003411Y-52024010D01*
X114733158Y-51912068D01*
X114446260Y-51855000D01*
X114153740Y-51855000D01*
X113933592Y-51898790D01*
X110698794Y-48663993D01*
X110674991Y-48634989D01*
X110559266Y-48540016D01*
X110427237Y-48469444D01*
X110283976Y-48425987D01*
X110172323Y-48414990D01*
X110172312Y-48414990D01*
X110134990Y-48411314D01*
X110097668Y-48414990D01*
X93357330Y-48414990D01*
X93320007Y-48411314D01*
X93282684Y-48414990D01*
X93282675Y-48414990D01*
X93171022Y-48425987D01*
X93027761Y-48469444D01*
X92895731Y-48540016D01*
X92845796Y-48580997D01*
X92780007Y-48634989D01*
X92756209Y-48663987D01*
X89573979Y-51846218D01*
X89544981Y-51870016D01*
X89521183Y-51899014D01*
X89521182Y-51899015D01*
X89465486Y-51966880D01*
X89333158Y-51912068D01*
X89046260Y-51855000D01*
X88753740Y-51855000D01*
X88466842Y-51912068D01*
X88196589Y-52024010D01*
X87953368Y-52186525D01*
X87746525Y-52393368D01*
X87584010Y-52636589D01*
X87472068Y-52906842D01*
X87415000Y-53193740D01*
X87415000Y-53486260D01*
X87472068Y-53773158D01*
X87584010Y-54043411D01*
X87746525Y-54286632D01*
X87953368Y-54493475D01*
X88196589Y-54655990D01*
X88466842Y-54767932D01*
X88753740Y-54825000D01*
X89046260Y-54825000D01*
X89324982Y-54769558D01*
X89324982Y-56727812D01*
X89301185Y-56698815D01*
X89204494Y-56619463D01*
X89094180Y-56560498D01*
X88974482Y-56524188D01*
X88850000Y-56511928D01*
X87150000Y-56511928D01*
X87127000Y-56514193D01*
X87127000Y-48127000D01*
X131939196Y-48127000D01*
X131664001Y-48402195D01*
G04 #@! TA.AperFunction,Conductor*
D19*
G36*
X131664001Y-48402195D02*
G01*
X131634998Y-48425998D01*
X131579870Y-48493173D01*
X131540025Y-48541723D01*
X131469454Y-48673752D01*
X131469453Y-48673753D01*
X131425996Y-48817014D01*
X131414999Y-48928667D01*
X131414999Y-48928677D01*
X131411323Y-48965999D01*
X131414999Y-49003322D01*
X131415000Y-51637667D01*
X131411323Y-51674999D01*
X131415000Y-51712332D01*
X131425997Y-51823985D01*
X131434196Y-51851014D01*
X131469453Y-51967245D01*
X131540025Y-52099275D01*
X131593964Y-52164999D01*
X131634999Y-52215000D01*
X131641487Y-52220325D01*
X131649010Y-52258145D01*
X131715723Y-52419205D01*
X131812576Y-52564155D01*
X131935845Y-52687424D01*
X132080795Y-52784277D01*
X132241855Y-52850990D01*
X132412835Y-52885000D01*
X132465001Y-52885000D01*
X132465000Y-53415344D01*
X132403368Y-53456525D01*
X132196525Y-53663368D01*
X132034010Y-53906589D01*
X131922068Y-54176842D01*
X131865000Y-54463740D01*
X131865000Y-54756260D01*
X131922068Y-55043158D01*
X132034010Y-55313411D01*
X132196525Y-55556632D01*
X132403368Y-55763475D01*
X132646589Y-55925990D01*
X132916842Y-56037932D01*
X133203740Y-56095000D01*
X133496260Y-56095000D01*
X133783158Y-56037932D01*
X134053411Y-55925990D01*
X134296632Y-55763475D01*
X134503475Y-55556632D01*
X134620000Y-55382240D01*
X134736525Y-55556632D01*
X134943368Y-55763475D01*
X135186589Y-55925990D01*
X135456842Y-56037932D01*
X135743740Y-56095000D01*
X136036260Y-56095000D01*
X136323158Y-56037932D01*
X136593411Y-55925990D01*
X136836632Y-55763475D01*
X137043475Y-55556632D01*
X137205990Y-55313411D01*
X137317932Y-55043158D01*
X137375000Y-54756260D01*
X137375000Y-54463740D01*
X137317932Y-54176842D01*
X137205990Y-53906589D01*
X137043475Y-53663368D01*
X136836632Y-53456525D01*
X136593411Y-53294010D01*
X136323158Y-53182068D01*
X136036260Y-53125000D01*
X135743740Y-53125000D01*
X135456842Y-53182068D01*
X135186589Y-53294010D01*
X134943368Y-53456525D01*
X134736525Y-53663368D01*
X134620000Y-53837760D01*
X134503475Y-53663368D01*
X134296632Y-53456525D01*
X134235000Y-53415344D01*
X134235000Y-52735000D01*
X141146531Y-52735000D01*
X141190000Y-52739281D01*
X141233469Y-52735000D01*
X141233477Y-52735000D01*
X141363490Y-52722195D01*
X141530313Y-52671589D01*
X141684059Y-52589411D01*
X141818817Y-52478817D01*
X141846534Y-52445044D01*
X143291040Y-51000539D01*
X143363740Y-51015000D01*
X143656260Y-51015000D01*
X143943158Y-50957932D01*
X144213411Y-50845990D01*
X144456632Y-50683475D01*
X144663475Y-50476632D01*
X144825990Y-50233411D01*
X144937932Y-49963158D01*
X144995000Y-49676260D01*
X144995000Y-49383740D01*
X144941544Y-49114999D01*
X147673422Y-49114999D01*
X143648961Y-53139461D01*
X143576260Y-53125000D01*
X143283740Y-53125000D01*
X142996842Y-53182068D01*
X142726589Y-53294010D01*
X142483368Y-53456525D01*
X142276525Y-53663368D01*
X142114010Y-53906589D01*
X142002068Y-54176842D01*
X141945000Y-54463740D01*
X141945000Y-54756260D01*
X142002068Y-55043158D01*
X142114010Y-55313411D01*
X142276525Y-55556632D01*
X142483368Y-55763475D01*
X142726589Y-55925990D01*
X142996842Y-56037932D01*
X143283740Y-56095000D01*
X143576260Y-56095000D01*
X143863158Y-56037932D01*
X144133411Y-55925990D01*
X144376632Y-55763475D01*
X144583475Y-55556632D01*
X144700000Y-55382240D01*
X144816525Y-55556632D01*
X145023368Y-55763475D01*
X145266589Y-55925990D01*
X145536842Y-56037932D01*
X145823740Y-56095000D01*
X146116260Y-56095000D01*
X146403158Y-56037932D01*
X146673411Y-55925990D01*
X146916632Y-55763475D01*
X147123475Y-55556632D01*
X147240000Y-55382240D01*
X147356525Y-55556632D01*
X147563368Y-55763475D01*
X147806589Y-55925990D01*
X148076842Y-56037932D01*
X148363740Y-56095000D01*
X148656260Y-56095000D01*
X148943158Y-56037932D01*
X149213411Y-55925990D01*
X149456632Y-55763475D01*
X149663475Y-55556632D01*
X149780000Y-55382240D01*
X149896525Y-55556632D01*
X150103368Y-55763475D01*
X150346589Y-55925990D01*
X150415002Y-55954327D01*
X150415002Y-57301928D01*
X149150000Y-57301928D01*
X149025518Y-57314188D01*
X148905820Y-57350498D01*
X148795506Y-57409463D01*
X148698815Y-57488815D01*
X148619463Y-57585506D01*
X148560498Y-57695820D01*
X148524188Y-57815518D01*
X148512237Y-57936864D01*
X148393964Y-57900987D01*
X148282311Y-57889990D01*
X148282300Y-57889990D01*
X148244978Y-57886314D01*
X148207656Y-57889990D01*
X134792344Y-57889990D01*
X134755021Y-57886314D01*
X134717698Y-57889990D01*
X134717689Y-57889990D01*
X134606036Y-57900987D01*
X134462775Y-57944444D01*
X134330746Y-58015016D01*
X134330744Y-58015017D01*
X134330745Y-58015017D01*
X134244018Y-58086191D01*
X134244014Y-58086195D01*
X134215021Y-58109989D01*
X134191227Y-58138982D01*
X133638987Y-58691224D01*
X133609990Y-58715021D01*
X133586192Y-58744019D01*
X133586191Y-58744020D01*
X133515016Y-58830746D01*
X133444444Y-58962776D01*
X133423582Y-59031551D01*
X133400988Y-59106036D01*
X133397031Y-59146208D01*
X133386314Y-59255022D01*
X133389991Y-59292355D01*
X133389990Y-89907656D01*
X133386314Y-89944978D01*
X133389990Y-89982300D01*
X133389990Y-89982310D01*
X133400987Y-90093963D01*
X133423582Y-90168450D01*
X133444444Y-90237224D01*
X133515016Y-90369254D01*
X133550680Y-90412710D01*
X133609989Y-90484979D01*
X133638992Y-90508781D01*
X135081217Y-91951008D01*
X135105011Y-91980001D01*
X135134004Y-92003795D01*
X135134008Y-92003799D01*
X135204697Y-92061811D01*
X135220736Y-92074974D01*
X135352765Y-92145546D01*
X135496026Y-92189003D01*
X135607679Y-92200000D01*
X135607688Y-92200000D01*
X135645011Y-92203676D01*
X135682334Y-92200000D01*
X141277659Y-92200000D01*
X141364880Y-92330535D01*
X141559465Y-92525120D01*
X141788273Y-92678005D01*
X141865515Y-92710000D01*
X141788273Y-92741995D01*
X141559465Y-92894880D01*
X141364880Y-93089465D01*
X141211995Y-93318273D01*
X141106686Y-93572510D01*
X141053000Y-93842408D01*
X141053000Y-94117592D01*
X141106686Y-94387490D01*
X141211995Y-94641727D01*
X141364880Y-94870535D01*
X141559465Y-95065120D01*
X141788273Y-95218005D01*
X141865515Y-95250000D01*
X141788273Y-95281995D01*
X141559465Y-95434880D01*
X141364880Y-95629465D01*
X141211995Y-95858273D01*
X141106686Y-96112510D01*
X141053000Y-96382408D01*
X141053000Y-96657592D01*
X141106686Y-96927490D01*
X141211995Y-97181727D01*
X141364880Y-97410535D01*
X141559465Y-97605120D01*
X141788273Y-97758005D01*
X141865515Y-97790000D01*
X141788273Y-97821995D01*
X141559465Y-97974880D01*
X141364880Y-98169465D01*
X141211995Y-98398273D01*
X141106686Y-98652510D01*
X141053000Y-98922408D01*
X141053000Y-99197592D01*
X141106686Y-99467490D01*
X141211995Y-99721727D01*
X141364880Y-99950535D01*
X141559465Y-100145120D01*
X141788273Y-100298005D01*
X141865515Y-100330000D01*
X141788273Y-100361995D01*
X141559465Y-100514880D01*
X141364880Y-100709465D01*
X141211995Y-100938273D01*
X141106686Y-101192510D01*
X141053000Y-101462408D01*
X141053000Y-101737592D01*
X141106686Y-102007490D01*
X141211995Y-102261727D01*
X141364880Y-102490535D01*
X141559465Y-102685120D01*
X141788273Y-102838005D01*
X141865515Y-102870000D01*
X141788273Y-102901995D01*
X141559465Y-103054880D01*
X141364880Y-103249465D01*
X141211995Y-103478273D01*
X141106686Y-103732510D01*
X141053000Y-104002408D01*
X141053000Y-104277592D01*
X141106686Y-104547490D01*
X141211995Y-104801727D01*
X141364880Y-105030535D01*
X141559465Y-105225120D01*
X141788273Y-105378005D01*
X141865515Y-105410000D01*
X141788273Y-105441995D01*
X141559465Y-105594880D01*
X141364880Y-105789465D01*
X141211995Y-106018273D01*
X141106686Y-106272510D01*
X141053000Y-106542408D01*
X141053000Y-106817592D01*
X141106686Y-107087490D01*
X141211995Y-107341727D01*
X141364880Y-107570535D01*
X141559465Y-107765120D01*
X141788273Y-107918005D01*
X141865515Y-107950000D01*
X141788273Y-107981995D01*
X141559465Y-108134880D01*
X141364880Y-108329465D01*
X141211995Y-108558273D01*
X141106686Y-108812510D01*
X141053000Y-109082408D01*
X141053000Y-109357592D01*
X141106686Y-109627490D01*
X141211995Y-109881727D01*
X141364880Y-110110535D01*
X141559465Y-110305120D01*
X141788273Y-110458005D01*
X142042510Y-110563314D01*
X142312408Y-110617000D01*
X142587592Y-110617000D01*
X142857490Y-110563314D01*
X143111727Y-110458005D01*
X143340535Y-110305120D01*
X143535120Y-110110535D01*
X143688005Y-109881727D01*
X143793314Y-109627490D01*
X143847000Y-109357592D01*
X143847000Y-109082408D01*
X143793314Y-108812510D01*
X143688005Y-108558273D01*
X143535120Y-108329465D01*
X143340535Y-108134880D01*
X143111727Y-107981995D01*
X143034485Y-107950000D01*
X143111727Y-107918005D01*
X143340535Y-107765120D01*
X143535120Y-107570535D01*
X143688005Y-107341727D01*
X143793314Y-107087490D01*
X143847000Y-106817592D01*
X143847000Y-106542408D01*
X143793314Y-106272510D01*
X143688005Y-106018273D01*
X143535120Y-105789465D01*
X143340535Y-105594880D01*
X143111727Y-105441995D01*
X143034485Y-105410000D01*
X143111727Y-105378005D01*
X143340535Y-105225120D01*
X143535120Y-105030535D01*
X143688005Y-104801727D01*
X143793314Y-104547490D01*
X143847000Y-104277592D01*
X143847000Y-104002408D01*
X143793314Y-103732510D01*
X143688005Y-103478273D01*
X143535120Y-103249465D01*
X143340535Y-103054880D01*
X143111727Y-102901995D01*
X143034485Y-102870000D01*
X143111727Y-102838005D01*
X143340535Y-102685120D01*
X143535120Y-102490535D01*
X143688005Y-102261727D01*
X143793314Y-102007490D01*
X143847000Y-101737592D01*
X143847000Y-101462408D01*
X143793314Y-101192510D01*
X143688005Y-100938273D01*
X143535120Y-100709465D01*
X143340535Y-100514880D01*
X143111727Y-100361995D01*
X143034485Y-100330000D01*
X143111727Y-100298005D01*
X143340535Y-100145120D01*
X143535120Y-99950535D01*
X143592548Y-99864588D01*
X143706036Y-99899013D01*
X143817689Y-99910010D01*
X143817698Y-99910010D01*
X143855021Y-99913686D01*
X143892344Y-99910010D01*
X148207656Y-99910010D01*
X148244978Y-99913686D01*
X148282300Y-99910010D01*
X148282311Y-99910010D01*
X148393964Y-99899013D01*
X148483279Y-99871920D01*
X148314002Y-100041197D01*
X148284998Y-100065000D01*
X148229870Y-100132175D01*
X148190025Y-100180725D01*
X148149423Y-100256686D01*
X148119453Y-100312755D01*
X148075996Y-100456016D01*
X148064999Y-100567669D01*
X148064999Y-100567679D01*
X148061323Y-100605001D01*
X148062308Y-100615000D01*
X147912835Y-100615000D01*
X147741855Y-100649010D01*
X147580795Y-100715723D01*
X147435845Y-100812576D01*
X147312576Y-100935845D01*
X147215723Y-101080795D01*
X147149010Y-101241855D01*
X147140485Y-101284714D01*
X146963967Y-101461232D01*
X146934969Y-101485030D01*
X146911171Y-101514028D01*
X146911170Y-101514029D01*
X146839995Y-101600755D01*
X146769423Y-101732785D01*
X146725967Y-101876046D01*
X146711293Y-102025031D01*
X146714970Y-102062363D01*
X146714969Y-109210229D01*
X143655199Y-112270000D01*
X143622341Y-112270000D01*
X143535120Y-112139465D01*
X143340535Y-111944880D01*
X143111727Y-111791995D01*
X142857490Y-111686686D01*
X142587592Y-111633000D01*
X142312408Y-111633000D01*
X142042510Y-111686686D01*
X141788273Y-111791995D01*
X141559465Y-111944880D01*
X141364880Y-112139465D01*
X141211995Y-112368273D01*
X141106686Y-112622510D01*
X141053000Y-112892408D01*
X141053000Y-113167592D01*
X141106686Y-113437490D01*
X141211995Y-113691727D01*
X141364880Y-113920535D01*
X141559465Y-114115120D01*
X141788273Y-114268005D01*
X141865515Y-114300000D01*
X141788273Y-114331995D01*
X141559465Y-114484880D01*
X141364880Y-114679465D01*
X141211995Y-114908273D01*
X141106686Y-115162510D01*
X141053000Y-115432408D01*
X141053000Y-115707592D01*
X141106686Y-115977490D01*
X141121394Y-116012999D01*
X138564578Y-116012999D01*
X132388535Y-109836957D01*
X132360818Y-109803184D01*
X132226060Y-109692590D01*
X132072314Y-109610412D01*
X131905491Y-109559806D01*
X131775478Y-109547001D01*
X131775470Y-109547001D01*
X131732001Y-109542720D01*
X131688532Y-109547001D01*
X131328580Y-109547001D01*
X131145701Y-109364122D01*
X131147000Y-109357592D01*
X131147000Y-109082408D01*
X131093314Y-108812510D01*
X130988005Y-108558273D01*
X130835120Y-108329465D01*
X130640535Y-108134880D01*
X130411727Y-107981995D01*
X130157490Y-107876686D01*
X129887592Y-107823000D01*
X129612408Y-107823000D01*
X129342510Y-107876686D01*
X129088273Y-107981995D01*
X128859465Y-108134880D01*
X128664880Y-108329465D01*
X128511995Y-108558273D01*
X128406686Y-108812510D01*
X128353000Y-109082408D01*
X128353000Y-109357592D01*
X128406686Y-109627490D01*
X128511995Y-109881727D01*
X128664880Y-110110535D01*
X128859465Y-110305120D01*
X129088273Y-110458005D01*
X129342510Y-110563314D01*
X129612408Y-110617000D01*
X129887592Y-110617000D01*
X129894122Y-110615701D01*
X130077001Y-110798580D01*
X130077002Y-111523546D01*
X130044796Y-111571745D01*
X129966775Y-111760103D01*
X129927001Y-111960062D01*
X129927001Y-112163940D01*
X129966775Y-112363899D01*
X130044796Y-112552257D01*
X130158064Y-112721775D01*
X130302227Y-112865938D01*
X130471745Y-112979206D01*
X130660103Y-113057227D01*
X130716958Y-113068536D01*
X137681469Y-120033048D01*
X137709182Y-120066816D01*
X137742950Y-120094529D01*
X137742952Y-120094531D01*
X137784730Y-120128817D01*
X137843940Y-120177410D01*
X137997686Y-120259588D01*
X138164509Y-120310194D01*
X138294522Y-120322999D01*
X138294532Y-120322999D01*
X138337998Y-120327280D01*
X138381464Y-120322999D01*
X141090676Y-120322999D01*
X141053000Y-120512408D01*
X141053000Y-120787592D01*
X141106686Y-121057490D01*
X141211995Y-121311727D01*
X141364880Y-121540535D01*
X141559465Y-121735120D01*
X141788273Y-121888005D01*
X141865515Y-121920000D01*
X141788273Y-121951995D01*
X141559465Y-122104880D01*
X141364880Y-122299465D01*
X141211995Y-122528273D01*
X141106686Y-122782510D01*
X141053000Y-123052408D01*
X141053000Y-123327592D01*
X141090676Y-123517001D01*
X137042999Y-123517001D01*
X137042999Y-120227706D01*
X137047280Y-120184237D01*
X137042999Y-120140768D01*
X137042999Y-120140761D01*
X137030194Y-120010748D01*
X137025132Y-119994059D01*
X136997371Y-119902546D01*
X136979588Y-119843924D01*
X136897410Y-119690178D01*
X136883714Y-119673490D01*
X136814531Y-119589190D01*
X136814529Y-119589188D01*
X136786816Y-119555420D01*
X136753048Y-119527707D01*
X130872297Y-113646957D01*
X130844580Y-113613184D01*
X130709822Y-113502590D01*
X130556076Y-113420412D01*
X130389253Y-113369806D01*
X130259240Y-113357001D01*
X130259232Y-113357001D01*
X130215763Y-113352720D01*
X130172294Y-113357001D01*
X129534818Y-113357001D01*
X127985000Y-111807184D01*
X127985000Y-107238454D01*
X128017205Y-107190256D01*
X128095226Y-107001898D01*
X128135000Y-106801939D01*
X128135000Y-106598061D01*
X128095226Y-106398102D01*
X128017205Y-106209744D01*
X127903937Y-106040226D01*
X127759774Y-105896063D01*
X127590256Y-105782795D01*
X127401898Y-105704774D01*
X127201939Y-105665000D01*
X126998061Y-105665000D01*
X126798102Y-105704774D01*
X126609744Y-105782795D01*
X126440226Y-105896063D01*
X126296063Y-106040226D01*
X126260000Y-106094198D01*
X126260000Y-105606354D01*
X126353740Y-105625000D01*
X126646260Y-105625000D01*
X126933158Y-105567932D01*
X127203411Y-105455990D01*
X127446632Y-105293475D01*
X127653475Y-105086632D01*
X127815990Y-104843411D01*
X127927932Y-104573158D01*
X127985000Y-104286260D01*
X127985000Y-103993740D01*
X127927932Y-103706842D01*
X127815990Y-103436589D01*
X127653475Y-103193368D01*
X127446632Y-102986525D01*
X127272240Y-102870000D01*
X127446632Y-102753475D01*
X127653475Y-102546632D01*
X127815990Y-102303411D01*
X127927932Y-102033158D01*
X127985000Y-101746260D01*
X127985000Y-101453740D01*
X127927932Y-101166842D01*
X127815990Y-100896589D01*
X127653475Y-100653368D01*
X127446632Y-100446525D01*
X127272240Y-100330000D01*
X127446632Y-100213475D01*
X127653475Y-100006632D01*
X127815990Y-99763411D01*
X127927932Y-99493158D01*
X127985000Y-99206260D01*
X127985000Y-98913740D01*
X127927932Y-98626842D01*
X127815990Y-98356589D01*
X127653475Y-98113368D01*
X127521620Y-97981513D01*
X127594180Y-97959502D01*
X127704494Y-97900537D01*
X127801185Y-97821185D01*
X127880537Y-97724494D01*
X127939502Y-97614180D01*
X127975812Y-97494482D01*
X127988072Y-97370000D01*
X127988072Y-95670000D01*
X127975812Y-95545518D01*
X127939502Y-95425820D01*
X127880537Y-95315506D01*
X127801185Y-95218815D01*
X127704494Y-95139463D01*
X127594180Y-95080498D01*
X127474482Y-95044188D01*
X127350000Y-95031928D01*
X125650000Y-95031928D01*
X125525518Y-95044188D01*
X125405820Y-95080498D01*
X125295506Y-95139463D01*
X125198815Y-95218815D01*
X125197001Y-95221025D01*
X125197001Y-93842408D01*
X128353000Y-93842408D01*
X128353000Y-94117592D01*
X128406686Y-94387490D01*
X128511995Y-94641727D01*
X128664880Y-94870535D01*
X128859465Y-95065120D01*
X129088273Y-95218005D01*
X129165515Y-95250000D01*
X129088273Y-95281995D01*
X128859465Y-95434880D01*
X128664880Y-95629465D01*
X128511995Y-95858273D01*
X128406686Y-96112510D01*
X128353000Y-96382408D01*
X128353000Y-96657592D01*
X128406686Y-96927490D01*
X128511995Y-97181727D01*
X128664880Y-97410535D01*
X128859465Y-97605120D01*
X129088273Y-97758005D01*
X129165515Y-97790000D01*
X129088273Y-97821995D01*
X128859465Y-97974880D01*
X128664880Y-98169465D01*
X128511995Y-98398273D01*
X128406686Y-98652510D01*
X128353000Y-98922408D01*
X128353000Y-99197592D01*
X128406686Y-99467490D01*
X128511995Y-99721727D01*
X128664880Y-99950535D01*
X128859465Y-100145120D01*
X129088273Y-100298005D01*
X129165515Y-100330000D01*
X129088273Y-100361995D01*
X128859465Y-100514880D01*
X128664880Y-100709465D01*
X128511995Y-100938273D01*
X128406686Y-101192510D01*
X128353000Y-101462408D01*
X128353000Y-101737592D01*
X128406686Y-102007490D01*
X128511995Y-102261727D01*
X128664880Y-102490535D01*
X128859465Y-102685120D01*
X129088273Y-102838005D01*
X129165515Y-102870000D01*
X129088273Y-102901995D01*
X128859465Y-103054880D01*
X128664880Y-103249465D01*
X128511995Y-103478273D01*
X128406686Y-103732510D01*
X128353000Y-104002408D01*
X128353000Y-104277592D01*
X128406686Y-104547490D01*
X128511995Y-104801727D01*
X128664880Y-105030535D01*
X128859465Y-105225120D01*
X129088273Y-105378005D01*
X129342510Y-105483314D01*
X129612408Y-105537000D01*
X129887592Y-105537000D01*
X130157490Y-105483314D01*
X130411727Y-105378005D01*
X130640535Y-105225120D01*
X130835120Y-105030535D01*
X130988005Y-104801727D01*
X131093314Y-104547490D01*
X131147000Y-104277592D01*
X131147000Y-104002408D01*
X131093314Y-103732510D01*
X130988005Y-103478273D01*
X130835120Y-103249465D01*
X130640535Y-103054880D01*
X130411727Y-102901995D01*
X130334485Y-102870000D01*
X130411727Y-102838005D01*
X130640535Y-102685120D01*
X130835120Y-102490535D01*
X130988005Y-102261727D01*
X131093314Y-102007490D01*
X131147000Y-101737592D01*
X131147000Y-101462408D01*
X131093314Y-101192510D01*
X130988005Y-100938273D01*
X130835120Y-100709465D01*
X130640535Y-100514880D01*
X130411727Y-100361995D01*
X130334485Y-100330000D01*
X130411727Y-100298005D01*
X130640535Y-100145120D01*
X130835120Y-99950535D01*
X130988005Y-99721727D01*
X131093314Y-99467490D01*
X131147000Y-99197592D01*
X131147000Y-98922408D01*
X131093314Y-98652510D01*
X130988005Y-98398273D01*
X130835120Y-98169465D01*
X130640535Y-97974880D01*
X130411727Y-97821995D01*
X130334485Y-97790000D01*
X130411727Y-97758005D01*
X130640535Y-97605120D01*
X130835120Y-97410535D01*
X130988005Y-97181727D01*
X131093314Y-96927490D01*
X131147000Y-96657592D01*
X131147000Y-96382408D01*
X131093314Y-96112510D01*
X130988005Y-95858273D01*
X130835120Y-95629465D01*
X130640535Y-95434880D01*
X130411727Y-95281995D01*
X130334485Y-95250000D01*
X130411727Y-95218005D01*
X130640535Y-95065120D01*
X130835120Y-94870535D01*
X130988005Y-94641727D01*
X131093314Y-94387490D01*
X131147000Y-94117592D01*
X131147000Y-93842408D01*
X131093314Y-93572510D01*
X130988005Y-93318273D01*
X130835120Y-93089465D01*
X130640535Y-92894880D01*
X130411727Y-92741995D01*
X130157490Y-92636686D01*
X129887592Y-92583000D01*
X129612408Y-92583000D01*
X129342510Y-92636686D01*
X129088273Y-92741995D01*
X128859465Y-92894880D01*
X128664880Y-93089465D01*
X128511995Y-93318273D01*
X128406686Y-93572510D01*
X128353000Y-93842408D01*
X125197001Y-93842408D01*
X125197001Y-92564334D01*
X125200678Y-92527001D01*
X125186004Y-92378015D01*
X125142547Y-92234754D01*
X125071975Y-92102725D01*
X125000800Y-92015998D01*
X124977002Y-91987000D01*
X124948004Y-91963202D01*
X124716372Y-91731570D01*
X124747000Y-91577592D01*
X124747000Y-91302408D01*
X124693314Y-91032510D01*
X124588005Y-90778273D01*
X124435120Y-90549465D01*
X124240535Y-90354880D01*
X124011727Y-90201995D01*
X123757490Y-90096686D01*
X123487592Y-90043000D01*
X123212408Y-90043000D01*
X122942510Y-90096686D01*
X122688273Y-90201995D01*
X122459465Y-90354880D01*
X122264880Y-90549465D01*
X122111995Y-90778273D01*
X122006686Y-91032510D01*
X121953000Y-91302408D01*
X121953000Y-91577592D01*
X122006686Y-91847490D01*
X122111995Y-92101727D01*
X122264880Y-92330535D01*
X122459465Y-92525120D01*
X122688273Y-92678005D01*
X122765515Y-92710000D01*
X122688273Y-92741995D01*
X122459465Y-92894880D01*
X122264880Y-93089465D01*
X122177659Y-93220000D01*
X116557333Y-93220000D01*
X116520000Y-93216323D01*
X116482667Y-93220000D01*
X116371014Y-93230997D01*
X116227753Y-93274454D01*
X116095724Y-93345026D01*
X115979999Y-93439999D01*
X115956201Y-93468997D01*
X112088379Y-97336820D01*
X112059381Y-97360618D01*
X112035583Y-97389616D01*
X112035582Y-97389617D01*
X111964407Y-97476343D01*
X111893835Y-97608373D01*
X111863561Y-97708177D01*
X111850379Y-97751633D01*
X111844994Y-97806312D01*
X111835705Y-97900619D01*
X111839382Y-97937951D01*
X111839382Y-98325504D01*
X111735120Y-98169465D01*
X111540535Y-97974880D01*
X111311727Y-97821995D01*
X111234485Y-97790000D01*
X111311727Y-97758005D01*
X111540535Y-97605120D01*
X111735120Y-97410535D01*
X111888005Y-97181727D01*
X111993314Y-96927490D01*
X112047000Y-96657592D01*
X112047000Y-96382408D01*
X111993314Y-96112510D01*
X111888005Y-95858273D01*
X111735120Y-95629465D01*
X111540535Y-95434880D01*
X111311727Y-95281995D01*
X111234485Y-95250000D01*
X111311727Y-95218005D01*
X111540535Y-95065120D01*
X111735120Y-94870535D01*
X111888005Y-94641727D01*
X111993314Y-94387490D01*
X112047000Y-94117592D01*
X112047000Y-93842408D01*
X111993314Y-93572510D01*
X111888005Y-93318273D01*
X111735120Y-93089465D01*
X111540535Y-92894880D01*
X111311727Y-92741995D01*
X111057490Y-92636686D01*
X110787592Y-92583000D01*
X110512408Y-92583000D01*
X110242510Y-92636686D01*
X109988273Y-92741995D01*
X109759465Y-92894880D01*
X109564880Y-93089465D01*
X109411995Y-93318273D01*
X109306686Y-93572510D01*
X109253000Y-93842408D01*
X109253000Y-94117592D01*
X109306686Y-94387490D01*
X109411995Y-94641727D01*
X109564880Y-94870535D01*
X109759465Y-95065120D01*
X109988273Y-95218005D01*
X110065515Y-95250000D01*
X109988273Y-95281995D01*
X109759465Y-95434880D01*
X109564880Y-95629465D01*
X109411995Y-95858273D01*
X109306686Y-96112510D01*
X109253000Y-96382408D01*
X109253000Y-96657592D01*
X109306686Y-96927490D01*
X109411995Y-97181727D01*
X109564880Y-97410535D01*
X109759465Y-97605120D01*
X109988273Y-97758005D01*
X110065515Y-97790000D01*
X109988273Y-97821995D01*
X109759465Y-97974880D01*
X109564880Y-98169465D01*
X109411995Y-98398273D01*
X109306686Y-98652510D01*
X109253000Y-98922408D01*
X109253000Y-99197592D01*
X109306686Y-99467490D01*
X109411995Y-99721727D01*
X109564880Y-99950535D01*
X109759465Y-100145120D01*
X109988273Y-100298005D01*
X110065515Y-100330000D01*
X109988273Y-100361995D01*
X109759465Y-100514880D01*
X109564880Y-100709465D01*
X109411995Y-100938273D01*
X109306686Y-101192510D01*
X109253000Y-101462408D01*
X109253000Y-101737592D01*
X109306686Y-102007490D01*
X109411995Y-102261727D01*
X109564880Y-102490535D01*
X109759465Y-102685120D01*
X109988273Y-102838005D01*
X110065515Y-102870000D01*
X109988273Y-102901995D01*
X109759465Y-103054880D01*
X109564880Y-103249465D01*
X109411995Y-103478273D01*
X109306686Y-103732510D01*
X109253000Y-104002408D01*
X109253000Y-104277592D01*
X109306686Y-104547490D01*
X109309797Y-104555001D01*
X108931544Y-104555001D01*
X108985000Y-104286260D01*
X108985000Y-103993740D01*
X108927932Y-103706842D01*
X108815990Y-103436589D01*
X108653475Y-103193368D01*
X108446632Y-102986525D01*
X108272240Y-102870000D01*
X108446632Y-102753475D01*
X108653475Y-102546632D01*
X108815990Y-102303411D01*
X108927932Y-102033158D01*
X108985000Y-101746260D01*
X108985000Y-101453740D01*
X108927932Y-101166842D01*
X108815990Y-100896589D01*
X108653475Y-100653368D01*
X108446632Y-100446525D01*
X108272240Y-100330000D01*
X108446632Y-100213475D01*
X108653475Y-100006632D01*
X108815990Y-99763411D01*
X108927932Y-99493158D01*
X108985000Y-99206260D01*
X108985000Y-98913740D01*
X108927932Y-98626842D01*
X108815990Y-98356589D01*
X108653475Y-98113368D01*
X108521620Y-97981513D01*
X108594180Y-97959502D01*
X108704494Y-97900537D01*
X108801185Y-97821185D01*
X108880537Y-97724494D01*
X108939502Y-97614180D01*
X108975812Y-97494482D01*
X108988072Y-97370000D01*
X108988072Y-95670000D01*
X108975812Y-95545518D01*
X108939502Y-95425820D01*
X108880537Y-95315506D01*
X108801185Y-95218815D01*
X108704494Y-95139463D01*
X108594180Y-95080498D01*
X108474482Y-95044188D01*
X108350000Y-95031928D01*
X106650000Y-95031928D01*
X106525518Y-95044188D01*
X106405820Y-95080498D01*
X106295506Y-95139463D01*
X106198815Y-95218815D01*
X106119463Y-95315506D01*
X106060498Y-95425820D01*
X106024188Y-95545518D01*
X106011928Y-95670000D01*
X106011928Y-97370000D01*
X106024188Y-97494482D01*
X106060498Y-97614180D01*
X106119463Y-97724494D01*
X106198815Y-97821185D01*
X106295506Y-97900537D01*
X106405820Y-97959502D01*
X106478380Y-97981513D01*
X106346525Y-98113368D01*
X106184010Y-98356589D01*
X106072068Y-98626842D01*
X106015000Y-98913740D01*
X106015000Y-99206260D01*
X106072068Y-99493158D01*
X106184010Y-99763411D01*
X106346525Y-100006632D01*
X106553368Y-100213475D01*
X106727760Y-100330000D01*
X106553368Y-100446525D01*
X106346525Y-100653368D01*
X106184010Y-100896589D01*
X106072068Y-101166842D01*
X106015000Y-101453740D01*
X106015000Y-101746260D01*
X106072068Y-102033158D01*
X106184010Y-102303411D01*
X106346525Y-102546632D01*
X106553368Y-102753475D01*
X106727760Y-102870000D01*
X106553368Y-102986525D01*
X106346525Y-103193368D01*
X106184010Y-103436589D01*
X106072068Y-103706842D01*
X106015000Y-103993740D01*
X106015000Y-104286260D01*
X106072068Y-104573158D01*
X106134192Y-104723140D01*
X106071000Y-104775000D01*
X106047202Y-104803998D01*
X99503892Y-111347309D01*
X99419205Y-111290723D01*
X99258145Y-111224010D01*
X99215288Y-111215485D01*
X97009990Y-109010189D01*
X97009990Y-108160000D01*
X100017914Y-108160000D01*
X100050676Y-108163193D01*
X100115325Y-108156759D01*
X100179383Y-108150450D01*
X100179707Y-108150352D01*
X100180046Y-108150318D01*
X100242105Y-108131423D01*
X100303793Y-108112710D01*
X100304092Y-108112550D01*
X100304418Y-108112451D01*
X100361510Y-108081860D01*
X100418450Y-108051425D01*
X100418713Y-108051209D01*
X100419012Y-108051049D01*
X100468927Y-108009999D01*
X100518948Y-107968948D01*
X100519165Y-107968684D01*
X100519426Y-107968469D01*
X100560098Y-107918807D01*
X100601425Y-107868450D01*
X100601587Y-107868147D01*
X100601800Y-107867887D01*
X100631978Y-107811290D01*
X100662710Y-107753793D01*
X100662809Y-107753466D01*
X100662968Y-107753168D01*
X100681501Y-107691849D01*
X100700450Y-107629383D01*
X100700484Y-107629041D01*
X100700581Y-107628719D01*
X100706786Y-107565053D01*
X100713193Y-107500000D01*
X100709966Y-107467237D01*
X100688348Y-86279872D01*
X102265000Y-86279872D01*
X102265000Y-86720128D01*
X102350890Y-87151925D01*
X102519369Y-87558669D01*
X102763962Y-87924729D01*
X103075271Y-88236038D01*
X103441331Y-88480631D01*
X103848075Y-88649110D01*
X104279872Y-88735000D01*
X104720128Y-88735000D01*
X105151925Y-88649110D01*
X105558669Y-88480631D01*
X105924729Y-88236038D01*
X106236038Y-87924729D01*
X106480631Y-87558669D01*
X106649110Y-87151925D01*
X106735000Y-86720128D01*
X106735000Y-86279872D01*
X106649110Y-85848075D01*
X106480631Y-85441331D01*
X106236038Y-85075271D01*
X105924729Y-84763962D01*
X105558669Y-84519369D01*
X105151925Y-84350890D01*
X104720128Y-84265000D01*
X104279872Y-84265000D01*
X103848075Y-84350890D01*
X103441331Y-84519369D01*
X103075271Y-84763962D01*
X102763962Y-85075271D01*
X102519369Y-85441331D01*
X102350890Y-85848075D01*
X102265000Y-86279872D01*
X100688348Y-86279872D01*
X100675817Y-74000000D01*
X102177821Y-74000000D01*
X102261792Y-75575501D01*
X102512752Y-77133151D01*
X102927859Y-78655301D01*
X103502408Y-80124705D01*
X104229891Y-81524713D01*
X105102064Y-82839464D01*
X106109046Y-84054059D01*
X107239426Y-85154739D01*
X108480398Y-86129030D01*
X109817900Y-86965895D01*
X111236778Y-87655851D01*
X112720956Y-88191081D01*
X114253617Y-88565520D01*
X115817396Y-88774926D01*
X117394574Y-88816926D01*
X118967282Y-88691045D01*
X120517699Y-88398708D01*
X122028259Y-87943228D01*
X123481847Y-87329765D01*
X124861994Y-86565271D01*
X125268305Y-86279872D01*
X127265000Y-86279872D01*
X127265000Y-86720128D01*
X127350890Y-87151925D01*
X127519369Y-87558669D01*
X127763962Y-87924729D01*
X128075271Y-88236038D01*
X128441331Y-88480631D01*
X128848075Y-88649110D01*
X129279872Y-88735000D01*
X129720128Y-88735000D01*
X130151925Y-88649110D01*
X130558669Y-88480631D01*
X130924729Y-88236038D01*
X131236038Y-87924729D01*
X131480631Y-87558669D01*
X131649110Y-87151925D01*
X131735000Y-86720128D01*
X131735000Y-86279872D01*
X131649110Y-85848075D01*
X131480631Y-85441331D01*
X131236038Y-85075271D01*
X130924729Y-84763962D01*
X130558669Y-84519369D01*
X130151925Y-84350890D01*
X129720128Y-84265000D01*
X129279872Y-84265000D01*
X128848075Y-84350890D01*
X128441331Y-84519369D01*
X128075271Y-84763962D01*
X127763962Y-85075271D01*
X127519369Y-85441331D01*
X127350890Y-85848075D01*
X127265000Y-86279872D01*
X125268305Y-86279872D01*
X126153060Y-85658408D01*
X127340419Y-84619450D01*
X128410617Y-83460170D01*
X129351528Y-82193702D01*
X130152491Y-80834396D01*
X130804432Y-79397653D01*
X131299962Y-77899753D01*
X131633468Y-76357668D01*
X131801171Y-74788869D01*
X131801171Y-73211131D01*
X131633468Y-71642332D01*
X131299962Y-70100247D01*
X130804432Y-68602347D01*
X130152491Y-67165604D01*
X129351528Y-65806298D01*
X128410617Y-64539830D01*
X127340419Y-63380550D01*
X126153060Y-62341592D01*
X124861994Y-61434729D01*
X124582430Y-61279872D01*
X127265000Y-61279872D01*
X127265000Y-61720128D01*
X127350890Y-62151925D01*
X127519369Y-62558669D01*
X127763962Y-62924729D01*
X128075271Y-63236038D01*
X128441331Y-63480631D01*
X128848075Y-63649110D01*
X129279872Y-63735000D01*
X129720128Y-63735000D01*
X130151925Y-63649110D01*
X130558669Y-63480631D01*
X130924729Y-63236038D01*
X131236038Y-62924729D01*
X131480631Y-62558669D01*
X131649110Y-62151925D01*
X131735000Y-61720128D01*
X131735000Y-61279872D01*
X131649110Y-60848075D01*
X131480631Y-60441331D01*
X131236038Y-60075271D01*
X130924729Y-59763962D01*
X130558669Y-59519369D01*
X130151925Y-59350890D01*
X129720128Y-59265000D01*
X129279872Y-59265000D01*
X128848075Y-59350890D01*
X128441331Y-59519369D01*
X128075271Y-59763962D01*
X127763962Y-60075271D01*
X127519369Y-60441331D01*
X127350890Y-60848075D01*
X127265000Y-61279872D01*
X124582430Y-61279872D01*
X123481847Y-60670235D01*
X122028259Y-60056772D01*
X120517699Y-59601292D01*
X118967282Y-59308955D01*
X117394574Y-59183074D01*
X115817396Y-59225074D01*
X114253617Y-59434480D01*
X112720956Y-59808919D01*
X111236778Y-60344149D01*
X109817900Y-61034105D01*
X108480398Y-61870970D01*
X107239426Y-62845261D01*
X106109046Y-63945941D01*
X105102064Y-65160536D01*
X104229891Y-66475287D01*
X103502408Y-67875295D01*
X102927859Y-69344699D01*
X102512752Y-70866849D01*
X102261792Y-72424499D01*
X102177821Y-74000000D01*
X100675817Y-74000000D01*
X100662837Y-61279872D01*
X102265000Y-61279872D01*
X102265000Y-61720128D01*
X102350890Y-62151925D01*
X102519369Y-62558669D01*
X102763962Y-62924729D01*
X103075271Y-63236038D01*
X103441331Y-63480631D01*
X103848075Y-63649110D01*
X104279872Y-63735000D01*
X104720128Y-63735000D01*
X105151925Y-63649110D01*
X105558669Y-63480631D01*
X105924729Y-63236038D01*
X106236038Y-62924729D01*
X106480631Y-62558669D01*
X106649110Y-62151925D01*
X106735000Y-61720128D01*
X106735000Y-61279872D01*
X106649110Y-60848075D01*
X106480631Y-60441331D01*
X106236038Y-60075271D01*
X105924729Y-59763962D01*
X105558669Y-59519369D01*
X105151925Y-59350890D01*
X104720128Y-59265000D01*
X104279872Y-59265000D01*
X103848075Y-59350890D01*
X103441331Y-59519369D01*
X103075271Y-59763962D01*
X102763962Y-60075271D01*
X102519369Y-60441331D01*
X102350890Y-60848075D01*
X102265000Y-61279872D01*
X100662837Y-61279872D01*
X100660033Y-58532089D01*
X100663193Y-58500000D01*
X100659966Y-58467239D01*
X100659966Y-58466908D01*
X100656853Y-58435626D01*
X100650450Y-58370617D01*
X100650350Y-58370288D01*
X100650317Y-58369954D01*
X100631696Y-58308793D01*
X100612710Y-58246207D01*
X100612548Y-58245904D01*
X100612450Y-58245582D01*
X100582267Y-58189251D01*
X100551425Y-58131550D01*
X100551206Y-58131284D01*
X100551048Y-58130988D01*
X100510360Y-58081512D01*
X100468948Y-58031052D01*
X100468684Y-58030835D01*
X100468469Y-58030574D01*
X100418807Y-57989902D01*
X100368450Y-57948575D01*
X100368147Y-57948413D01*
X100367887Y-57948200D01*
X100311490Y-57918129D01*
X100253793Y-57887290D01*
X100253463Y-57887190D01*
X100253167Y-57887032D01*
X100191987Y-57868541D01*
X100129383Y-57849550D01*
X100129041Y-57849516D01*
X100128719Y-57849419D01*
X100064959Y-57843205D01*
X100032419Y-57840000D01*
X100032075Y-57840000D01*
X99999324Y-57836808D01*
X99967250Y-57840000D01*
X97839813Y-57840000D01*
X100404813Y-55275001D01*
X123247677Y-55275001D01*
X123284999Y-55278677D01*
X123322321Y-55275001D01*
X123322332Y-55275001D01*
X123433985Y-55264004D01*
X123577246Y-55220547D01*
X123709275Y-55149975D01*
X123825000Y-55055002D01*
X123848803Y-55025998D01*
X124093592Y-54781209D01*
X124313740Y-54825000D01*
X124606260Y-54825000D01*
X124893158Y-54767932D01*
X125163411Y-54655990D01*
X125406632Y-54493475D01*
X125613475Y-54286632D01*
X125775990Y-54043411D01*
X125887932Y-53773158D01*
X125945000Y-53486260D01*
X125945000Y-53193740D01*
X125887932Y-52906842D01*
X125775990Y-52636589D01*
X125613475Y-52393368D01*
X125406632Y-52186525D01*
X125163411Y-52024010D01*
X124893158Y-51912068D01*
X124606260Y-51855000D01*
X124313740Y-51855000D01*
X124026842Y-51912068D01*
X123756589Y-52024010D01*
X123513368Y-52186525D01*
X123306525Y-52393368D01*
X123144010Y-52636589D01*
X123032068Y-52906842D01*
X122975000Y-53193740D01*
X122975000Y-53486260D01*
X123018791Y-53706408D01*
X122970198Y-53755001D01*
X120811544Y-53755001D01*
X120865000Y-53486260D01*
X120865000Y-53193740D01*
X120807932Y-52906842D01*
X120695990Y-52636589D01*
X120533475Y-52393368D01*
X120326632Y-52186525D01*
X120083411Y-52024010D01*
X119813158Y-51912068D01*
X119526260Y-51855000D01*
X119233740Y-51855000D01*
X118946842Y-51912068D01*
X118676589Y-52024010D01*
X118433368Y-52186525D01*
X118226525Y-52393368D01*
X118064010Y-52636589D01*
X117952068Y-52906842D01*
X117895000Y-53193740D01*
X117895000Y-53486260D01*
X117948456Y-53755001D01*
X115731544Y-53755001D01*
X115785000Y-53486260D01*
X115785000Y-53193740D01*
X115727932Y-52906842D01*
X115615990Y-52636589D01*
X115453475Y-52393368D01*
X115246632Y-52186525D01*
X115003411Y-52024010D01*
X114733158Y-51912068D01*
X114446260Y-51855000D01*
X114153740Y-51855000D01*
X113933592Y-51898790D01*
X110698794Y-48663993D01*
X110674991Y-48634989D01*
X110559266Y-48540016D01*
X110427237Y-48469444D01*
X110283976Y-48425987D01*
X110172323Y-48414990D01*
X110172312Y-48414990D01*
X110134990Y-48411314D01*
X110097668Y-48414990D01*
X93357330Y-48414990D01*
X93320007Y-48411314D01*
X93282684Y-48414990D01*
X93282675Y-48414990D01*
X93171022Y-48425987D01*
X93027761Y-48469444D01*
X92895731Y-48540016D01*
X92845796Y-48580997D01*
X92780007Y-48634989D01*
X92756209Y-48663987D01*
X89573979Y-51846218D01*
X89544981Y-51870016D01*
X89521183Y-51899014D01*
X89521182Y-51899015D01*
X89465486Y-51966880D01*
X89333158Y-51912068D01*
X89046260Y-51855000D01*
X88753740Y-51855000D01*
X88466842Y-51912068D01*
X88196589Y-52024010D01*
X87953368Y-52186525D01*
X87746525Y-52393368D01*
X87584010Y-52636589D01*
X87472068Y-52906842D01*
X87415000Y-53193740D01*
X87415000Y-53486260D01*
X87472068Y-53773158D01*
X87584010Y-54043411D01*
X87746525Y-54286632D01*
X87953368Y-54493475D01*
X88196589Y-54655990D01*
X88466842Y-54767932D01*
X88753740Y-54825000D01*
X89046260Y-54825000D01*
X89324982Y-54769558D01*
X89324982Y-56727812D01*
X89301185Y-56698815D01*
X89204494Y-56619463D01*
X89094180Y-56560498D01*
X88974482Y-56524188D01*
X88850000Y-56511928D01*
X87150000Y-56511928D01*
X87127000Y-56514193D01*
X87127000Y-48127000D01*
X131939196Y-48127000D01*
X131664001Y-48402195D01*
G37*
G04 #@! TD.AperFunction*
D18*
X91656672Y-112684294D02*
X91580795Y-112715723D01*
X91435845Y-112812576D01*
X91312576Y-112935845D01*
X91215723Y-113080795D01*
X91149010Y-113241855D01*
X91115000Y-113412835D01*
X91115000Y-113587165D01*
X91149010Y-113758145D01*
X91215723Y-113919205D01*
X91312576Y-114064155D01*
X91435845Y-114187424D01*
X91580795Y-114284277D01*
X91741855Y-114350990D01*
X91784714Y-114359515D01*
X93298198Y-115873000D01*
X87127000Y-115873000D01*
X87127000Y-111362674D01*
X87296589Y-111475990D01*
X87566842Y-111587932D01*
X87853740Y-111645000D01*
X88146260Y-111645000D01*
X88433158Y-111587932D01*
X88703411Y-111475990D01*
X88946632Y-111313475D01*
X89153475Y-111106632D01*
X89315990Y-110863411D01*
X89427932Y-110593158D01*
X89450762Y-110478383D01*
X91656672Y-112684294D01*
G04 #@! TA.AperFunction,Conductor*
D19*
G36*
X91656672Y-112684294D02*
G01*
X91580795Y-112715723D01*
X91435845Y-112812576D01*
X91312576Y-112935845D01*
X91215723Y-113080795D01*
X91149010Y-113241855D01*
X91115000Y-113412835D01*
X91115000Y-113587165D01*
X91149010Y-113758145D01*
X91215723Y-113919205D01*
X91312576Y-114064155D01*
X91435845Y-114187424D01*
X91580795Y-114284277D01*
X91741855Y-114350990D01*
X91784714Y-114359515D01*
X93298198Y-115873000D01*
X87127000Y-115873000D01*
X87127000Y-111362674D01*
X87296589Y-111475990D01*
X87566842Y-111587932D01*
X87853740Y-111645000D01*
X88146260Y-111645000D01*
X88433158Y-111587932D01*
X88703411Y-111475990D01*
X88946632Y-111313475D01*
X89153475Y-111106632D01*
X89315990Y-110863411D01*
X89427932Y-110593158D01*
X89450762Y-110478383D01*
X91656672Y-112684294D01*
G37*
G04 #@! TD.AperFunction*
D18*
X122264880Y-94870535D02*
X122459465Y-95065120D01*
X122688273Y-95218005D01*
X122765515Y-95250000D01*
X122688273Y-95281995D01*
X122459465Y-95434880D01*
X122264880Y-95629465D01*
X122111995Y-95858273D01*
X122006686Y-96112510D01*
X121953000Y-96382408D01*
X121953000Y-96657592D01*
X122006686Y-96927490D01*
X122111995Y-97181727D01*
X122264880Y-97410535D01*
X122459465Y-97605120D01*
X122688273Y-97758005D01*
X122765515Y-97790000D01*
X122688273Y-97821995D01*
X122459465Y-97974880D01*
X122264880Y-98169465D01*
X122111995Y-98398273D01*
X122006686Y-98652510D01*
X121953000Y-98922408D01*
X121953000Y-99197592D01*
X122006686Y-99467490D01*
X122111995Y-99721727D01*
X122264880Y-99950535D01*
X122459465Y-100145120D01*
X122688273Y-100298005D01*
X122765515Y-100330000D01*
X122688273Y-100361995D01*
X122459465Y-100514880D01*
X122264880Y-100709465D01*
X122111995Y-100938273D01*
X122006686Y-101192510D01*
X121953000Y-101462408D01*
X121953000Y-101737592D01*
X122006686Y-102007490D01*
X122111995Y-102261727D01*
X122264880Y-102490535D01*
X122459465Y-102685120D01*
X122688273Y-102838005D01*
X122765515Y-102870000D01*
X122688273Y-102901995D01*
X122459465Y-103054880D01*
X122264880Y-103249465D01*
X122111995Y-103478273D01*
X122006686Y-103732510D01*
X121953000Y-104002408D01*
X121953000Y-104277592D01*
X122006686Y-104547490D01*
X122111995Y-104801727D01*
X122264880Y-105030535D01*
X122459465Y-105225120D01*
X122688273Y-105378005D01*
X122765515Y-105410000D01*
X122688273Y-105441995D01*
X122459465Y-105594880D01*
X122264880Y-105789465D01*
X122111995Y-106018273D01*
X122006686Y-106272510D01*
X121953000Y-106542408D01*
X121953000Y-106817592D01*
X122006686Y-107087490D01*
X122111995Y-107341727D01*
X122264880Y-107570535D01*
X122459465Y-107765120D01*
X122688273Y-107918005D01*
X122765515Y-107950000D01*
X122688273Y-107981995D01*
X122459465Y-108134880D01*
X122264880Y-108329465D01*
X122111995Y-108558273D01*
X122006686Y-108812510D01*
X121953000Y-109082408D01*
X121953000Y-109357592D01*
X121983628Y-109511570D01*
X120155199Y-111340000D01*
X120055538Y-111340000D01*
X120019205Y-111315723D01*
X119858145Y-111249010D01*
X119687165Y-111215000D01*
X119512835Y-111215000D01*
X119341855Y-111249010D01*
X119180795Y-111315723D01*
X119035845Y-111412576D01*
X118912576Y-111535845D01*
X118815723Y-111680795D01*
X118749010Y-111841855D01*
X118715000Y-112012835D01*
X118715000Y-112187165D01*
X118749010Y-112358145D01*
X118815723Y-112519205D01*
X118912576Y-112664155D01*
X119035845Y-112787424D01*
X119180795Y-112884277D01*
X119341855Y-112950990D01*
X119512835Y-112985000D01*
X119687165Y-112985000D01*
X119858145Y-112950990D01*
X120019205Y-112884277D01*
X120055538Y-112860000D01*
X120243961Y-112860000D01*
X119380962Y-113722999D01*
X103997899Y-113722999D01*
X104009999Y-113662166D01*
X104009999Y-113487836D01*
X103975989Y-113316856D01*
X103909276Y-113155796D01*
X103812423Y-113010846D01*
X103689154Y-112887577D01*
X103544204Y-112790724D01*
X103383144Y-112724011D01*
X103212164Y-112690001D01*
X103037834Y-112690001D01*
X102866854Y-112724011D01*
X102705794Y-112790724D01*
X102669461Y-112815001D01*
X100185802Y-112815001D01*
X103918395Y-109082408D01*
X109253000Y-109082408D01*
X109253000Y-109357592D01*
X109306686Y-109627490D01*
X109411995Y-109881727D01*
X109564880Y-110110535D01*
X109759465Y-110305120D01*
X109988273Y-110458005D01*
X110242510Y-110563314D01*
X110512408Y-110617000D01*
X110787592Y-110617000D01*
X111057490Y-110563314D01*
X111311727Y-110458005D01*
X111540535Y-110305120D01*
X111735120Y-110110535D01*
X111888005Y-109881727D01*
X111993314Y-109627490D01*
X112047000Y-109357592D01*
X112047000Y-109082408D01*
X111993314Y-108812510D01*
X111888005Y-108558273D01*
X111735120Y-108329465D01*
X111540535Y-108134880D01*
X111311727Y-107981995D01*
X111057490Y-107876686D01*
X110787592Y-107823000D01*
X110512408Y-107823000D01*
X110242510Y-107876686D01*
X109988273Y-107981995D01*
X109759465Y-108134880D01*
X109564880Y-108329465D01*
X109411995Y-108558273D01*
X109306686Y-108812510D01*
X109253000Y-109082408D01*
X103918395Y-109082408D01*
X106925803Y-106075001D01*
X111046439Y-106075001D01*
X111083761Y-106078677D01*
X111121083Y-106075001D01*
X111121094Y-106075001D01*
X111232747Y-106064004D01*
X111376008Y-106020547D01*
X111508037Y-105949975D01*
X111623762Y-105855002D01*
X111647565Y-105825998D01*
X113110385Y-104363179D01*
X113139382Y-104339382D01*
X113234355Y-104223657D01*
X113304927Y-104091628D01*
X113348384Y-103948367D01*
X113359381Y-103836714D01*
X113359381Y-103836705D01*
X113363057Y-103799382D01*
X113359381Y-103762059D01*
X113359381Y-98215420D01*
X116834802Y-94740000D01*
X122177659Y-94740000D01*
X122264880Y-94870535D01*
G04 #@! TA.AperFunction,Conductor*
D19*
G36*
X122264880Y-94870535D02*
G01*
X122459465Y-95065120D01*
X122688273Y-95218005D01*
X122765515Y-95250000D01*
X122688273Y-95281995D01*
X122459465Y-95434880D01*
X122264880Y-95629465D01*
X122111995Y-95858273D01*
X122006686Y-96112510D01*
X121953000Y-96382408D01*
X121953000Y-96657592D01*
X122006686Y-96927490D01*
X122111995Y-97181727D01*
X122264880Y-97410535D01*
X122459465Y-97605120D01*
X122688273Y-97758005D01*
X122765515Y-97790000D01*
X122688273Y-97821995D01*
X122459465Y-97974880D01*
X122264880Y-98169465D01*
X122111995Y-98398273D01*
X122006686Y-98652510D01*
X121953000Y-98922408D01*
X121953000Y-99197592D01*
X122006686Y-99467490D01*
X122111995Y-99721727D01*
X122264880Y-99950535D01*
X122459465Y-100145120D01*
X122688273Y-100298005D01*
X122765515Y-100330000D01*
X122688273Y-100361995D01*
X122459465Y-100514880D01*
X122264880Y-100709465D01*
X122111995Y-100938273D01*
X122006686Y-101192510D01*
X121953000Y-101462408D01*
X121953000Y-101737592D01*
X122006686Y-102007490D01*
X122111995Y-102261727D01*
X122264880Y-102490535D01*
X122459465Y-102685120D01*
X122688273Y-102838005D01*
X122765515Y-102870000D01*
X122688273Y-102901995D01*
X122459465Y-103054880D01*
X122264880Y-103249465D01*
X122111995Y-103478273D01*
X122006686Y-103732510D01*
X121953000Y-104002408D01*
X121953000Y-104277592D01*
X122006686Y-104547490D01*
X122111995Y-104801727D01*
X122264880Y-105030535D01*
X122459465Y-105225120D01*
X122688273Y-105378005D01*
X122765515Y-105410000D01*
X122688273Y-105441995D01*
X122459465Y-105594880D01*
X122264880Y-105789465D01*
X122111995Y-106018273D01*
X122006686Y-106272510D01*
X121953000Y-106542408D01*
X121953000Y-106817592D01*
X122006686Y-107087490D01*
X122111995Y-107341727D01*
X122264880Y-107570535D01*
X122459465Y-107765120D01*
X122688273Y-107918005D01*
X122765515Y-107950000D01*
X122688273Y-107981995D01*
X122459465Y-108134880D01*
X122264880Y-108329465D01*
X122111995Y-108558273D01*
X122006686Y-108812510D01*
X121953000Y-109082408D01*
X121953000Y-109357592D01*
X121983628Y-109511570D01*
X120155199Y-111340000D01*
X120055538Y-111340000D01*
X120019205Y-111315723D01*
X119858145Y-111249010D01*
X119687165Y-111215000D01*
X119512835Y-111215000D01*
X119341855Y-111249010D01*
X119180795Y-111315723D01*
X119035845Y-111412576D01*
X118912576Y-111535845D01*
X118815723Y-111680795D01*
X118749010Y-111841855D01*
X118715000Y-112012835D01*
X118715000Y-112187165D01*
X118749010Y-112358145D01*
X118815723Y-112519205D01*
X118912576Y-112664155D01*
X119035845Y-112787424D01*
X119180795Y-112884277D01*
X119341855Y-112950990D01*
X119512835Y-112985000D01*
X119687165Y-112985000D01*
X119858145Y-112950990D01*
X120019205Y-112884277D01*
X120055538Y-112860000D01*
X120243961Y-112860000D01*
X119380962Y-113722999D01*
X103997899Y-113722999D01*
X104009999Y-113662166D01*
X104009999Y-113487836D01*
X103975989Y-113316856D01*
X103909276Y-113155796D01*
X103812423Y-113010846D01*
X103689154Y-112887577D01*
X103544204Y-112790724D01*
X103383144Y-112724011D01*
X103212164Y-112690001D01*
X103037834Y-112690001D01*
X102866854Y-112724011D01*
X102705794Y-112790724D01*
X102669461Y-112815001D01*
X100185802Y-112815001D01*
X103918395Y-109082408D01*
X109253000Y-109082408D01*
X109253000Y-109357592D01*
X109306686Y-109627490D01*
X109411995Y-109881727D01*
X109564880Y-110110535D01*
X109759465Y-110305120D01*
X109988273Y-110458005D01*
X110242510Y-110563314D01*
X110512408Y-110617000D01*
X110787592Y-110617000D01*
X111057490Y-110563314D01*
X111311727Y-110458005D01*
X111540535Y-110305120D01*
X111735120Y-110110535D01*
X111888005Y-109881727D01*
X111993314Y-109627490D01*
X112047000Y-109357592D01*
X112047000Y-109082408D01*
X111993314Y-108812510D01*
X111888005Y-108558273D01*
X111735120Y-108329465D01*
X111540535Y-108134880D01*
X111311727Y-107981995D01*
X111057490Y-107876686D01*
X110787592Y-107823000D01*
X110512408Y-107823000D01*
X110242510Y-107876686D01*
X109988273Y-107981995D01*
X109759465Y-108134880D01*
X109564880Y-108329465D01*
X109411995Y-108558273D01*
X109306686Y-108812510D01*
X109253000Y-109082408D01*
X103918395Y-109082408D01*
X106925803Y-106075001D01*
X111046439Y-106075001D01*
X111083761Y-106078677D01*
X111121083Y-106075001D01*
X111121094Y-106075001D01*
X111232747Y-106064004D01*
X111376008Y-106020547D01*
X111508037Y-105949975D01*
X111623762Y-105855002D01*
X111647565Y-105825998D01*
X113110385Y-104363179D01*
X113139382Y-104339382D01*
X113234355Y-104223657D01*
X113304927Y-104091628D01*
X113348384Y-103948367D01*
X113359381Y-103836714D01*
X113359381Y-103836705D01*
X113363057Y-103799382D01*
X113359381Y-103762059D01*
X113359381Y-98215420D01*
X116834802Y-94740000D01*
X122177659Y-94740000D01*
X122264880Y-94870535D01*
G37*
G04 #@! TD.AperFunction*
D18*
X89240000Y-104262862D02*
X89153475Y-104133368D01*
X88946632Y-103926525D01*
X88703411Y-103764010D01*
X88433158Y-103652068D01*
X88146260Y-103595000D01*
X87853740Y-103595000D01*
X87566842Y-103652068D01*
X87296589Y-103764010D01*
X87127000Y-103877326D01*
X87127000Y-101485807D01*
X87150000Y-101488072D01*
X88850000Y-101488072D01*
X88974482Y-101475812D01*
X89094180Y-101439502D01*
X89204494Y-101380537D01*
X89240000Y-101351398D01*
X89240000Y-104262862D01*
G04 #@! TA.AperFunction,Conductor*
D19*
G36*
X89240000Y-104262862D02*
G01*
X89153475Y-104133368D01*
X88946632Y-103926525D01*
X88703411Y-103764010D01*
X88433158Y-103652068D01*
X88146260Y-103595000D01*
X87853740Y-103595000D01*
X87566842Y-103652068D01*
X87296589Y-103764010D01*
X87127000Y-103877326D01*
X87127000Y-101485807D01*
X87150000Y-101488072D01*
X88850000Y-101488072D01*
X88974482Y-101475812D01*
X89094180Y-101439502D01*
X89204494Y-101380537D01*
X89240000Y-101351398D01*
X89240000Y-104262862D01*
G37*
G04 #@! TD.AperFunction*
D18*
X87150000Y-87488072D02*
X88236493Y-87488072D01*
X88539991Y-87791570D01*
X88539991Y-89696319D01*
X88433158Y-89652068D01*
X88146260Y-89595000D01*
X87853740Y-89595000D01*
X87566842Y-89652068D01*
X87296589Y-89764010D01*
X87127000Y-89877326D01*
X87127000Y-87485807D01*
X87150000Y-87488072D01*
G04 #@! TA.AperFunction,Conductor*
D19*
G36*
X87150000Y-87488072D02*
G01*
X88236493Y-87488072D01*
X88539991Y-87791570D01*
X88539991Y-89696319D01*
X88433158Y-89652068D01*
X88146260Y-89595000D01*
X87853740Y-89595000D01*
X87566842Y-89652068D01*
X87296589Y-89764010D01*
X87127000Y-89877326D01*
X87127000Y-87485807D01*
X87150000Y-87488072D01*
G37*
G04 #@! TD.AperFunction*
D18*
X87150000Y-73488072D02*
X88760350Y-73488072D01*
X88704952Y-73543470D01*
X88671185Y-73571182D01*
X88643472Y-73604950D01*
X88643469Y-73604953D01*
X88560591Y-73705940D01*
X88478413Y-73859686D01*
X88427806Y-74026509D01*
X88410720Y-74199999D01*
X88415002Y-74243478D01*
X88415002Y-75648456D01*
X88146260Y-75595000D01*
X87853740Y-75595000D01*
X87566842Y-75652068D01*
X87296589Y-75764010D01*
X87127000Y-75877326D01*
X87127000Y-73485807D01*
X87150000Y-73488072D01*
G04 #@! TA.AperFunction,Conductor*
D19*
G36*
X87150000Y-73488072D02*
G01*
X88760350Y-73488072D01*
X88704952Y-73543470D01*
X88671185Y-73571182D01*
X88643472Y-73604950D01*
X88643469Y-73604953D01*
X88560591Y-73705940D01*
X88478413Y-73859686D01*
X88427806Y-74026509D01*
X88410720Y-74199999D01*
X88415002Y-74243478D01*
X88415002Y-75648456D01*
X88146260Y-75595000D01*
X87853740Y-75595000D01*
X87566842Y-75652068D01*
X87296589Y-75764010D01*
X87127000Y-75877326D01*
X87127000Y-73485807D01*
X87150000Y-73488072D01*
G37*
G04 #@! TD.AperFunction*
D18*
X89324981Y-62398296D02*
X89315990Y-62376589D01*
X89153475Y-62133368D01*
X88946632Y-61926525D01*
X88703411Y-61764010D01*
X88433158Y-61652068D01*
X88146260Y-61595000D01*
X87853740Y-61595000D01*
X87566842Y-61652068D01*
X87296589Y-61764010D01*
X87127000Y-61877326D01*
X87127000Y-59485807D01*
X87150000Y-59488072D01*
X88850000Y-59488072D01*
X88974482Y-59475812D01*
X89094180Y-59439502D01*
X89204494Y-59380537D01*
X89301185Y-59301185D01*
X89324982Y-59272189D01*
X89324981Y-62398296D01*
G04 #@! TA.AperFunction,Conductor*
D19*
G36*
X89324981Y-62398296D02*
G01*
X89315990Y-62376589D01*
X89153475Y-62133368D01*
X88946632Y-61926525D01*
X88703411Y-61764010D01*
X88433158Y-61652068D01*
X88146260Y-61595000D01*
X87853740Y-61595000D01*
X87566842Y-61652068D01*
X87296589Y-61764010D01*
X87127000Y-61877326D01*
X87127000Y-59485807D01*
X87150000Y-59488072D01*
X88850000Y-59488072D01*
X88974482Y-59475812D01*
X89094180Y-59439502D01*
X89204494Y-59380537D01*
X89301185Y-59301185D01*
X89324982Y-59272189D01*
X89324981Y-62398296D01*
G37*
G04 #@! TD.AperFunction*
D18*
X107778790Y-52973592D02*
X107735000Y-53193740D01*
X107735000Y-53486260D01*
X107788456Y-53755001D01*
X105571544Y-53755001D01*
X105625000Y-53486260D01*
X105625000Y-53193740D01*
X105567932Y-52906842D01*
X105455990Y-52636589D01*
X105293475Y-52393368D01*
X105086632Y-52186525D01*
X104843411Y-52024010D01*
X104573158Y-51912068D01*
X104286260Y-51855000D01*
X103993740Y-51855000D01*
X103773592Y-51898791D01*
X103528803Y-51654002D01*
X103505000Y-51624998D01*
X103389275Y-51530025D01*
X103257246Y-51459453D01*
X103113985Y-51415996D01*
X103002332Y-51404999D01*
X103002321Y-51404999D01*
X102964999Y-51401323D01*
X102927677Y-51404999D01*
X97244800Y-51404999D01*
X98264801Y-50384999D01*
X105190198Y-50384999D01*
X107778790Y-52973592D01*
G04 #@! TA.AperFunction,Conductor*
D19*
G36*
X107778790Y-52973592D02*
G01*
X107735000Y-53193740D01*
X107735000Y-53486260D01*
X107788456Y-53755001D01*
X105571544Y-53755001D01*
X105625000Y-53486260D01*
X105625000Y-53193740D01*
X105567932Y-52906842D01*
X105455990Y-52636589D01*
X105293475Y-52393368D01*
X105086632Y-52186525D01*
X104843411Y-52024010D01*
X104573158Y-51912068D01*
X104286260Y-51855000D01*
X103993740Y-51855000D01*
X103773592Y-51898791D01*
X103528803Y-51654002D01*
X103505000Y-51624998D01*
X103389275Y-51530025D01*
X103257246Y-51459453D01*
X103113985Y-51415996D01*
X103002332Y-51404999D01*
X103002321Y-51404999D01*
X102964999Y-51401323D01*
X102927677Y-51404999D01*
X97244800Y-51404999D01*
X98264801Y-50384999D01*
X105190198Y-50384999D01*
X107778790Y-52973592D01*
G37*
G04 #@! TD.AperFunction*
D18*
X112858790Y-52973592D02*
X112815000Y-53193740D01*
X112815000Y-53486260D01*
X112868456Y-53755001D01*
X110651544Y-53755001D01*
X110705000Y-53486260D01*
X110705000Y-53193740D01*
X110647932Y-52906842D01*
X110535990Y-52636589D01*
X110373475Y-52393368D01*
X110166632Y-52186525D01*
X109923411Y-52024010D01*
X109653158Y-51912068D01*
X109366260Y-51855000D01*
X109073740Y-51855000D01*
X108853592Y-51898790D01*
X106889791Y-49934990D01*
X109820189Y-49934990D01*
X112858790Y-52973592D01*
G04 #@! TA.AperFunction,Conductor*
D19*
G36*
X112858790Y-52973592D02*
G01*
X112815000Y-53193740D01*
X112815000Y-53486260D01*
X112868456Y-53755001D01*
X110651544Y-53755001D01*
X110705000Y-53486260D01*
X110705000Y-53193740D01*
X110647932Y-52906842D01*
X110535990Y-52636589D01*
X110373475Y-52393368D01*
X110166632Y-52186525D01*
X109923411Y-52024010D01*
X109653158Y-51912068D01*
X109366260Y-51855000D01*
X109073740Y-51855000D01*
X108853592Y-51898790D01*
X106889791Y-49934990D01*
X109820189Y-49934990D01*
X112858790Y-52973592D01*
G37*
G04 #@! TD.AperFunction*
D18*
X95285196Y-51215001D02*
X93643322Y-51215001D01*
X93605997Y-51211325D01*
X93568672Y-51215001D01*
X93568664Y-51215001D01*
X93457011Y-51225998D01*
X93313750Y-51269455D01*
X93181721Y-51340027D01*
X93065996Y-51435000D01*
X93042198Y-51463998D01*
X90844981Y-53661216D01*
X90844981Y-52724818D01*
X93634810Y-49934990D01*
X96565206Y-49934990D01*
X95285196Y-51215001D01*
G04 #@! TA.AperFunction,Conductor*
D19*
G36*
X95285196Y-51215001D02*
G01*
X93643322Y-51215001D01*
X93605997Y-51211325D01*
X93568672Y-51215001D01*
X93568664Y-51215001D01*
X93457011Y-51225998D01*
X93313750Y-51269455D01*
X93181721Y-51340027D01*
X93065996Y-51435000D01*
X93042198Y-51463998D01*
X90844981Y-53661216D01*
X90844981Y-52724818D01*
X93634810Y-49934990D01*
X96565206Y-49934990D01*
X95285196Y-51215001D01*
G37*
G04 #@! TD.AperFunction*
D18*
X157115012Y-49224812D02*
X157115012Y-52781208D01*
X155760000Y-51426197D01*
X155760000Y-49158320D01*
X155763676Y-49120997D01*
X155760000Y-49083674D01*
X155760000Y-49083665D01*
X155749003Y-48972012D01*
X155705546Y-48828751D01*
X155634974Y-48696722D01*
X155608931Y-48664989D01*
X156555190Y-48664989D01*
X157115012Y-49224812D01*
G04 #@! TA.AperFunction,Conductor*
D19*
G36*
X157115012Y-49224812D02*
G01*
X157115012Y-52781208D01*
X155760000Y-51426197D01*
X155760000Y-49158320D01*
X155763676Y-49120997D01*
X155760000Y-49083674D01*
X155760000Y-49083665D01*
X155749003Y-48972012D01*
X155705546Y-48828751D01*
X155634974Y-48696722D01*
X155608931Y-48664989D01*
X156555190Y-48664989D01*
X157115012Y-49224812D01*
G37*
G04 #@! TD.AperFunction*
M02*
