<?xml version="1.0" encoding="utf-8" standalone="no"?>
<!DOCTYPE svg PUBLIC "-//W3C//DTD SVG 1.1//EN" "http://www.w3.org/Graphics/SVG/1.1/DTD/svg11.dtd">

<svg width="210mm" height="297mm" viewBox="0 0 210 297" xmlns="http://www.w3.org/2000/svg" xmlns:xlink="http://www.w3.org/1999/xlink" version="1.1" style="stroke:black; fill:none; stroke-width:0.5pt; stroke-linejoin:round; text-anchor:middle" font-family="Helvetica, Arial, FreeSans, Sans, sans, sans-serif">

<g>

<rect x="6.0" y="16.5" width="33.0" height="33.0" fill="black" stroke="none" />

<rect x="6.0" y="82.5" width="33.0" height="33.0" fill="black" stroke="none" />

<rect x="6.0" y="148.5" width="33.0" height="33.0" fill="black" stroke="none" />

<rect x="6.0" y="214.5" width="33.0" height="33.0" fill="black" stroke="none" />

<rect x="39.0" y="49.5" width="33.0" height="33.0" fill="black" stroke="none" />

<rect x="39.0" y="115.5" width="33.0" height="33.0" fill="black" stroke="none" />

<rect x="39.0" y="181.5" width="33.0" height="33.0" fill="black" stroke="none" />

<rect x="39.0" y="247.5" width="33.0" height="33.0" fill="black" stroke="none" />

<rect x="72.0" y="16.5" width="33.0" height="33.0" fill="black" stroke="none" />

<rect x="72.0" y="82.5" width="33.0" height="33.0" fill="black" stroke="none" />

<rect x="72.0" y="148.5" width="33.0" height="33.0" fill="black" stroke="none" />

<rect x="72.0" y="214.5" width="33.0" height="33.0" fill="black" stroke="none" />

<rect x="105.0" y="49.5" width="33.0" height="33.0" fill="black" stroke="none" />

<rect x="105.0" y="115.5" width="33.0" height="33.0" fill="black" stroke="none" />

<rect x="105.0" y="181.5" width="33.0" height="33.0" fill="black" stroke="none" />

<rect x="105.0" y="247.5" width="33.0" height="33.0" fill="black" stroke="none" />

<rect x="138.0" y="16.5" width="33.0" height="33.0" fill="black" stroke="none" />

<rect x="138.0" y="82.5" width="33.0" height="33.0" fill="black" stroke="none" />

<rect x="138.0" y="148.5" width="33.0" height="33.0" fill="black" stroke="none" />

<rect x="138.0" y="214.5" width="33.0" height="33.0" fill="black" stroke="none" />

<rect x="171.0" y="49.5" width="33.0" height="33.0" fill="black" stroke="none" />

<rect x="171.0" y="115.5" width="33.0" height="33.0" fill="black" stroke="none" />

<rect x="171.0" y="181.5" width="33.0" height="33.0" fill="black" stroke="none" />

<rect x="171.0" y="247.5" width="33.0" height="33.0" fill="black" stroke="none" />

</g>

</svg>

